solid OpenSCAD_Model
  facet normal -0.896997 0.431866 -0.0942781
    outer loop
      vertex -17.0449 1.564 8.07744
      vertex -18 0 10
      vertex -17.247 1.564 10
    endloop
  endfacet
  facet normal -0.896997 0.431866 0.0942782
    outer loop
      vertex -17.247 1.564 10
      vertex -18 0 10
      vertex -17.7815 4.61657e-16 12.0791
    endloop
  endfacet
  facet normal -0.896997 -0.431866 0.0942782
    outer loop
      vertex -17.7815 4.61657e-16 12.0791
      vertex -18 0 10
      vertex -17.0449 -1.564 11.9226
    endloop
  endfacet
  facet normal -0.896997 -0.431866 0.0942781
    outer loop
      vertex -17.0449 -1.564 11.9226
      vertex -18 0 10
      vertex -17.247 -1.564 10
    endloop
  endfacet
  facet normal -0.896997 -0.431866 -0.0942782
    outer loop
      vertex -17.247 -1.564 10
      vertex -18 0 10
      vertex -17.7815 -4.61657e-16 7.92088
    endloop
  endfacet
  facet normal -0.896997 0.431866 -0.0942782
    outer loop
      vertex -17.7815 -4.61657e-16 7.92088
      vertex -18 0 10
      vertex -17.0449 1.564 8.07744
    endloop
  endfacet
  facet normal -0.222357 0.974685 -0.0233707
    outer loop
      vertex -17.0449 1.564 8.07744
      vertex -17.247 1.564 10
      vertex -15.3899 1.95 8.42923
    endloop
  endfacet
  facet normal -0.857794 0.431866 -0.278714
    outer loop
      vertex -16.4476 1.564 6.23891
      vertex -17.7815 -4.61657e-16 7.92088
      vertex -17.0449 1.564 8.07744
    endloop
  endfacet
  facet normal -0.212639 0.974685 -0.0690906
    outer loop
      vertex -16.4476 1.564 6.23891
      vertex -17.0449 1.564 8.07744
      vertex -14.9018 1.95 6.9271
    endloop
  endfacet
  facet normal -0.212639 0.974685 -0.0690906
    outer loop
      vertex -14.9018 1.95 6.9271
      vertex -17.0449 1.564 8.07744
      vertex -15.3899 1.95 8.42923
    endloop
  endfacet
  facet normal -0.222357 0.974685 -0.0233707
    outer loop
      vertex -15.3899 1.95 8.42923
      vertex -17.247 1.564 10
      vertex -15.555 1.95 10
    endloop
  endfacet
  facet normal -0.222357 0.974685 0.0233707
    outer loop
      vertex -15.555 1.95 10
      vertex -17.247 1.564 10
      vertex -17.0449 1.564 11.9226
    endloop
  endfacet
  facet normal -0.896997 0.431866 0.0942781
    outer loop
      vertex -17.247 1.564 10
      vertex -17.7815 4.61657e-16 12.0791
      vertex -17.0449 1.564 11.9226
    endloop
  endfacet
  facet normal -0.857794 0.431866 0.278714
    outer loop
      vertex -17.0449 1.564 11.9226
      vertex -17.7815 4.61657e-16 12.0791
      vertex -17.1355 9.03137e-16 14.0674
    endloop
  endfacet
  facet normal -0.857794 -0.431866 0.278714
    outer loop
      vertex -17.1355 9.03137e-16 14.0674
      vertex -17.7815 4.61657e-16 12.0791
      vertex -16.4476 -1.564 13.7611
    endloop
  endfacet
  facet normal -0.857794 -0.431866 0.278714
    outer loop
      vertex -16.4476 -1.564 13.7611
      vertex -17.7815 4.61657e-16 12.0791
      vertex -17.0449 -1.564 11.9226
    endloop
  endfacet
  facet normal -0.212639 -0.974685 0.0690906
    outer loop
      vertex -16.4476 -1.564 13.7611
      vertex -17.0449 -1.564 11.9226
      vertex -14.9018 -1.95 13.0729
    endloop
  endfacet
  facet normal -0.212639 -0.974685 0.0690906
    outer loop
      vertex -14.9018 -1.95 13.0729
      vertex -17.0449 -1.564 11.9226
      vertex -15.3899 -1.95 11.5708
    endloop
  endfacet
  facet normal -0.222357 -0.974685 0.0233707
    outer loop
      vertex -17.0449 -1.564 11.9226
      vertex -17.247 -1.564 10
      vertex -15.3899 -1.95 11.5708
    endloop
  endfacet
  facet normal -0.222357 -0.974685 0.0233707
    outer loop
      vertex -15.3899 -1.95 11.5708
      vertex -17.247 -1.564 10
      vertex -15.555 -1.95 10
    endloop
  endfacet
  facet normal -0.222357 -0.974685 -0.0233707
    outer loop
      vertex -15.555 -1.95 10
      vertex -17.247 -1.564 10
      vertex -17.0449 -1.564 8.07744
    endloop
  endfacet
  facet normal -0.896997 -0.431866 -0.0942781
    outer loop
      vertex -17.247 -1.564 10
      vertex -17.7815 -4.61657e-16 7.92088
      vertex -17.0449 -1.564 8.07744
    endloop
  endfacet
  facet normal -0.857794 -0.431866 -0.278714
    outer loop
      vertex -17.0449 -1.564 8.07744
      vertex -17.7815 -4.61657e-16 7.92088
      vertex -17.1355 -9.03137e-16 5.93263
    endloop
  endfacet
  facet normal -0.857794 0.431866 -0.278714
    outer loop
      vertex -17.1355 -9.03137e-16 5.93263
      vertex -17.7815 -4.61657e-16 7.92088
      vertex -16.4476 1.564 6.23891
    endloop
  endfacet
  facet normal 0.622095 0.780206 0.0653849
    outer loop
      vertex -15.3899 1.95 8.42923
      vertex -15.555 1.95 10
      vertex -14.0626 0.868 8.71136
    endloop
  endfacet
  facet normal 0.594907 0.780206 0.193297
    outer loop
      vertex -14.9018 1.95 6.9271
      vertex -15.3899 1.95 8.42923
      vertex -13.6622 0.868 7.47905
    endloop
  endfacet
  facet normal 0.594907 0.780206 0.193297
    outer loop
      vertex -13.6622 0.868 7.47905
      vertex -15.3899 1.95 8.42923
      vertex -14.0626 0.868 8.71136
    endloop
  endfacet
  facet normal -0.781101 0.431866 -0.450969
    outer loop
      vertex -15.481 1.564 4.56475
      vertex -17.1355 -9.03137e-16 5.93263
      vertex -16.4476 1.564 6.23891
    endloop
  endfacet
  facet normal -0.193628 0.974685 -0.111791
    outer loop
      vertex -15.481 1.564 4.56475
      vertex -16.4476 1.564 6.23891
      vertex -14.1121 1.95 5.55928
    endloop
  endfacet
  facet normal -0.193628 0.974685 -0.111791
    outer loop
      vertex -14.1121 1.95 5.55928
      vertex -16.4476 1.564 6.23891
      vertex -14.9018 1.95 6.9271
    endloop
  endfacet
  facet normal 0.541718 0.780207 0.312761
    outer loop
      vertex -14.1121 1.95 5.55928
      vertex -14.9018 1.95 6.9271
      vertex -13.0143 0.868 6.35691
    endloop
  endfacet
  facet normal 0.541718 0.780206 0.312761
    outer loop
      vertex -13.0143 0.868 6.35691
      vertex -14.9018 1.95 6.9271
      vertex -13.6622 0.868 7.47905
    endloop
  endfacet
  facet normal 0.622095 0.780206 0.0653848
    outer loop
      vertex -14.0626 0.868 8.71136
      vertex -15.555 1.95 10
      vertex -14.198 0.868 10
    endloop
  endfacet
  facet normal 0.622095 0.780206 -0.0653849
    outer loop
      vertex -14.198 0.868 10
      vertex -15.555 1.95 10
      vertex -15.3899 1.95 11.5708
    endloop
  endfacet
  facet normal -0.222357 0.974685 0.0233707
    outer loop
      vertex -15.555 1.95 10
      vertex -17.0449 1.564 11.9226
      vertex -15.3899 1.95 11.5708
    endloop
  endfacet
  facet normal -0.212639 0.974685 0.0690906
    outer loop
      vertex -15.3899 1.95 11.5708
      vertex -17.0449 1.564 11.9226
      vertex -16.4476 1.564 13.7611
    endloop
  endfacet
  facet normal -0.857794 0.431866 0.278714
    outer loop
      vertex -17.0449 1.564 11.9226
      vertex -17.1355 9.03137e-16 14.0674
      vertex -16.4476 1.564 13.7611
    endloop
  endfacet
  facet normal -0.781101 0.431866 0.450969
    outer loop
      vertex -16.4476 1.564 13.7611
      vertex -17.1355 9.03137e-16 14.0674
      vertex -16.0902 1.30515e-15 15.8779
    endloop
  endfacet
  facet normal -0.781101 -0.431866 0.450969
    outer loop
      vertex -16.0902 1.30515e-15 15.8779
      vertex -17.1355 9.03137e-16 14.0674
      vertex -15.481 -1.564 15.4352
    endloop
  endfacet
  facet normal -0.781101 -0.431866 0.450969
    outer loop
      vertex -15.481 -1.564 15.4352
      vertex -17.1355 9.03137e-16 14.0674
      vertex -16.4476 -1.564 13.7611
    endloop
  endfacet
  facet normal -0.193628 -0.974685 0.111791
    outer loop
      vertex -15.481 -1.564 15.4352
      vertex -16.4476 -1.564 13.7611
      vertex -14.1121 -1.95 14.4407
    endloop
  endfacet
  facet normal -0.193628 -0.974685 0.111791
    outer loop
      vertex -14.1121 -1.95 14.4407
      vertex -16.4476 -1.564 13.7611
      vertex -14.9018 -1.95 13.0729
    endloop
  endfacet
  facet normal 0.541718 -0.780207 -0.312761
    outer loop
      vertex -14.1121 -1.95 14.4407
      vertex -14.9018 -1.95 13.0729
      vertex -13.0143 -0.868 13.6431
    endloop
  endfacet
  facet normal 0.541718 -0.780206 -0.312761
    outer loop
      vertex -13.0143 -0.868 13.6431
      vertex -14.9018 -1.95 13.0729
      vertex -13.6622 -0.868 12.521
    endloop
  endfacet
  facet normal 0.594907 -0.780206 -0.193297
    outer loop
      vertex -14.9018 -1.95 13.0729
      vertex -15.3899 -1.95 11.5708
      vertex -13.6622 -0.868 12.521
    endloop
  endfacet
  facet normal 0.594907 -0.780206 -0.193297
    outer loop
      vertex -13.6622 -0.868 12.521
      vertex -15.3899 -1.95 11.5708
      vertex -14.0626 -0.868 11.2886
    endloop
  endfacet
  facet normal 0.622095 -0.780206 -0.0653849
    outer loop
      vertex -15.3899 -1.95 11.5708
      vertex -15.555 -1.95 10
      vertex -14.0626 -0.868 11.2886
    endloop
  endfacet
  facet normal 0.622095 -0.780206 -0.0653848
    outer loop
      vertex -14.0626 -0.868 11.2886
      vertex -15.555 -1.95 10
      vertex -14.198 -0.868 10
    endloop
  endfacet
  facet normal 0.622095 -0.780206 0.0653849
    outer loop
      vertex -14.198 -0.868 10
      vertex -15.555 -1.95 10
      vertex -15.3899 -1.95 8.42923
    endloop
  endfacet
  facet normal -0.222357 -0.974685 -0.0233707
    outer loop
      vertex -15.555 -1.95 10
      vertex -17.0449 -1.564 8.07744
      vertex -15.3899 -1.95 8.42923
    endloop
  endfacet
  facet normal -0.212639 -0.974685 -0.0690906
    outer loop
      vertex -15.3899 -1.95 8.42923
      vertex -17.0449 -1.564 8.07744
      vertex -16.4476 -1.564 6.23891
    endloop
  endfacet
  facet normal -0.857794 -0.431866 -0.278714
    outer loop
      vertex -17.0449 -1.564 8.07744
      vertex -17.1355 -9.03137e-16 5.93263
      vertex -16.4476 -1.564 6.23891
    endloop
  endfacet
  facet normal -0.781101 -0.431866 -0.450969
    outer loop
      vertex -16.4476 -1.564 6.23891
      vertex -17.1355 -9.03137e-16 5.93263
      vertex -16.0902 -1.30515e-15 4.12215
    endloop
  endfacet
  facet normal -0.781101 0.431866 -0.450969
    outer loop
      vertex -16.0902 -1.30515e-15 4.12215
      vertex -17.1355 -9.03137e-16 5.93263
      vertex -15.481 1.564 4.56475
    endloop
  endfacet
  facet normal 0.951057 6.86155e-17 0.309017
    outer loop
      vertex -14.0626 0.868 8.71136
      vertex -14.0626 -0.868 8.71136
      vertex -13.6622 -0.868 7.47905
    endloop
  endfacet
  facet normal 0.951057 6.86155e-17 0.309017
    outer loop
      vertex -13.6622 0.868 7.47905
      vertex -14.0626 0.868 8.71136
      vertex -13.6622 -0.868 7.47905
    endloop
  endfacet
  facet normal 0.994522 2.32099e-17 0.104528
    outer loop
      vertex -14.198 0.868 10
      vertex -14.198 -0.868 10
      vertex -14.0626 -0.868 8.71136
    endloop
  endfacet
  facet normal 0.994522 2.32099e-17 0.104528
    outer loop
      vertex -14.0626 0.868 8.71136
      vertex -14.198 0.868 10
      vertex -14.0626 -0.868 8.71136
    endloop
  endfacet
  facet normal 0.866025 1.11022e-16 0.5
    outer loop
      vertex -13.6622 0.868 7.47905
      vertex -13.6622 -0.868 7.47905
      vertex -13.0143 -0.868 6.35691
    endloop
  endfacet
  facet normal 0.866025 1.11022e-16 0.5
    outer loop
      vertex -13.0143 0.868 6.35691
      vertex -13.6622 0.868 7.47905
      vertex -13.0143 -0.868 6.35691
    endloop
  endfacet
  facet normal -0.67027 0.431866 -0.603514
    outer loop
      vertex -14.1875 1.564 3.12814
      vertex -16.0902 -1.30515e-15 4.12215
      vertex -15.481 1.564 4.56475
    endloop
  endfacet
  facet normal -0.166154 0.974685 -0.149606
    outer loop
      vertex -14.1875 1.564 3.12814
      vertex -15.481 1.564 4.56475
      vertex -13.0553 1.95 4.38554
    endloop
  endfacet
  facet normal -0.166154 0.974685 -0.149606
    outer loop
      vertex -13.0553 1.95 4.38554
      vertex -15.481 1.564 4.56475
      vertex -14.1121 1.95 5.55928
    endloop
  endfacet
  facet normal 0.464853 0.780207 0.418556
    outer loop
      vertex -13.0553 1.95 4.38554
      vertex -14.1121 1.95 5.55928
      vertex -12.1473 0.868 5.39399
    endloop
  endfacet
  facet normal 0.464853 0.780207 0.418556
    outer loop
      vertex -12.1473 0.868 5.39399
      vertex -14.1121 1.95 5.55928
      vertex -13.0143 0.868 6.35691
    endloop
  endfacet
  facet normal 0.743145 1.48577e-16 0.669131
    outer loop
      vertex -13.0143 0.868 6.35691
      vertex -13.0143 -0.868 6.35691
      vertex -12.1473 -0.868 5.39399
    endloop
  endfacet
  facet normal 0.743145 1.48577e-16 0.669131
    outer loop
      vertex -12.1473 0.868 5.39399
      vertex -13.0143 0.868 6.35691
      vertex -12.1473 -0.868 5.39399
    endloop
  endfacet
  facet normal 0.994522 -2.32099e-17 -0.104528
    outer loop
      vertex -14.0626 -0.868 11.2886
      vertex -14.198 -0.868 10
      vertex -14.198 0.868 10
    endloop
  endfacet
  facet normal 0.994522 -2.32099e-17 -0.104528
    outer loop
      vertex -14.0626 0.868 11.2886
      vertex -14.0626 -0.868 11.2886
      vertex -14.198 0.868 10
    endloop
  endfacet
  facet normal 0.622095 0.780206 -0.0653848
    outer loop
      vertex -14.198 0.868 10
      vertex -15.3899 1.95 11.5708
      vertex -14.0626 0.868 11.2886
    endloop
  endfacet
  facet normal 0.594907 0.780206 -0.193297
    outer loop
      vertex -14.0626 0.868 11.2886
      vertex -15.3899 1.95 11.5708
      vertex -14.9018 1.95 13.0729
    endloop
  endfacet
  facet normal -0.212639 0.974685 0.0690906
    outer loop
      vertex -15.3899 1.95 11.5708
      vertex -16.4476 1.564 13.7611
      vertex -14.9018 1.95 13.0729
    endloop
  endfacet
  facet normal -0.193628 0.974685 0.111791
    outer loop
      vertex -14.9018 1.95 13.0729
      vertex -16.4476 1.564 13.7611
      vertex -15.481 1.564 15.4352
    endloop
  endfacet
  facet normal -0.781101 0.431866 0.450969
    outer loop
      vertex -15.481 1.564 15.4352
      vertex -16.4476 1.564 13.7611
      vertex -16.0902 1.30515e-15 15.8779
    endloop
  endfacet
  facet normal -0.67027 0.431866 0.603514
    outer loop
      vertex -15.481 1.564 15.4352
      vertex -16.0902 1.30515e-15 15.8779
      vertex -14.6913 1.65011e-15 17.4314
    endloop
  endfacet
  facet normal -0.67027 -0.431866 0.603514
    outer loop
      vertex -14.6913 1.65011e-15 17.4314
      vertex -16.0902 1.30515e-15 15.8779
      vertex -14.1875 -1.564 16.8719
    endloop
  endfacet
  facet normal -0.67027 -0.431866 0.603514
    outer loop
      vertex -14.1875 -1.564 16.8719
      vertex -16.0902 1.30515e-15 15.8779
      vertex -15.481 -1.564 15.4352
    endloop
  endfacet
  facet normal -0.166154 -0.974685 0.149606
    outer loop
      vertex -14.1875 -1.564 16.8719
      vertex -15.481 -1.564 15.4352
      vertex -13.0553 -1.95 15.6145
    endloop
  endfacet
  facet normal -0.166154 -0.974685 0.149606
    outer loop
      vertex -13.0553 -1.95 15.6145
      vertex -15.481 -1.564 15.4352
      vertex -14.1121 -1.95 14.4407
    endloop
  endfacet
  facet normal 0.464853 -0.780207 -0.418556
    outer loop
      vertex -13.0553 -1.95 15.6145
      vertex -14.1121 -1.95 14.4407
      vertex -12.1473 -0.868 14.606
    endloop
  endfacet
  facet normal 0.464853 -0.780207 -0.418556
    outer loop
      vertex -12.1473 -0.868 14.606
      vertex -14.1121 -1.95 14.4407
      vertex -13.0143 -0.868 13.6431
    endloop
  endfacet
  facet normal 0.743145 -1.48577e-16 -0.669131
    outer loop
      vertex -12.1473 -0.868 14.606
      vertex -13.0143 -0.868 13.6431
      vertex -13.0143 0.868 13.6431
    endloop
  endfacet
  facet normal 0.743145 -1.48577e-16 -0.669131
    outer loop
      vertex -12.1473 0.868 14.606
      vertex -12.1473 -0.868 14.606
      vertex -13.0143 0.868 13.6431
    endloop
  endfacet
  facet normal 0.866025 -1.11022e-16 -0.5
    outer loop
      vertex -13.0143 -0.868 13.6431
      vertex -13.6622 -0.868 12.521
      vertex -13.6622 0.868 12.521
    endloop
  endfacet
  facet normal 0.866025 -1.11022e-16 -0.5
    outer loop
      vertex -13.0143 0.868 13.6431
      vertex -13.0143 -0.868 13.6431
      vertex -13.6622 0.868 12.521
    endloop
  endfacet
  facet normal 0.951057 -6.86155e-17 -0.309017
    outer loop
      vertex -13.6622 -0.868 12.521
      vertex -14.0626 -0.868 11.2886
      vertex -14.0626 0.868 11.2886
    endloop
  endfacet
  facet normal 0.951057 -6.86155e-17 -0.309017
    outer loop
      vertex -13.6622 0.868 12.521
      vertex -13.6622 -0.868 12.521
      vertex -14.0626 0.868 11.2886
    endloop
  endfacet
  facet normal 0.622095 -0.780206 0.0653848
    outer loop
      vertex -14.198 -0.868 10
      vertex -15.3899 -1.95 8.42923
      vertex -14.0626 -0.868 8.71136
    endloop
  endfacet
  facet normal 0.594907 -0.780206 0.193297
    outer loop
      vertex -14.0626 -0.868 8.71136
      vertex -15.3899 -1.95 8.42923
      vertex -14.9018 -1.95 6.92711
    endloop
  endfacet
  facet normal -0.212639 -0.974685 -0.0690906
    outer loop
      vertex -15.3899 -1.95 8.42923
      vertex -16.4476 -1.564 6.23891
      vertex -14.9018 -1.95 6.92711
    endloop
  endfacet
  facet normal -0.193628 -0.974685 -0.111791
    outer loop
      vertex -14.9018 -1.95 6.92711
      vertex -16.4476 -1.564 6.23891
      vertex -15.481 -1.564 4.56475
    endloop
  endfacet
  facet normal -0.781101 -0.431866 -0.450969
    outer loop
      vertex -15.481 -1.564 4.56475
      vertex -16.4476 -1.564 6.23891
      vertex -16.0902 -1.30515e-15 4.12215
    endloop
  endfacet
  facet normal -0.67027 -0.431866 -0.603514
    outer loop
      vertex -15.481 -1.564 4.56475
      vertex -16.0902 -1.30515e-15 4.12215
      vertex -14.6913 -1.65011e-15 2.56855
    endloop
  endfacet
  facet normal -0.67027 0.431866 -0.603514
    outer loop
      vertex -14.6913 -1.65011e-15 2.56855
      vertex -16.0902 -1.30515e-15 4.12215
      vertex -14.1875 1.564 3.12814
    endloop
  endfacet
  facet normal 0.594907 -0.780206 0.193297
    outer loop
      vertex -14.0626 -0.868 8.71136
      vertex -14.9018 -1.95 6.92711
      vertex -13.6622 -0.868 7.47905
    endloop
  endfacet
  facet normal 0.541718 -0.780207 0.312761
    outer loop
      vertex -13.6622 -0.868 7.47905
      vertex -14.1121 -1.95 5.55928
      vertex -13.0143 -0.868 6.35691
    endloop
  endfacet
  facet normal 0.541718 -0.780206 0.312761
    outer loop
      vertex -13.6622 -0.868 7.47905
      vertex -14.9018 -1.95 6.92711
      vertex -14.1121 -1.95 5.55928
    endloop
  endfacet
  facet normal 0.464853 -0.780207 0.418556
    outer loop
      vertex -13.0143 -0.868 6.35691
      vertex -13.0553 -1.95 4.38554
      vertex -12.1473 -0.868 5.39399
    endloop
  endfacet
  facet normal 0.464853 -0.780207 0.418556
    outer loop
      vertex -13.0143 -0.868 6.35691
      vertex -14.1121 -1.95 5.55928
      vertex -13.0553 -1.95 4.38554
    endloop
  endfacet
  facet normal -0.530146 0.431866 -0.729683
    outer loop
      vertex -12.6235 1.564 1.99186
      vertex -14.6913 -1.65011e-15 2.56855
      vertex -14.1875 1.564 3.12814
    endloop
  endfacet
  facet normal -0.131418 0.974685 -0.180882
    outer loop
      vertex -12.6235 1.564 1.99186
      vertex -14.1875 1.564 3.12814
      vertex -11.7775 1.95 3.45718
    endloop
  endfacet
  facet normal -0.131418 0.974685 -0.180882
    outer loop
      vertex -11.7775 1.95 3.45718
      vertex -14.1875 1.564 3.12814
      vertex -13.0553 1.95 4.38554
    endloop
  endfacet
  facet normal 0.367673 0.780207 0.506058
    outer loop
      vertex -11.7775 1.95 3.45718
      vertex -13.0553 1.95 4.38554
      vertex -11.099 0.868 4.63237
    endloop
  endfacet
  facet normal 0.367672 0.780206 0.506058
    outer loop
      vertex -11.099 0.868 4.63237
      vertex -13.0553 1.95 4.38554
      vertex -12.1473 0.868 5.39399
    endloop
  endfacet
  facet normal 0.587785 1.79638e-16 0.809017
    outer loop
      vertex -12.1473 0.868 5.39399
      vertex -12.1473 -0.868 5.39399
      vertex -11.099 -0.868 4.63238
    endloop
  endfacet
  facet normal 0.587785 1.79638e-16 0.809017
    outer loop
      vertex -11.099 0.868 4.63237
      vertex -12.1473 0.868 5.39399
      vertex -11.099 -0.868 4.63238
    endloop
  endfacet
  facet normal 0.367672 -0.780207 0.506058
    outer loop
      vertex -11.099 -0.868 4.63238
      vertex -12.1473 -0.868 5.39399
      vertex -11.7775 -1.95 3.45718
    endloop
  endfacet
  facet normal 0.367673 -0.780206 0.506058
    outer loop
      vertex -12.1473 -0.868 5.39399
      vertex -13.0553 -1.95 4.38554
      vertex -11.7775 -1.95 3.45718
    endloop
  endfacet
  facet normal 0.594907 0.780206 -0.193297
    outer loop
      vertex -14.0626 0.868 11.2886
      vertex -14.9018 1.95 13.0729
      vertex -13.6622 0.868 12.521
    endloop
  endfacet
  facet normal 0.541718 0.780206 -0.312761
    outer loop
      vertex -13.6622 0.868 12.521
      vertex -14.9018 1.95 13.0729
      vertex -14.1121 1.95 14.4407
    endloop
  endfacet
  facet normal -0.193628 0.974685 0.111791
    outer loop
      vertex -14.9018 1.95 13.0729
      vertex -15.481 1.564 15.4352
      vertex -14.1121 1.95 14.4407
    endloop
  endfacet
  facet normal -0.166154 0.974685 0.149606
    outer loop
      vertex -14.1121 1.95 14.4407
      vertex -15.481 1.564 15.4352
      vertex -14.1875 1.564 16.8719
    endloop
  endfacet
  facet normal -0.670271 0.431866 0.603514
    outer loop
      vertex -14.1875 1.564 16.8719
      vertex -15.481 1.564 15.4352
      vertex -14.6913 1.65011e-15 17.4314
    endloop
  endfacet
  facet normal -0.530146 0.431866 0.729683
    outer loop
      vertex -14.1875 1.564 16.8719
      vertex -14.6913 1.65011e-15 17.4314
      vertex -13 1.92296e-15 18.6603
    endloop
  endfacet
  facet normal -0.530146 -0.431866 0.729683
    outer loop
      vertex -13 1.92296e-15 18.6603
      vertex -14.6913 1.65011e-15 17.4314
      vertex -12.6235 -1.564 18.0081
    endloop
  endfacet
  facet normal -0.530146 -0.431866 0.729683
    outer loop
      vertex -12.6235 -1.564 18.0081
      vertex -14.6913 1.65011e-15 17.4314
      vertex -14.1875 -1.564 16.8719
    endloop
  endfacet
  facet normal -0.131418 -0.974685 0.180882
    outer loop
      vertex -12.6235 -1.564 18.0081
      vertex -14.1875 -1.564 16.8719
      vertex -11.7775 -1.95 16.5428
    endloop
  endfacet
  facet normal -0.131418 -0.974685 0.180882
    outer loop
      vertex -11.7775 -1.95 16.5428
      vertex -14.1875 -1.564 16.8719
      vertex -13.0553 -1.95 15.6145
    endloop
  endfacet
  facet normal 0.367673 -0.780207 -0.506058
    outer loop
      vertex -11.7775 -1.95 16.5428
      vertex -13.0553 -1.95 15.6145
      vertex -11.099 -0.868 15.3676
    endloop
  endfacet
  facet normal 0.367672 -0.780206 -0.506058
    outer loop
      vertex -11.099 -0.868 15.3676
      vertex -13.0553 -1.95 15.6145
      vertex -12.1473 -0.868 14.606
    endloop
  endfacet
  facet normal 0.587785 -1.79638e-16 -0.809017
    outer loop
      vertex -12.1473 -0.868 14.606
      vertex -12.1473 0.868 14.606
      vertex -11.099 -0.868 15.3676
    endloop
  endfacet
  facet normal 0.587785 -1.79638e-16 -0.809017
    outer loop
      vertex -11.099 -0.868 15.3676
      vertex -12.1473 0.868 14.606
      vertex -11.099 0.868 15.3676
    endloop
  endfacet
  facet normal 0.367672 0.780207 -0.506058
    outer loop
      vertex -11.099 0.868 15.3676
      vertex -12.1473 0.868 14.606
      vertex -11.7775 1.95 16.5428
    endloop
  endfacet
  facet normal 0.367673 0.780206 -0.506058
    outer loop
      vertex -12.1473 0.868 14.606
      vertex -13.0553 1.95 15.6145
      vertex -11.7775 1.95 16.5428
    endloop
  endfacet
  facet normal 0.464853 0.780207 -0.418556
    outer loop
      vertex -13.0143 0.868 13.6431
      vertex -13.0553 1.95 15.6145
      vertex -12.1473 0.868 14.606
    endloop
  endfacet
  facet normal 0.464853 0.780207 -0.418556
    outer loop
      vertex -13.0143 0.868 13.6431
      vertex -14.1121 1.95 14.4407
      vertex -13.0553 1.95 15.6145
    endloop
  endfacet
  facet normal 0.541718 0.780207 -0.312761
    outer loop
      vertex -13.6622 0.868 12.521
      vertex -14.1121 1.95 14.4407
      vertex -13.0143 0.868 13.6431
    endloop
  endfacet
  facet normal -0.193628 -0.974685 -0.111791
    outer loop
      vertex -14.9018 -1.95 6.92711
      vertex -15.481 -1.564 4.56475
      vertex -14.1121 -1.95 5.55928
    endloop
  endfacet
  facet normal -0.166154 -0.974685 -0.149606
    outer loop
      vertex -14.1121 -1.95 5.55928
      vertex -15.481 -1.564 4.56475
      vertex -14.1875 -1.564 3.12814
    endloop
  endfacet
  facet normal -0.670271 -0.431866 -0.603514
    outer loop
      vertex -14.1875 -1.564 3.12814
      vertex -15.481 -1.564 4.56475
      vertex -14.6913 -1.65011e-15 2.56855
    endloop
  endfacet
  facet normal -0.530146 -0.431866 -0.729683
    outer loop
      vertex -14.1875 -1.564 3.12814
      vertex -14.6913 -1.65011e-15 2.56855
      vertex -13 -1.92296e-15 1.33975
    endloop
  endfacet
  facet normal -0.530146 0.431866 -0.729683
    outer loop
      vertex -13 -1.92296e-15 1.33975
      vertex -14.6913 -1.65011e-15 2.56855
      vertex -12.6235 1.564 1.99186
    endloop
  endfacet
  facet normal -0.166154 -0.974685 -0.149606
    outer loop
      vertex -14.1121 -1.95 5.55928
      vertex -14.1875 -1.564 3.12814
      vertex -13.0553 -1.95 4.38554
    endloop
  endfacet
  facet normal -0.131418 -0.974685 -0.180882
    outer loop
      vertex -11.7775 -1.95 3.45718
      vertex -13.0553 -1.95 4.38554
      vertex -12.6235 -1.564 1.99186
    endloop
  endfacet
  facet normal -0.131418 -0.974685 -0.180882
    outer loop
      vertex -13.0553 -1.95 4.38554
      vertex -14.1875 -1.564 3.12814
      vertex -12.6235 -1.564 1.99186
    endloop
  endfacet
  facet normal -0.366851 0.431866 -0.823961
    outer loop
      vertex -10.8575 1.564 1.20558
      vertex -13 -1.92296e-15 1.33975
      vertex -12.6235 1.564 1.99186
    endloop
  endfacet
  facet normal -0.090939 0.974685 -0.204252
    outer loop
      vertex -10.8575 1.564 1.20558
      vertex -12.6235 1.564 1.99186
      vertex -10.3346 1.95 2.81477
    endloop
  endfacet
  facet normal -0.090939 0.974685 -0.204252
    outer loop
      vertex -10.3346 1.95 2.81477
      vertex -12.6235 1.564 1.99186
      vertex -11.7775 1.95 3.45718
    endloop
  endfacet
  facet normal 0.254423 0.780207 0.571443
    outer loop
      vertex -10.3346 1.95 2.81477
      vertex -11.7775 1.95 3.45718
      vertex -9.91529 0.868 4.10535
    endloop
  endfacet
  facet normal 0.254423 0.780207 0.571443
    outer loop
      vertex -9.91529 0.868 4.10535
      vertex -11.7775 1.95 3.45718
      vertex -11.099 0.868 4.63237
    endloop
  endfacet
  facet normal 0.406737 2.02848e-16 0.913545
    outer loop
      vertex -11.099 0.868 4.63237
      vertex -11.099 -0.868 4.63238
      vertex -9.91529 -0.868 4.10535
    endloop
  endfacet
  facet normal 0.406737 2.02848e-16 0.913545
    outer loop
      vertex -10 0 4.14307
      vertex -11.099 0.868 4.63237
      vertex -9.91529 -0.80599 4.10535
    endloop
  endfacet
  facet normal 0.406737 2.02848e-16 0.913545
    outer loop
      vertex -9.91529 -0.80599 4.10535
      vertex -11.099 0.868 4.63237
      vertex -9.91529 -0.868 4.10535
    endloop
  endfacet
  facet normal 0.406737 2.02848e-16 0.913545
    outer loop
      vertex -9.91529 0.80599 4.10535
      vertex -11.099 0.868 4.63237
      vertex -10 0 4.14307
    endloop
  endfacet
  facet normal 0.406737 2.02848e-16 0.913545
    outer loop
      vertex -9.91529 0.868 4.10535
      vertex -11.099 0.868 4.63237
      vertex -9.91529 0.80599 4.10535
    endloop
  endfacet
  facet normal 0.254423 -0.780207 0.571443
    outer loop
      vertex -9.91529 -0.868 4.10535
      vertex -11.099 -0.868 4.63238
      vertex -10.3346 -1.95 2.81477
    endloop
  endfacet
  facet normal 0.254423 -0.780207 0.571443
    outer loop
      vertex -11.099 -0.868 4.63238
      vertex -11.7775 -1.95 3.45718
      vertex -10.3346 -1.95 2.81477
    endloop
  endfacet
  facet normal -0.090939 -0.974685 -0.204252
    outer loop
      vertex -10.3346 -1.95 2.81477
      vertex -11.7775 -1.95 3.45718
      vertex -10.8575 -1.564 1.20558
    endloop
  endfacet
  facet normal -0.090939 -0.974685 -0.204252
    outer loop
      vertex -11.7775 -1.95 3.45718
      vertex -12.6235 -1.564 1.99186
      vertex -10.8575 -1.564 1.20558
    endloop
  endfacet
  facet normal -0.166154 0.974685 0.149606
    outer loop
      vertex -14.1121 1.95 14.4407
      vertex -14.1875 1.564 16.8719
      vertex -13.0553 1.95 15.6145
    endloop
  endfacet
  facet normal -0.131418 0.974685 0.180882
    outer loop
      vertex -13.0553 1.95 15.6145
      vertex -14.1875 1.564 16.8719
      vertex -12.6235 1.564 18.0081
    endloop
  endfacet
  facet normal -0.530146 0.431866 0.729683
    outer loop
      vertex -12.6235 1.564 18.0081
      vertex -14.1875 1.564 16.8719
      vertex -13 1.92296e-15 18.6603
    endloop
  endfacet
  facet normal -0.366851 0.431866 0.823961
    outer loop
      vertex -12.6235 1.564 18.0081
      vertex -13 1.92296e-15 18.6603
      vertex -11.0902 2.11177e-15 19.5106
    endloop
  endfacet
  facet normal -0.366851 -0.431866 0.823961
    outer loop
      vertex -11.0902 2.11177e-15 19.5106
      vertex -13 1.92296e-15 18.6603
      vertex -10.8575 -1.564 18.7944
    endloop
  endfacet
  facet normal -0.366851 -0.431866 0.823961
    outer loop
      vertex -10.8575 -1.564 18.7944
      vertex -13 1.92296e-15 18.6603
      vertex -12.6235 -1.564 18.0081
    endloop
  endfacet
  facet normal -0.090939 -0.974685 0.204252
    outer loop
      vertex -10.8575 -1.564 18.7944
      vertex -12.6235 -1.564 18.0081
      vertex -10.3346 -1.95 17.1852
    endloop
  endfacet
  facet normal -0.090939 -0.974685 0.204252
    outer loop
      vertex -10.3346 -1.95 17.1852
      vertex -12.6235 -1.564 18.0081
      vertex -11.7775 -1.95 16.5428
    endloop
  endfacet
  facet normal 0.254423 -0.780207 -0.571443
    outer loop
      vertex -10.3346 -1.95 17.1852
      vertex -11.7775 -1.95 16.5428
      vertex -9.91529 -0.868 15.8946
    endloop
  endfacet
  facet normal 0.254423 -0.780207 -0.571443
    outer loop
      vertex -9.91529 -0.868 15.8946
      vertex -11.7775 -1.95 16.5428
      vertex -11.099 -0.868 15.3676
    endloop
  endfacet
  facet normal 0.406737 -2.02848e-16 -0.913545
    outer loop
      vertex -11.099 -0.868 15.3676
      vertex -11.099 0.868 15.3676
      vertex -9.91529 -0.868 15.8946
    endloop
  endfacet
  facet normal 0.406737 -2.02848e-16 -0.913545
    outer loop
      vertex -9.91529 0.80599 15.8946
      vertex -11.099 0.868 15.3676
      vertex -9.91529 0.868 15.8946
    endloop
  endfacet
  facet normal 0.406737 -2.02848e-16 -0.913545
    outer loop
      vertex -10 0 15.8569
      vertex -11.099 0.868 15.3676
      vertex -9.91529 0.80599 15.8946
    endloop
  endfacet
  facet normal 0.406737 -2.02848e-16 -0.913545
    outer loop
      vertex -9.91529 -0.868 15.8946
      vertex -11.099 0.868 15.3676
      vertex -10 0 15.8569
    endloop
  endfacet
  facet normal 0.406737 -2.02848e-16 -0.913545
    outer loop
      vertex -9.91529 -0.868 15.8946
      vertex -10 0 15.8569
      vertex -9.91529 -0.80599 15.8946
    endloop
  endfacet
  facet normal 0.254423 0.780207 -0.571443
    outer loop
      vertex -9.91529 0.868 15.8946
      vertex -11.099 0.868 15.3676
      vertex -10.3346 1.95 17.1852
    endloop
  endfacet
  facet normal 0.254423 0.780207 -0.571443
    outer loop
      vertex -11.099 0.868 15.3676
      vertex -11.7775 1.95 16.5428
      vertex -10.3346 1.95 17.1852
    endloop
  endfacet
  facet normal -0.090939 0.974685 0.204252
    outer loop
      vertex -10.3346 1.95 17.1852
      vertex -11.7775 1.95 16.5428
      vertex -10.8575 1.564 18.7944
    endloop
  endfacet
  facet normal -0.090939 0.974685 0.204252
    outer loop
      vertex -11.7775 1.95 16.5428
      vertex -12.6235 1.564 18.0081
      vertex -10.8575 1.564 18.7944
    endloop
  endfacet
  facet normal -0.131418 0.974685 0.180882
    outer loop
      vertex -11.7775 1.95 16.5428
      vertex -13.0553 1.95 15.6145
      vertex -12.6235 1.564 18.0081
    endloop
  endfacet
  facet normal -0.530146 -0.431866 -0.729683
    outer loop
      vertex -12.6235 -1.564 1.99186
      vertex -14.1875 -1.564 3.12814
      vertex -13 -1.92296e-15 1.33975
    endloop
  endfacet
  facet normal -0.366851 -0.431866 -0.823961
    outer loop
      vertex -12.6235 -1.564 1.99186
      vertex -13 -1.92296e-15 1.33975
      vertex -11.0902 -2.11177e-15 0.489435
    endloop
  endfacet
  facet normal -0.366851 0.431866 -0.823961
    outer loop
      vertex -11.0902 -2.11177e-15 0.489435
      vertex -13 -1.92296e-15 1.33975
      vertex -10.8575 1.564 1.20558
    endloop
  endfacet
  facet normal -0.366851 -0.431866 -0.823961
    outer loop
      vertex -10.8575 -1.564 1.20558
      vertex -12.6235 -1.564 1.99186
      vertex -11.0902 -2.11177e-15 0.489435
    endloop
  endfacet
  facet normal -0.187523 0.431866 -0.882228
    outer loop
      vertex -11.0902 -2.11177e-15 0.489435
      vertex -10.8575 1.564 1.20558
      vertex -9.90853 0.870261 0.664278
    endloop
  endfacet
  facet normal -0.187523 0.431866 -0.882228
    outer loop
      vertex -9.90853 0.870261 0.664278
      vertex -10.8575 1.564 1.20558
      vertex -9.83562 1.564 0.988376
    endloop
  endfacet
  facet normal -0.0464853 0.974685 -0.218696
    outer loop
      vertex -9.83562 1.564 0.988376
      vertex -10.8575 1.564 1.20558
      vertex -9.81517 1.75857 1.85121
    endloop
  endfacet
  facet normal -0.0464853 0.974685 -0.218696
    outer loop
      vertex -10.8575 1.564 1.20558
      vertex -10.3346 1.95 2.81477
      vertex -9.81517 1.75857 1.85121
    endloop
  endfacet
  facet normal -0.0464853 0.974685 -0.218696
    outer loop
      vertex -9.81517 1.75857 1.85121
      vertex -10.3346 1.95 2.81477
      vertex -9.79505 1.95 2.70008
    endloop
  endfacet
  facet normal 0.130053 0.780206 0.611853
    outer loop
      vertex -9.79505 1.95 2.70008
      vertex -10.3346 1.95 2.81477
      vertex -9.82913 1.62574 3.1208
    endloop
  endfacet
  facet normal 0.130054 0.780207 0.611853
    outer loop
      vertex -10.3346 1.95 2.81477
      vertex -9.91529 0.868 4.10535
      vertex -9.82913 1.62574 3.1208
    endloop
  endfacet
  facet normal 0.130054 0.780207 0.611853
    outer loop
      vertex -9.82913 1.62574 3.1208
      vertex -9.91529 0.868 4.10535
      vertex -9.90877 0.868 4.10397
    endloop
  endfacet
  facet normal 0.207912 2.17192e-16 0.978148
    outer loop
      vertex -9.91529 0.868 4.10535
      vertex -9.91529 0.80599 4.10535
      vertex -9.90877 0.868 4.10397
    endloop
  endfacet
  facet normal -0.994522 0.104528 0
    outer loop
      vertex -10 0 0
      vertex -10 0 0.257712
      vertex -9.78148 2.07912 0
    endloop
  endfacet
  facet normal -0.994522 0.104528 0
    outer loop
      vertex -9.78148 2.07912 0
      vertex -10 0 0.257712
      vertex -9.90853 0.870261 0.664278
    endloop
  endfacet
  facet normal -0.994522 0.104528 0
    outer loop
      vertex -9.78148 2.07912 0
      vertex -9.90853 0.870261 0.664278
      vertex -9.83562 1.564 0.988376
    endloop
  endfacet
  facet normal -0.994522 0.104528 0
    outer loop
      vertex -9.78148 2.07912 0
      vertex -9.83562 1.564 0.988376
      vertex -9.81517 1.75857 1.85121
    endloop
  endfacet
  facet normal -0.994522 0.104528 0
    outer loop
      vertex -9.81517 1.75857 1.85121
      vertex -9.79505 1.95 2.70008
      vertex -9.78148 2.07912 0
    endloop
  endfacet
  facet normal -0.994522 0.104528 0
    outer loop
      vertex -9.79505 1.95 2.70008
      vertex -9.82913 1.62574 3.1208
      vertex -9.90877 0.868 4.10397
    endloop
  endfacet
  facet normal -0.994522 0.104528 0
    outer loop
      vertex -9.90877 0.868 4.10397
      vertex -9.91529 0.80599 4.10535
      vertex -10 0 4.14307
    endloop
  endfacet
  facet normal -0.994522 0.104528 0
    outer loop
      vertex -9.90877 0.868 4.10397
      vertex -10 0 4.14307
      vertex -10 0 15.8569
    endloop
  endfacet
  facet normal -0.994522 0.104528 0
    outer loop
      vertex -9.90877 0.868 4.10397
      vertex -10 0 15.8569
      vertex -9.79505 1.95 2.70008
    endloop
  endfacet
  facet normal -0.994522 0.104528 0
    outer loop
      vertex -9.79505 1.95 2.70008
      vertex -10 0 15.8569
      vertex -9.91529 0.80599 15.8946
    endloop
  endfacet
  facet normal -0.994522 0.104528 0
    outer loop
      vertex -9.79505 1.95 2.70008
      vertex -9.91529 0.80599 15.8946
      vertex -9.90877 0.868 15.896
    endloop
  endfacet
  facet normal -0.994522 0.104528 0
    outer loop
      vertex -9.79505 1.95 2.70008
      vertex -9.90877 0.868 15.896
      vertex -9.90804 0.874969 15.9051
    endloop
  endfacet
  facet normal -0.994522 0.104528 0
    outer loop
      vertex -9.79505 1.95 2.70008
      vertex -9.79505 1.95 17.2999
      vertex -9.78148 2.07912 0
    endloop
  endfacet
  facet normal -0.994522 0.104528 0
    outer loop
      vertex -9.90804 0.874969 15.9051
      vertex -9.79505 1.95 17.2999
      vertex -9.79505 1.95 2.70008
    endloop
  endfacet
  facet normal -0.994522 0.104528 0
    outer loop
      vertex -9.79505 1.95 17.2999
      vertex -9.81059 1.80214 17.9556
      vertex -9.83562 1.564 19.0116
    endloop
  endfacet
  facet normal -0.994522 0.104528 0
    outer loop
      vertex -9.79505 1.95 17.2999
      vertex -9.78148 2.07912 20
      vertex -9.78148 2.07912 0
    endloop
  endfacet
  facet normal -0.994522 0.104528 0
    outer loop
      vertex -9.9206 0.755434 19.3894
      vertex -10 0 20
      vertex -9.83562 1.564 19.0116
    endloop
  endfacet
  facet normal -0.994522 0.104528 0
    outer loop
      vertex -10 2.16322e-15 19.7423
      vertex -10 0 19.7423
      vertex -10 0 20
    endloop
  endfacet
  facet normal -0.994522 0.104528 0
    outer loop
      vertex -10 2.16322e-15 19.7423
      vertex -10 0 20
      vertex -9.9206 0.755434 19.3894
    endloop
  endfacet
  facet normal -0.994522 0.104528 0
    outer loop
      vertex -9.83562 1.564 19.0116
      vertex -10 0 20
      vertex -9.78148 2.07912 20
    endloop
  endfacet
  facet normal -0.994522 0.104528 0
    outer loop
      vertex -9.83562 1.564 19.0116
      vertex -9.78148 2.07912 20
      vertex -9.79505 1.95 17.2999
    endloop
  endfacet
  facet normal -0.994522 -0.104528 0
    outer loop
      vertex -9.79505 -1.95 17.2999
      vertex -9.78148 -2.07912 0
      vertex -9.78148 -2.07912 20
    endloop
  endfacet
  facet normal -0.994522 -0.104528 0
    outer loop
      vertex -10 0 19.7423
      vertex -9.78148 -2.07912 20
      vertex -10 0 20
    endloop
  endfacet
  facet normal -0.994522 -0.104528 0
    outer loop
      vertex -9.90853 -0.870261 19.3357
      vertex -9.78148 -2.07912 20
      vertex -10 0 19.7423
    endloop
  endfacet
  facet normal -0.994522 -0.104528 0
    outer loop
      vertex -9.83562 -1.564 19.0116
      vertex -9.78148 -2.07912 20
      vertex -9.90853 -0.870261 19.3357
    endloop
  endfacet
  facet normal -0.994522 -0.104528 0
    outer loop
      vertex -9.81517 -1.75857 18.1488
      vertex -9.78148 -2.07912 20
      vertex -9.83562 -1.564 19.0116
    endloop
  endfacet
  facet normal -0.994522 -0.104528 0
    outer loop
      vertex -9.79505 -1.95 2.70008
      vertex -9.78148 -2.07912 0
      vertex -9.79505 -1.95 17.2999
    endloop
  endfacet
  facet normal -0.994522 -0.104528 0
    outer loop
      vertex -10 0 15.8569
      vertex -10 0 4.14307
      vertex -9.91529 -0.80599 15.8946
    endloop
  endfacet
  facet normal -0.994522 -0.104528 0
    outer loop
      vertex -9.91529 -0.80599 4.10535
      vertex -9.90877 -0.868 15.896
      vertex -9.91529 -0.80599 15.8946
    endloop
  endfacet
  facet normal -0.994522 -0.104528 0
    outer loop
      vertex -9.91529 -0.80599 4.10535
      vertex -9.79505 -1.95 17.2999
      vertex -9.82913 -1.62574 16.8792
    endloop
  endfacet
  facet normal -0.994522 -0.104528 0
    outer loop
      vertex -9.91529 -0.80599 4.10535
      vertex -9.82913 -1.62574 16.8792
      vertex -9.90877 -0.868 15.896
    endloop
  endfacet
  facet normal -0.994522 -0.104528 0
    outer loop
      vertex -10 -2.16322e-15 0.257712
      vertex -9.78148 -2.07912 0
      vertex -9.9206 -0.755434 0.610633
    endloop
  endfacet
  facet normal -0.994522 -0.104528 0
    outer loop
      vertex -9.83562 -1.564 0.988376
      vertex -9.78148 -2.07912 0
      vertex -9.81059 -1.80214 2.0444
    endloop
  endfacet
  facet normal -0.994522 -0.104528 0
    outer loop
      vertex -9.91529 -0.80599 4.10535
      vertex -9.90877 -0.868 4.10397
      vertex -9.79505 -1.95 17.2999
    endloop
  endfacet
  facet normal -0.994522 -0.104528 0
    outer loop
      vertex -9.90877 -0.868 4.10397
      vertex -9.90804 -0.874969 4.09492
      vertex -9.79505 -1.95 17.2999
    endloop
  endfacet
  facet normal -0.994522 -0.104528 0
    outer loop
      vertex -9.81059 -1.80214 2.0444
      vertex -9.78148 -2.07912 0
      vertex -9.79505 -1.95 2.70008
    endloop
  endfacet
  facet normal -0.994522 -0.104528 0
    outer loop
      vertex -9.90804 -0.874969 4.09492
      vertex -9.79505 -1.95 2.70008
      vertex -9.79505 -1.95 17.2999
    endloop
  endfacet
  facet normal -0.994522 -0.104528 0
    outer loop
      vertex -9.9206 -0.755434 0.610633
      vertex -9.78148 -2.07912 0
      vertex -9.83562 -1.564 0.988376
    endloop
  endfacet
  facet normal -0.994522 -0.104528 0
    outer loop
      vertex -10 0 0
      vertex -9.78148 -2.07912 0
      vertex -10 -2.16322e-15 0.257712
    endloop
  endfacet
  facet normal -0.994522 -0.104528 0
    outer loop
      vertex -10 0 0
      vertex -10 -2.16322e-15 0.257712
      vertex -10 0 0.257712
    endloop
  endfacet
  facet normal -0.994522 -0.104528 0
    outer loop
      vertex -9.79505 -1.95 17.2999
      vertex -9.78148 -2.07912 20
      vertex -9.81517 -1.75857 18.1488
    endloop
  endfacet
  facet normal -0.994522 -0.104528 0
    outer loop
      vertex -9.91529 -0.80599 4.10535
      vertex -9.91529 -0.80599 15.8946
      vertex -10 0 4.14307
    endloop
  endfacet
  facet normal 0.207912 2.17192e-16 0.978148
    outer loop
      vertex -9.91529 -0.80599 4.10535
      vertex -9.91529 -0.868 4.10535
      vertex -9.90877 -0.868 4.10397
    endloop
  endfacet
  facet normal 0.130054 -0.780206 0.611853
    outer loop
      vertex -9.90877 -0.868 4.10397
      vertex -9.91529 -0.868 4.10535
      vertex -9.90804 -0.874969 4.09492
    endloop
  endfacet
  facet normal 0.130053 -0.780207 0.611853
    outer loop
      vertex -9.91529 -0.868 4.10535
      vertex -10.3346 -1.95 2.81477
      vertex -9.79505 -1.95 2.70008
    endloop
  endfacet
  facet normal 0.130053 -0.780207 0.611853
    outer loop
      vertex -9.90804 -0.874969 4.09492
      vertex -9.91529 -0.868 4.10535
      vertex -9.79505 -1.95 2.70008
    endloop
  endfacet
  facet normal -0.0464854 -0.974685 -0.218696
    outer loop
      vertex -9.79505 -1.95 2.70008
      vertex -10.3346 -1.95 2.81477
      vertex -9.81059 -1.80214 2.0444
    endloop
  endfacet
  facet normal -0.0464853 -0.974685 -0.218696
    outer loop
      vertex -10.3346 -1.95 2.81477
      vertex -10.8575 -1.564 1.20558
      vertex -9.83562 -1.564 0.988376
    endloop
  endfacet
  facet normal -0.0464853 -0.974685 -0.218696
    outer loop
      vertex -9.81059 -1.80214 2.0444
      vertex -10.3346 -1.95 2.81477
      vertex -9.83562 -1.564 0.988376
    endloop
  endfacet
  facet normal -0.187523 -0.431866 -0.882228
    outer loop
      vertex -9.83562 -1.564 0.988376
      vertex -10.8575 -1.564 1.20558
      vertex -9.9206 -0.755434 0.610633
    endloop
  endfacet
  facet normal -0.187524 -0.431866 -0.882228
    outer loop
      vertex -11.0902 -2.11177e-15 0.489435
      vertex -10 -2.16322e-15 0.257712
      vertex -10.8575 -1.564 1.20558
    endloop
  endfacet
  facet normal -0.187524 -0.431866 -0.882228
    outer loop
      vertex -10.8575 -1.564 1.20558
      vertex -10 -2.16322e-15 0.257712
      vertex -9.9206 -0.755434 0.610633
    endloop
  endfacet
  facet normal -0.366851 0.431866 0.823961
    outer loop
      vertex -10.8575 1.564 18.7944
      vertex -12.6235 1.564 18.0081
      vertex -11.0902 2.11177e-15 19.5106
    endloop
  endfacet
  facet normal -0.187524 0.431866 0.882228
    outer loop
      vertex -10.8575 1.564 18.7944
      vertex -11.0902 2.11177e-15 19.5106
      vertex -10 2.16322e-15 19.7423
    endloop
  endfacet
  facet normal -0.187524 0.431866 0.882228
    outer loop
      vertex -9.9206 0.755434 19.3894
      vertex -10.8575 1.564 18.7944
      vertex -10 2.16322e-15 19.7423
    endloop
  endfacet
  facet normal -0.187524 -0.431866 0.882228
    outer loop
      vertex -10 0 19.7423
      vertex -11.0902 2.11177e-15 19.5106
      vertex -9.90853 -0.870261 19.3357
    endloop
  endfacet
  facet normal -0.187524 -0.431866 0.882228
    outer loop
      vertex -10 2.16322e-15 19.7423
      vertex -11.0902 2.11177e-15 19.5106
      vertex -10 0 19.7423
    endloop
  endfacet
  facet normal -0.187523 -0.431866 0.882228
    outer loop
      vertex -9.90853 -0.870261 19.3357
      vertex -11.0902 2.11177e-15 19.5106
      vertex -10.8575 -1.564 18.7944
    endloop
  endfacet
  facet normal -0.187523 -0.431866 0.882228
    outer loop
      vertex -9.83562 -1.564 19.0116
      vertex -9.90853 -0.870261 19.3357
      vertex -10.8575 -1.564 18.7944
    endloop
  endfacet
  facet normal -0.0464853 -0.974685 0.218696
    outer loop
      vertex -9.83562 -1.564 19.0116
      vertex -10.8575 -1.564 18.7944
      vertex -9.81517 -1.75857 18.1488
    endloop
  endfacet
  facet normal -0.0464853 -0.974685 0.218696
    outer loop
      vertex -9.81517 -1.75857 18.1488
      vertex -10.8575 -1.564 18.7944
      vertex -10.3346 -1.95 17.1852
    endloop
  endfacet
  facet normal -0.0464853 -0.974685 0.218696
    outer loop
      vertex -9.79505 -1.95 17.2999
      vertex -9.81517 -1.75857 18.1488
      vertex -10.3346 -1.95 17.1852
    endloop
  endfacet
  facet normal 0.130053 -0.780206 -0.611853
    outer loop
      vertex -9.79505 -1.95 17.2999
      vertex -10.3346 -1.95 17.1852
      vertex -9.82913 -1.62574 16.8792
    endloop
  endfacet
  facet normal 0.130054 -0.780207 -0.611853
    outer loop
      vertex -9.82913 -1.62574 16.8792
      vertex -10.3346 -1.95 17.1852
      vertex -9.91529 -0.868 15.8946
    endloop
  endfacet
  facet normal 0.130054 -0.780207 -0.611853
    outer loop
      vertex -9.90877 -0.868 15.896
      vertex -9.82913 -1.62574 16.8792
      vertex -9.91529 -0.868 15.8946
    endloop
  endfacet
  facet normal 0.207912 -2.17192e-16 -0.978148
    outer loop
      vertex -9.90877 -0.868 15.896
      vertex -9.91529 -0.868 15.8946
      vertex -9.91529 -0.80599 15.8946
    endloop
  endfacet
  facet normal 0.207912 -2.17192e-16 -0.978148
    outer loop
      vertex -9.90877 0.868 15.896
      vertex -9.91529 0.80599 15.8946
      vertex -9.91529 0.868 15.8946
    endloop
  endfacet
  facet normal 0.130054 0.780206 -0.611853
    outer loop
      vertex -9.90877 0.868 15.896
      vertex -9.91529 0.868 15.8946
      vertex -9.90804 0.874969 15.9051
    endloop
  endfacet
  facet normal 0.130053 0.780207 -0.611853
    outer loop
      vertex -10.3346 1.95 17.1852
      vertex -9.79505 1.95 17.2999
      vertex -9.91529 0.868 15.8946
    endloop
  endfacet
  facet normal 0.130053 0.780207 -0.611853
    outer loop
      vertex -9.91529 0.868 15.8946
      vertex -9.79505 1.95 17.2999
      vertex -9.90804 0.874969 15.9051
    endloop
  endfacet
  facet normal -0.0464854 0.974685 0.218696
    outer loop
      vertex -9.79505 1.95 17.2999
      vertex -10.3346 1.95 17.1852
      vertex -9.81059 1.80214 17.9556
    endloop
  endfacet
  facet normal -0.0464853 0.974685 0.218696
    outer loop
      vertex -10.8575 1.564 18.7944
      vertex -9.83562 1.564 19.0116
      vertex -10.3346 1.95 17.1852
    endloop
  endfacet
  facet normal -0.0464853 0.974685 0.218696
    outer loop
      vertex -10.3346 1.95 17.1852
      vertex -9.83562 1.564 19.0116
      vertex -9.81059 1.80214 17.9556
    endloop
  endfacet
  facet normal -0.187523 0.431866 0.882228
    outer loop
      vertex -9.83562 1.564 19.0116
      vertex -10.8575 1.564 18.7944
      vertex -9.9206 0.755434 19.3894
    endloop
  endfacet
  facet normal -0.187524 0.431866 -0.882228
    outer loop
      vertex -11.0902 -2.11177e-15 0.489435
      vertex -10 0 0.257712
      vertex -10 -2.16322e-15 0.257712
    endloop
  endfacet
  facet normal -0.187524 0.431866 -0.882228
    outer loop
      vertex -11.0902 -2.11177e-15 0.489435
      vertex -9.90853 0.870261 0.664278
      vertex -10 0 0.257712
    endloop
  endfacet
  facet normal 0 0 -1
    outer loop
      vertex -10 0 0
      vertex -9.78148 2.07912 0
      vertex -9.78148 -2.07912 0
    endloop
  endfacet
  facet normal 0 0 -1
    outer loop
      vertex -9.78148 -2.07912 0
      vertex -9.78148 2.07912 0
      vertex -9.13546 4.06737 0
    endloop
  endfacet
  facet normal 0 0 -1
    outer loop
      vertex -9.78148 -2.07912 0
      vertex -9.13546 4.06737 0
      vertex -8.09017 5.87785 0
    endloop
  endfacet
  facet normal 0 0 -1
    outer loop
      vertex -9.78148 -2.07912 0
      vertex -8.09017 5.87785 0
      vertex -6.69131 7.43145 0
    endloop
  endfacet
  facet normal 0 0 -1
    outer loop
      vertex -9.78148 -2.07912 0
      vertex -6.69131 7.43145 0
      vertex -5 8.66025 0
    endloop
  endfacet
  facet normal 0 0 -1
    outer loop
      vertex -9.78148 -2.07912 0
      vertex -5 8.66025 0
      vertex -3.09017 9.51056 0
    endloop
  endfacet
  facet normal 0 0 -1
    outer loop
      vertex -9.78148 -2.07912 0
      vertex -3.09017 9.51056 0
      vertex -1.04529 9.94522 0
    endloop
  endfacet
  facet normal 0 0 -1
    outer loop
      vertex -9.78148 -2.07912 0
      vertex -1.04529 9.94522 0
      vertex 0 9.94522 0
    endloop
  endfacet
  facet normal 0 0 -1
    outer loop
      vertex 0 9.94522 0
      vertex 0 10 0
      vertex 20 10 0
    endloop
  endfacet
  facet normal 0 0 -1
    outer loop
      vertex 0 9.94522 0
      vertex 20 10 0
      vertex -9.78148 -2.07912 0
    endloop
  endfacet
  facet normal 0 0 -1
    outer loop
      vertex 10 1 0
      vertex 20 10 0
      vertex 20 1 0
    endloop
  endfacet
  facet normal 0 0 -1
    outer loop
      vertex -9.78148 -2.07912 0
      vertex 20 10 0
      vertex 10 1 0
    endloop
  endfacet
  facet normal 0 0 -1
    outer loop
      vertex -9.78148 -2.07912 0
      vertex 10 1 0
      vertex 10 0 0
    endloop
  endfacet
  facet normal 0 0 -1
    outer loop
      vertex -9.78148 -2.07912 0
      vertex 9.78148 -2.07912 0
      vertex 9.13546 -4.06737 0
    endloop
  endfacet
  facet normal 0 0 -1
    outer loop
      vertex -9.78148 -2.07912 0
      vertex 9.13546 -4.06737 0
      vertex 8.09017 -5.87785 0
    endloop
  endfacet
  facet normal 0 0 -1
    outer loop
      vertex -9.78148 -2.07912 0
      vertex 8.09017 -5.87785 0
      vertex 6.69131 -7.43145 0
    endloop
  endfacet
  facet normal 0 0 -1
    outer loop
      vertex -9.78148 -2.07912 0
      vertex 6.69131 -7.43145 0
      vertex 5 -8.66025 0
    endloop
  endfacet
  facet normal 0 0 -1
    outer loop
      vertex -9.78148 -2.07912 0
      vertex 5 -8.66025 0
      vertex 3.09017 -9.51056 0
    endloop
  endfacet
  facet normal 0 0 -1
    outer loop
      vertex -9.78148 -2.07912 0
      vertex 3.09017 -9.51056 0
      vertex 1.04529 -9.94522 0
    endloop
  endfacet
  facet normal 0 0 -1
    outer loop
      vertex -9.78148 -2.07912 0
      vertex 1.04529 -9.94522 0
      vertex -1.04529 -9.94522 0
    endloop
  endfacet
  facet normal 0 0 -1
    outer loop
      vertex -9.78148 -2.07912 0
      vertex -1.04529 -9.94522 0
      vertex -3.09017 -9.51056 0
    endloop
  endfacet
  facet normal 0 0 -1
    outer loop
      vertex -9.78148 -2.07912 0
      vertex -3.09017 -9.51056 0
      vertex -5 -8.66025 0
    endloop
  endfacet
  facet normal 0 0 -1
    outer loop
      vertex -9.78148 -2.07912 0
      vertex -5 -8.66025 0
      vertex -6.69131 -7.43145 0
    endloop
  endfacet
  facet normal 0 0 -1
    outer loop
      vertex -9.78148 -2.07912 0
      vertex -6.69131 -7.43145 0
      vertex -8.09017 -5.87785 0
    endloop
  endfacet
  facet normal 0 0 -1
    outer loop
      vertex -9.78148 -2.07912 0
      vertex -8.09017 -5.87785 0
      vertex -9.13546 -4.06737 0
    endloop
  endfacet
  facet normal 0 0 -1
    outer loop
      vertex 9.78148 -2.07912 0
      vertex -9.78148 -2.07912 0
      vertex 10 0 0
    endloop
  endfacet
  facet normal -0.951057 0.309017 0
    outer loop
      vertex -9.78148 2.07912 0
      vertex -9.78148 2.07912 20
      vertex -9.13546 4.06737 0
    endloop
  endfacet
  facet normal -0.951057 0.309017 0
    outer loop
      vertex -9.13546 4.06737 0
      vertex -9.78148 2.07912 20
      vertex -9.13546 4.06737 20
    endloop
  endfacet
  facet normal 0 0 1
    outer loop
      vertex -9.78148 2.07912 20
      vertex -10 0 20
      vertex -9.78148 -2.07912 20
    endloop
  endfacet
  facet normal 0 0 1
    outer loop
      vertex -8.09017 -5.87785 20
      vertex -9.78148 2.07912 20
      vertex -9.13546 -4.06737 20
    endloop
  endfacet
  facet normal 0 0 1
    outer loop
      vertex -9.13546 -4.06737 20
      vertex -9.78148 2.07912 20
      vertex -9.78148 -2.07912 20
    endloop
  endfacet
  facet normal 0 0 1
    outer loop
      vertex -6.69131 -7.43145 20
      vertex -9.78148 2.07912 20
      vertex -8.09017 -5.87785 20
    endloop
  endfacet
  facet normal 0 0 1
    outer loop
      vertex -5 -8.66025 20
      vertex -9.78148 2.07912 20
      vertex -6.69131 -7.43145 20
    endloop
  endfacet
  facet normal 0 0 1
    outer loop
      vertex -3.09017 -9.51056 20
      vertex -9.78148 2.07912 20
      vertex -5 -8.66025 20
    endloop
  endfacet
  facet normal 0 0 1
    outer loop
      vertex -1.04529 -9.94522 20
      vertex -9.78148 2.07912 20
      vertex -3.09017 -9.51056 20
    endloop
  endfacet
  facet normal 0 0 1
    outer loop
      vertex 1.04529 -9.94522 20
      vertex -9.78148 2.07912 20
      vertex -1.04529 -9.94522 20
    endloop
  endfacet
  facet normal 0 0 1
    outer loop
      vertex 3.09017 -9.51056 20
      vertex -9.78148 2.07912 20
      vertex 1.04529 -9.94522 20
    endloop
  endfacet
  facet normal 0 0 1
    outer loop
      vertex 5 -8.66025 20
      vertex -9.78148 2.07912 20
      vertex 3.09017 -9.51056 20
    endloop
  endfacet
  facet normal 0 0 1
    outer loop
      vertex 6.69131 -7.43145 20
      vertex -9.78148 2.07912 20
      vertex 5 -8.66025 20
    endloop
  endfacet
  facet normal 0 0 1
    outer loop
      vertex 8.09017 -5.87785 20
      vertex -9.78148 2.07912 20
      vertex 6.69131 -7.43145 20
    endloop
  endfacet
  facet normal 0 0 1
    outer loop
      vertex 9.13546 -4.06737 20
      vertex -9.78148 2.07912 20
      vertex 8.09017 -5.87785 20
    endloop
  endfacet
  facet normal 0 0 1
    outer loop
      vertex 9.78148 -2.07912 20
      vertex -9.78148 2.07912 20
      vertex 9.13546 -4.06737 20
    endloop
  endfacet
  facet normal 0 0 1
    outer loop
      vertex 10 0 20
      vertex -9.78148 2.07912 20
      vertex 9.78148 -2.07912 20
    endloop
  endfacet
  facet normal 0 0 1
    outer loop
      vertex 10 1 20
      vertex -9.78148 2.07912 20
      vertex 10 0 20
    endloop
  endfacet
  facet normal 0 0 1
    outer loop
      vertex 20 1 20
      vertex -9.78148 2.07912 20
      vertex 10 1 20
    endloop
  endfacet
  facet normal 0 0 1
    outer loop
      vertex 20 10 20
      vertex -9.78148 2.07912 20
      vertex 20 1 20
    endloop
  endfacet
  facet normal 0 0 1
    outer loop
      vertex 0 9.94522 20
      vertex -9.78148 2.07912 20
      vertex 20 10 20
    endloop
  endfacet
  facet normal 0 0 1
    outer loop
      vertex 0 10 20
      vertex 0 9.94522 20
      vertex 20 10 20
    endloop
  endfacet
  facet normal 0 0 1
    outer loop
      vertex -3.09017 9.51056 20
      vertex -9.78148 2.07912 20
      vertex -1.04529 9.94522 20
    endloop
  endfacet
  facet normal 0 0 1
    outer loop
      vertex -5 8.66025 20
      vertex -9.78148 2.07912 20
      vertex -3.09017 9.51056 20
    endloop
  endfacet
  facet normal 0 0 1
    outer loop
      vertex -6.69131 7.43145 20
      vertex -9.78148 2.07912 20
      vertex -5 8.66025 20
    endloop
  endfacet
  facet normal 0 0 1
    outer loop
      vertex -8.09017 5.87785 20
      vertex -9.78148 2.07912 20
      vertex -6.69131 7.43145 20
    endloop
  endfacet
  facet normal 0 0 1
    outer loop
      vertex -9.13546 4.06737 20
      vertex -9.78148 2.07912 20
      vertex -8.09017 5.87785 20
    endloop
  endfacet
  facet normal 0 0 1
    outer loop
      vertex 0 9.94522 20
      vertex -1.04529 9.94522 20
      vertex -9.78148 2.07912 20
    endloop
  endfacet
  facet normal -0.951057 -0.309017 0
    outer loop
      vertex -9.78148 -2.07912 0
      vertex -9.13546 -4.06737 0
      vertex -9.78148 -2.07912 20
    endloop
  endfacet
  facet normal -0.951057 -0.309017 0
    outer loop
      vertex -9.78148 -2.07912 20
      vertex -9.13546 -4.06737 0
      vertex -9.13546 -4.06737 20
    endloop
  endfacet
  facet normal -0.866025 -0.5 0
    outer loop
      vertex -9.13546 -4.06737 0
      vertex -8.09017 -5.87785 0
      vertex -9.13546 -4.06737 20
    endloop
  endfacet
  facet normal -0.866025 -0.5 0
    outer loop
      vertex -9.13546 -4.06737 20
      vertex -8.09017 -5.87785 0
      vertex -8.09017 -5.87785 20
    endloop
  endfacet
  facet normal -0.743145 -0.669131 0
    outer loop
      vertex -8.09017 -5.87785 0
      vertex -6.69131 -7.43145 0
      vertex -8.09017 -5.87785 20
    endloop
  endfacet
  facet normal -0.743145 -0.669131 0
    outer loop
      vertex -8.09017 -5.87785 20
      vertex -6.69131 -7.43145 0
      vertex -6.69131 -7.43145 20
    endloop
  endfacet
  facet normal -0.587785 -0.809017 0
    outer loop
      vertex -6.69131 -7.43145 20
      vertex -6.69131 -7.43145 0
      vertex -5 -8.66025 0
    endloop
  endfacet
  facet normal -0.587785 -0.809017 0
    outer loop
      vertex -5 -8.66025 20
      vertex -6.69131 -7.43145 20
      vertex -5 -8.66025 0
    endloop
  endfacet
  facet normal -0.406737 -0.913545 0
    outer loop
      vertex -5 -8.66025 20
      vertex -5 -8.66025 0
      vertex -3.09017 -9.51056 0
    endloop
  endfacet
  facet normal -0.406737 -0.913545 0
    outer loop
      vertex -3.09017 -9.51056 20
      vertex -5 -8.66025 20
      vertex -3.09017 -9.51056 0
    endloop
  endfacet
  facet normal -0.207912 -0.978148 0
    outer loop
      vertex -3.09017 -9.51056 20
      vertex -3.09017 -9.51056 0
      vertex -1.04529 -9.94522 0
    endloop
  endfacet
  facet normal -0.207912 -0.978148 0
    outer loop
      vertex -1.04529 -9.94522 20
      vertex -3.09017 -9.51056 20
      vertex -1.04529 -9.94522 0
    endloop
  endfacet
  facet normal 0 -1 0
    outer loop
      vertex -1.04529 -9.94522 20
      vertex -1.04529 -9.94522 0
      vertex 1.04529 -9.94522 0
    endloop
  endfacet
  facet normal 0 -1 0
    outer loop
      vertex 1.04529 -9.94522 20
      vertex -1.04529 -9.94522 20
      vertex 1.04529 -9.94522 0
    endloop
  endfacet
  facet normal 0.207912 -0.978148 0
    outer loop
      vertex 1.04529 -9.94522 20
      vertex 1.04529 -9.94522 0
      vertex 3.09017 -9.51056 0
    endloop
  endfacet
  facet normal 0.207912 -0.978148 0
    outer loop
      vertex 3.09017 -9.51056 20
      vertex 1.04529 -9.94522 20
      vertex 3.09017 -9.51056 0
    endloop
  endfacet
  facet normal 0.406737 -0.913545 0
    outer loop
      vertex 3.09017 -9.51056 20
      vertex 3.09017 -9.51056 0
      vertex 5 -8.66025 0
    endloop
  endfacet
  facet normal 0.406737 -0.913545 0
    outer loop
      vertex 5 -8.66025 20
      vertex 3.09017 -9.51056 20
      vertex 5 -8.66025 0
    endloop
  endfacet
  facet normal 0.587785 -0.809017 0
    outer loop
      vertex 5 -8.66025 20
      vertex 5 -8.66025 0
      vertex 6.69131 -7.43145 0
    endloop
  endfacet
  facet normal 0.587785 -0.809017 0
    outer loop
      vertex 6.69131 -7.43145 20
      vertex 5 -8.66025 20
      vertex 6.69131 -7.43145 0
    endloop
  endfacet
  facet normal 0.743145 -0.669131 0
    outer loop
      vertex 6.69131 -7.43145 20
      vertex 6.69131 -7.43145 0
      vertex 8.09017 -5.87785 0
    endloop
  endfacet
  facet normal 0.743145 -0.669131 0
    outer loop
      vertex 8.09017 -5.87785 20
      vertex 6.69131 -7.43145 20
      vertex 8.09017 -5.87785 0
    endloop
  endfacet
  facet normal 0.866025 -0.5 0
    outer loop
      vertex 8.09017 -5.87785 20
      vertex 8.09017 -5.87785 0
      vertex 9.13546 -4.06737 0
    endloop
  endfacet
  facet normal 0.866025 -0.5 0
    outer loop
      vertex 9.13546 -4.06737 20
      vertex 8.09017 -5.87785 20
      vertex 9.13546 -4.06737 0
    endloop
  endfacet
  facet normal 0.951057 -0.309017 0
    outer loop
      vertex 9.13546 -4.06737 20
      vertex 9.13546 -4.06737 0
      vertex 9.78148 -2.07912 0
    endloop
  endfacet
  facet normal 0.951057 -0.309017 0
    outer loop
      vertex 9.78148 -2.07912 20
      vertex 9.13546 -4.06737 20
      vertex 9.78148 -2.07912 0
    endloop
  endfacet
  facet normal 0.994522 -0.104528 0
    outer loop
      vertex 9.78148 -2.07912 20
      vertex 9.78148 -2.07912 0
      vertex 10 0 0
    endloop
  endfacet
  facet normal 0.994522 -0.104528 0
    outer loop
      vertex 10 0 20
      vertex 9.78148 -2.07912 20
      vertex 10 0 0
    endloop
  endfacet
  facet normal 1 0 0
    outer loop
      vertex 10 0 20
      vertex 10 0 0
      vertex 10 1 0
    endloop
  endfacet
  facet normal 1 0 0
    outer loop
      vertex 10 1 20
      vertex 10 0 20
      vertex 10 1 0
    endloop
  endfacet
  facet normal 0 -1 0
    outer loop
      vertex 10 1 20
      vertex 10 1 0
      vertex 20 1 0
    endloop
  endfacet
  facet normal 0 -1 0
    outer loop
      vertex 20 1 20
      vertex 10 1 20
      vertex 20 1 0
    endloop
  endfacet
  facet normal 1 0 0
    outer loop
      vertex 20 3 2
      vertex 20 1 0
      vertex 20 10 0
    endloop
  endfacet
  facet normal 1 0 0
    outer loop
      vertex 20 8 2
      vertex 20 3 2
      vertex 20 10 0
    endloop
  endfacet
  facet normal 1 0 0
    outer loop
      vertex 20 1 20
      vertex 20 1 0
      vertex 20 3 2
    endloop
  endfacet
  facet normal 1 0 0
    outer loop
      vertex 20 10 20
      vertex 20 1 20
      vertex 20 3 18
    endloop
  endfacet
  facet normal 1 0 0
    outer loop
      vertex 20 10 20
      vertex 20 8 18
      vertex 20 10 0
    endloop
  endfacet
  facet normal 1 0 0
    outer loop
      vertex 20 10 20
      vertex 20 3 18
      vertex 20 8 18
    endloop
  endfacet
  facet normal 1 0 0
    outer loop
      vertex 20 8 18
      vertex 20 8 2
      vertex 20 10 0
    endloop
  endfacet
  facet normal 1 0 0
    outer loop
      vertex 20 3 2
      vertex 20 3 18
      vertex 20 1 20
    endloop
  endfacet
  facet normal 0 1 0
    outer loop
      vertex 3 10 18
      vertex 0 10 20
      vertex 20 10 20
    endloop
  endfacet
  facet normal 0 1 0
    outer loop
      vertex 8 10 18
      vertex 3 10 18
      vertex 20 10 20
    endloop
  endfacet
  facet normal 0 1 0
    outer loop
      vertex 0 10 0
      vertex 0 10 20
      vertex 3 10 2
    endloop
  endfacet
  facet normal 0 1 0
    outer loop
      vertex 0 10 0
      vertex 3 10 2
      vertex 20 10 0
    endloop
  endfacet
  facet normal 0 1 0
    outer loop
      vertex 8 10 18
      vertex 20 10 0
      vertex 8 10 2
    endloop
  endfacet
  facet normal 0 1 0
    outer loop
      vertex 3 10 2
      vertex 8 10 2
      vertex 20 10 0
    endloop
  endfacet
  facet normal 0 1 0
    outer loop
      vertex 20 10 0
      vertex 8 10 18
      vertex 20 10 20
    endloop
  endfacet
  facet normal 0 1 0
    outer loop
      vertex 3 10 2
      vertex 0 10 20
      vertex 3 10 18
    endloop
  endfacet
  facet normal -1 0 0
    outer loop
      vertex 0 9.94522 0
      vertex 0 9.94522 20
      vertex 0 10 0
    endloop
  endfacet
  facet normal -1 0 0
    outer loop
      vertex 0 10 0
      vertex 0 9.94522 20
      vertex 0 10 20
    endloop
  endfacet
  facet normal 0 1 0
    outer loop
      vertex -1.04529 9.94522 0
      vertex -1.04529 9.94522 20
      vertex 0 9.94522 0
    endloop
  endfacet
  facet normal 0 1 0
    outer loop
      vertex 0 9.94522 0
      vertex -1.04529 9.94522 20
      vertex 0 9.94522 20
    endloop
  endfacet
  facet normal -0.207912 0.978148 0
    outer loop
      vertex -3.09017 9.51056 0
      vertex -3.09017 9.51056 20
      vertex -1.04529 9.94522 0
    endloop
  endfacet
  facet normal -0.207912 0.978148 0
    outer loop
      vertex -1.04529 9.94522 0
      vertex -3.09017 9.51056 20
      vertex -1.04529 9.94522 20
    endloop
  endfacet
  facet normal -0.406737 0.913545 0
    outer loop
      vertex -5 8.66025 0
      vertex -5 8.66025 20
      vertex -3.09017 9.51056 0
    endloop
  endfacet
  facet normal -0.406737 0.913545 0
    outer loop
      vertex -3.09017 9.51056 0
      vertex -5 8.66025 20
      vertex -3.09017 9.51056 20
    endloop
  endfacet
  facet normal -0.587785 0.809017 0
    outer loop
      vertex -6.69131 7.43145 0
      vertex -6.69131 7.43145 20
      vertex -5 8.66025 0
    endloop
  endfacet
  facet normal -0.587785 0.809017 0
    outer loop
      vertex -5 8.66025 0
      vertex -6.69131 7.43145 20
      vertex -5 8.66025 20
    endloop
  endfacet
  facet normal -0.743145 0.669131 0
    outer loop
      vertex -8.09017 5.87785 0
      vertex -8.09017 5.87785 20
      vertex -6.69131 7.43145 0
    endloop
  endfacet
  facet normal -0.743145 0.669131 0
    outer loop
      vertex -6.69131 7.43145 0
      vertex -8.09017 5.87785 20
      vertex -6.69131 7.43145 20
    endloop
  endfacet
  facet normal -0.866025 0.5 0
    outer loop
      vertex -9.13546 4.06737 0
      vertex -9.13546 4.06737 20
      vertex -8.09017 5.87785 0
    endloop
  endfacet
  facet normal -0.866025 0.5 0
    outer loop
      vertex -8.09017 5.87785 0
      vertex -9.13546 4.06737 20
      vertex -8.09017 5.87785 20
    endloop
  endfacet
  facet normal 0 0 1
    outer loop
      vertex -7.76753 -1.91452 2
      vertex -7.08365 -3.71778 2
      vertex -5.98809 -5.30498 2
    endloop
  endfacet
  facet normal 0 0 1
    outer loop
      vertex -2.83684 -7.48013 2
      vertex -7.76753 -1.91452 2
      vertex -4.54452 -6.58387 2
    endloop
  endfacet
  facet normal 0 0 1
    outer loop
      vertex -4.54452 -6.58387 2
      vertex -7.76753 -1.91452 2
      vertex -5.98809 -5.30498 2
    endloop
  endfacet
  facet normal 0 0 1
    outer loop
      vertex -0.964293 -7.94167 2
      vertex -7.76753 -1.91452 2
      vertex -2.83684 -7.48013 2
    endloop
  endfacet
  facet normal 0 0 1
    outer loop
      vertex 0.964293 -7.94167 2
      vertex -7.76753 -1.91452 2
      vertex -0.964293 -7.94167 2
    endloop
  endfacet
  facet normal 0 0 1
    outer loop
      vertex 2.83684 -7.48013 2
      vertex -7.76753 -1.91452 2
      vertex 0.964293 -7.94167 2
    endloop
  endfacet
  facet normal 0 0 1
    outer loop
      vertex 4.54452 -6.58387 2
      vertex -7.76753 -1.91452 2
      vertex 2.83684 -7.48013 2
    endloop
  endfacet
  facet normal 0 0 1
    outer loop
      vertex 5.98809 -5.30498 2
      vertex -7.76753 -1.91452 2
      vertex 4.54452 -6.58387 2
    endloop
  endfacet
  facet normal 0 0 1
    outer loop
      vertex 7.08365 -3.71778 2
      vertex -7.76753 -1.91452 2
      vertex 5.98809 -5.30498 2
    endloop
  endfacet
  facet normal 0 0 1
    outer loop
      vertex 7.76753 -1.91452 2
      vertex -7.76753 -1.91452 2
      vertex 7.08365 -3.71778 2
    endloop
  endfacet
  facet normal 0 0 1
    outer loop
      vertex 8 0 2
      vertex -7.76753 -1.91452 2
      vertex 7.76753 -1.91452 2
    endloop
  endfacet
  facet normal 0 0 1
    outer loop
      vertex 8 3 2
      vertex -7.76753 -1.91452 2
      vertex 8 0 2
    endloop
  endfacet
  facet normal 0 0 1
    outer loop
      vertex 20 8 2
      vertex -7.76753 -1.91452 2
      vertex 8 3 2
    endloop
  endfacet
  facet normal 0 0 1
    outer loop
      vertex 20 8 2
      vertex 8 3 2
      vertex 20 3 2
    endloop
  endfacet
  facet normal 0 0 1
    outer loop
      vertex 8 8 2
      vertex -7.76753 -1.91452 2
      vertex 20 8 2
    endloop
  endfacet
  facet normal 0 0 1
    outer loop
      vertex 8 10 2
      vertex -7.76753 -1.91452 2
      vertex 8 8 2
    endloop
  endfacet
  facet normal 0 0 1
    outer loop
      vertex 3 8 2
      vertex -7.76753 -1.91452 2
      vertex 8 10 2
    endloop
  endfacet
  facet normal 0 0 1
    outer loop
      vertex 0 7.94167 2
      vertex -0.964293 7.94167 2
      vertex -7.76753 -1.91452 2
    endloop
  endfacet
  facet normal 0 0 1
    outer loop
      vertex 3 10 2
      vertex 3 8 2
      vertex 8 10 2
    endloop
  endfacet
  facet normal 0 0 1
    outer loop
      vertex -2.83684 7.48013 2
      vertex -7.76753 -1.91452 2
      vertex -0.964293 7.94167 2
    endloop
  endfacet
  facet normal 0 0 1
    outer loop
      vertex -4.54452 6.58387 2
      vertex -7.76753 -1.91452 2
      vertex -2.83684 7.48013 2
    endloop
  endfacet
  facet normal 0 0 1
    outer loop
      vertex -5.98809 5.30498 2
      vertex -7.76753 -1.91452 2
      vertex -4.54452 6.58387 2
    endloop
  endfacet
  facet normal 0 0 1
    outer loop
      vertex -7.08365 3.71778 2
      vertex -7.76753 -1.91452 2
      vertex -5.98809 5.30498 2
    endloop
  endfacet
  facet normal 0 0 1
    outer loop
      vertex -7.76753 1.91452 2
      vertex -7.76753 -1.91452 2
      vertex -7.08365 3.71778 2
    endloop
  endfacet
  facet normal 0 0 1
    outer loop
      vertex -8 0 2
      vertex -7.76753 -1.91452 2
      vertex -7.76753 1.91452 2
    endloop
  endfacet
  facet normal 0 0 1
    outer loop
      vertex 3 8 2
      vertex 0 7.94167 2
      vertex -7.76753 -1.91452 2
    endloop
  endfacet
  facet normal 0 0 1
    outer loop
      vertex 3 8 2
      vertex 0 8 2
      vertex 0 7.94167 2
    endloop
  endfacet
  facet normal 0 1 0
    outer loop
      vertex 20 3 18
      vertex 20 3 2
      vertex 8 3 18
    endloop
  endfacet
  facet normal 0 1 0
    outer loop
      vertex 8 3 18
      vertex 20 3 2
      vertex 8 3 2
    endloop
  endfacet
  facet normal 0 -1 0
    outer loop
      vertex 20 8 2
      vertex 20 8 18
      vertex 8 8 18
    endloop
  endfacet
  facet normal 0 -1 0
    outer loop
      vertex 8 8 2
      vertex 20 8 2
      vertex 8 8 18
    endloop
  endfacet
  facet normal 0 0 -1
    outer loop
      vertex -7.08365 3.71778 18
      vertex -5.98809 5.30498 18
      vertex -7.76753 1.91452 18
    endloop
  endfacet
  facet normal 0 0 -1
    outer loop
      vertex -7.76753 1.91452 18
      vertex -5.98809 5.30498 18
      vertex -4.54452 6.58387 18
    endloop
  endfacet
  facet normal 0 0 -1
    outer loop
      vertex -7.76753 1.91452 18
      vertex -4.54452 6.58387 18
      vertex -2.83684 7.48013 18
    endloop
  endfacet
  facet normal 0 0 -1
    outer loop
      vertex -7.76753 1.91452 18
      vertex -2.83684 7.48013 18
      vertex -0.964293 7.94167 18
    endloop
  endfacet
  facet normal 0 0 -1
    outer loop
      vertex -7.76753 1.91452 18
      vertex -0.964293 7.94167 18
      vertex 0 7.94167 18
    endloop
  endfacet
  facet normal 0 0 -1
    outer loop
      vertex 0 7.94167 18
      vertex 0 8 18
      vertex 3 8 18
    endloop
  endfacet
  facet normal 0 0 -1
    outer loop
      vertex 0 7.94167 18
      vertex 3 8 18
      vertex -7.76753 1.91452 18
    endloop
  endfacet
  facet normal 0 0 -1
    outer loop
      vertex 3 8 18
      vertex 3 10 18
      vertex 8 10 18
    endloop
  endfacet
  facet normal 0 0 -1
    outer loop
      vertex 3 8 18
      vertex 8 10 18
      vertex -7.76753 1.91452 18
    endloop
  endfacet
  facet normal 0 0 -1
    outer loop
      vertex -7.76753 1.91452 18
      vertex 8 10 18
      vertex 8 8 18
    endloop
  endfacet
  facet normal 0 0 -1
    outer loop
      vertex -7.76753 1.91452 18
      vertex 8 8 18
      vertex 20 8 18
    endloop
  endfacet
  facet normal 0 0 -1
    outer loop
      vertex 8 3 18
      vertex 20 8 18
      vertex 20 3 18
    endloop
  endfacet
  facet normal 0 0 -1
    outer loop
      vertex -7.76753 1.91452 18
      vertex 20 8 18
      vertex 8 3 18
    endloop
  endfacet
  facet normal 0 0 -1
    outer loop
      vertex -7.76753 1.91452 18
      vertex 8 0 18
      vertex 7.76753 -1.91452 18
    endloop
  endfacet
  facet normal 0 0 -1
    outer loop
      vertex -7.76753 1.91452 18
      vertex 7.76753 -1.91452 18
      vertex 7.08365 -3.71778 18
    endloop
  endfacet
  facet normal 0 0 -1
    outer loop
      vertex -7.76753 1.91452 18
      vertex 7.08365 -3.71778 18
      vertex 5.98809 -5.30498 18
    endloop
  endfacet
  facet normal 0 0 -1
    outer loop
      vertex -7.76753 1.91452 18
      vertex 5.98809 -5.30498 18
      vertex 4.54452 -6.58387 18
    endloop
  endfacet
  facet normal 0 0 -1
    outer loop
      vertex -7.76753 1.91452 18
      vertex 4.54452 -6.58387 18
      vertex 2.83684 -7.48013 18
    endloop
  endfacet
  facet normal 0 0 -1
    outer loop
      vertex -7.76753 1.91452 18
      vertex 2.83684 -7.48013 18
      vertex 0.964293 -7.94167 18
    endloop
  endfacet
  facet normal 0 0 -1
    outer loop
      vertex -7.76753 1.91452 18
      vertex 0.964293 -7.94167 18
      vertex -0.964293 -7.94167 18
    endloop
  endfacet
  facet normal 0 0 -1
    outer loop
      vertex -7.76753 1.91452 18
      vertex -0.964293 -7.94167 18
      vertex -2.83684 -7.48013 18
    endloop
  endfacet
  facet normal 0 0 -1
    outer loop
      vertex -7.76753 1.91452 18
      vertex -2.83684 -7.48013 18
      vertex -4.54452 -6.58387 18
    endloop
  endfacet
  facet normal 0 0 -1
    outer loop
      vertex -7.76753 1.91452 18
      vertex -4.54452 -6.58387 18
      vertex -5.98809 -5.30498 18
    endloop
  endfacet
  facet normal 0 0 -1
    outer loop
      vertex -7.76753 1.91452 18
      vertex -5.98809 -5.30498 18
      vertex -7.08365 -3.71778 18
    endloop
  endfacet
  facet normal 0 0 -1
    outer loop
      vertex -7.76753 1.91452 18
      vertex -7.08365 -3.71778 18
      vertex -7.76753 -1.91452 18
    endloop
  endfacet
  facet normal 0 0 -1
    outer loop
      vertex -7.76753 1.91452 18
      vertex -7.76753 -1.91452 18
      vertex -8 0 18
    endloop
  endfacet
  facet normal 0 0 -1
    outer loop
      vertex 8 0 18
      vertex -7.76753 1.91452 18
      vertex 8 3 18
    endloop
  endfacet
  facet normal 1 0 0
    outer loop
      vertex 3 10 2
      vertex 3 10 18
      vertex 3 8 18
    endloop
  endfacet
  facet normal 1 0 0
    outer loop
      vertex 3 8 2
      vertex 3 10 2
      vertex 3 8 18
    endloop
  endfacet
  facet normal -1 0 0
    outer loop
      vertex 8 10 18
      vertex 8 10 2
      vertex 8 8 18
    endloop
  endfacet
  facet normal -1 0 0
    outer loop
      vertex 8 8 18
      vertex 8 10 2
      vertex 8 8 2
    endloop
  endfacet
  facet normal 0.935016 0.354605 0
    outer loop
      vertex -7.76753 -1.91452 18
      vertex -7.08365 -3.71778 18
      vertex -7.08365 -3.71778 2
    endloop
  endfacet
  facet normal 0.935016 0.354605 0
    outer loop
      vertex -7.76753 -1.91452 2
      vertex -7.76753 -1.91452 18
      vertex -7.08365 -3.71778 2
    endloop
  endfacet
  facet normal 0.992709 0.120536 0
    outer loop
      vertex -8 0 18
      vertex -7.76753 -1.91452 18
      vertex -7.76753 -1.91452 2
    endloop
  endfacet
  facet normal 0.992709 0.120536 0
    outer loop
      vertex -8 0 2
      vertex -8 0 18
      vertex -7.76753 -1.91452 2
    endloop
  endfacet
  facet normal 0.992709 -0.120536 0
    outer loop
      vertex -7.76753 1.91452 2
      vertex -7.76753 1.91452 18
      vertex -8 0 18
    endloop
  endfacet
  facet normal 0.992709 -0.120536 0
    outer loop
      vertex -8 0 2
      vertex -7.76753 1.91452 2
      vertex -8 0 18
    endloop
  endfacet
  facet normal 0.935016 -0.354605 0
    outer loop
      vertex -7.08365 3.71778 2
      vertex -7.08365 3.71778 18
      vertex -7.76753 1.91452 18
    endloop
  endfacet
  facet normal 0.935016 -0.354605 0
    outer loop
      vertex -7.76753 1.91452 2
      vertex -7.08365 3.71778 2
      vertex -7.76753 1.91452 18
    endloop
  endfacet
  facet normal 0.822984 -0.568065 0
    outer loop
      vertex -5.98809 5.30498 2
      vertex -5.98809 5.30498 18
      vertex -7.08365 3.71778 18
    endloop
  endfacet
  facet normal 0.822984 -0.568065 0
    outer loop
      vertex -7.08365 3.71778 2
      vertex -5.98809 5.30498 2
      vertex -7.08365 3.71778 18
    endloop
  endfacet
  facet normal 0.663123 -0.748511 0
    outer loop
      vertex -4.54452 6.58387 2
      vertex -4.54452 6.58387 18
      vertex -5.98809 5.30498 18
    endloop
  endfacet
  facet normal 0.663123 -0.748511 0
    outer loop
      vertex -5.98809 5.30498 2
      vertex -4.54452 6.58387 2
      vertex -5.98809 5.30498 18
    endloop
  endfacet
  facet normal 0.464723 -0.885456 0
    outer loop
      vertex -2.83684 7.48013 2
      vertex -2.83684 7.48013 18
      vertex -4.54452 6.58387 18
    endloop
  endfacet
  facet normal 0.464723 -0.885456 0
    outer loop
      vertex -4.54452 6.58387 2
      vertex -2.83684 7.48013 2
      vertex -4.54452 6.58387 18
    endloop
  endfacet
  facet normal 0.239316 -0.970942 0
    outer loop
      vertex -0.964293 7.94167 2
      vertex -0.964293 7.94167 18
      vertex -2.83684 7.48013 18
    endloop
  endfacet
  facet normal 0.239316 -0.970942 0
    outer loop
      vertex -2.83684 7.48013 2
      vertex -0.964293 7.94167 2
      vertex -2.83684 7.48013 18
    endloop
  endfacet
  facet normal 0 -1 0
    outer loop
      vertex 0 7.94167 2
      vertex 0 7.94167 18
      vertex -0.964293 7.94167 18
    endloop
  endfacet
  facet normal 0 -1 0
    outer loop
      vertex -0.964293 7.94167 2
      vertex 0 7.94167 2
      vertex -0.964293 7.94167 18
    endloop
  endfacet
  facet normal 1 0 0
    outer loop
      vertex 0 8 2
      vertex 0 8 18
      vertex 0 7.94167 18
    endloop
  endfacet
  facet normal 1 0 0
    outer loop
      vertex 0 7.94167 2
      vertex 0 8 2
      vertex 0 7.94167 18
    endloop
  endfacet
  facet normal 0 -1 0
    outer loop
      vertex 3 8 2
      vertex 3 8 18
      vertex 0 8 18
    endloop
  endfacet
  facet normal 0 -1 0
    outer loop
      vertex 0 8 2
      vertex 3 8 2
      vertex 0 8 18
    endloop
  endfacet
  facet normal -1 0 0
    outer loop
      vertex 8 3 18
      vertex 8 3 2
      vertex 8 0 18
    endloop
  endfacet
  facet normal -1 0 0
    outer loop
      vertex 8 0 18
      vertex 8 3 2
      vertex 8 0 2
    endloop
  endfacet
  facet normal -0.992709 0.120536 0
    outer loop
      vertex 8 0 18
      vertex 8 0 2
      vertex 7.76753 -1.91452 18
    endloop
  endfacet
  facet normal -0.992709 0.120536 0
    outer loop
      vertex 7.76753 -1.91452 18
      vertex 8 0 2
      vertex 7.76753 -1.91452 2
    endloop
  endfacet
  facet normal -0.935016 0.354605 0
    outer loop
      vertex 7.76753 -1.91452 18
      vertex 7.76753 -1.91452 2
      vertex 7.08365 -3.71778 18
    endloop
  endfacet
  facet normal -0.935016 0.354605 0
    outer loop
      vertex 7.08365 -3.71778 18
      vertex 7.76753 -1.91452 2
      vertex 7.08365 -3.71778 2
    endloop
  endfacet
  facet normal -0.822984 0.568065 0
    outer loop
      vertex 7.08365 -3.71778 18
      vertex 7.08365 -3.71778 2
      vertex 5.98809 -5.30498 18
    endloop
  endfacet
  facet normal -0.822984 0.568065 0
    outer loop
      vertex 5.98809 -5.30498 18
      vertex 7.08365 -3.71778 2
      vertex 5.98809 -5.30498 2
    endloop
  endfacet
  facet normal -0.663123 0.748511 0
    outer loop
      vertex 5.98809 -5.30498 18
      vertex 5.98809 -5.30498 2
      vertex 4.54452 -6.58387 18
    endloop
  endfacet
  facet normal -0.663123 0.748511 0
    outer loop
      vertex 4.54452 -6.58387 18
      vertex 5.98809 -5.30498 2
      vertex 4.54452 -6.58387 2
    endloop
  endfacet
  facet normal -0.464723 0.885456 0
    outer loop
      vertex 4.54452 -6.58387 18
      vertex 4.54452 -6.58387 2
      vertex 2.83684 -7.48013 18
    endloop
  endfacet
  facet normal -0.464723 0.885456 0
    outer loop
      vertex 2.83684 -7.48013 18
      vertex 4.54452 -6.58387 2
      vertex 2.83684 -7.48013 2
    endloop
  endfacet
  facet normal -0.239316 0.970942 0
    outer loop
      vertex 2.83684 -7.48013 18
      vertex 2.83684 -7.48013 2
      vertex 0.964293 -7.94167 18
    endloop
  endfacet
  facet normal -0.239316 0.970942 0
    outer loop
      vertex 0.964293 -7.94167 18
      vertex 2.83684 -7.48013 2
      vertex 0.964293 -7.94167 2
    endloop
  endfacet
  facet normal 0 1 0
    outer loop
      vertex 0.964293 -7.94167 18
      vertex 0.964293 -7.94167 2
      vertex -0.964293 -7.94167 18
    endloop
  endfacet
  facet normal 0 1 0
    outer loop
      vertex -0.964293 -7.94167 18
      vertex 0.964293 -7.94167 2
      vertex -0.964293 -7.94167 2
    endloop
  endfacet
  facet normal 0.239316 0.970942 0
    outer loop
      vertex -0.964293 -7.94167 18
      vertex -0.964293 -7.94167 2
      vertex -2.83684 -7.48013 18
    endloop
  endfacet
  facet normal 0.239316 0.970942 0
    outer loop
      vertex -2.83684 -7.48013 18
      vertex -0.964293 -7.94167 2
      vertex -2.83684 -7.48013 2
    endloop
  endfacet
  facet normal 0.464723 0.885456 0
    outer loop
      vertex -2.83684 -7.48013 18
      vertex -2.83684 -7.48013 2
      vertex -4.54452 -6.58387 18
    endloop
  endfacet
  facet normal 0.464723 0.885456 0
    outer loop
      vertex -4.54452 -6.58387 18
      vertex -2.83684 -7.48013 2
      vertex -4.54452 -6.58387 2
    endloop
  endfacet
  facet normal 0.663123 0.748511 0
    outer loop
      vertex -4.54452 -6.58387 18
      vertex -4.54452 -6.58387 2
      vertex -5.98809 -5.30498 18
    endloop
  endfacet
  facet normal 0.663123 0.748511 0
    outer loop
      vertex -5.98809 -5.30498 18
      vertex -4.54452 -6.58387 2
      vertex -5.98809 -5.30498 2
    endloop
  endfacet
  facet normal 0.822984 0.568065 0
    outer loop
      vertex -7.08365 -3.71778 18
      vertex -5.98809 -5.30498 18
      vertex -5.98809 -5.30498 2
    endloop
  endfacet
  facet normal 0.822984 0.568065 0
    outer loop
      vertex -7.08365 -3.71778 2
      vertex -7.08365 -3.71778 18
      vertex -5.98809 -5.30498 2
    endloop
  endfacet
endsolid OpenSCAD_Model
