solid model
facet normal -0.555570233019601 -0.831469612302546 -3.19354184630953e-16
outer loop
vertex 0.977745487356873 -1.82923314706559 2.0
vertex 0.889461530116642 -1.76705656925741 -6.68625952925989e-16
vertex 0.977745487356873 -1.82923314706559 -6.92786406822252e-16
endloop
endfacet
facet normal -0.595699304492417 -0.803207531480657 -3.09645715611864e-16
outer loop
vertex 0.889461530116642 -1.76705656925741 -6.68625952925989e-16
vertex 0.977745487356873 -1.82923314706559 2.0
vertex 0.889461530116642 -1.76705656925741 2.0
endloop
endfacet
facet normal 0.55557023301962 -0.831469612302534 -2.97766267655848e-16
outer loop
vertex 3.42225451264312 -1.82923314706559 -6.92786406822253e-16
vertex 3.33102603722508 -1.88700294200059 2.0
vertex 3.33102603722508 -1.88700294200059 -7.15234481584903e-16
endloop
endfacet
facet normal 0.514102744193216 -0.857728610000276 -3.08316695972818e-16
outer loop
vertex 3.33102603722508 -1.88700294200059 2.0
vertex 3.42225451264312 -1.82923314706559 -6.92786406822253e-16
vertex 3.42225451264312 -1.82923314706559 2.0
endloop
endfacet
facet normal 0.773010453362735 -0.634393284163648 -2.20406241407178e-16
outer loop
vertex 3.90062299739802 -1.39566522516001 -5.24311425448794e-16
vertex 3.8300924757809 -1.47742970066343 2.0
vertex 3.8300924757809 -1.47742970066343 -5.56083306603897e-16
endloop
endfacet
facet normal 0.740951125354953 -0.671558954847025 -2.34821372869756e-16
outer loop
vertex 3.8300924757809 -1.47742970066343 2.0
vertex 3.90062299739802 -1.39566522516001 -5.24311425448794e-16
vertex 3.90062299739802 -1.39566522516001 2.0
endloop
endfacet
facet normal -0.671558954847025 -0.740951125354953 -2.88016072265662e-16
outer loop
vertex 0.722570299336554 -1.6300924757809 2.0
vertex 0.644365081389594 -1.5556349186104 -5.86472138367589e-16
vertex 0.722570299336554 -1.6300924757809 -6.15404711382401e-16
endloop
endfacet
facet normal -0.70710678118656 -0.707106781186535 -2.76147005643911e-16
outer loop
vertex 0.644365081389594 -1.5556349186104 -5.86472138367589e-16
vertex 0.722570299336554 -1.6300924757809 2.0
vertex 0.644365081389594 -1.5556349186104 2.0
endloop
endfacet
facet normal -0.0980171403295535 -0.995184726672197 -3.71219606929726e-16
outer loop
vertex 1.98436229127496 -2.18940639867882 2.0
vertex 1.8771929561982 -2.17618832192251 -8.27605575095902e-16
vertex 1.98436229127496 -2.18940639867882 -8.32741829700546e-16
endloop
endfacet
facet normal -0.146730474455363 -0.989176509964781 -3.69936376786866e-16
outer loop
vertex 1.8771929561982 -2.17618832192251 -8.27605575095902e-16
vertex 1.98436229127496 -2.18940639867882 2.0
vertex 1.8771929561982 -2.17618832192251 2.0
endloop
endfacet
facet normal 0.991384589968245 0.13098318507921 6.78693784188065e-17
outer loop
vertex 3.39999999999999 7.56879281389223 2.95908027593586e-15
vertex 4.39999999999999 5.63993296509579e-15 2.0
vertex 4.39999999999999 5.63993296509579e-15 1.80134582256628e-17
endloop
endfacet
facet normal 0.99857410634929 0.0533830884149375 3.92114919308005e-17
outer loop
vertex 4.39999999999999 5.63993296509579e-15 2.0
vertex 3.39999999999999 7.56879281389223 2.95908027593586e-15
vertex 3.39999999999999 7.56879281389223 2.0
endloop
endfacet
facet normal 0.97003125319454 -0.24298017990328 -7.1324125437841e-17
outer loop
vertex 4.33406875702799 -0.534556395787172 -1.89703428271584e-16
vertex 4.30526873861085 -0.638626289959809 2.0
vertex 4.30526873861085 -0.638626289959809 -2.30142705709852e-16
endloop
endfacet
facet normal 0.956940335732213 -0.290284677254448 -8.91332681838306e-17
outer loop
vertex 4.30526873861085 -0.638626289959809 2.0
vertex 4.33406875702799 -0.534556395787172 -1.89703428271584e-16
vertex 4.33406875702799 -0.534556395787172 2.0
endloop
endfacet
facet normal -0.634393284163647 -0.773010453362735 -2.99191282942096e-16
outer loop
vertex 0.804334774839978 -1.70062299739801 2.0
vertex 0.722570299336554 -1.6300924757809 -6.15404711382401e-16
vertex 0.804334774839978 -1.70062299739801 -6.42811324545752e-16
endloop
endfacet
facet normal -0.671558954847025 -0.740951125354953 -2.88016072265662e-16
outer loop
vertex 0.722570299336554 -1.6300924757809 -6.15404711382401e-16
vertex 0.804334774839978 -1.70062299739801 2.0
vertex 0.722570299336554 -1.6300924757809 2.0
endloop
endfacet
facet normal 0.956940335732213 -0.290284677254448 -8.91332681838306e-17
outer loop
vertex 4.30526873861085 -0.638626289959809 -2.30142705709852e-16
vertex 4.27139694340264 -0.741157677462877 2.0
vertex 4.27139694340264 -0.741157677462877 -2.69984153213286e-16
endloop
endfacet
facet normal 0.941544065183025 -0.336889853392209 -1.06727681079626e-16
outer loop
vertex 4.27139694340264 -0.741157677462877 2.0
vertex 4.30526873861085 -0.638626289959809 -2.30142705709852e-16
vertex 4.30526873861085 -0.638626289959809 2.0
endloop
endfacet
facet normal -0.327290934724779 0.944923618102004 3.44304451962972e-16
outer loop
vertex 10.6385811198419 11.898078234597 2.0
vertex 14.1294843895924 13.1072140549984 5.11118924961806e-15
vertex 10.6385811198419 11.898078234597 4.64134559992004e-15
endloop
endfacet
facet normal -0.327290934724779 0.944923618102004 3.44304451962972e-16
outer loop
vertex 14.1294843895924 13.1072140549984 5.11118924961806e-15
vertex 10.6385811198419 11.898078234597 2.0
vertex 14.1294843895924 13.1072140549984 2.0
endloop
endfacet
facet normal 0.595699304492434 -0.803207531480645 -2.86498494318862e-16
outer loop
vertex 3.51053846988334 -1.76705656925741 -6.68625952925989e-16
vertex 3.42225451264312 -1.82923314706559 2.0
vertex 3.42225451264312 -1.82923314706559 -6.92786406822253e-16
endloop
endfacet
facet normal 0.55557023301962 -0.831469612302533 -2.97766267655848e-16
outer loop
vertex 3.42225451264312 -1.82923314706559 2.0
vertex 3.51053846988334 -1.76705656925741 -6.68625952925989e-16
vertex 3.51053846988334 -1.76705656925741 2.0
endloop
endfacet
facet normal -1.0 -0.0 0.0
outer loop
vertex 1.2 1.00000000000001 4.0
vertex 1.2 -0.999999999999993 2.0
vertex 1.2 -0.999999999999995 4.0
endloop
endfacet
facet normal -1.0 -0.0 0.0
outer loop
vertex 1.2 -0.999999999999993 2.0
vertex 1.2 1.00000000000001 4.0
vertex 1.2 1.00000000000001 2.0
endloop
endfacet
facet normal 0.146730474455363 -0.989176509964781 -3.64234837877837e-16
outer loop
vertex 2.52280704380179 -2.17618832192251 -8.27605575095902e-16
vertex 2.41563770872503 -2.18940639867882 2.0
vertex 2.41563770872503 -2.18940639867882 -8.32741829700546e-16
endloop
endfacet
facet normal 0.0980171403295535 -0.995184726672197 -3.67410932955114e-16
outer loop
vertex 2.41563770872503 -2.18940639867882 2.0
vertex 2.52280704380179 -2.17618832192251 -8.27605575095902e-16
vertex 2.52280704380179 -2.17618832192251 2.0
endloop
endfacet
facet normal 0.98078528040323 -0.19509032201613 -5.33431566263987e-17
outer loop
vertex 4.3577276168871 -0.429198708435477 -1.48763742659896e-16
vertex 4.33406875702799 -0.534556395787172 2.0
vertex 4.33406875702799 -0.534556395787172 -1.89703428271584e-16
endloop
endfacet
facet normal 0.97003125319454 -0.24298017990328 -7.1324125437841e-17
outer loop
vertex 4.33406875702799 -0.534556395787172 2.0
vertex 4.3577276168871 -0.429198708435477 -1.48763742659896e-16
vertex 4.3577276168871 -0.429198708435477 2.0
endloop
endfacet
facet normal 0.471396736825982 -0.881921264348363 -3.18124362363832e-16
outer loop
vertex 3.23707282101719 -1.94022678156637 -7.35916097835613e-16
vertex 3.14062120554661 -1.98877644487157 2.0
vertex 3.14062120554661 -1.98877644487157 -7.54781431749341e-16
endloop
endfacet
facet normal 0.427555093430271 -0.903989293123449 -3.27165639301505e-16
outer loop
vertex 3.14062120554661 -1.98877644487157 2.0
vertex 3.23707282101719 -1.94022678156637 -7.35916097835613e-16
vertex 3.23707282101719 -1.94022678156637 2.0
endloop
endfacet
facet normal 0.923879532511281 -0.382683432365104 -1.24064977643468e-16
outer loop
vertex 4.23253497152482 -0.841903551203192 -3.09131789245153e-16
vertex 4.18877644487157 -0.940621205546612 2.0
vertex 4.18877644487157 -0.940621205546612 -3.47491303721321e-16
endloop
endfacet
facet normal 0.903989293123444 -0.42755509343028 -1.41103390809343e-16
outer loop
vertex 4.18877644487157 -0.940621205546612 2.0
vertex 4.23253497152482 -0.841903551203192 -3.09131789245153e-16
vertex 4.23253497152482 -0.841903551203192 2.0
endloop
endfacet
facet normal -0.989176509964781 -0.146730474455363 -7.36703326711775e-17
outer loop
vertex 0.0238116780774831 -0.322807043801792 2.0
vertex 0.0422723831128917 -0.429198708435477 -1.48763742659896e-16
vertex 0.0422723831128917 -0.429198708435477 2.0
endloop
endfacet
facet normal -0.980785280403231 -0.195090322016124 -9.14537499327831e-17
outer loop
vertex 0.0422723831128917 -0.429198708435477 -1.48763742659896e-16
vertex 0.0238116780774831 -0.322807043801792 2.0
vertex 0.0238116780774831 -0.322807043801792 -1.07422276163315e-16
endloop
endfacet
facet normal 0.995184726672198 -0.0980171403295522 -1.70393213103092e-17
outer loop
vertex 4.38940639867883 -0.215637708725025 -6.57786239957169e-17
vertex 4.37618832192251 -0.322807043801792 2.0
vertex 4.37618832192251 -0.322807043801792 -1.07422276163315e-16
endloop
endfacet
facet normal 0.989176509964781 -0.14673047445536 -3.52336794783391e-17
outer loop
vertex 4.37618832192251 -0.322807043801792 2.0
vertex 4.38940639867883 -0.215637708725025 -6.57786239957169e-17
vertex 4.38940639867883 -0.215637708725025 2.0
endloop
endfacet
facet normal 0.232603986586774 -0.972571532291553 -3.56404290510396e-16
outer loop
vertex 10.6385811198419 9.30000000000001 3.63178940338055e-15
vertex 3.39999999999999 7.56879281389223 2.0
vertex 3.39999999999999 7.56879281389223 2.95908027593586e-15
endloop
endfacet
facet normal 0.232603986586774 -0.972571532291553 -3.56404290510396e-16
outer loop
vertex 3.39999999999999 7.56879281389223 2.0
vertex 10.6385811198419 9.30000000000001 3.63178940338055e-15
vertex 10.6385811198419 9.30000000000001 2.0
endloop
endfacet
facet normal -0.427555093430292 -0.903989293123439 -3.43779243326122e-16
outer loop
vertex 1.25937879445337 -1.98877644487157 2.0
vertex 1.1629271789828 -1.94022678156637 -7.3591609783561e-16
vertex 1.25937879445337 -1.98877644487157 -7.54781431749341e-16
endloop
endfacet
facet normal -0.471396736826003 -0.881921264348352 -3.36441530945056e-16
outer loop
vertex 1.1629271789828 -1.94022678156637 -7.3591609783561e-16
vertex 1.25937879445337 -1.98877644487157 2.0
vertex 1.1629271789828 -1.94022678156637 2.0
endloop
endfacet
facet normal 0.290284677254448 -0.956940335732213 -3.49482862873463e-16
outer loop
vertex 2.83862628995981 -2.10526873861085 -8.00047781094603e-16
vertex 2.73455639578717 -2.13406875702799 2.0
vertex 2.73455639578717 -2.13406875702799 -8.1123883633932e-16
endloop
endfacet
facet normal 0.242980179903275 -0.970031253194541 -3.5525999224239e-16
outer loop
vertex 2.73455639578717 -2.13406875702799 2.0
vertex 2.83862628995981 -2.10526873861085 -8.00047781094603e-16
vertex 2.83862628995981 -2.10526873861085 2.0
endloop
endfacet
facet normal 0.737061842074978 -0.675825303578551 -2.3648018776778e-16
outer loop
vertex 14.1294843895924 13.1072140549984 5.11118924961806e-15
vertex 10.6385811198419 9.30000000000001 2.0
vertex 10.6385811198419 9.30000000000001 3.63178940338055e-15
endloop
endfacet
facet normal 0.737061842074978 -0.675825303578551 -2.3648018776778e-16
outer loop
vertex 10.6385811198419 9.30000000000001 2.0
vertex 14.1294843895924 13.1072140549984 5.11118924961806e-15
vertex 14.1294843895924 13.1072140549984 2.0
endloop
endfacet
facet normal 0.989176509964781 -0.14673047445536 -3.52336794783391e-17
outer loop
vertex 4.37618832192251 -0.322807043801792 -1.07422276163315e-16
vertex 4.3577276168871 -0.429198708435477 2.0
vertex 4.3577276168871 -0.429198708435477 -1.48763742659896e-16
endloop
endfacet
facet normal 0.98078528040323 -0.19509032201613 -5.33431566263987e-17
outer loop
vertex 4.3577276168871 -0.429198708435477 2.0
vertex 4.37618832192251 -0.322807043801792 -1.07422276163315e-16
vertex 4.37618832192251 -0.322807043801792 2.0
endloop
endfacet
facet normal 0.242980179903275 -0.970031253194541 -3.5525999224239e-16
outer loop
vertex 2.73455639578717 -2.13406875702799 -8.1123883633932e-16
vertex 2.62919870843547 -2.1577276168871 2.0
vertex 2.62919870843547 -2.1577276168871 -8.20432150172508e-16
endloop
endfacet
facet normal 0.195090322016124 -0.980785280403231 -3.6018126917291e-16
outer loop
vertex 2.62919870843547 -2.1577276168871 2.0
vertex 2.73455639578717 -2.13406875702799 -8.1123883633932e-16
vertex 2.73455639578717 -2.13406875702799 2.0
endloop
endfacet
facet normal 0.998795456205173 -0.0490676743274138 1.19608607522163e-18
outer loop
vertex 4.39735000365137 -0.107948883520316 -2.39331093627314e-17
vertex 4.38940639867883 -0.215637708725025 2.0
vertex 4.38940639867883 -0.215637708725025 -6.57786239957169e-17
endloop
endfacet
facet normal 0.995184726672198 -0.0980171403295522 -1.70393213103092e-17
outer loop
vertex 4.38940639867883 -0.215637708725025 2.0
vertex 4.39735000365137 -0.107948883520316 -2.39331093627314e-17
vertex 4.39735000365137 -0.107948883520316 2.0
endloop
endfacet
facet normal -0.803207531480645 -0.595699304492434 -2.36670546948287e-16
outer loop
vertex 0.432943430742582 -1.31053846988334 2.0
vertex 0.499377002601976 -1.39566522516001 -5.24311425448794e-16
vertex 0.499377002601976 -1.39566522516001 2.0
endloop
endfacet
facet normal -0.773010453362735 -0.634393284163648 -2.50443281724077e-16
outer loop
vertex 0.499377002601976 -1.39566522516001 -5.24311425448794e-16
vertex 0.432943430742582 -1.31053846988334 2.0
vertex 0.432943430742582 -1.31053846988334 -4.91233036146868e-16
endloop
endfacet
facet normal -0.595699304492417 -0.803207531480657 -3.09645715611864e-16
outer loop
vertex 0.889461530116642 -1.76705656925741 2.0
vertex 0.804334774839978 -1.70062299739801 -6.42811324545752e-16
vertex 0.889461530116642 -1.76705656925741 -6.68625952925989e-16
endloop
endfacet
facet normal -0.634393284163648 -0.773010453362735 -2.99191282942096e-16
outer loop
vertex 0.804334774839978 -1.70062299739801 -6.42811324545752e-16
vertex 0.889461530116642 -1.76705656925741 2.0
vertex 0.804334774839978 -1.70062299739801 2.0
endloop
endfacet
facet normal -0.881921264348346 -0.471396736826014 -1.92070885639615e-16
outer loop
vertex 0.259773218433622 -1.03707282101719 2.0
vertex 0.312997057999403 -1.13102603722508 -4.2147844356658e-16
vertex 0.312997057999403 -1.13102603722508 2.0
endloop
endfacet
facet normal -0.85772861000028 -0.514102744193208 -2.07449150454226e-16
outer loop
vertex 0.312997057999403 -1.13102603722508 -4.2147844356658e-16
vertex 0.259773218433622 -1.03707282101719 2.0
vertex 0.259773218433622 -1.03707282101719 -3.84970285211526e-16
endloop
endfacet
facet normal -0.242980179903275 -0.970031253194541 -3.64701527512984e-16
outer loop
vertex 1.66544360421281 -2.13406875702799 2.0
vertex 1.56137371004018 -2.10526873861085 -8.00047781094603e-16
vertex 1.66544360421281 -2.13406875702799 -8.1123883633932e-16
endloop
endfacet
facet normal -0.290284677254471 -0.956940335732206 -3.60762519592382e-16
outer loop
vertex 1.56137371004018 -2.10526873861085 -8.00047781094603e-16
vertex 1.66544360421281 -2.13406875702799 2.0
vertex 1.56137371004018 -2.10526873861085 2.0
endloop
endfacet
facet normal 0.99857410634929 0.0533830884149375 3.92114919308005e-17
outer loop
vertex 4.39999999999999 5.63993296509579e-15 1.80134582256628e-17
vertex 4.39735000365137 -0.107948883520316 2.0
vertex 4.39735000365137 -0.107948883520316 -2.39331093627314e-17
endloop
endfacet
facet normal 0.998795456205173 -0.0490676743274137 1.19608607522163e-18
outer loop
vertex 4.39735000365137 -0.107948883520316 2.0
vertex 4.39999999999999 5.63993296509579e-15 1.80134582256628e-17
vertex 4.39999999999999 5.63993296509579e-15 2.0
endloop
endfacet
facet normal 0.740951125354953 -0.671558954847025 -2.34821372869756e-16
outer loop
vertex 3.8300924757809 -1.47742970066343 -5.56083306603897e-16
vertex 3.7556349186104 -1.5556349186104 2.0
vertex 3.7556349186104 -1.5556349186104 -5.86472138367589e-16
endloop
endfacet
facet normal 0.707106781186548 -0.707106781186548 -2.48670799077164e-16
outer loop
vertex 3.7556349186104 -1.5556349186104 2.0
vertex 3.8300924757809 -1.47742970066343 -5.56083306603897e-16
vertex 3.8300924757809 -1.47742970066343 2.0
endloop
endfacet
facet normal 0.831469612302546 -0.555570233019602 -1.90019051146131e-16
outer loop
vertex 4.02923314706559 -1.22225451264312 -4.56927827435275e-16
vertex 3.96705656925741 -1.31053846988334 2.0
vertex 3.96705656925741 -1.31053846988334 -4.91233036146868e-16
endloop
endfacet
facet normal 0.803207531480645 -0.595699304492434 -2.05460132003744e-16
outer loop
vertex 3.96705656925741 -1.31053846988334 2.0
vertex 4.02923314706559 -1.22225451264312 -4.56927827435275e-16
vertex 4.02923314706559 -1.22225451264312 2.0
endloop
endfacet
facet normal 0.427555093430271 -0.903989293123449 -3.27165639301505e-16
outer loop
vertex 3.14062120554661 -1.98877644487157 -7.54781431749341e-16
vertex 3.04190355120319 -2.03253497152482 2.0
vertex 3.04190355120319 -2.03253497152482 -7.71785035084282e-16
endloop
endfacet
facet normal 0.382683432365103 -0.923879532511281 -3.35418745557772e-16
outer loop
vertex 3.04190355120319 -2.03253497152482 2.0
vertex 3.14062120554661 -1.98877644487157 -7.54781431749341e-16
vertex 3.14062120554661 -1.98877644487157 2.0
endloop
endfacet
facet normal -0.773010453362735 -0.634393284163648 -2.50443281724077e-16
outer loop
vertex 0.499377002601976 -1.39566522516001 2.0
vertex 0.569907524219092 -1.47742970066343 -5.56083306603897e-16
vertex 0.569907524219092 -1.47742970066343 2.0
endloop
endfacet
facet normal -0.740951125354953 -0.671558954847025 -2.63612676697952e-16
outer loop
vertex 0.569907524219092 -1.47742970066343 -5.56083306603897e-16
vertex 0.499377002601976 -1.39566522516001 2.0
vertex 0.499377002601976 -1.39566522516001 -5.24311425448794e-16
endloop
endfacet
facet normal -0.970031253194541 -0.242980179903275 -1.09016847100406e-16
outer loop
vertex 0.0659312429720039 -0.534556395787178 2.0
vertex 0.0947312613891421 -0.638626289959814 -2.30142705709854e-16
vertex 0.0947312613891421 -0.638626289959814 2.0
endloop
endfacet
facet normal -0.956940335732204 -0.290284677254479 -1.26317313134612e-16
outer loop
vertex 0.0947312613891421 -0.638626289959814 -2.30142705709854e-16
vertex 0.0659312429720039 -0.534556395787178 2.0
vertex 0.0659312429720039 -0.534556395787178 -1.89703428271586e-16
endloop
endfacet
facet normal -0.831469612302546 -0.555570233019602 -2.22327652095008e-16
outer loop
vertex 0.370766852934398 -1.22225451264312 2.0
vertex 0.432943430742582 -1.31053846988334 -4.91233036146868e-16
vertex 0.432943430742582 -1.31053846988334 2.0
endloop
endfacet
facet normal -0.803207531480645 -0.595699304492434 -2.36670546948287e-16
outer loop
vertex 0.432943430742582 -1.31053846988334 -4.91233036146868e-16
vertex 0.370766852934398 -1.22225451264312 2.0
vertex 0.370766852934398 -1.22225451264312 -4.56927827435275e-16
endloop
endfacet
facet normal -0.903989293123439 -0.427555093430292 -1.76229905238062e-16
outer loop
vertex 0.211223555128425 -0.940621205546617 2.0
vertex 0.259773218433622 -1.03707282101719 -3.84970285211526e-16
vertex 0.259773218433622 -1.03707282101719 2.0
endloop
endfacet
facet normal -0.881921264348346 -0.471396736826014 -1.92070885639615e-16
outer loop
vertex 0.259773218433622 -1.03707282101719 -3.84970285211526e-16
vertex 0.211223555128425 -0.940621205546617 2.0
vertex 0.211223555128425 -0.940621205546617 -3.47491303721324e-16
endloop
endfacet
facet normal 0.336889853392218 -0.941544065183022 -3.42863798676785e-16
outer loop
vertex 2.94115767746288 -2.07139694340264 -7.86885944670663e-16
vertex 2.83862628995981 -2.10526873861085 2.0
vertex 2.83862628995981 -2.10526873861085 -8.00047781094603e-16
endloop
endfacet
facet normal 0.290284677254448 -0.956940335732213 -3.49482862873463e-16
outer loop
vertex 2.83862628995981 -2.10526873861085 2.0
vertex 2.94115767746288 -2.07139694340264 -7.86885944670663e-16
vertex 2.94115767746288 -2.07139694340264 2.0
endloop
endfacet
facet normal -0.38268343236508 -0.923879532511291 -3.50288761398513e-16
outer loop
vertex 1.3580964487968 -2.03253497152482 2.0
vertex 1.25937879445337 -1.98877644487157 -7.54781431749341e-16
vertex 1.3580964487968 -2.03253497152482 -7.71785035084282e-16
endloop
endfacet
facet normal -0.427555093430292 -0.903989293123439 -3.43779243326122e-16
outer loop
vertex 1.25937879445337 -1.98877644487157 -7.54781431749341e-16
vertex 1.3580964487968 -2.03253497152482 2.0
vertex 1.25937879445337 -1.98877644487157 2.0
endloop
endfacet
facet normal -0.0490676743274118 -0.998795456205173 -3.71608536524495e-16
outer loop
vertex 2.09205111647967 -2.19735000365137 2.0
vertex 1.98436229127496 -2.18940639867882 -8.32741829700546e-16
vertex 2.09205111647967 -2.19735000365137 -8.35828540299211e-16
endloop
endfacet
facet normal -0.0980171403295535 -0.995184726672197 -3.71219606929726e-16
outer loop
vertex 1.98436229127496 -2.18940639867882 -8.32741829700546e-16
vertex 2.09205111647967 -2.19735000365137 2.0
vertex 1.98436229127496 -2.18940639867882 2.0
endloop
endfacet
facet normal -0.998795456205173 -0.0490676743274125 -3.76143326660263e-17
outer loop
vertex 0.0026499963486236 -0.107948883520316 2.0
vertex 0.0105936013211656 -0.215637708725031 -6.57786239957188e-17
vertex 0.0105936013211656 -0.215637708725031 2.0
endloop
endfacet
facet normal -0.995184726672197 -0.0980171403295535 -5.57094371254028e-17
outer loop
vertex 0.0105936013211656 -0.215637708725031 -6.57786239957188e-17
vertex 0.0026499963486236 -0.107948883520316 2.0
vertex 0.0026499963486236 -0.107948883520316 -2.39331093627314e-17
endloop
endfacet
facet normal 0.857728610000275 -0.514102744193216 -1.74120197750602e-16
outer loop
vertex 4.08700294200059 -1.13102603722508 -4.2147844356658e-16
vertex 4.02923314706559 -1.22225451264312 2.0
vertex 4.02923314706559 -1.22225451264312 -4.56927827435275e-16
endloop
endfacet
facet normal 0.831469612302546 -0.555570233019602 -1.90019051146131e-16
outer loop
vertex 4.02923314706559 -1.22225451264312 2.0
vertex 4.08700294200059 -1.13102603722508 -4.2147844356658e-16
vertex 4.08700294200059 -1.13102603722508 2.0
endloop
endfacet
facet normal 0.803207531480645 -0.595699304492434 -2.05460132003743e-16
outer loop
vertex 3.96705656925741 -1.31053846988334 -4.91233036146868e-16
vertex 3.90062299739802 -1.39566522516001 2.0
vertex 3.90062299739802 -1.39566522516001 -5.24311425448794e-16
endloop
endfacet
facet normal 0.773010453362735 -0.634393284163648 -2.20406241407178e-16
outer loop
vertex 3.90062299739802 -1.39566522516001 2.0
vertex 3.96705656925741 -1.31053846988334 -4.91233036146868e-16
vertex 3.96705656925741 -1.31053846988334 2.0
endloop
endfacet
facet normal -0.336889853392218 -0.941544065183021 -3.55954403163019e-16
outer loop
vertex 1.45884232253711 -2.07139694340263 2.0
vertex 1.3580964487968 -2.03253497152482 -7.71785035084282e-16
vertex 1.45884232253711 -2.07139694340263 -7.8688594467066e-16
endloop
endfacet
facet normal -0.38268343236508 -0.923879532511291 -3.50288761398513e-16
outer loop
vertex 1.3580964487968 -2.03253497152482 -7.71785035084282e-16
vertex 1.45884232253711 -2.07139694340263 2.0
vertex 1.3580964487968 -2.03253497152482 2.0
endloop
endfacet
facet normal 0.382683432365103 -0.923879532511281 -3.35418745557772e-16
outer loop
vertex 3.04190355120319 -2.03253497152482 -7.71785035084282e-16
vertex 2.94115767746288 -2.07139694340264 2.0
vertex 2.94115767746288 -2.07139694340264 -7.86885944670663e-16
endloop
endfacet
facet normal 0.336889853392218 -0.941544065183022 -3.42863798676785e-16
outer loop
vertex 2.94115767746288 -2.07139694340264 2.0
vertex 3.04190355120319 -2.03253497152482 -7.71785035084282e-16
vertex 3.04190355120319 -2.03253497152482 2.0
endloop
endfacet
facet normal 0.903989293123444 -0.42755509343028 -1.41103390809343e-16
outer loop
vertex 4.18877644487157 -0.940621205546612 -3.47491303721321e-16
vertex 4.14022678156638 -1.03707282101718 2.0
vertex 4.14022678156638 -1.03707282101718 -3.84970285211524e-16
endloop
endfacet
facet normal 0.881921264348353 -0.471396736826002 -1.5780187354757e-16
outer loop
vertex 4.14022678156638 -1.03707282101718 2.0
vertex 4.18877644487157 -0.940621205546612 -3.47491303721321e-16
vertex 4.18877644487157 -0.940621205546612 2.0
endloop
endfacet
facet normal -0.195090322016124 -0.980785280403231 -3.67761937509727e-16
outer loop
vertex 1.77080129156451 -2.1577276168871 2.0
vertex 1.66544360421281 -2.13406875702799 -8.1123883633932e-16
vertex 1.77080129156451 -2.1577276168871 -8.20432150172508e-16
endloop
endfacet
facet normal -0.242980179903275 -0.970031253194541 -3.64701527512984e-16
outer loop
vertex 1.66544360421281 -2.13406875702799 -8.1123883633932e-16
vertex 1.77080129156451 -2.1577276168871 2.0
vertex 1.66544360421281 -2.13406875702799 2.0
endloop
endfacet
facet normal 0.634393284163648 -0.773010453362735 -2.74540521014751e-16
outer loop
vertex 3.59566522516001 -1.70062299739801 -6.42811324545752e-16
vertex 3.51053846988334 -1.76705656925741 2.0
vertex 3.51053846988334 -1.76705656925741 -6.68625952925989e-16
endloop
endfacet
facet normal 0.595699304492434 -0.803207531480645 -2.86498494318862e-16
outer loop
vertex 3.51053846988334 -1.76705656925741 2.0
vertex 3.59566522516001 -1.70062299739801 -6.42811324545752e-16
vertex 3.59566522516001 -1.70062299739801 2.0
endloop
endfacet
facet normal -0.740951125354953 -0.671558954847025 -2.63612676697952e-16
outer loop
vertex 0.569907524219092 -1.47742970066343 2.0
vertex 0.644365081389594 -1.5556349186104 -5.86472138367589e-16
vertex 0.644365081389594 -1.5556349186104 2.0
endloop
endfacet
facet normal -0.70710678118656 -0.707106781186535 -2.76147005643911e-16
outer loop
vertex 0.644365081389594 -1.5556349186104 -5.86472138367589e-16
vertex 0.569907524219092 -1.47742970066343 2.0
vertex 0.569907524219092 -1.47742970066343 -5.56083306603897e-16
endloop
endfacet
facet normal 0.941544065183025 -0.336889853392209 -1.06727681079626e-16
outer loop
vertex 4.27139694340264 -0.741157677462877 -2.69984153213286e-16
vertex 4.23253497152482 -0.841903551203192 2.0
vertex 4.23253497152482 -0.841903551203192 -3.09131789245153e-16
endloop
endfacet
facet normal 0.923879532511281 -0.382683432365104 -1.24064977643468e-16
outer loop
vertex 4.23253497152482 -0.841903551203192 2.0
vertex 4.27139694340264 -0.741157677462877 -2.69984153213286e-16
vertex 4.27139694340264 -0.741157677462877 2.0
endloop
endfacet
facet normal -0.471396736826003 -0.881921264348352 -3.36441530945056e-16
outer loop
vertex 1.1629271789828 -1.94022678156637 2.0
vertex 1.06897396277491 -1.88700294200059 -7.152344815849e-16
vertex 1.1629271789828 -1.94022678156637 -7.3591609783561e-16
endloop
endfacet
facet normal -0.514102744193228 -0.857728610000269 -3.28293301447145e-16
outer loop
vertex 1.06897396277491 -1.88700294200059 -7.152344815849e-16
vertex 1.1629271789828 -1.94022678156637 2.0
vertex 1.06897396277491 -1.88700294200059 2.0
endloop
endfacet
facet normal -0.995184726672197 -0.0980171403295535 -5.57094371254028e-17
outer loop
vertex 0.0105936013211656 -0.215637708725031 2.0
vertex 0.0238116780774831 -0.322807043801792 -1.07422276163315e-16
vertex 0.0238116780774831 -0.322807043801792 2.0
endloop
endfacet
facet normal -0.989176509964781 -0.146730474455363 -7.36703326711775e-17
outer loop
vertex 0.0238116780774831 -0.322807043801792 -1.07422276163315e-16
vertex 0.0105936013211656 -0.215637708725031 2.0
vertex 0.0105936013211656 -0.215637708725031 -6.57786239957188e-17
endloop
endfacet
facet normal -0.980785280403231 -0.195090322016124 -9.14537499327831e-17
outer loop
vertex 0.0422723831128917 -0.429198708435477 2.0
vertex 0.0659312429720039 -0.534556395787178 -1.89703428271586e-16
vertex 0.0659312429720039 -0.534556395787178 2.0
endloop
endfacet
facet normal -0.970031253194541 -0.242980179903275 -1.09016847100406e-16
outer loop
vertex 0.0659312429720039 -0.534556395787178 -1.89703428271586e-16
vertex 0.0422723831128917 -0.429198708435477 2.0
vertex 0.0422723831128917 -0.429198708435477 -1.48763742659896e-16
endloop
endfacet
facet normal -0.146730474455363 -0.989176509964781 -3.69936376786866e-16
outer loop
vertex 1.8771929561982 -2.17618832192251 2.0
vertex 1.77080129156451 -2.1577276168871 -8.20432150172508e-16
vertex 1.8771929561982 -2.17618832192251 -8.27605575095902e-16
endloop
endfacet
facet normal -0.195090322016124 -0.980785280403231 -3.67761937509727e-16
outer loop
vertex 1.77080129156451 -2.1577276168871 -8.20432150172508e-16
vertex 1.8771929561982 -2.17618832192251 2.0
vertex 1.77080129156451 -2.1577276168871 2.0
endloop
endfacet
facet normal 0.514102744193216 -0.857728610000276 -3.08316695972818e-16
outer loop
vertex 3.33102603722508 -1.88700294200059 -7.15234481584903e-16
vertex 3.23707282101719 -1.94022678156637 2.0
vertex 3.23707282101719 -1.94022678156637 -7.35916097835613e-16
endloop
endfacet
facet normal 0.471396736825982 -0.881921264348363 -3.18124362363832e-16
outer loop
vertex 3.23707282101719 -1.94022678156637 2.0
vertex 3.33102603722508 -1.88700294200059 -7.15234481584903e-16
vertex 3.33102603722508 -1.88700294200059 2.0
endloop
endfacet
facet normal -0.514102744193228 -0.857728610000269 -3.28293301447145e-16
outer loop
vertex 1.06897396277491 -1.88700294200059 2.0
vertex 0.977745487356873 -1.82923314706559 -6.92786406822252e-16
vertex 1.06897396277491 -1.88700294200059 -7.152344815849e-16
endloop
endfacet
facet normal -0.555570233019601 -0.831469612302546 -3.19354184630953e-16
outer loop
vertex 0.977745487356873 -1.82923314706559 -6.92786406822252e-16
vertex 1.06897396277491 -1.88700294200059 2.0
vertex 0.977745487356873 -1.82923314706559 2.0
endloop
endfacet
facet normal -0.290284677254471 -0.956940335732206 -3.60762519592382e-16
outer loop
vertex 1.56137371004018 -2.10526873861085 2.0
vertex 1.45884232253711 -2.07139694340263 -7.8688594467066e-16
vertex 1.56137371004018 -2.10526873861085 -8.00047781094603e-16
endloop
endfacet
facet normal -0.336889853392218 -0.941544065183021 -3.55954403163019e-16
outer loop
vertex 1.45884232253711 -2.07139694340263 -7.8688594467066e-16
vertex 1.56137371004018 -2.10526873861085 2.0
vertex 1.45884232253711 -2.07139694340263 2.0
endloop
endfacet
facet normal 1.94286119846324e-17 3.71102228605713e-16 -1.0
outer loop
vertex 0.0 9.30000000000001 8.1182292083265e-16
vertex 3.39999999999999 7.56879281389223 2.95908027593586e-15
vertex 0.0 0.0 1.80134582256609e-17
endloop
endfacet
facet normal 1.94286119846324e-17 3.71102228605713e-16 -1.0
outer loop
vertex 3.39999999999999 7.56879281389223 2.95908027593586e-15
vertex 0.0 9.30000000000001 8.1182292083265e-16
vertex 8.9216097840817 13.1072140549984 5.11118924961806e-15
endloop
endfacet
facet normal 1.94286119846324e-17 3.71102228605713e-16 -1.0
outer loop
vertex 0.0 0.0 1.80134582256609e-17
vertex 3.39999999999999 7.56879281389223 2.95908027593586e-15
vertex 0.0026499963486236 -0.107948883520316 -2.39331093627314e-17
endloop
endfacet
facet normal 1.94286119846324e-17 3.71102228605713e-16 -1.0
outer loop
vertex 0.0026499963486236 -0.107948883520316 -2.39331093627314e-17
vertex 3.39999999999999 7.56879281389223 2.95908027593586e-15
vertex 0.0105936013211656 -0.215637708725031 -6.57786239957188e-17
endloop
endfacet
facet normal 1.94286119846324e-17 3.71102228605713e-16 -1.0
outer loop
vertex 0.0105936013211656 -0.215637708725031 -6.57786239957188e-17
vertex 3.39999999999999 7.56879281389223 2.95908027593586e-15
vertex 0.0238116780774831 -0.322807043801792 -1.07422276163315e-16
endloop
endfacet
facet normal 1.94286119846324e-17 3.71102228605713e-16 -1.0
outer loop
vertex 0.0238116780774831 -0.322807043801792 -1.07422276163315e-16
vertex 3.39999999999999 7.56879281389223 2.95908027593586e-15
vertex 0.0422723831128917 -0.429198708435477 -1.48763742659896e-16
endloop
endfacet
facet normal 1.94286119846324e-17 3.71102228605713e-16 -1.0
outer loop
vertex 0.0422723831128917 -0.429198708435477 -1.48763742659896e-16
vertex 3.39999999999999 7.56879281389223 2.95908027593586e-15
vertex 0.0659312429720039 -0.534556395787178 -1.89703428271586e-16
endloop
endfacet
facet normal 1.94286119846324e-17 3.71102228605713e-16 -1.0
outer loop
vertex 0.0659312429720039 -0.534556395787178 -1.89703428271586e-16
vertex 3.39999999999999 7.56879281389223 2.95908027593586e-15
vertex 0.0947312613891421 -0.638626289959814 -2.30142705709854e-16
endloop
endfacet
facet normal 1.94286119846324e-17 3.71102228605713e-16 -1.0
outer loop
vertex 0.0947312613891421 -0.638626289959814 -2.30142705709854e-16
vertex 3.39999999999999 7.56879281389223 2.95908027593586e-15
vertex 0.128603056597357 -0.741157677462877 -2.69984153213286e-16
endloop
endfacet
facet normal 1.94286119846324e-17 3.71102228605713e-16 -1.0
outer loop
vertex 0.128603056597357 -0.741157677462877 -2.69984153213286e-16
vertex 3.39999999999999 7.56879281389223 2.95908027593586e-15
vertex 0.167465028475169 -0.841903551203192 -3.09131789245153e-16
endloop
endfacet
facet normal 1.94286119846324e-17 3.71102228605713e-16 -1.0
outer loop
vertex 0.167465028475169 -0.841903551203192 -3.09131789245153e-16
vertex 3.39999999999999 7.56879281389223 2.95908027593586e-15
vertex 0.211223555128425 -0.940621205546617 -3.47491303721324e-16
endloop
endfacet
facet normal 1.94286119846324e-17 3.71102228605713e-16 -1.0
outer loop
vertex 0.211223555128425 -0.940621205546617 -3.47491303721324e-16
vertex 3.39999999999999 7.56879281389223 2.95908027593586e-15
vertex 0.259773218433622 -1.03707282101719 -3.84970285211526e-16
endloop
endfacet
facet normal 1.94286119846324e-17 3.71102228605713e-16 -1.0
outer loop
vertex 0.259773218433622 -1.03707282101719 -3.84970285211526e-16
vertex 3.39999999999999 7.56879281389223 2.95908027593586e-15
vertex 0.312997057999403 -1.13102603722508 -4.2147844356658e-16
endloop
endfacet
facet normal 1.94286119846324e-17 3.71102228605713e-16 -1.0
outer loop
vertex 0.312997057999403 -1.13102603722508 -4.2147844356658e-16
vertex 3.39999999999999 7.56879281389223 2.95908027593586e-15
vertex 0.370766852934398 -1.22225451264312 -4.56927827435275e-16
endloop
endfacet
facet normal 1.94286119846324e-17 3.71102228605713e-16 -1.0
outer loop
vertex 0.370766852934398 -1.22225451264312 -4.56927827435275e-16
vertex 3.39999999999999 7.56879281389223 2.95908027593586e-15
vertex 0.432943430742582 -1.31053846988334 -4.91233036146868e-16
endloop
endfacet
facet normal 1.94286119846324e-17 3.71102228605713e-16 -1.0
outer loop
vertex 0.432943430742582 -1.31053846988334 -4.91233036146868e-16
vertex 3.39999999999999 7.56879281389223 2.95908027593586e-15
vertex 0.499377002601976 -1.39566522516001 -5.24311425448794e-16
endloop
endfacet
facet normal 1.94286119846324e-17 3.71102228605713e-16 -1.0
outer loop
vertex 0.499377002601976 -1.39566522516001 -5.24311425448794e-16
vertex 3.39999999999999 7.56879281389223 2.95908027593586e-15
vertex 0.569907524219092 -1.47742970066343 -5.56083306603897e-16
endloop
endfacet
facet normal 1.94286119846324e-17 3.71102228605713e-16 -1.0
outer loop
vertex 0.569907524219092 -1.47742970066343 -5.56083306603897e-16
vertex 3.39999999999999 7.56879281389223 2.95908027593586e-15
vertex 0.644365081389594 -1.5556349186104 -5.86472138367589e-16
endloop
endfacet
facet normal 1.94286119846324e-17 3.71102228605713e-16 -1.0
outer loop
vertex 0.644365081389594 -1.5556349186104 -5.86472138367589e-16
vertex 3.39999999999999 7.56879281389223 2.95908027593586e-15
vertex 0.722570299336554 -1.6300924757809 -6.15404711382401e-16
endloop
endfacet
facet normal 1.94286119846324e-17 3.71102228605713e-16 -1.0
outer loop
vertex 0.722570299336554 -1.6300924757809 -6.15404711382401e-16
vertex 3.39999999999999 7.56879281389223 2.95908027593586e-15
vertex 0.804334774839978 -1.70062299739801 -6.42811324545752e-16
endloop
endfacet
facet normal 1.94286119846324e-17 3.71102228605713e-16 -1.0
outer loop
vertex 0.804334774839978 -1.70062299739801 -6.42811324545752e-16
vertex 3.39999999999999 7.56879281389223 2.95908027593586e-15
vertex 0.889461530116642 -1.76705656925741 -6.68625952925989e-16
endloop
endfacet
facet normal 1.94286119846324e-17 3.71102228605713e-16 -1.0
outer loop
vertex 0.889461530116642 -1.76705656925741 -6.68625952925989e-16
vertex 3.39999999999999 7.56879281389223 2.95908027593586e-15
vertex 0.977745487356873 -1.82923314706559 -6.92786406822252e-16
endloop
endfacet
facet normal 1.94286119846324e-17 3.71102228605713e-16 -1.0
outer loop
vertex 0.977745487356873 -1.82923314706559 -6.92786406822252e-16
vertex 3.39999999999999 7.56879281389223 2.95908027593586e-15
vertex 1.06897396277491 -1.88700294200059 -7.152344815849e-16
endloop
endfacet
facet normal 1.94286119846324e-17 3.71102228605713e-16 -1.0
outer loop
vertex 1.06897396277491 -1.88700294200059 -7.152344815849e-16
vertex 3.39999999999999 7.56879281389223 2.95908027593586e-15
vertex 1.1629271789828 -1.94022678156637 -7.3591609783561e-16
endloop
endfacet
facet normal 1.94286119846324e-17 3.71102228605713e-16 -1.0
outer loop
vertex 1.1629271789828 -1.94022678156637 -7.3591609783561e-16
vertex 3.39999999999999 7.56879281389223 2.95908027593586e-15
vertex 1.25937879445337 -1.98877644487157 -7.54781431749341e-16
endloop
endfacet
facet normal 1.94286119846324e-17 3.71102228605713e-16 -1.0
outer loop
vertex 1.25937879445337 -1.98877644487157 -7.54781431749341e-16
vertex 3.39999999999999 7.56879281389223 2.95908027593586e-15
vertex 1.3580964487968 -2.03253497152482 -7.71785035084282e-16
endloop
endfacet
facet normal 1.94286119846324e-17 3.71102228605713e-16 -1.0
outer loop
vertex 1.3580964487968 -2.03253497152482 -7.71785035084282e-16
vertex 3.39999999999999 7.56879281389223 2.95908027593586e-15
vertex 1.45884232253711 -2.07139694340263 -7.8688594467066e-16
endloop
endfacet
facet normal 1.94286119846324e-17 3.71102228605713e-16 -1.0
outer loop
vertex 1.45884232253711 -2.07139694340263 -7.8688594467066e-16
vertex 3.39999999999999 7.56879281389223 2.95908027593586e-15
vertex 1.56137371004018 -2.10526873861085 -8.00047781094603e-16
endloop
endfacet
facet normal 1.94286119846324e-17 3.71102228605713e-16 -1.0
outer loop
vertex 1.56137371004018 -2.10526873861085 -8.00047781094603e-16
vertex 3.39999999999999 7.56879281389223 2.95908027593586e-15
vertex 1.66544360421281 -2.13406875702799 -8.1123883633932e-16
endloop
endfacet
facet normal 1.94286119846324e-17 3.71102228605713e-16 -1.0
outer loop
vertex 1.66544360421281 -2.13406875702799 -8.1123883633932e-16
vertex 3.39999999999999 7.56879281389223 2.95908027593586e-15
vertex 1.77080129156451 -2.1577276168871 -8.20432150172508e-16
endloop
endfacet
facet normal 1.94286119846324e-17 3.71102228605713e-16 -1.0
outer loop
vertex 1.77080129156451 -2.1577276168871 -8.20432150172508e-16
vertex 3.39999999999999 7.56879281389223 2.95908027593586e-15
vertex 1.8771929561982 -2.17618832192251 -8.27605575095902e-16
endloop
endfacet
facet normal 1.94286119846324e-17 3.71102228605713e-16 -1.0
outer loop
vertex 1.8771929561982 -2.17618832192251 -8.27605575095902e-16
vertex 3.39999999999999 7.56879281389223 2.95908027593586e-15
vertex 1.98436229127496 -2.18940639867882 -8.32741829700546e-16
endloop
endfacet
facet normal 1.94286119846324e-17 3.71102228605713e-16 -1.0
outer loop
vertex 1.98436229127496 -2.18940639867882 -8.32741829700546e-16
vertex 3.39999999999999 7.56879281389223 2.95908027593586e-15
vertex 2.09205111647967 -2.19735000365137 -8.35828540299211e-16
endloop
endfacet
facet normal 1.94286119846324e-17 3.71102228605713e-16 -1.0
outer loop
vertex 2.09205111647967 -2.19735000365137 -8.35828540299211e-16
vertex 3.39999999999999 7.56879281389223 2.95908027593586e-15
vertex 2.2 -2.19999999999999 -8.36858270735706e-16
endloop
endfacet
facet normal 1.94286119846324e-17 3.71102228605713e-16 -1.0
outer loop
vertex 2.2 -2.19999999999999 -8.36858270735706e-16
vertex 3.39999999999999 7.56879281389223 2.95908027593586e-15
vertex 2.30794888352031 -2.19735000365137 -8.35828540299211e-16
endloop
endfacet
facet normal 1.94286119846324e-17 3.71102228605713e-16 -1.0
outer loop
vertex 2.30794888352031 -2.19735000365137 -8.35828540299211e-16
vertex 3.39999999999999 7.56879281389223 2.95908027593586e-15
vertex 2.41563770872503 -2.18940639867882 -8.32741829700546e-16
endloop
endfacet
facet normal 1.94286119846324e-17 3.71102228605713e-16 -1.0
outer loop
vertex 2.41563770872503 -2.18940639867882 -8.32741829700546e-16
vertex 3.39999999999999 7.56879281389223 2.95908027593586e-15
vertex 2.52280704380179 -2.17618832192251 -8.27605575095902e-16
endloop
endfacet
facet normal 1.94286119846324e-17 3.71102228605713e-16 -1.0
outer loop
vertex 2.52280704380179 -2.17618832192251 -8.27605575095902e-16
vertex 3.39999999999999 7.56879281389223 2.95908027593586e-15
vertex 2.62919870843547 -2.1577276168871 -8.20432150172508e-16
endloop
endfacet
facet normal 1.94286119846324e-17 3.71102228605713e-16 -1.0
outer loop
vertex 2.62919870843547 -2.1577276168871 -8.20432150172508e-16
vertex 3.39999999999999 7.56879281389223 2.95908027593586e-15
vertex 2.73455639578717 -2.13406875702799 -8.1123883633932e-16
endloop
endfacet
facet normal 1.94286119846324e-17 3.71102228605713e-16 -1.0
outer loop
vertex 2.73455639578717 -2.13406875702799 -8.1123883633932e-16
vertex 3.39999999999999 7.56879281389223 2.95908027593586e-15
vertex 2.83862628995981 -2.10526873861085 -8.00047781094603e-16
endloop
endfacet
facet normal 1.94286119846324e-17 3.71102228605713e-16 -1.0
outer loop
vertex 2.83862628995981 -2.10526873861085 -8.00047781094603e-16
vertex 3.39999999999999 7.56879281389223 2.95908027593586e-15
vertex 2.94115767746288 -2.07139694340264 -7.86885944670663e-16
endloop
endfacet
facet normal 1.94286119846324e-17 3.71102228605713e-16 -1.0
outer loop
vertex 2.94115767746288 -2.07139694340264 -7.86885944670663e-16
vertex 3.39999999999999 7.56879281389223 2.95908027593586e-15
vertex 3.04190355120319 -2.03253497152482 -7.71785035084282e-16
endloop
endfacet
facet normal 1.94286119846324e-17 3.71102228605713e-16 -1.0
outer loop
vertex 3.04190355120319 -2.03253497152482 -7.71785035084282e-16
vertex 3.39999999999999 7.56879281389223 2.95908027593586e-15
vertex 3.14062120554661 -1.98877644487157 -7.54781431749341e-16
endloop
endfacet
facet normal 1.94286119846324e-17 3.71102228605713e-16 -1.0
outer loop
vertex 3.14062120554661 -1.98877644487157 -7.54781431749341e-16
vertex 3.39999999999999 7.56879281389223 2.95908027593586e-15
vertex 3.23707282101719 -1.94022678156637 -7.35916097835613e-16
endloop
endfacet
facet normal 1.94286119846324e-17 3.71102228605713e-16 -1.0
outer loop
vertex 3.23707282101719 -1.94022678156637 -7.35916097835613e-16
vertex 3.39999999999999 7.56879281389223 2.95908027593586e-15
vertex 3.33102603722508 -1.88700294200059 -7.15234481584903e-16
endloop
endfacet
facet normal 1.94286119846324e-17 3.71102228605713e-16 -1.0
outer loop
vertex 3.39999999999999 7.56879281389223 2.95908027593586e-15
vertex 8.9216097840817 13.1072140549984 5.11118924961806e-15
vertex 10.6385811198419 9.30000000000001 3.63178940338055e-15
endloop
endfacet
facet normal 1.94286119846324e-17 3.71102228605713e-16 -1.0
outer loop
vertex 10.6385811198419 9.30000000000001 3.63178940338055e-15
vertex 8.9216097840817 13.1072140549984 5.11118924961806e-15
vertex 10.6385811198419 11.898078234597 4.64134559992004e-15
endloop
endfacet
facet normal 1.94286119846324e-17 3.71102228605713e-16 -1.0
outer loop
vertex 10.6385811198419 9.30000000000001 3.63178940338055e-15
vertex 10.6385811198419 11.898078234597 4.64134559992004e-15
vertex 14.1294843895924 13.1072140549984 5.11118924961806e-15
endloop
endfacet
facet normal 1.94286119846324e-17 3.71102228605713e-16 -1.0
outer loop
vertex 3.39999999999999 7.56879281389223 2.95908027593586e-15
vertex 3.42225451264312 -1.82923314706559 -6.92786406822253e-16
vertex 3.33102603722508 -1.88700294200059 -7.15234481584903e-16
endloop
endfacet
facet normal 1.94286119846324e-17 3.71102228605713e-16 -1.0
outer loop
vertex 3.42225451264312 -1.82923314706559 -6.92786406822253e-16
vertex 3.39999999999999 7.56879281389223 2.95908027593586e-15
vertex 4.39999999999999 5.63993296509579e-15 1.80134582256628e-17
endloop
endfacet
facet normal 1.94286119846324e-17 3.71102228605713e-16 -1.0
outer loop
vertex 3.42225451264312 -1.82923314706559 -6.92786406822253e-16
vertex 4.39999999999999 5.63993296509579e-15 1.80134582256628e-17
vertex 3.51053846988334 -1.76705656925741 -6.68625952925989e-16
endloop
endfacet
facet normal 1.94286119846324e-17 3.71102228605713e-16 -1.0
outer loop
vertex 3.51053846988334 -1.76705656925741 -6.68625952925989e-16
vertex 4.39999999999999 5.63993296509579e-15 1.80134582256628e-17
vertex 3.59566522516001 -1.70062299739801 -6.42811324545752e-16
endloop
endfacet
facet normal 1.94286119846324e-17 3.71102228605713e-16 -1.0
outer loop
vertex 3.59566522516001 -1.70062299739801 -6.42811324545752e-16
vertex 4.39999999999999 5.63993296509579e-15 1.80134582256628e-17
vertex 3.67742970066343 -1.6300924757809 -6.15404711382401e-16
endloop
endfacet
facet normal 1.94286119846324e-17 3.71102228605713e-16 -1.0
outer loop
vertex 3.67742970066343 -1.6300924757809 -6.15404711382401e-16
vertex 4.39999999999999 5.63993296509579e-15 1.80134582256628e-17
vertex 3.7556349186104 -1.5556349186104 -5.86472138367589e-16
endloop
endfacet
facet normal 1.94286119846324e-17 3.71102228605713e-16 -1.0
outer loop
vertex 3.7556349186104 -1.5556349186104 -5.86472138367589e-16
vertex 4.39999999999999 5.63993296509579e-15 1.80134582256628e-17
vertex 3.8300924757809 -1.47742970066343 -5.56083306603897e-16
endloop
endfacet
facet normal 1.94286119846324e-17 3.71102228605713e-16 -1.0
outer loop
vertex 3.8300924757809 -1.47742970066343 -5.56083306603897e-16
vertex 4.39999999999999 5.63993296509579e-15 1.80134582256628e-17
vertex 3.90062299739802 -1.39566522516001 -5.24311425448794e-16
endloop
endfacet
facet normal 1.94286119846324e-17 3.71102228605713e-16 -1.0
outer loop
vertex 3.90062299739802 -1.39566522516001 -5.24311425448794e-16
vertex 4.39999999999999 5.63993296509579e-15 1.80134582256628e-17
vertex 3.96705656925741 -1.31053846988334 -4.91233036146868e-16
endloop
endfacet
facet normal 1.94286119846324e-17 3.71102228605713e-16 -1.0
outer loop
vertex 3.96705656925741 -1.31053846988334 -4.91233036146868e-16
vertex 4.39999999999999 5.63993296509579e-15 1.80134582256628e-17
vertex 4.02923314706559 -1.22225451264312 -4.56927827435275e-16
endloop
endfacet
facet normal 1.94286119846324e-17 3.71102228605713e-16 -1.0
outer loop
vertex 4.02923314706559 -1.22225451264312 -4.56927827435275e-16
vertex 4.39999999999999 5.63993296509579e-15 1.80134582256628e-17
vertex 4.08700294200059 -1.13102603722508 -4.2147844356658e-16
endloop
endfacet
facet normal 1.94286119846324e-17 3.71102228605713e-16 -1.0
outer loop
vertex 4.08700294200059 -1.13102603722508 -4.2147844356658e-16
vertex 4.39999999999999 5.63993296509579e-15 1.80134582256628e-17
vertex 4.14022678156638 -1.03707282101718 -3.84970285211524e-16
endloop
endfacet
facet normal 1.94286119846324e-17 3.71102228605713e-16 -1.0
outer loop
vertex 4.14022678156638 -1.03707282101718 -3.84970285211524e-16
vertex 4.39999999999999 5.63993296509579e-15 1.80134582256628e-17
vertex 4.18877644487157 -0.940621205546612 -3.47491303721321e-16
endloop
endfacet
facet normal 1.94286119846324e-17 3.71102228605713e-16 -1.0
outer loop
vertex 4.18877644487157 -0.940621205546612 -3.47491303721321e-16
vertex 4.39999999999999 5.63993296509579e-15 1.80134582256628e-17
vertex 4.23253497152482 -0.841903551203192 -3.09131789245153e-16
endloop
endfacet
facet normal 1.94286119846324e-17 3.71102228605713e-16 -1.0
outer loop
vertex 4.23253497152482 -0.841903551203192 -3.09131789245153e-16
vertex 4.39999999999999 5.63993296509579e-15 1.80134582256628e-17
vertex 4.27139694340264 -0.741157677462877 -2.69984153213286e-16
endloop
endfacet
facet normal 1.94286119846324e-17 3.71102228605713e-16 -1.0
outer loop
vertex 4.27139694340264 -0.741157677462877 -2.69984153213286e-16
vertex 4.39999999999999 5.63993296509579e-15 1.80134582256628e-17
vertex 4.30526873861085 -0.638626289959809 -2.30142705709852e-16
endloop
endfacet
facet normal 1.94286119846324e-17 3.71102228605713e-16 -1.0
outer loop
vertex 4.30526873861085 -0.638626289959809 -2.30142705709852e-16
vertex 4.39999999999999 5.63993296509579e-15 1.80134582256628e-17
vertex 4.33406875702799 -0.534556395787172 -1.89703428271584e-16
endloop
endfacet
facet normal 1.94286119846324e-17 3.71102228605713e-16 -1.0
outer loop
vertex 4.33406875702799 -0.534556395787172 -1.89703428271584e-16
vertex 4.39999999999999 5.63993296509579e-15 1.80134582256628e-17
vertex 4.3577276168871 -0.429198708435477 -1.48763742659896e-16
endloop
endfacet
facet normal 1.94286119846324e-17 3.71102228605713e-16 -1.0
outer loop
vertex 4.3577276168871 -0.429198708435477 -1.48763742659896e-16
vertex 4.39999999999999 5.63993296509579e-15 1.80134582256628e-17
vertex 4.37618832192251 -0.322807043801792 -1.07422276163315e-16
endloop
endfacet
facet normal 1.94286119846324e-17 3.71102228605713e-16 -1.0
outer loop
vertex 4.37618832192251 -0.322807043801792 -1.07422276163315e-16
vertex 4.39999999999999 5.63993296509579e-15 1.80134582256628e-17
vertex 4.38940639867883 -0.215637708725025 -6.57786239957169e-17
endloop
endfacet
facet normal 1.94286119846324e-17 3.71102228605713e-16 -1.0
outer loop
vertex 4.38940639867883 -0.215637708725025 -6.57786239957169e-17
vertex 4.39999999999999 5.63993296509579e-15 1.80134582256628e-17
vertex 4.39735000365137 -0.107948883520316 -2.39331093627314e-17
endloop
endfacet
facet normal -0.999924701839144 -0.0122715382857335 -2.3981144252138e-17
outer loop
vertex 0.0 0.0 2.0
vertex 0.0026499963486236 -0.107948883520316 -2.39331093627314e-17
vertex 0.0026499963486236 -0.107948883520316 2.0
endloop
endfacet
facet normal -0.998795456205173 -0.0490676743274125 -3.76143326660263e-17
outer loop
vertex 0.0026499963486236 -0.107948883520316 -2.39331093627314e-17
vertex 0.0 0.0 2.0
vertex 0.0 0.0 1.80134582256609e-17
endloop
endfacet
facet normal -0.956940335732204 -0.290284677254479 -1.26317313134612e-16
outer loop
vertex 0.0947312613891421 -0.638626289959814 2.0
vertex 0.128603056597357 -0.741157677462877 -2.69984153213286e-16
vertex 0.128603056597357 -0.741157677462877 2.0
endloop
endfacet
facet normal -0.941544065183022 -0.336889853392217 -1.43313469697378e-16
outer loop
vertex 0.128603056597357 -0.741157677462877 -2.69984153213286e-16
vertex 0.0947312613891421 -0.638626289959814 2.0
vertex 0.0947312613891421 -0.638626289959814 -2.30142705709854e-16
endloop
endfacet
facet normal -0.85772861000028 -0.514102744193208 -2.07449150454226e-16
outer loop
vertex 0.312997057999403 -1.13102603722508 2.0
vertex 0.370766852934398 -1.22225451264312 -4.56927827435275e-16
vertex 0.370766852934398 -1.22225451264312 2.0
endloop
endfacet
facet normal -0.831469612302546 -0.555570233019602 -2.22327652095008e-16
outer loop
vertex 0.370766852934398 -1.22225451264312 -4.56927827435275e-16
vertex 0.312997057999403 -1.13102603722508 2.0
vertex 0.312997057999403 -1.13102603722508 -4.2147844356658e-16
endloop
endfacet
facet normal 0.195090322016124 -0.980785280403231 -3.6018126917291e-16
outer loop
vertex 2.62919870843547 -2.1577276168871 -8.20432150172508e-16
vertex 2.52280704380179 -2.17618832192251 2.0
vertex 2.52280704380179 -2.17618832192251 -8.27605575095902e-16
endloop
endfacet
facet normal 0.146730474455363 -0.989176509964781 -3.64234837877837e-16
outer loop
vertex 2.52280704380179 -2.17618832192251 2.0
vertex 2.62919870843547 -2.1577276168871 -8.20432150172508e-16
vertex 2.62919870843547 -2.1577276168871 2.0
endloop
endfacet
facet normal -0.941544065183022 -0.336889853392217 -1.43313469697378e-16
outer loop
vertex 0.128603056597357 -0.741157677462877 2.0
vertex 0.167465028475169 -0.841903551203192 -3.09131789245153e-16
vertex 0.167465028475169 -0.841903551203192 2.0
endloop
endfacet
facet normal -0.923879532511294 -0.382683432365072 -1.59964371558867e-16
outer loop
vertex 0.167465028475169 -0.841903551203192 -3.09131789245153e-16
vertex 0.128603056597357 -0.741157677462877 2.0
vertex 0.128603056597357 -0.741157677462877 -2.69984153213286e-16
endloop
endfacet
facet normal 0.0980171403295535 -0.995184726672197 -3.67410932955114e-16
outer loop
vertex 2.41563770872503 -2.18940639867882 -8.32741829700546e-16
vertex 2.30794888352031 -2.19735000365137 2.0
vertex 2.30794888352031 -2.19735000365137 -8.35828540299211e-16
endloop
endfacet
facet normal 0.0490676743274125 -0.998795456205173 -3.69701902913504e-16
outer loop
vertex 2.30794888352031 -2.19735000365137 2.0
vertex 2.41563770872503 -2.18940639867882 -8.32741829700546e-16
vertex 2.41563770872503 -2.18940639867882 2.0
endloop
endfacet
facet normal -1.0 6.07673569763866e-33 -1.94286119846324e-17
outer loop
vertex 0.0 9.30000000000001 2.0
vertex 0.0 0.0 1.80134582256609e-17
vertex 0.0 0.0 2.0
endloop
endfacet
facet normal -0.999924701839144 -0.0122715382857335 -2.3981144252138e-17
outer loop
vertex 0.0 0.0 1.80134582256609e-17
vertex 0.0 9.30000000000001 2.0
vertex 0.0 9.30000000000001 8.1182292083265e-16
endloop
endfacet
facet normal 0.0490676743274125 -0.998795456205173 -3.69701902913504e-16
outer loop
vertex 2.30794888352031 -2.19735000365137 -8.35828540299211e-16
vertex 2.2 -2.19999999999999 2.0
vertex 2.2 -2.19999999999999 -8.36858270735706e-16
endloop
endfacet
facet normal 6.45140114548711e-16 -1.0 -3.71102228605713e-16
outer loop
vertex 2.2 -2.19999999999999 2.0
vertex 2.30794888352031 -2.19735000365137 -8.35828540299211e-16
vertex 2.30794888352031 -2.19735000365137 2.0
endloop
endfacet
facet normal 6.45140114548711e-16 -1.0 -3.71102228605713e-16
outer loop
vertex 2.2 -2.19999999999999 2.0
vertex 2.09205111647967 -2.19735000365137 -8.35828540299211e-16
vertex 2.2 -2.19999999999999 -8.36858270735706e-16
endloop
endfacet
facet normal -0.0490676743274118 -0.998795456205173 -3.71608536524495e-16
outer loop
vertex 2.09205111647967 -2.19735000365137 -8.35828540299211e-16
vertex 2.2 -2.19999999999999 2.0
vertex 2.09205111647967 -2.19735000365137 2.0
endloop
endfacet
facet normal 0.881921264348352 -0.471396736826003 -1.5780187354757e-16
outer loop
vertex 4.14022678156638 -1.03707282101718 -3.84970285211524e-16
vertex 4.08700294200059 -1.13102603722508 2.0
vertex 4.08700294200059 -1.13102603722508 -4.2147844356658e-16
endloop
endfacet
facet normal 0.857728610000275 -0.514102744193216 -1.74120197750602e-16
outer loop
vertex 4.08700294200059 -1.13102603722508 2.0
vertex 4.14022678156638 -1.03707282101718 -3.84970285211524e-16
vertex 4.14022678156638 -1.03707282101718 2.0
endloop
endfacet
facet normal 1.0 0.0 0.0
outer loop
vertex 3.19999999999999 -0.999999999999993 2.0
vertex 3.19999999999999 1.00000000000001 4.0
vertex 3.19999999999999 -0.999999999999995 4.0
endloop
endfacet
facet normal 1.0 0.0 0.0
outer loop
vertex 3.19999999999999 1.00000000000001 4.0
vertex 3.19999999999999 -0.999999999999993 2.0
vertex 3.19999999999999 1.00000000000001 2.0
endloop
endfacet
facet normal -0.923879532511294 -0.382683432365072 -1.59964371558867e-16
outer loop
vertex 0.167465028475169 -0.841903551203192 2.0
vertex 0.211223555128425 -0.940621205546617 -3.47491303721324e-16
vertex 0.211223555128425 -0.940621205546617 2.0
endloop
endfacet
facet normal -0.903989293123439 -0.427555093430292 -1.76229905238062e-16
outer loop
vertex 0.211223555128425 -0.940621205546617 -3.47491303721324e-16
vertex 0.167465028475169 -0.841903551203192 2.0
vertex 0.167465028475169 -0.841903551203192 -3.09131789245153e-16
endloop
endfacet
facet normal -1.94286119846324e-17 -3.71102228605713e-16 1.0
outer loop
vertex 1.25937879445337 -1.98877644487157 2.0
vertex 1.2 -0.999999999999993 2.0
vertex 1.1629271789828 -1.94022678156637 2.0
endloop
endfacet
facet normal -1.94286119846324e-17 -3.71102228605713e-16 1.0
outer loop
vertex 1.2 -0.999999999999993 2.0
vertex 1.25937879445337 -1.98877644487157 2.0
vertex 3.19999999999999 -0.999999999999993 2.0
endloop
endfacet
facet normal -1.94286119846324e-17 -3.71102228605713e-16 1.0
outer loop
vertex 3.19999999999999 -0.999999999999993 2.0
vertex 1.25937879445337 -1.98877644487157 2.0
vertex 1.3580964487968 -2.03253497152482 2.0
endloop
endfacet
facet normal -1.94286119846324e-17 -3.71102228605713e-16 1.0
outer loop
vertex 3.19999999999999 -0.999999999999993 2.0
vertex 1.3580964487968 -2.03253497152482 2.0
vertex 1.45884232253711 -2.07139694340263 2.0
endloop
endfacet
facet normal -1.94286119846324e-17 -3.71102228605713e-16 1.0
outer loop
vertex 3.19999999999999 -0.999999999999993 2.0
vertex 1.45884232253711 -2.07139694340263 2.0
vertex 1.56137371004018 -2.10526873861085 2.0
endloop
endfacet
facet normal -1.94286119846324e-17 -3.71102228605713e-16 1.0
outer loop
vertex 3.19999999999999 -0.999999999999993 2.0
vertex 1.56137371004018 -2.10526873861085 2.0
vertex 1.66544360421281 -2.13406875702799 2.0
endloop
endfacet
facet normal -1.94286119846324e-17 -3.71102228605713e-16 1.0
outer loop
vertex 3.19999999999999 -0.999999999999993 2.0
vertex 1.66544360421281 -2.13406875702799 2.0
vertex 1.77080129156451 -2.1577276168871 2.0
endloop
endfacet
facet normal -1.94286119846324e-17 -3.71102228605713e-16 1.0
outer loop
vertex 3.19999999999999 -0.999999999999993 2.0
vertex 1.77080129156451 -2.1577276168871 2.0
vertex 1.8771929561982 -2.17618832192251 2.0
endloop
endfacet
facet normal -1.94286119846324e-17 -3.71102228605713e-16 1.0
outer loop
vertex 3.19999999999999 -0.999999999999993 2.0
vertex 1.8771929561982 -2.17618832192251 2.0
vertex 1.98436229127496 -2.18940639867882 2.0
endloop
endfacet
facet normal -1.94286119846324e-17 -3.71102228605713e-16 1.0
outer loop
vertex 3.19999999999999 -0.999999999999993 2.0
vertex 1.98436229127496 -2.18940639867882 2.0
vertex 2.09205111647967 -2.19735000365137 2.0
endloop
endfacet
facet normal -1.94286119846324e-17 -3.71102228605713e-16 1.0
outer loop
vertex 3.19999999999999 -0.999999999999993 2.0
vertex 2.09205111647967 -2.19735000365137 2.0
vertex 2.2 -2.19999999999999 2.0
endloop
endfacet
facet normal -1.94286119846324e-17 -3.71102228605713e-16 1.0
outer loop
vertex 3.19999999999999 -0.999999999999993 2.0
vertex 2.2 -2.19999999999999 2.0
vertex 2.30794888352031 -2.19735000365137 2.0
endloop
endfacet
facet normal -1.94286119846324e-17 -3.71102228605713e-16 1.0
outer loop
vertex 3.19999999999999 -0.999999999999993 2.0
vertex 2.30794888352031 -2.19735000365137 2.0
vertex 2.41563770872503 -2.18940639867882 2.0
endloop
endfacet
facet normal -1.94286119846324e-17 -3.71102228605713e-16 1.0
outer loop
vertex 3.19999999999999 -0.999999999999993 2.0
vertex 2.41563770872503 -2.18940639867882 2.0
vertex 2.52280704380179 -2.17618832192251 2.0
endloop
endfacet
facet normal -1.94286119846324e-17 -3.71102228605713e-16 1.0
outer loop
vertex 3.19999999999999 -0.999999999999993 2.0
vertex 2.52280704380179 -2.17618832192251 2.0
vertex 2.62919870843547 -2.1577276168871 2.0
endloop
endfacet
facet normal -1.94286119846324e-17 -3.71102228605713e-16 1.0
outer loop
vertex 3.19999999999999 -0.999999999999993 2.0
vertex 2.62919870843547 -2.1577276168871 2.0
vertex 2.73455639578717 -2.13406875702799 2.0
endloop
endfacet
facet normal -1.94286119846324e-17 -3.71102228605713e-16 1.0
outer loop
vertex 3.19999999999999 -0.999999999999993 2.0
vertex 2.73455639578717 -2.13406875702799 2.0
vertex 2.83862628995981 -2.10526873861085 2.0
endloop
endfacet
facet normal -1.94286119846324e-17 -3.71102228605713e-16 1.0
outer loop
vertex 3.19999999999999 -0.999999999999993 2.0
vertex 2.83862628995981 -2.10526873861085 2.0
vertex 2.94115767746288 -2.07139694340264 2.0
endloop
endfacet
facet normal -1.94286119846324e-17 -3.71102228605713e-16 1.0
outer loop
vertex 3.19999999999999 -0.999999999999993 2.0
vertex 2.94115767746288 -2.07139694340264 2.0
vertex 3.04190355120319 -2.03253497152482 2.0
endloop
endfacet
facet normal -1.94286119846324e-17 -3.71102228605713e-16 1.0
outer loop
vertex 3.19999999999999 -0.999999999999993 2.0
vertex 3.04190355120319 -2.03253497152482 2.0
vertex 3.14062120554661 -1.98877644487157 2.0
endloop
endfacet
facet normal -1.94286119846324e-17 -3.71102228605713e-16 1.0
outer loop
vertex 3.19999999999999 -0.999999999999993 2.0
vertex 3.14062120554661 -1.98877644487157 2.0
vertex 3.23707282101719 -1.94022678156637 2.0
endloop
endfacet
facet normal -1.94286119846324e-17 -3.71102228605713e-16 1.0
outer loop
vertex 3.19999999999999 -0.999999999999993 2.0
vertex 3.23707282101719 -1.94022678156637 2.0
vertex 3.19999999999999 1.00000000000001 2.0
endloop
endfacet
facet normal -1.94286119846324e-17 -3.71102228605713e-16 1.0
outer loop
vertex 3.42225451264312 -1.82923314706559 2.0
vertex 3.39999999999999 7.56879281389223 2.0
vertex 3.33102603722508 -1.88700294200059 2.0
endloop
endfacet
facet normal -1.94286119846324e-17 -3.71102228605713e-16 1.0
outer loop
vertex 3.39999999999999 7.56879281389223 2.0
vertex 3.42225451264312 -1.82923314706559 2.0
vertex 4.39999999999999 5.63993296509579e-15 2.0
endloop
endfacet
facet normal -1.94286119846324e-17 -3.71102228605713e-16 1.0
outer loop
vertex 4.39999999999999 5.63993296509579e-15 2.0
vertex 3.42225451264312 -1.82923314706559 2.0
vertex 3.51053846988334 -1.76705656925741 2.0
endloop
endfacet
facet normal -1.94286119846324e-17 -3.71102228605713e-16 1.0
outer loop
vertex 4.39999999999999 5.63993296509579e-15 2.0
vertex 3.51053846988334 -1.76705656925741 2.0
vertex 3.59566522516001 -1.70062299739801 2.0
endloop
endfacet
facet normal -1.94286119846324e-17 -3.71102228605713e-16 1.0
outer loop
vertex 4.39999999999999 5.63993296509579e-15 2.0
vertex 3.59566522516001 -1.70062299739801 2.0
vertex 3.67742970066343 -1.6300924757809 2.0
endloop
endfacet
facet normal -1.94286119846324e-17 -3.71102228605713e-16 1.0
outer loop
vertex 4.39999999999999 5.63993296509579e-15 2.0
vertex 3.67742970066343 -1.6300924757809 2.0
vertex 3.7556349186104 -1.5556349186104 2.0
endloop
endfacet
facet normal -1.94286119846324e-17 -3.71102228605713e-16 1.0
outer loop
vertex 4.39999999999999 5.63993296509579e-15 2.0
vertex 3.7556349186104 -1.5556349186104 2.0
vertex 3.8300924757809 -1.47742970066343 2.0
endloop
endfacet
facet normal -1.94286119846324e-17 -3.71102228605713e-16 1.0
outer loop
vertex 4.39999999999999 5.63993296509579e-15 2.0
vertex 3.8300924757809 -1.47742970066343 2.0
vertex 3.90062299739802 -1.39566522516001 2.0
endloop
endfacet
facet normal -1.94286119846324e-17 -3.71102228605713e-16 1.0
outer loop
vertex 4.39999999999999 5.63993296509579e-15 2.0
vertex 3.90062299739802 -1.39566522516001 2.0
vertex 3.96705656925741 -1.31053846988334 2.0
endloop
endfacet
facet normal -1.94286119846324e-17 -3.71102228605713e-16 1.0
outer loop
vertex 4.39999999999999 5.63993296509579e-15 2.0
vertex 3.96705656925741 -1.31053846988334 2.0
vertex 4.02923314706559 -1.22225451264312 2.0
endloop
endfacet
facet normal -1.94286119846324e-17 -3.71102228605713e-16 1.0
outer loop
vertex 4.39999999999999 5.63993296509579e-15 2.0
vertex 4.02923314706559 -1.22225451264312 2.0
vertex 4.08700294200059 -1.13102603722508 2.0
endloop
endfacet
facet normal -1.94286119846324e-17 -3.71102228605713e-16 1.0
outer loop
vertex 4.39999999999999 5.63993296509579e-15 2.0
vertex 4.08700294200059 -1.13102603722508 2.0
vertex 4.14022678156638 -1.03707282101718 2.0
endloop
endfacet
facet normal -1.94286119846324e-17 -3.71102228605713e-16 1.0
outer loop
vertex 4.39999999999999 5.63993296509579e-15 2.0
vertex 4.14022678156638 -1.03707282101718 2.0
vertex 4.18877644487157 -0.940621205546612 2.0
endloop
endfacet
facet normal -1.94286119846324e-17 -3.71102228605713e-16 1.0
outer loop
vertex 4.39999999999999 5.63993296509579e-15 2.0
vertex 4.18877644487157 -0.940621205546612 2.0
vertex 4.23253497152482 -0.841903551203192 2.0
endloop
endfacet
facet normal -1.94286119846324e-17 -3.71102228605713e-16 1.0
outer loop
vertex 4.39999999999999 5.63993296509579e-15 2.0
vertex 4.23253497152482 -0.841903551203192 2.0
vertex 4.27139694340264 -0.741157677462877 2.0
endloop
endfacet
facet normal -1.94286119846324e-17 -3.71102228605713e-16 1.0
outer loop
vertex 4.39999999999999 5.63993296509579e-15 2.0
vertex 4.27139694340264 -0.741157677462877 2.0
vertex 4.30526873861085 -0.638626289959809 2.0
endloop
endfacet
facet normal -1.94286119846324e-17 -3.71102228605713e-16 1.0
outer loop
vertex 4.39999999999999 5.63993296509579e-15 2.0
vertex 4.30526873861085 -0.638626289959809 2.0
vertex 4.33406875702799 -0.534556395787172 2.0
endloop
endfacet
facet normal -1.94286119846324e-17 -3.71102228605713e-16 1.0
outer loop
vertex 4.39999999999999 5.63993296509579e-15 2.0
vertex 4.33406875702799 -0.534556395787172 2.0
vertex 4.3577276168871 -0.429198708435477 2.0
endloop
endfacet
facet normal -1.94286119846324e-17 -3.71102228605713e-16 1.0
outer loop
vertex 4.39999999999999 5.63993296509579e-15 2.0
vertex 4.3577276168871 -0.429198708435477 2.0
vertex 4.37618832192251 -0.322807043801792 2.0
endloop
endfacet
facet normal -1.94286119846324e-17 -3.71102228605713e-16 1.0
outer loop
vertex 4.39999999999999 5.63993296509579e-15 2.0
vertex 4.37618832192251 -0.322807043801792 2.0
vertex 4.38940639867883 -0.215637708725025 2.0
endloop
endfacet
facet normal -1.94286119846324e-17 -3.71102228605713e-16 1.0
outer loop
vertex 4.39999999999999 5.63993296509579e-15 2.0
vertex 4.38940639867883 -0.215637708725025 2.0
vertex 4.39735000365137 -0.107948883520316 2.0
endloop
endfacet
facet normal -1.94286119846324e-17 -3.71102228605713e-16 1.0
outer loop
vertex 0.0026499963486236 -0.107948883520316 2.0
vertex 0.0 9.30000000000001 2.0
vertex 0.0 0.0 2.0
endloop
endfacet
facet normal -1.94286119846324e-17 -3.71102228605713e-16 1.0
outer loop
vertex 0.0 9.30000000000001 2.0
vertex 0.0026499963486236 -0.107948883520316 2.0
vertex 3.39999999999999 7.56879281389223 2.0
endloop
endfacet
facet normal -1.94286119846324e-17 -3.71102228605713e-16 1.0
outer loop
vertex 0.0 9.30000000000001 2.0
vertex 3.39999999999999 7.56879281389223 2.0
vertex 8.9216097840817 13.1072140549984 2.0
endloop
endfacet
facet normal -1.94286119846324e-17 -3.71102228605713e-16 1.0
outer loop
vertex 3.39999999999999 7.56879281389223 2.0
vertex 0.0026499963486236 -0.107948883520316 2.0
vertex 0.0105936013211656 -0.215637708725031 2.0
endloop
endfacet
facet normal -1.94286119846324e-17 -3.71102228605713e-16 1.0
outer loop
vertex 3.39999999999999 7.56879281389223 2.0
vertex 0.0105936013211656 -0.215637708725031 2.0
vertex 0.0238116780774831 -0.322807043801792 2.0
endloop
endfacet
facet normal -1.94286119846324e-17 -3.71102228605713e-16 1.0
outer loop
vertex 3.39999999999999 7.56879281389223 2.0
vertex 0.0238116780774831 -0.322807043801792 2.0
vertex 0.0422723831128917 -0.429198708435477 2.0
endloop
endfacet
facet normal -1.94286119846324e-17 -3.71102228605713e-16 1.0
outer loop
vertex 3.39999999999999 7.56879281389223 2.0
vertex 0.0422723831128917 -0.429198708435477 2.0
vertex 0.0659312429720039 -0.534556395787178 2.0
endloop
endfacet
facet normal -1.94286119846324e-17 -3.71102228605713e-16 1.0
outer loop
vertex 3.39999999999999 7.56879281389223 2.0
vertex 0.0659312429720039 -0.534556395787178 2.0
vertex 0.0947312613891421 -0.638626289959814 2.0
endloop
endfacet
facet normal -1.94286119846324e-17 -3.71102228605713e-16 1.0
outer loop
vertex 3.39999999999999 7.56879281389223 2.0
vertex 0.0947312613891421 -0.638626289959814 2.0
vertex 0.128603056597357 -0.741157677462877 2.0
endloop
endfacet
facet normal -1.94286119846324e-17 -3.71102228605713e-16 1.0
outer loop
vertex 3.39999999999999 7.56879281389223 2.0
vertex 0.128603056597357 -0.741157677462877 2.0
vertex 0.167465028475169 -0.841903551203192 2.0
endloop
endfacet
facet normal -1.94286119846324e-17 -3.71102228605713e-16 1.0
outer loop
vertex 3.39999999999999 7.56879281389223 2.0
vertex 0.167465028475169 -0.841903551203192 2.0
vertex 0.211223555128425 -0.940621205546617 2.0
endloop
endfacet
facet normal -1.94286119846324e-17 -3.71102228605713e-16 1.0
outer loop
vertex 3.39999999999999 7.56879281389223 2.0
vertex 0.211223555128425 -0.940621205546617 2.0
vertex 0.259773218433622 -1.03707282101719 2.0
endloop
endfacet
facet normal -1.94286119846324e-17 -3.71102228605713e-16 1.0
outer loop
vertex 3.39999999999999 7.56879281389223 2.0
vertex 0.259773218433622 -1.03707282101719 2.0
vertex 0.312997057999403 -1.13102603722508 2.0
endloop
endfacet
facet normal -1.94286119846324e-17 -3.71102228605713e-16 1.0
outer loop
vertex 3.39999999999999 7.56879281389223 2.0
vertex 0.312997057999403 -1.13102603722508 2.0
vertex 0.370766852934398 -1.22225451264312 2.0
endloop
endfacet
facet normal -1.94286119846324e-17 -3.71102228605713e-16 1.0
outer loop
vertex 3.39999999999999 7.56879281389223 2.0
vertex 0.370766852934398 -1.22225451264312 2.0
vertex 1.2 1.00000000000001 2.0
endloop
endfacet
facet normal -1.94286119846324e-17 -3.71102228605713e-16 1.0
outer loop
vertex 1.2 1.00000000000001 2.0
vertex 0.370766852934398 -1.22225451264312 2.0
vertex 0.432943430742582 -1.31053846988334 2.0
endloop
endfacet
facet normal -1.94286119846324e-17 -3.71102228605713e-16 1.0
outer loop
vertex 1.2 1.00000000000001 2.0
vertex 0.432943430742582 -1.31053846988334 2.0
vertex 0.499377002601976 -1.39566522516001 2.0
endloop
endfacet
facet normal -1.94286119846324e-17 -3.71102228605713e-16 1.0
outer loop
vertex 1.2 1.00000000000001 2.0
vertex 0.499377002601976 -1.39566522516001 2.0
vertex 0.569907524219092 -1.47742970066343 2.0
endloop
endfacet
facet normal -1.94286119846324e-17 -3.71102228605713e-16 1.0
outer loop
vertex 1.2 1.00000000000001 2.0
vertex 0.569907524219092 -1.47742970066343 2.0
vertex 0.644365081389594 -1.5556349186104 2.0
endloop
endfacet
facet normal -1.94286119846324e-17 -3.71102228605713e-16 1.0
outer loop
vertex 1.2 1.00000000000001 2.0
vertex 0.644365081389594 -1.5556349186104 2.0
vertex 0.722570299336554 -1.6300924757809 2.0
endloop
endfacet
facet normal -1.94286119846324e-17 -3.71102228605713e-16 1.0
outer loop
vertex 1.2 1.00000000000001 2.0
vertex 0.722570299336554 -1.6300924757809 2.0
vertex 0.804334774839978 -1.70062299739801 2.0
endloop
endfacet
facet normal -1.94286119846324e-17 -3.71102228605713e-16 1.0
outer loop
vertex 1.2 1.00000000000001 2.0
vertex 0.804334774839978 -1.70062299739801 2.0
vertex 0.889461530116642 -1.76705656925741 2.0
endloop
endfacet
facet normal -1.94286119846324e-17 -3.71102228605713e-16 1.0
outer loop
vertex 1.2 1.00000000000001 2.0
vertex 0.889461530116642 -1.76705656925741 2.0
vertex 0.977745487356873 -1.82923314706559 2.0
endloop
endfacet
facet normal -1.94286119846324e-17 -3.71102228605713e-16 1.0
outer loop
vertex 1.2 1.00000000000001 2.0
vertex 0.977745487356873 -1.82923314706559 2.0
vertex 1.06897396277491 -1.88700294200059 2.0
endloop
endfacet
facet normal -1.94286119846324e-17 -3.71102228605713e-16 1.0
outer loop
vertex 1.2 1.00000000000001 2.0
vertex 1.06897396277491 -1.88700294200059 2.0
vertex 1.1629271789828 -1.94022678156637 2.0
endloop
endfacet
facet normal -1.94286119846324e-17 -3.71102228605713e-16 1.0
outer loop
vertex 1.2 1.00000000000001 2.0
vertex 1.1629271789828 -1.94022678156637 2.0
vertex 1.2 -0.999999999999993 2.0
endloop
endfacet
facet normal -1.94286119846324e-17 -3.71102228605713e-16 1.0
outer loop
vertex 3.39999999999999 7.56879281389223 2.0
vertex 1.2 1.00000000000001 2.0
vertex 3.19999999999999 1.00000000000001 2.0
endloop
endfacet
facet normal -1.94286119846324e-17 -3.71102228605713e-16 1.0
outer loop
vertex 3.39999999999999 7.56879281389223 2.0
vertex 3.19999999999999 1.00000000000001 2.0
vertex 3.23707282101719 -1.94022678156637 2.0
endloop
endfacet
facet normal -1.94286119846324e-17 -3.71102228605713e-16 1.0
outer loop
vertex 3.39999999999999 7.56879281389223 2.0
vertex 3.23707282101719 -1.94022678156637 2.0
vertex 3.33102603722508 -1.88700294200059 2.0
endloop
endfacet
facet normal -1.94286119846324e-17 -3.71102228605713e-16 1.0
outer loop
vertex 8.9216097840817 13.1072140549984 2.0
vertex 3.39999999999999 7.56879281389223 2.0
vertex 10.6385811198419 9.30000000000001 2.0
endloop
endfacet
facet normal -1.94286119846324e-17 -3.71102228605713e-16 1.0
outer loop
vertex 8.9216097840817 13.1072140549984 2.0
vertex 10.6385811198419 9.30000000000001 2.0
vertex 10.6385811198419 11.898078234597 2.0
endloop
endfacet
facet normal -1.94286119846324e-17 -3.71102228605713e-16 1.0
outer loop
vertex 10.6385811198419 11.898078234597 2.0
vertex 10.6385811198419 9.30000000000001 2.0
vertex 14.1294843895924 13.1072140549984 2.0
endloop
endfacet
facet normal 0.671558954847025 -0.740951125354953 -2.61921155548606e-16
outer loop
vertex 3.67742970066343 -1.6300924757809 -6.15404711382401e-16
vertex 3.59566522516001 -1.70062299739801 2.0
vertex 3.59566522516001 -1.70062299739801 -6.42811324545752e-16
endloop
endfacet
facet normal 0.634393284163648 -0.773010453362735 -2.74540521014751e-16
outer loop
vertex 3.59566522516001 -1.70062299739801 2.0
vertex 3.67742970066343 -1.6300924757809 -6.15404711382401e-16
vertex 3.67742970066343 -1.6300924757809 2.0
endloop
endfacet
facet normal 0.5757789620959 0.81760539798106 3.14601771354308e-16
outer loop
vertex 8.9216097840817 13.1072140549984 5.11118924961806e-15
vertex 10.6385811198419 11.898078234597 2.0
vertex 10.6385811198419 11.898078234597 4.64134559992004e-15
endloop
endfacet
facet normal 0.5757789620959 0.81760539798106 3.14601771354308e-16
outer loop
vertex 10.6385811198419 11.898078234597 2.0
vertex 8.9216097840817 13.1072140549984 5.11118924961806e-15
vertex 8.9216097840817 13.1072140549984 2.0
endloop
endfacet
facet normal 0.0 -1.0 -3.88578058618805e-16
outer loop
vertex 3.19999999999999 -0.999999999999995 4.0
vertex 1.2 -0.999999999999993 2.0
vertex 3.19999999999999 -0.999999999999993 2.0
endloop
endfacet
facet normal 0.0 -1.0 -3.88578058618805e-16
outer loop
vertex 1.2 -0.999999999999993 2.0
vertex 3.19999999999999 -0.999999999999995 4.0
vertex 1.2 -0.999999999999995 4.0
endloop
endfacet
facet normal 0.707106781186548 -0.707106781186548 -2.48670799077164e-16
outer loop
vertex 3.7556349186104 -1.5556349186104 -5.86472138367589e-16
vertex 3.67742970066343 -1.6300924757809 2.0
vertex 3.67742970066343 -1.6300924757809 -6.15404711382401e-16
endloop
endfacet
facet normal 0.671558954847025 -0.740951125354953 -2.61921155548606e-16
outer loop
vertex 3.67742970066343 -1.6300924757809 2.0
vertex 3.7556349186104 -1.5556349186104 -5.86472138367589e-16
vertex 3.7556349186104 -1.5556349186104 2.0
endloop
endfacet
facet normal -0.392496294329735 0.919753585987805 3.33696947320232e-16
outer loop
vertex 0.0 9.30000000000001 2.0
vertex 8.9216097840817 13.1072140549984 5.11118924961806e-15
vertex 0.0 9.30000000000001 8.1182292083265e-16
endloop
endfacet
facet normal -0.392496294329735 0.919753585987805 3.33696947320232e-16
outer loop
vertex 8.9216097840817 13.1072140549984 5.11118924961806e-15
vertex 0.0 9.30000000000001 2.0
vertex 8.9216097840817 13.1072140549984 2.0
endloop
endfacet
facet normal 0.0 -3.88578058618805e-16 1.0
outer loop
vertex 3.19999999999999 -0.999999999999995 4.0
vertex 1.2 1.00000000000001 4.0
vertex 1.2 -0.999999999999995 4.0
endloop
endfacet
facet normal 0.0 -3.88578058618805e-16 1.0
outer loop
vertex 1.2 1.00000000000001 4.0
vertex 3.19999999999999 -0.999999999999995 4.0
vertex 3.19999999999999 1.00000000000001 4.0
endloop
endfacet
facet normal 0.0 1.0 3.88578058618805e-16
outer loop
vertex 1.2 1.00000000000001 4.0
vertex 3.19999999999999 1.00000000000001 2.0
vertex 1.2 1.00000000000001 2.0
endloop
endfacet
facet normal 0.0 1.0 3.88578058618805e-16
outer loop
vertex 3.19999999999999 1.00000000000001 2.0
vertex 1.2 1.00000000000001 4.0
vertex 3.19999999999999 1.00000000000001 4.0
endloop
endfacet
endsolid model
