solid model
facet normal -0.803207531480645 0.595699304492434 -2.03602592768253e-16
outer loop
vertex 0.432943430742582 1.31053846988335 2.0
vertex 0.370766852934398 1.22225451264313 -2.8199664825479e-15
vertex 0.370766852934398 1.22225451264313 2.0
endloop
endfacet
facet normal -0.831469612302546 0.555570233019601 -1.91487308870272e-16
outer loop
vertex 0.370766852934398 1.22225451264313 -2.8199664825479e-15
vertex 0.432943430742582 1.31053846988335 2.0
vertex 0.432943430742582 1.31053846988335 -2.8199664825479e-15
endloop
endfacet
facet normal 0.0 -1.0 3.33066907387547e-16
outer loop
vertex 3.19999999999999 -1.0 4.0
vertex 1.2 -1.0 2.0
vertex 3.19999999999999 -1.0 2.0
endloop
endfacet
facet normal 0.0 -1.0 3.33066907387547e-16
outer loop
vertex 1.2 -1.0 2.0
vertex 3.19999999999999 -1.0 4.0
vertex 1.2 -1.0 4.0
endloop
endfacet
facet normal -0.290284677254471 0.956940335732206 -3.07641659896261e-16
outer loop
vertex 1.56137371004018 2.10526873861086 2.0
vertex 1.66544360421281 2.134068757028 -2.8199664825479e-15
vertex 1.56137371004018 2.10526873861086 -2.8199664825479e-15
endloop
endfacet
facet normal -0.242980179903275 0.970031253194541 -3.10853975917855e-16
outer loop
vertex 1.66544360421281 2.134068757028 -2.8199664825479e-15
vertex 1.56137371004018 2.10526873861086 2.0
vertex 1.66544360421281 2.134068757028 2.0
endloop
endfacet
facet normal 0.242980179903275 0.970031253194541 -3.01412440647261e-16
outer loop
vertex 2.73455639578717 2.134068757028 2.0
vertex 2.83862628995981 2.10526873861086 -2.8199664825479e-15
vertex 2.73455639578717 2.134068757028 -2.8199664825479e-15
endloop
endfacet
facet normal 0.290284677254448 0.956940335732213 -2.96362003177341e-16
outer loop
vertex 2.83862628995981 2.10526873861086 -2.8199664825479e-15
vertex 2.73455639578717 2.134068757028 2.0
vertex 2.83862628995981 2.10526873861086 2.0
endloop
endfacet
facet normal 0.0 3.33066907387547e-16 1.0
outer loop
vertex 3.19999999999999 -1.0 4.0
vertex 1.2 1.0 4.0
vertex 1.2 -1.0 4.0
endloop
endfacet
facet normal 0.0 3.33066907387547e-16 1.0
outer loop
vertex 1.2 1.0 4.0
vertex 3.19999999999999 -1.0 4.0
vertex 3.19999999999999 1.0 4.0
endloop
endfacet
facet normal -0.995184726672198 0.0980171403295534 -5.02683928253135e-17
outer loop
vertex 0.0105936013211656 0.215637708725039 2.0
vertex 0.0026499963486236 0.107948883520325 -2.11497486191092e-15
vertex 0.0026499963486236 0.107948883520325 2.0
endloop
endfacet
facet normal -0.998795456205173 0.0490676743274125 -3.48905295758712e-17
outer loop
vertex 0.0026499963486236 0.107948883520325 -2.11497486191092e-15
vertex 0.0105936013211656 0.215637708725039 2.0
vertex 0.0105936013211656 0.215637708725039 -2.11497486191092e-15
endloop
endfacet
facet normal 0.773010453362735 0.634393284163648 -1.85190339869875e-16
outer loop
vertex 3.90062299739802 1.39566522516002 -2.8199664825479e-15
vertex 3.96705656925741 1.31053846988335 2.0
vertex 3.96705656925741 1.31053846988335 -2.8199664825479e-15
endloop
endfacet
facet normal 0.803207531480645 0.595699304492434 -1.72392177823709e-16
outer loop
vertex 3.96705656925741 1.31053846988335 2.0
vertex 3.90062299739802 1.39566522516002 -2.8199664825479e-15
vertex 3.90062299739802 1.39566522516002 2.0
endloop
endfacet
facet normal -0.70710678118656 0.707106781186535 -2.36894694176818e-16
outer loop
vertex 0.644365081389594 1.5556349186104 2.0
vertex 0.722570299336554 1.63009247578091 -2.8199664825479e-15
vertex 0.644365081389594 1.5556349186104 -2.8199664825479e-15
endloop
endfacet
facet normal -0.671558954847025 0.740951125354953 -2.46885022291113e-16
outer loop
vertex 0.722570299336554 1.63009247578091 -2.8199664825479e-15
vertex 0.644365081389594 1.5556349186104 2.0
vertex 0.722570299336554 1.63009247578091 2.0
endloop
endfacet
facet normal 0.737061842074978 0.675825303578551 -1.9896434713492e-16
outer loop
vertex 10.6385811198419 -9.3 7.04991620636974e-16
vertex 14.1294843895924 -13.1072140549984 2.0
vertex 14.1294843895924 -13.1072140549984 2.11497486191092e-15
endloop
endfacet
facet normal 0.737061842074978 0.675825303578551 -1.9896434713492e-16
outer loop
vertex 14.1294843895924 -13.1072140549984 2.0
vertex 10.6385811198419 -9.3 7.04991620636974e-16
vertex 10.6385811198419 -9.3 2.0
endloop
endfacet
facet normal -0.941544065183022 0.336889853392217 -1.24612326097446e-16
outer loop
vertex 0.128603056597357 0.741157677462886 2.0
vertex 0.0947312613891421 0.638626289959823 -2.11497486191092e-15
vertex 0.0947312613891421 0.638626289959823 2.0
endloop
endfacet
facet normal -0.956940335732204 0.290284677254479 -1.10203276515422e-16
outer loop
vertex 0.0947312613891421 0.638626289959823 -2.11497486191092e-15
vertex 0.128603056597357 0.741157677462886 2.0
vertex 0.128603056597357 0.741157677462886 -2.8199664825479e-15
endloop
endfacet
facet normal -0.671558954847025 0.740951125354953 -2.46885022291113e-16
outer loop
vertex 0.722570299336554 1.63009247578091 2.0
vertex 0.804334774839978 1.70062299739802 -2.8199664825479e-15
vertex 0.722570299336554 1.63009247578091 -2.8199664825479e-15
endloop
endfacet
facet normal -0.634393284163647 0.773010453362735 -2.56280582762134e-16
outer loop
vertex 0.804334774839978 1.70062299739802 -2.8199664825479e-15
vertex 0.722570299336554 1.63009247578091 2.0
vertex 0.804334774839978 1.70062299739802 2.0
endloop
endfacet
facet normal 0.97003125319454 0.24298017990328 -5.78360159250317e-17
outer loop
vertex 4.33406875702799 0.534556395787181 -2.11497486191092e-15
vertex 4.3577276168871 0.429198708435486 2.0
vertex 4.3577276168871 0.429198708435486 -2.11497486191092e-15
endloop
endfacet
facet normal 0.98078528040323 0.19509032201613 -4.25134682572066e-17
outer loop
vertex 4.3577276168871 0.429198708435486 2.0
vertex 4.33406875702799 0.534556395787181 -2.11497486191092e-15
vertex 4.33406875702799 0.534556395787181 2.0
endloop
endfacet
facet normal -0.980785280403231 0.195090322016124 -8.06240615635913e-17
outer loop
vertex 0.0422723831128917 0.429198708435486 2.0
vertex 0.0238116780774831 0.3228070438018 -2.11497486191092e-15
vertex 0.0238116780774831 0.3228070438018 2.0
endloop
endfacet
facet normal -0.989176509964781 0.146730474455363 -6.55251551134516e-17
outer loop
vertex 0.0238116780774831 0.3228070438018 -2.11497486191092e-15
vertex 0.0422723831128917 0.429198708435486 2.0
vertex 0.0422723831128917 0.429198708435486 -2.11497486191092e-15
endloop
endfacet
facet normal 0.0 1.0 -3.33066907387547e-16
outer loop
vertex 1.2 1.0 4.0
vertex 3.19999999999999 1.0 2.0
vertex 1.2 1.0 2.0
endloop
endfacet
facet normal 0.0 1.0 -3.33066907387547e-16
outer loop
vertex 3.19999999999999 1.0 2.0
vertex 1.2 1.0 4.0
vertex 3.19999999999999 1.0 4.0
endloop
endfacet
facet normal -1.0 -4.9982310795463e-33 -1.94286119846324e-17
outer loop
vertex 0.0 -9.3 2.0
vertex 0.0 8.45989944764369e-15 -2.11497486191092e-15
vertex 0.0 -9.3 -7.04991620636974e-16
endloop
endfacet
facet normal -0.999924701839144 0.0122715382857335 -2.32999370345185e-17
outer loop
vertex 0.0 8.45989944764369e-15 -2.11497486191092e-15
vertex 0.0 -9.3 2.0
vertex 0.0 8.45989944764369e-15 2.0
endloop
endfacet
facet normal -0.998795456205173 0.0490676743274124 -3.48905295758712e-17
outer loop
vertex 0.0026499963486236 0.107948883520325 2.0
vertex 0.0 8.45989944764369e-15 -2.11497486191092e-15
vertex 0.0 8.45989944764369e-15 2.0
endloop
endfacet
facet normal -0.999924701839144 0.0122715382857335 -2.32999370345185e-17
outer loop
vertex 0.0 8.45989944764369e-15 -2.11497486191092e-15
vertex 0.0026499963486236 0.107948883520325 2.0
vertex 0.0026499963486236 0.107948883520325 -2.11497486191092e-15
endloop
endfacet
facet normal 0.0980171403295535 0.995184726672198 -3.12167083089776e-16
outer loop
vertex 2.41563770872503 2.18940639867883 2.0
vertex 2.52280704380179 2.17618832192252 -2.8199664825479e-15
vertex 2.41563770872503 2.18940639867883 -2.8199664825479e-15
endloop
endfacet
facet normal 0.146730474455363 0.989176509964781 -3.09324511038774e-16
outer loop
vertex 2.52280704380179 2.17618832192252 -2.8199664825479e-15
vertex 2.41563770872503 2.18940639867883 2.0
vertex 2.52280704380179 2.17618832192252 2.0
endloop
endfacet
facet normal 0.831469612302546 0.555570233019601 -1.59178707921394e-16
outer loop
vertex 4.02923314706559 1.22225451264313 -2.8199664825479e-15
vertex 4.08700294200059 1.13102603722509 2.0
vertex 4.08700294200059 1.13102603722509 -2.8199664825479e-15
endloop
endfacet
facet normal 0.857728610000275 0.514102744193216 -1.45581762569288e-16
outer loop
vertex 4.08700294200059 1.13102603722509 2.0
vertex 4.02923314706559 1.22225451264313 -2.8199664825479e-15
vertex 4.02923314706559 1.22225451264313 2.0
endloop
endfacet
facet normal -0.956940335732204 0.290284677254479 -1.10203276515422e-16
outer loop
vertex 0.0947312613891421 0.638626289959823 2.0
vertex 0.0659312429720039 0.534556395787186 -2.11497486191092e-15
vertex 0.0659312429720039 0.534556395787186 2.0
endloop
endfacet
facet normal -0.970031253194541 0.242980179903275 -9.55287375875968e-17
outer loop
vertex 0.0659312429720039 0.534556395787186 -2.11497486191092e-15
vertex 0.0947312613891421 0.638626289959823 2.0
vertex 0.0947312613891421 0.638626289959823 -2.11497486191092e-15
endloop
endfacet
facet normal -0.514102744193228 0.857728610000269 -2.80679798862044e-16
outer loop
vertex 1.06897396277491 1.8870029420006 2.0
vertex 1.1629271789828 1.94022678156638 -2.8199664825479e-15
vertex 1.06897396277491 1.8870029420006 -2.8199664825479e-15
endloop
endfacet
facet normal -0.471396736826003 0.881921264348352 -2.87485066265752e-16
outer loop
vertex 1.1629271789828 1.94022678156638 -2.8199664825479e-15
vertex 1.06897396277491 1.8870029420006 2.0
vertex 1.1629271789828 1.94022678156638 2.0
endloop
endfacet
facet normal 0.336889853392218 0.941544065183022 -2.90597603683517e-16
outer loop
vertex 2.94115767746288 2.07139694340265 2.0
vertex 3.04190355120319 2.03253497152483 -2.8199664825479e-15
vertex 2.94115767746288 2.07139694340265 -2.8199664825479e-15
endloop
endfacet
facet normal 0.382683432365103 0.923879532511281 -2.84133129109074e-16
outer loop
vertex 3.04190355120319 2.03253497152483 -2.8199664825479e-15
vertex 2.94115767746288 2.07139694340265 2.0
vertex 3.04190355120319 2.03253497152483 2.0
endloop
endfacet
facet normal -0.70710678118656 0.707106781186535 -2.36894694176818e-16
outer loop
vertex 0.644365081389594 1.5556349186104 2.0
vertex 0.569907524219092 1.47742970066344 -2.8199664825479e-15
vertex 0.569907524219092 1.47742970066344 2.0
endloop
endfacet
facet normal -0.740951125354953 0.671558954847025 -2.26333665994734e-16
outer loop
vertex 0.569907524219092 1.47742970066344 -2.8199664825479e-15
vertex 0.644365081389594 1.5556349186104 2.0
vertex 0.644365081389594 1.5556349186104 -2.8199664825479e-15
endloop
endfacet
facet normal -0.85772861000028 0.514102744193208 -1.78910715272912e-16
outer loop
vertex 0.312997057999403 1.13102603722509 2.0
vertex 0.259773218433622 1.0370728210172 -2.8199664825479e-15
vertex 0.259773218433622 1.0370728210172 2.0
endloop
endfacet
facet normal -0.881921264348346 0.471396736826014 -1.65903110091745e-16
outer loop
vertex 0.259773218433622 1.0370728210172 -2.8199664825479e-15
vertex 0.312997057999403 1.13102603722509 2.0
vertex 0.312997057999403 1.13102603722509 -2.8199664825479e-15
endloop
endfacet
facet normal -0.595699304492417 0.803207531480657 -2.65058740861756e-16
outer loop
vertex 0.889461530116642 1.76705656925742 2.0
vertex 0.977745487356873 1.8292331470656 -2.8199664825479e-15
vertex 0.889461530116642 1.76705656925742 -2.8199664825479e-15
endloop
endfacet
facet normal -0.555570233019601 0.831469612302546 -2.73198349238231e-16
outer loop
vertex 0.977745487356873 1.8292331470656 -2.8199664825479e-15
vertex 0.889461530116642 1.76705656925742 2.0
vertex 0.977745487356873 1.8292331470656 2.0
endloop
endfacet
facet normal -0.427555093430292 0.903989293123439 -2.93597756964109e-16
outer loop
vertex 1.25937879445337 1.98877644487157 2.0
vertex 1.3580964487968 2.03253497152483 -2.8199664825479e-15
vertex 1.25937879445337 1.98877644487157 -2.8199664825479e-15
endloop
endfacet
facet normal -0.38268343236508 0.923879532511291 -2.99003144949815e-16
outer loop
vertex 1.3580964487968 2.03253497152483 -2.8199664825479e-15
vertex 1.25937879445337 1.98877644487157 2.0
vertex 1.3580964487968 2.03253497152483 2.0
endloop
endfacet
facet normal 0.5757789620959 -0.81760539798106 2.69215554459489e-16
outer loop
vertex 10.6385811198419 -11.898078234597 2.0
vertex 8.9216097840817 -13.1072140549984 2.11497486191092e-15
vertex 10.6385811198419 -11.898078234597 1.40998324127395e-15
endloop
endfacet
facet normal 0.5757789620959 -0.81760539798106 2.69215554459489e-16
outer loop
vertex 8.9216097840817 -13.1072140549984 2.11497486191092e-15
vertex 10.6385811198419 -11.898078234597 2.0
vertex 8.9216097840817 -13.1072140549984 2.0
endloop
endfacet
facet normal -0.336889853392218 0.941544065183022 -3.03688208169751e-16
outer loop
vertex 1.45884232253711 2.07139694340264 2.0
vertex 1.56137371004018 2.10526873861086 -2.8199664825479e-15
vertex 1.45884232253711 2.07139694340264 -2.8199664825479e-15
endloop
endfacet
facet normal -0.290284677254471 0.956940335732206 -3.07641659896261e-16
outer loop
vertex 1.56137371004018 2.10526873861086 -2.8199664825479e-15
vertex 1.45884232253711 2.07139694340264 2.0
vertex 1.56137371004018 2.10526873861086 2.0
endloop
endfacet
facet normal 0.634393284163648 0.773010453362735 -2.31629820834789e-16
outer loop
vertex 3.59566522516001 1.70062299739802 2.0
vertex 3.67742970066343 1.63009247578091 -2.8199664825479e-15
vertex 3.59566522516001 1.70062299739802 -2.8199664825479e-15
endloop
endfacet
facet normal 0.671558954847025 0.740951125354953 -2.20790105574057e-16
outer loop
vertex 3.67742970066343 1.63009247578091 -2.8199664825479e-15
vertex 3.59566522516001 1.70062299739802 2.0
vertex 3.67742970066343 1.63009247578091 2.0
endloop
endfacet
facet normal 0.290284677254448 0.956940335732213 -2.96362003177341e-16
outer loop
vertex 2.83862628995981 2.10526873861086 2.0
vertex 2.94115767746288 2.07139694340265 -2.8199664825479e-15
vertex 2.83862628995981 2.10526873861086 -2.8199664825479e-15
endloop
endfacet
facet normal 0.336889853392218 0.941544065183022 -2.90597603683517e-16
outer loop
vertex 2.94115767746288 2.07139694340265 -2.8199664825479e-15
vertex 2.83862628995981 2.10526873861086 2.0
vertex 2.94115767746288 2.07139694340265 2.0
endloop
endfacet
facet normal 0.903989293123444 0.42755509343028 -1.1736931535824e-16
outer loop
vertex 4.18877644487157 0.94062120554662 -2.8199664825479e-15
vertex 4.23253497152482 0.8419035512032 2.0
vertex 4.23253497152482 0.8419035512032 -2.8199664825479e-15
endloop
endfacet
facet normal 0.923879532511281 0.382683432365104 -1.02821779755752e-16
outer loop
vertex 4.23253497152482 0.8419035512032 2.0
vertex 4.18877644487157 0.94062120554662 -2.8199664825479e-15
vertex 4.18877644487157 0.94062120554662 2.0
endloop
endfacet
facet normal 0.471396736825982 0.881921264348363 -2.69167897684528e-16
outer loop
vertex 3.23707282101719 1.94022678156638 2.0
vertex 3.33102603722508 1.8870029420006 -2.8199664825479e-15
vertex 3.23707282101719 1.94022678156638 -2.8199664825479e-15
endloop
endfacet
facet normal 0.514102744193216 0.857728610000276 -2.60703193387716e-16
outer loop
vertex 3.33102603722508 1.8870029420006 -2.8199664825479e-15
vertex 3.23707282101719 1.94022678156638 2.0
vertex 3.33102603722508 1.8870029420006 2.0
endloop
endfacet
facet normal 0.595699304492434 0.803207531480645 -2.41911519568754e-16
outer loop
vertex 3.51053846988334 1.76705656925742 2.0
vertex 3.59566522516001 1.70062299739802 -2.8199664825479e-15
vertex 3.51053846988334 1.76705656925742 -2.8199664825479e-15
endloop
endfacet
facet normal 0.634393284163648 0.773010453362735 -2.31629820834789e-16
outer loop
vertex 3.59566522516001 1.70062299739802 -2.8199664825479e-15
vertex 3.51053846988334 1.76705656925742 2.0
vertex 3.59566522516001 1.70062299739802 2.0
endloop
endfacet
facet normal -0.195090322016124 0.980785280403231 -3.13317417483871e-16
outer loop
vertex 1.77080129156451 2.15772761688711 2.0
vertex 1.8771929561982 2.17618832192252 -2.8199664825479e-15
vertex 1.77080129156451 2.15772761688711 -2.8199664825479e-15
endloop
endfacet
facet normal -0.146730474455363 0.989176509964781 -3.15026049947803e-16
outer loop
vertex 1.8771929561982 2.17618832192252 -2.8199664825479e-15
vertex 1.77080129156451 2.15772761688711 2.0
vertex 1.8771929561982 2.17618832192252 2.0
endloop
endfacet
facet normal -0.471396736826003 0.881921264348352 -2.87485066265752e-16
outer loop
vertex 1.1629271789828 1.94022678156638 2.0
vertex 1.25937879445337 1.98877644487157 -2.8199664825479e-15
vertex 1.1629271789828 1.94022678156638 -2.8199664825479e-15
endloop
endfacet
facet normal -0.427555093430292 0.903989293123439 -2.93597756964109e-16
outer loop
vertex 1.25937879445337 1.98877644487157 -2.8199664825479e-15
vertex 1.1629271789828 1.94022678156638 2.0
vertex 1.25937879445337 1.98877644487157 2.0
endloop
endfacet
facet normal 0.803207531480645 0.595699304492434 -1.72392177823709e-16
outer loop
vertex 3.96705656925741 1.31053846988335 -2.8199664825479e-15
vertex 4.02923314706559 1.22225451264313 2.0
vertex 4.02923314706559 1.22225451264313 -2.8199664825479e-15
endloop
endfacet
facet normal 0.831469612302546 0.555570233019602 -1.59178707921394e-16
outer loop
vertex 4.02923314706559 1.22225451264313 2.0
vertex 3.96705656925741 1.31053846988335 -2.8199664825479e-15
vertex 3.96705656925741 1.31053846988335 2.0
endloop
endfacet
facet normal 0.707106781186548 0.707106781186548 -2.0941848761007e-16
outer loop
vertex 3.7556349186104 1.5556349186104 -2.8199664825479e-15
vertex 3.8300924757809 1.47742970066344 2.0
vertex 3.8300924757809 1.47742970066344 -2.8199664825479e-15
endloop
endfacet
facet normal 0.740951125354953 0.671558954847025 -1.97542362166537e-16
outer loop
vertex 3.8300924757809 1.47742970066344 2.0
vertex 3.7556349186104 1.5556349186104 -2.8199664825479e-15
vertex 3.7556349186104 1.5556349186104 2.0
endloop
endfacet
facet normal 0.146730474455363 0.989176509964781 -3.09324511038774e-16
outer loop
vertex 2.52280704380179 2.17618832192252 2.0
vertex 2.62919870843547 2.15772761688711 -2.8199664825479e-15
vertex 2.52280704380179 2.17618832192252 -2.8199664825479e-15
endloop
endfacet
facet normal 0.195090322016124 0.980785280403231 -3.05736749147055e-16
outer loop
vertex 2.62919870843547 2.15772761688711 -2.8199664825479e-15
vertex 2.52280704380179 2.17618832192252 2.0
vertex 2.62919870843547 2.15772761688711 2.0
endloop
endfacet
facet normal 6.45140114548711e-16 1.0 -3.15591077374455e-16
outer loop
vertex 2.2 2.2 2.0
vertex 2.30794888352031 2.19735000365138 -2.8199664825479e-15
vertex 2.2 2.2 -2.8199664825479e-15
endloop
endfacet
facet normal 0.0490676743274125 0.998795456205173 -3.14257617295005e-16
outer loop
vertex 2.30794888352031 2.19735000365138 -2.8199664825479e-15
vertex 2.2 2.2 2.0
vertex 2.30794888352031 2.19735000365138 2.0
endloop
endfacet
facet normal -0.327290934724779 -0.944923618102004 2.91850654096524e-16
outer loop
vertex 14.1294843895924 -13.1072140549984 2.11497486191092e-15
vertex 10.6385811198419 -11.898078234597 2.0
vertex 10.6385811198419 -11.898078234597 1.40998324127395e-15
endloop
endfacet
facet normal -0.327290934724779 -0.944923618102004 2.91850654096524e-16
outer loop
vertex 10.6385811198419 -11.898078234597 2.0
vertex 14.1294843895924 -13.1072140549984 2.11497486191092e-15
vertex 14.1294843895924 -13.1072140549984 2.0
endloop
endfacet
facet normal -0.970031253194541 0.242980179903275 -9.55287375875968e-17
outer loop
vertex 0.0659312429720039 0.534556395787186 2.0
vertex 0.0422723831128917 0.429198708435486 -2.11497486191092e-15
vertex 0.0422723831128917 0.429198708435486 2.0
endloop
endfacet
facet normal -0.980785280403231 0.195090322016124 -8.06240615635913e-17
outer loop
vertex 0.0422723831128917 0.429198708435486 -2.11497486191092e-15
vertex 0.0659312429720039 0.534556395787186 2.0
vertex 0.0659312429720039 0.534556395787186 -2.11497486191092e-15
endloop
endfacet
facet normal 0.232603986586774 0.972571532291553 -3.02415725098143e-16
outer loop
vertex 3.39999999999999 -7.56879281389222 2.0
vertex 10.6385811198419 -9.3 7.04991620636974e-16
vertex 3.39999999999999 -7.56879281389222 0.0
endloop
endfacet
facet normal 0.232603986586774 0.972571532291553 -3.02415725098143e-16
outer loop
vertex 10.6385811198419 -9.3 7.04991620636974e-16
vertex 3.39999999999999 -7.56879281389222 2.0
vertex 10.6385811198419 -9.3 2.0
endloop
endfacet
facet normal -0.881921264348346 0.471396736826014 -1.65903110091745e-16
outer loop
vertex 0.259773218433622 1.0370728210172 2.0
vertex 0.211223555128425 0.940621205546626 -2.8199664825479e-15
vertex 0.211223555128425 0.940621205546626 2.0
endloop
endfacet
facet normal -0.903989293123439 0.427555093430292 -1.52495829786959e-16
outer loop
vertex 0.211223555128425 0.940621205546626 -2.8199664825479e-15
vertex 0.259773218433622 1.0370728210172 2.0
vertex 0.259773218433622 1.0370728210172 -2.8199664825479e-15
endloop
endfacet
facet normal 0.427555093430271 0.903989293123449 -2.76984152939491e-16
outer loop
vertex 3.14062120554661 1.98877644487157 2.0
vertex 3.23707282101719 1.94022678156638 -2.8199664825479e-15
vertex 3.14062120554661 1.98877644487157 -2.8199664825479e-15
endloop
endfacet
facet normal 0.471396736825982 0.881921264348363 -2.69167897684528e-16
outer loop
vertex 3.23707282101719 1.94022678156638 -2.8199664825479e-15
vertex 3.14062120554661 1.98877644487157 2.0
vertex 3.23707282101719 1.94022678156638 2.0
endloop
endfacet
facet normal -0.392496294329735 -0.919753585987805 2.82640366912971e-16
outer loop
vertex 8.9216097840817 -13.1072140549984 2.11497486191092e-15
vertex 0.0 -9.3 2.0
vertex 0.0 -9.3 -7.04991620636974e-16
endloop
endfacet
facet normal -0.392496294329735 -0.919753585987805 2.82640366912971e-16
outer loop
vertex 0.0 -9.3 2.0
vertex 8.9216097840817 -13.1072140549984 2.11497486191092e-15
vertex 8.9216097840817 -13.1072140549984 2.0
endloop
endfacet
facet normal 1.94286119846324e-17 -3.15591077374455e-16 -1.0
outer loop
vertex 3.42225451264312 1.8292331470656 -2.8199664825479e-15
vertex 3.39999999999999 -7.56879281389222 0.0
vertex 3.33102603722508 1.8870029420006 -2.8199664825479e-15
endloop
endfacet
facet normal 1.94286119846324e-17 -3.15591077374455e-16 -1.0
outer loop
vertex 3.39999999999999 -7.56879281389222 0.0
vertex 3.42225451264312 1.8292331470656 -2.8199664825479e-15
vertex 4.39999999999999 2.8199664825479e-15 -2.11497486191092e-15
endloop
endfacet
facet normal 1.94286119846324e-17 -3.15591077374455e-16 -1.0
outer loop
vertex 4.39999999999999 2.8199664825479e-15 -2.11497486191092e-15
vertex 3.42225451264312 1.8292331470656 -2.8199664825479e-15
vertex 3.51053846988334 1.76705656925742 -2.8199664825479e-15
endloop
endfacet
facet normal 1.94286119846324e-17 -3.15591077374455e-16 -1.0
outer loop
vertex 4.39999999999999 2.8199664825479e-15 -2.11497486191092e-15
vertex 3.51053846988334 1.76705656925742 -2.8199664825479e-15
vertex 3.59566522516001 1.70062299739802 -2.8199664825479e-15
endloop
endfacet
facet normal 1.94286119846324e-17 -3.15591077374455e-16 -1.0
outer loop
vertex 4.39999999999999 2.8199664825479e-15 -2.11497486191092e-15
vertex 3.59566522516001 1.70062299739802 -2.8199664825479e-15
vertex 3.67742970066343 1.63009247578091 -2.8199664825479e-15
endloop
endfacet
facet normal 1.94286119846324e-17 -3.15591077374455e-16 -1.0
outer loop
vertex 4.39999999999999 2.8199664825479e-15 -2.11497486191092e-15
vertex 3.67742970066343 1.63009247578091 -2.8199664825479e-15
vertex 3.7556349186104 1.5556349186104 -2.8199664825479e-15
endloop
endfacet
facet normal 1.94286119846324e-17 -3.15591077374455e-16 -1.0
outer loop
vertex 4.39999999999999 2.8199664825479e-15 -2.11497486191092e-15
vertex 3.7556349186104 1.5556349186104 -2.8199664825479e-15
vertex 3.8300924757809 1.47742970066344 -2.8199664825479e-15
endloop
endfacet
facet normal 1.94286119846324e-17 -3.15591077374455e-16 -1.0
outer loop
vertex 4.39999999999999 2.8199664825479e-15 -2.11497486191092e-15
vertex 3.8300924757809 1.47742970066344 -2.8199664825479e-15
vertex 3.90062299739802 1.39566522516002 -2.8199664825479e-15
endloop
endfacet
facet normal 1.94286119846324e-17 -3.15591077374455e-16 -1.0
outer loop
vertex 4.39999999999999 2.8199664825479e-15 -2.11497486191092e-15
vertex 3.90062299739802 1.39566522516002 -2.8199664825479e-15
vertex 3.96705656925741 1.31053846988335 -2.8199664825479e-15
endloop
endfacet
facet normal 1.94286119846324e-17 -3.15591077374455e-16 -1.0
outer loop
vertex 4.39999999999999 2.8199664825479e-15 -2.11497486191092e-15
vertex 3.96705656925741 1.31053846988335 -2.8199664825479e-15
vertex 4.02923314706559 1.22225451264313 -2.8199664825479e-15
endloop
endfacet
facet normal 1.94286119846324e-17 -3.15591077374455e-16 -1.0
outer loop
vertex 4.39999999999999 2.8199664825479e-15 -2.11497486191092e-15
vertex 4.02923314706559 1.22225451264313 -2.8199664825479e-15
vertex 4.08700294200059 1.13102603722509 -2.8199664825479e-15
endloop
endfacet
facet normal 1.94286119846324e-17 -3.15591077374455e-16 -1.0
outer loop
vertex 4.39999999999999 2.8199664825479e-15 -2.11497486191092e-15
vertex 4.08700294200059 1.13102603722509 -2.8199664825479e-15
vertex 4.14022678156638 1.03707282101719 -2.8199664825479e-15
endloop
endfacet
facet normal 1.94286119846324e-17 -3.15591077374455e-16 -1.0
outer loop
vertex 4.39999999999999 2.8199664825479e-15 -2.11497486191092e-15
vertex 4.14022678156638 1.03707282101719 -2.8199664825479e-15
vertex 4.18877644487157 0.94062120554662 -2.8199664825479e-15
endloop
endfacet
facet normal 1.94286119846324e-17 -3.15591077374455e-16 -1.0
outer loop
vertex 4.39999999999999 2.8199664825479e-15 -2.11497486191092e-15
vertex 4.18877644487157 0.94062120554662 -2.8199664825479e-15
vertex 4.23253497152482 0.8419035512032 -2.8199664825479e-15
endloop
endfacet
facet normal 1.94286119846324e-17 -3.15591077374455e-16 -1.0
outer loop
vertex 4.39999999999999 2.8199664825479e-15 -2.11497486191092e-15
vertex 4.23253497152482 0.8419035512032 -2.8199664825479e-15
vertex 4.27139694340264 0.741157677462886 -2.8199664825479e-15
endloop
endfacet
facet normal 1.94286119846324e-17 -3.15591077374455e-16 -1.0
outer loop
vertex 4.39999999999999 2.8199664825479e-15 -2.11497486191092e-15
vertex 4.27139694340264 0.741157677462886 -2.8199664825479e-15
vertex 4.30526873861085 0.638626289959817 -2.11497486191092e-15
endloop
endfacet
facet normal 1.94286119846324e-17 -3.15591077374455e-16 -1.0
outer loop
vertex 4.39999999999999 2.8199664825479e-15 -2.11497486191092e-15
vertex 4.30526873861085 0.638626289959817 -2.11497486191092e-15
vertex 4.33406875702799 0.534556395787181 -2.11497486191092e-15
endloop
endfacet
facet normal 1.94286119846324e-17 -3.15591077374455e-16 -1.0
outer loop
vertex 4.39999999999999 2.8199664825479e-15 -2.11497486191092e-15
vertex 4.33406875702799 0.534556395787181 -2.11497486191092e-15
vertex 4.3577276168871 0.429198708435486 -2.11497486191092e-15
endloop
endfacet
facet normal 1.94286119846324e-17 -3.15591077374455e-16 -1.0
outer loop
vertex 4.39999999999999 2.8199664825479e-15 -2.11497486191092e-15
vertex 4.3577276168871 0.429198708435486 -2.11497486191092e-15
vertex 4.37618832192251 0.3228070438018 -2.11497486191092e-15
endloop
endfacet
facet normal 1.94286119846324e-17 -3.15591077374455e-16 -1.0
outer loop
vertex 4.39999999999999 2.8199664825479e-15 -2.11497486191092e-15
vertex 4.37618832192251 0.3228070438018 -2.11497486191092e-15
vertex 4.38940639867883 0.215637708725033 -2.11497486191092e-15
endloop
endfacet
facet normal 1.94286119846324e-17 -3.15591077374455e-16 -1.0
outer loop
vertex 4.39999999999999 2.8199664825479e-15 -2.11497486191092e-15
vertex 4.38940639867883 0.215637708725033 -2.11497486191092e-15
vertex 4.39735000365137 0.107948883520325 -2.11497486191092e-15
endloop
endfacet
facet normal 1.94286119846324e-17 -3.15591077374455e-16 -1.0
outer loop
vertex 0.0026499963486236 0.107948883520325 -2.11497486191092e-15
vertex 0.0 -9.3 -7.04991620636974e-16
vertex 0.0 8.45989944764369e-15 -2.11497486191092e-15
endloop
endfacet
facet normal 1.94286119846324e-17 -3.15591077374455e-16 -1.0
outer loop
vertex 0.0 -9.3 -7.04991620636974e-16
vertex 0.0026499963486236 0.107948883520325 -2.11497486191092e-15
vertex 3.39999999999999 -7.56879281389222 0.0
endloop
endfacet
facet normal 1.94286119846324e-17 -3.15591077374455e-16 -1.0
outer loop
vertex 0.0 -9.3 -7.04991620636974e-16
vertex 3.39999999999999 -7.56879281389222 0.0
vertex 8.9216097840817 -13.1072140549984 2.11497486191092e-15
endloop
endfacet
facet normal 1.94286119846324e-17 -3.15591077374455e-16 -1.0
outer loop
vertex 3.39999999999999 -7.56879281389222 0.0
vertex 0.0026499963486236 0.107948883520325 -2.11497486191092e-15
vertex 0.0105936013211656 0.215637708725039 -2.11497486191092e-15
endloop
endfacet
facet normal 1.94286119846324e-17 -3.15591077374455e-16 -1.0
outer loop
vertex 3.39999999999999 -7.56879281389222 0.0
vertex 0.0105936013211656 0.215637708725039 -2.11497486191092e-15
vertex 0.0238116780774831 0.3228070438018 -2.11497486191092e-15
endloop
endfacet
facet normal 1.94286119846324e-17 -3.15591077374455e-16 -1.0
outer loop
vertex 3.39999999999999 -7.56879281389222 0.0
vertex 0.0238116780774831 0.3228070438018 -2.11497486191092e-15
vertex 0.0422723831128917 0.429198708435486 -2.11497486191092e-15
endloop
endfacet
facet normal 1.94286119846324e-17 -3.15591077374455e-16 -1.0
outer loop
vertex 3.39999999999999 -7.56879281389222 0.0
vertex 0.0422723831128917 0.429198708435486 -2.11497486191092e-15
vertex 0.0659312429720039 0.534556395787186 -2.11497486191092e-15
endloop
endfacet
facet normal 1.94286119846324e-17 -3.15591077374455e-16 -1.0
outer loop
vertex 3.39999999999999 -7.56879281389222 0.0
vertex 0.0659312429720039 0.534556395787186 -2.11497486191092e-15
vertex 0.0947312613891421 0.638626289959823 -2.11497486191092e-15
endloop
endfacet
facet normal 1.94286119846324e-17 -3.15591077374455e-16 -1.0
outer loop
vertex 3.39999999999999 -7.56879281389222 0.0
vertex 0.0947312613891421 0.638626289959823 -2.11497486191092e-15
vertex 0.128603056597357 0.741157677462886 -2.8199664825479e-15
endloop
endfacet
facet normal 1.94286119846324e-17 -3.15591077374455e-16 -1.0
outer loop
vertex 3.39999999999999 -7.56879281389222 0.0
vertex 0.128603056597357 0.741157677462886 -2.8199664825479e-15
vertex 0.167465028475169 0.8419035512032 -2.8199664825479e-15
endloop
endfacet
facet normal 1.94286119846324e-17 -3.15591077374455e-16 -1.0
outer loop
vertex 3.39999999999999 -7.56879281389222 0.0
vertex 0.167465028475169 0.8419035512032 -2.8199664825479e-15
vertex 0.211223555128425 0.940621205546626 -2.8199664825479e-15
endloop
endfacet
facet normal 1.94286119846324e-17 -3.15591077374455e-16 -1.0
outer loop
vertex 3.39999999999999 -7.56879281389222 0.0
vertex 0.211223555128425 0.940621205546626 -2.8199664825479e-15
vertex 0.259773218433622 1.0370728210172 -2.8199664825479e-15
endloop
endfacet
facet normal 1.94286119846324e-17 -3.15591077374455e-16 -1.0
outer loop
vertex 3.39999999999999 -7.56879281389222 0.0
vertex 0.259773218433622 1.0370728210172 -2.8199664825479e-15
vertex 0.312997057999403 1.13102603722509 -2.8199664825479e-15
endloop
endfacet
facet normal 1.94286119846324e-17 -3.15591077374455e-16 -1.0
outer loop
vertex 3.39999999999999 -7.56879281389222 0.0
vertex 0.312997057999403 1.13102603722509 -2.8199664825479e-15
vertex 0.370766852934398 1.22225451264313 -2.8199664825479e-15
endloop
endfacet
facet normal 1.94286119846324e-17 -3.15591077374455e-16 -1.0
outer loop
vertex 3.39999999999999 -7.56879281389222 0.0
vertex 0.370766852934398 1.22225451264313 -2.8199664825479e-15
vertex 0.432943430742582 1.31053846988335 -2.8199664825479e-15
endloop
endfacet
facet normal 1.94286119846324e-17 -3.15591077374455e-16 -1.0
outer loop
vertex 3.39999999999999 -7.56879281389222 0.0
vertex 0.432943430742582 1.31053846988335 -2.8199664825479e-15
vertex 0.499377002601976 1.39566522516002 -2.8199664825479e-15
endloop
endfacet
facet normal 1.94286119846324e-17 -3.15591077374455e-16 -1.0
outer loop
vertex 3.39999999999999 -7.56879281389222 0.0
vertex 0.499377002601976 1.39566522516002 -2.8199664825479e-15
vertex 0.569907524219092 1.47742970066344 -2.8199664825479e-15
endloop
endfacet
facet normal 1.94286119846324e-17 -3.15591077374455e-16 -1.0
outer loop
vertex 3.39999999999999 -7.56879281389222 0.0
vertex 0.569907524219092 1.47742970066344 -2.8199664825479e-15
vertex 0.644365081389594 1.5556349186104 -2.8199664825479e-15
endloop
endfacet
facet normal 1.94286119846324e-17 -3.15591077374455e-16 -1.0
outer loop
vertex 3.39999999999999 -7.56879281389222 0.0
vertex 0.644365081389594 1.5556349186104 -2.8199664825479e-15
vertex 0.722570299336554 1.63009247578091 -2.8199664825479e-15
endloop
endfacet
facet normal 1.94286119846324e-17 -3.15591077374455e-16 -1.0
outer loop
vertex 3.39999999999999 -7.56879281389222 0.0
vertex 0.722570299336554 1.63009247578091 -2.8199664825479e-15
vertex 0.804334774839978 1.70062299739802 -2.8199664825479e-15
endloop
endfacet
facet normal 1.94286119846324e-17 -3.15591077374455e-16 -1.0
outer loop
vertex 3.39999999999999 -7.56879281389222 0.0
vertex 0.804334774839978 1.70062299739802 -2.8199664825479e-15
vertex 0.889461530116642 1.76705656925742 -2.8199664825479e-15
endloop
endfacet
facet normal 1.94286119846324e-17 -3.15591077374455e-16 -1.0
outer loop
vertex 3.39999999999999 -7.56879281389222 0.0
vertex 0.889461530116642 1.76705656925742 -2.8199664825479e-15
vertex 0.977745487356873 1.8292331470656 -2.8199664825479e-15
endloop
endfacet
facet normal 1.94286119846324e-17 -3.15591077374455e-16 -1.0
outer loop
vertex 3.39999999999999 -7.56879281389222 0.0
vertex 0.977745487356873 1.8292331470656 -2.8199664825479e-15
vertex 1.06897396277491 1.8870029420006 -2.8199664825479e-15
endloop
endfacet
facet normal 1.94286119846324e-17 -3.15591077374455e-16 -1.0
outer loop
vertex 3.39999999999999 -7.56879281389222 0.0
vertex 1.06897396277491 1.8870029420006 -2.8199664825479e-15
vertex 1.1629271789828 1.94022678156638 -2.8199664825479e-15
endloop
endfacet
facet normal 1.94286119846324e-17 -3.15591077374455e-16 -1.0
outer loop
vertex 3.39999999999999 -7.56879281389222 0.0
vertex 1.1629271789828 1.94022678156638 -2.8199664825479e-15
vertex 1.25937879445337 1.98877644487157 -2.8199664825479e-15
endloop
endfacet
facet normal 1.94286119846324e-17 -3.15591077374455e-16 -1.0
outer loop
vertex 3.39999999999999 -7.56879281389222 0.0
vertex 1.25937879445337 1.98877644487157 -2.8199664825479e-15
vertex 1.3580964487968 2.03253497152483 -2.8199664825479e-15
endloop
endfacet
facet normal 1.94286119846324e-17 -3.15591077374455e-16 -1.0
outer loop
vertex 3.39999999999999 -7.56879281389222 0.0
vertex 1.3580964487968 2.03253497152483 -2.8199664825479e-15
vertex 1.45884232253711 2.07139694340264 -2.8199664825479e-15
endloop
endfacet
facet normal 1.94286119846324e-17 -3.15591077374455e-16 -1.0
outer loop
vertex 3.39999999999999 -7.56879281389222 0.0
vertex 1.45884232253711 2.07139694340264 -2.8199664825479e-15
vertex 1.56137371004018 2.10526873861086 -2.8199664825479e-15
endloop
endfacet
facet normal 1.94286119846324e-17 -3.15591077374455e-16 -1.0
outer loop
vertex 3.39999999999999 -7.56879281389222 0.0
vertex 1.56137371004018 2.10526873861086 -2.8199664825479e-15
vertex 1.66544360421281 2.134068757028 -2.8199664825479e-15
endloop
endfacet
facet normal 1.94286119846324e-17 -3.15591077374455e-16 -1.0
outer loop
vertex 3.39999999999999 -7.56879281389222 0.0
vertex 1.66544360421281 2.134068757028 -2.8199664825479e-15
vertex 1.77080129156451 2.15772761688711 -2.8199664825479e-15
endloop
endfacet
facet normal 1.94286119846324e-17 -3.15591077374455e-16 -1.0
outer loop
vertex 3.39999999999999 -7.56879281389222 0.0
vertex 1.77080129156451 2.15772761688711 -2.8199664825479e-15
vertex 1.8771929561982 2.17618832192252 -2.8199664825479e-15
endloop
endfacet
facet normal 1.94286119846324e-17 -3.15591077374455e-16 -1.0
outer loop
vertex 3.39999999999999 -7.56879281389222 0.0
vertex 1.8771929561982 2.17618832192252 -2.8199664825479e-15
vertex 1.98436229127496 2.18940639867883 -2.8199664825479e-15
endloop
endfacet
facet normal 1.94286119846324e-17 -3.15591077374455e-16 -1.0
outer loop
vertex 3.39999999999999 -7.56879281389222 0.0
vertex 1.98436229127496 2.18940639867883 -2.8199664825479e-15
vertex 2.09205111647967 2.19735000365138 -2.8199664825479e-15
endloop
endfacet
facet normal 1.94286119846324e-17 -3.15591077374455e-16 -1.0
outer loop
vertex 3.39999999999999 -7.56879281389222 0.0
vertex 2.09205111647967 2.19735000365138 -2.8199664825479e-15
vertex 2.2 2.2 -2.8199664825479e-15
endloop
endfacet
facet normal 1.94286119846324e-17 -3.15591077374455e-16 -1.0
outer loop
vertex 3.39999999999999 -7.56879281389222 0.0
vertex 2.2 2.2 -2.8199664825479e-15
vertex 2.30794888352031 2.19735000365138 -2.8199664825479e-15
endloop
endfacet
facet normal 1.94286119846324e-17 -3.15591077374455e-16 -1.0
outer loop
vertex 3.39999999999999 -7.56879281389222 0.0
vertex 2.30794888352031 2.19735000365138 -2.8199664825479e-15
vertex 2.41563770872503 2.18940639867883 -2.8199664825479e-15
endloop
endfacet
facet normal 1.94286119846324e-17 -3.15591077374455e-16 -1.0
outer loop
vertex 3.39999999999999 -7.56879281389222 0.0
vertex 2.41563770872503 2.18940639867883 -2.8199664825479e-15
vertex 2.52280704380179 2.17618832192252 -2.8199664825479e-15
endloop
endfacet
facet normal 1.94286119846324e-17 -3.15591077374455e-16 -1.0
outer loop
vertex 3.39999999999999 -7.56879281389222 0.0
vertex 2.52280704380179 2.17618832192252 -2.8199664825479e-15
vertex 2.62919870843547 2.15772761688711 -2.8199664825479e-15
endloop
endfacet
facet normal 1.94286119846324e-17 -3.15591077374455e-16 -1.0
outer loop
vertex 3.39999999999999 -7.56879281389222 0.0
vertex 2.62919870843547 2.15772761688711 -2.8199664825479e-15
vertex 2.73455639578717 2.134068757028 -2.8199664825479e-15
endloop
endfacet
facet normal 1.94286119846324e-17 -3.15591077374455e-16 -1.0
outer loop
vertex 3.39999999999999 -7.56879281389222 0.0
vertex 2.73455639578717 2.134068757028 -2.8199664825479e-15
vertex 2.83862628995981 2.10526873861086 -2.8199664825479e-15
endloop
endfacet
facet normal 1.94286119846324e-17 -3.15591077374455e-16 -1.0
outer loop
vertex 3.39999999999999 -7.56879281389222 0.0
vertex 2.83862628995981 2.10526873861086 -2.8199664825479e-15
vertex 2.94115767746288 2.07139694340265 -2.8199664825479e-15
endloop
endfacet
facet normal 1.94286119846324e-17 -3.15591077374455e-16 -1.0
outer loop
vertex 3.39999999999999 -7.56879281389222 0.0
vertex 2.94115767746288 2.07139694340265 -2.8199664825479e-15
vertex 3.04190355120319 2.03253497152483 -2.8199664825479e-15
endloop
endfacet
facet normal 1.94286119846324e-17 -3.15591077374455e-16 -1.0
outer loop
vertex 3.39999999999999 -7.56879281389222 0.0
vertex 3.04190355120319 2.03253497152483 -2.8199664825479e-15
vertex 3.14062120554661 1.98877644487157 -2.8199664825479e-15
endloop
endfacet
facet normal 1.94286119846324e-17 -3.15591077374455e-16 -1.0
outer loop
vertex 3.39999999999999 -7.56879281389222 0.0
vertex 3.14062120554661 1.98877644487157 -2.8199664825479e-15
vertex 3.23707282101719 1.94022678156638 -2.8199664825479e-15
endloop
endfacet
facet normal 1.94286119846324e-17 -3.15591077374455e-16 -1.0
outer loop
vertex 3.39999999999999 -7.56879281389222 0.0
vertex 3.23707282101719 1.94022678156638 -2.8199664825479e-15
vertex 3.33102603722508 1.8870029420006 -2.8199664825479e-15
endloop
endfacet
facet normal 1.94286119846324e-17 -3.15591077374455e-16 -1.0
outer loop
vertex 8.9216097840817 -13.1072140549984 2.11497486191092e-15
vertex 3.39999999999999 -7.56879281389222 0.0
vertex 10.6385811198419 -9.3 7.04991620636974e-16
endloop
endfacet
facet normal 1.94286119846324e-17 -3.15591077374455e-16 -1.0
outer loop
vertex 8.9216097840817 -13.1072140549984 2.11497486191092e-15
vertex 10.6385811198419 -9.3 7.04991620636974e-16
vertex 10.6385811198419 -11.898078234597 1.40998324127395e-15
endloop
endfacet
facet normal 1.94286119846324e-17 -3.15591077374455e-16 -1.0
outer loop
vertex 10.6385811198419 -11.898078234597 1.40998324127395e-15
vertex 10.6385811198419 -9.3 7.04991620636974e-16
vertex 14.1294843895924 -13.1072140549984 2.11497486191092e-15
endloop
endfacet
facet normal -1.94286119846324e-17 3.15591077374455e-16 1.0
outer loop
vertex 1.1629271789828 1.94022678156638 2.0
vertex 1.2 1.0 2.0
vertex 1.25937879445337 1.98877644487157 2.0
endloop
endfacet
facet normal -1.94286119846324e-17 3.15591077374455e-16 1.0
outer loop
vertex 1.2 1.0 2.0
vertex 1.1629271789828 1.94022678156638 2.0
vertex 1.2 -1.0 2.0
endloop
endfacet
facet normal -1.94286119846324e-17 3.15591077374455e-16 1.0
outer loop
vertex 1.25937879445337 1.98877644487157 2.0
vertex 1.2 1.0 2.0
vertex 3.19999999999999 1.0 2.0
endloop
endfacet
facet normal -1.94286119846324e-17 3.15591077374455e-16 1.0
outer loop
vertex 1.25937879445337 1.98877644487157 2.0
vertex 3.19999999999999 1.0 2.0
vertex 1.3580964487968 2.03253497152483 2.0
endloop
endfacet
facet normal -1.94286119846324e-17 3.15591077374455e-16 1.0
outer loop
vertex 1.3580964487968 2.03253497152483 2.0
vertex 3.19999999999999 1.0 2.0
vertex 1.45884232253711 2.07139694340264 2.0
endloop
endfacet
facet normal -1.94286119846324e-17 3.15591077374455e-16 1.0
outer loop
vertex 1.45884232253711 2.07139694340264 2.0
vertex 3.19999999999999 1.0 2.0
vertex 1.56137371004018 2.10526873861086 2.0
endloop
endfacet
facet normal -1.94286119846324e-17 3.15591077374455e-16 1.0
outer loop
vertex 1.56137371004018 2.10526873861086 2.0
vertex 3.19999999999999 1.0 2.0
vertex 1.66544360421281 2.134068757028 2.0
endloop
endfacet
facet normal -1.94286119846324e-17 3.15591077374455e-16 1.0
outer loop
vertex 1.66544360421281 2.134068757028 2.0
vertex 3.19999999999999 1.0 2.0
vertex 1.77080129156451 2.15772761688711 2.0
endloop
endfacet
facet normal -1.94286119846324e-17 3.15591077374455e-16 1.0
outer loop
vertex 1.77080129156451 2.15772761688711 2.0
vertex 3.19999999999999 1.0 2.0
vertex 1.8771929561982 2.17618832192252 2.0
endloop
endfacet
facet normal -1.94286119846324e-17 3.15591077374455e-16 1.0
outer loop
vertex 1.8771929561982 2.17618832192252 2.0
vertex 3.19999999999999 1.0 2.0
vertex 1.98436229127496 2.18940639867883 2.0
endloop
endfacet
facet normal -1.94286119846324e-17 3.15591077374455e-16 1.0
outer loop
vertex 1.98436229127496 2.18940639867883 2.0
vertex 3.19999999999999 1.0 2.0
vertex 2.09205111647967 2.19735000365138 2.0
endloop
endfacet
facet normal -1.94286119846324e-17 3.15591077374455e-16 1.0
outer loop
vertex 2.09205111647967 2.19735000365138 2.0
vertex 3.19999999999999 1.0 2.0
vertex 2.2 2.2 2.0
endloop
endfacet
facet normal -1.94286119846324e-17 3.15591077374455e-16 1.0
outer loop
vertex 2.2 2.2 2.0
vertex 3.19999999999999 1.0 2.0
vertex 2.30794888352031 2.19735000365138 2.0
endloop
endfacet
facet normal -1.94286119846324e-17 3.15591077374455e-16 1.0
outer loop
vertex 2.30794888352031 2.19735000365138 2.0
vertex 3.19999999999999 1.0 2.0
vertex 2.41563770872503 2.18940639867883 2.0
endloop
endfacet
facet normal -1.94286119846324e-17 3.15591077374455e-16 1.0
outer loop
vertex 2.41563770872503 2.18940639867883 2.0
vertex 3.19999999999999 1.0 2.0
vertex 2.52280704380179 2.17618832192252 2.0
endloop
endfacet
facet normal -1.94286119846324e-17 3.15591077374455e-16 1.0
outer loop
vertex 2.52280704380179 2.17618832192252 2.0
vertex 3.19999999999999 1.0 2.0
vertex 2.62919870843547 2.15772761688711 2.0
endloop
endfacet
facet normal -1.94286119846324e-17 3.15591077374455e-16 1.0
outer loop
vertex 2.62919870843547 2.15772761688711 2.0
vertex 3.19999999999999 1.0 2.0
vertex 2.73455639578717 2.134068757028 2.0
endloop
endfacet
facet normal -1.94286119846324e-17 3.15591077374455e-16 1.0
outer loop
vertex 2.73455639578717 2.134068757028 2.0
vertex 3.19999999999999 1.0 2.0
vertex 2.83862628995981 2.10526873861086 2.0
endloop
endfacet
facet normal -1.94286119846324e-17 3.15591077374455e-16 1.0
outer loop
vertex 2.83862628995981 2.10526873861086 2.0
vertex 3.19999999999999 1.0 2.0
vertex 2.94115767746288 2.07139694340265 2.0
endloop
endfacet
facet normal -1.94286119846324e-17 3.15591077374455e-16 1.0
outer loop
vertex 2.94115767746288 2.07139694340265 2.0
vertex 3.19999999999999 1.0 2.0
vertex 3.04190355120319 2.03253497152483 2.0
endloop
endfacet
facet normal -1.94286119846324e-17 3.15591077374455e-16 1.0
outer loop
vertex 3.04190355120319 2.03253497152483 2.0
vertex 3.19999999999999 1.0 2.0
vertex 3.14062120554661 1.98877644487157 2.0
endloop
endfacet
facet normal -1.94286119846324e-17 3.15591077374455e-16 1.0
outer loop
vertex 3.14062120554661 1.98877644487157 2.0
vertex 3.19999999999999 1.0 2.0
vertex 3.23707282101719 1.94022678156638 2.0
endloop
endfacet
facet normal -1.94286119846324e-17 3.15591077374455e-16 1.0
outer loop
vertex 0.0 -9.3 2.0
vertex 3.39999999999999 -7.56879281389222 2.0
vertex 0.0 8.45989944764369e-15 2.0
endloop
endfacet
facet normal -1.94286119846324e-17 3.15591077374455e-16 1.0
outer loop
vertex 3.39999999999999 -7.56879281389222 2.0
vertex 0.0 -9.3 2.0
vertex 8.9216097840817 -13.1072140549984 2.0
endloop
endfacet
facet normal -1.94286119846324e-17 3.15591077374455e-16 1.0
outer loop
vertex 0.0 8.45989944764369e-15 2.0
vertex 3.39999999999999 -7.56879281389222 2.0
vertex 0.0026499963486236 0.107948883520325 2.0
endloop
endfacet
facet normal -1.94286119846324e-17 3.15591077374455e-16 1.0
outer loop
vertex 0.0026499963486236 0.107948883520325 2.0
vertex 3.39999999999999 -7.56879281389222 2.0
vertex 0.0105936013211656 0.215637708725039 2.0
endloop
endfacet
facet normal -1.94286119846324e-17 3.15591077374455e-16 1.0
outer loop
vertex 0.0105936013211656 0.215637708725039 2.0
vertex 3.39999999999999 -7.56879281389222 2.0
vertex 0.0238116780774831 0.3228070438018 2.0
endloop
endfacet
facet normal -1.94286119846324e-17 3.15591077374455e-16 1.0
outer loop
vertex 0.0238116780774831 0.3228070438018 2.0
vertex 3.39999999999999 -7.56879281389222 2.0
vertex 0.0422723831128917 0.429198708435486 2.0
endloop
endfacet
facet normal -1.94286119846324e-17 3.15591077374455e-16 1.0
outer loop
vertex 0.0422723831128917 0.429198708435486 2.0
vertex 3.39999999999999 -7.56879281389222 2.0
vertex 0.0659312429720039 0.534556395787186 2.0
endloop
endfacet
facet normal -1.94286119846324e-17 3.15591077374455e-16 1.0
outer loop
vertex 0.0659312429720039 0.534556395787186 2.0
vertex 3.39999999999999 -7.56879281389222 2.0
vertex 0.0947312613891421 0.638626289959823 2.0
endloop
endfacet
facet normal -1.94286119846324e-17 3.15591077374455e-16 1.0
outer loop
vertex 0.0947312613891421 0.638626289959823 2.0
vertex 3.39999999999999 -7.56879281389222 2.0
vertex 0.128603056597357 0.741157677462886 2.0
endloop
endfacet
facet normal -1.94286119846324e-17 3.15591077374455e-16 1.0
outer loop
vertex 0.128603056597357 0.741157677462886 2.0
vertex 3.39999999999999 -7.56879281389222 2.0
vertex 0.167465028475169 0.8419035512032 2.0
endloop
endfacet
facet normal -1.94286119846324e-17 3.15591077374455e-16 1.0
outer loop
vertex 0.167465028475169 0.8419035512032 2.0
vertex 3.39999999999999 -7.56879281389222 2.0
vertex 0.211223555128425 0.940621205546626 2.0
endloop
endfacet
facet normal -1.94286119846324e-17 3.15591077374455e-16 1.0
outer loop
vertex 0.211223555128425 0.940621205546626 2.0
vertex 3.39999999999999 -7.56879281389222 2.0
vertex 0.259773218433622 1.0370728210172 2.0
endloop
endfacet
facet normal -1.94286119846324e-17 3.15591077374455e-16 1.0
outer loop
vertex 0.259773218433622 1.0370728210172 2.0
vertex 3.39999999999999 -7.56879281389222 2.0
vertex 0.312997057999403 1.13102603722509 2.0
endloop
endfacet
facet normal -1.94286119846324e-17 3.15591077374455e-16 1.0
outer loop
vertex 0.312997057999403 1.13102603722509 2.0
vertex 3.39999999999999 -7.56879281389222 2.0
vertex 0.370766852934398 1.22225451264313 2.0
endloop
endfacet
facet normal -1.94286119846324e-17 3.15591077374455e-16 1.0
outer loop
vertex 0.370766852934398 1.22225451264313 2.0
vertex 3.39999999999999 -7.56879281389222 2.0
vertex 1.2 -1.0 2.0
endloop
endfacet
facet normal -1.94286119846324e-17 3.15591077374455e-16 1.0
outer loop
vertex 0.370766852934398 1.22225451264313 2.0
vertex 1.2 -1.0 2.0
vertex 0.432943430742582 1.31053846988335 2.0
endloop
endfacet
facet normal -1.94286119846324e-17 3.15591077374455e-16 1.0
outer loop
vertex 0.432943430742582 1.31053846988335 2.0
vertex 1.2 -1.0 2.0
vertex 0.499377002601976 1.39566522516002 2.0
endloop
endfacet
facet normal -1.94286119846324e-17 3.15591077374455e-16 1.0
outer loop
vertex 0.499377002601976 1.39566522516002 2.0
vertex 1.2 -1.0 2.0
vertex 0.569907524219092 1.47742970066344 2.0
endloop
endfacet
facet normal -1.94286119846324e-17 3.15591077374455e-16 1.0
outer loop
vertex 0.569907524219092 1.47742970066344 2.0
vertex 1.2 -1.0 2.0
vertex 0.644365081389594 1.5556349186104 2.0
endloop
endfacet
facet normal -1.94286119846324e-17 3.15591077374455e-16 1.0
outer loop
vertex 0.644365081389594 1.5556349186104 2.0
vertex 1.2 -1.0 2.0
vertex 0.722570299336554 1.63009247578091 2.0
endloop
endfacet
facet normal -1.94286119846324e-17 3.15591077374455e-16 1.0
outer loop
vertex 0.722570299336554 1.63009247578091 2.0
vertex 1.2 -1.0 2.0
vertex 0.804334774839978 1.70062299739802 2.0
endloop
endfacet
facet normal -1.94286119846324e-17 3.15591077374455e-16 1.0
outer loop
vertex 0.804334774839978 1.70062299739802 2.0
vertex 1.2 -1.0 2.0
vertex 0.889461530116642 1.76705656925742 2.0
endloop
endfacet
facet normal -1.94286119846324e-17 3.15591077374455e-16 1.0
outer loop
vertex 0.889461530116642 1.76705656925742 2.0
vertex 1.2 -1.0 2.0
vertex 0.977745487356873 1.8292331470656 2.0
endloop
endfacet
facet normal -1.94286119846324e-17 3.15591077374455e-16 1.0
outer loop
vertex 0.977745487356873 1.8292331470656 2.0
vertex 1.2 -1.0 2.0
vertex 1.06897396277491 1.8870029420006 2.0
endloop
endfacet
facet normal -1.94286119846324e-17 3.15591077374455e-16 1.0
outer loop
vertex 1.06897396277491 1.8870029420006 2.0
vertex 1.2 -1.0 2.0
vertex 1.1629271789828 1.94022678156638 2.0
endloop
endfacet
facet normal -1.94286119846324e-17 3.15591077374455e-16 1.0
outer loop
vertex 1.2 -1.0 2.0
vertex 3.39999999999999 -7.56879281389222 2.0
vertex 3.19999999999999 -1.0 2.0
endloop
endfacet
facet normal -1.94286119846324e-17 3.15591077374455e-16 1.0
outer loop
vertex 3.19999999999999 -1.0 2.0
vertex 3.39999999999999 -7.56879281389222 2.0
vertex 3.19999999999999 1.0 2.0
endloop
endfacet
facet normal -1.94286119846324e-17 3.15591077374455e-16 1.0
outer loop
vertex 3.19999999999999 1.0 2.0
vertex 3.39999999999999 -7.56879281389222 2.0
vertex 3.23707282101719 1.94022678156638 2.0
endloop
endfacet
facet normal -1.94286119846324e-17 3.15591077374455e-16 1.0
outer loop
vertex 3.23707282101719 1.94022678156638 2.0
vertex 3.39999999999999 -7.56879281389222 2.0
vertex 3.33102603722508 1.8870029420006 2.0
endloop
endfacet
facet normal -1.94286119846324e-17 3.15591077374455e-16 1.0
outer loop
vertex 3.39999999999999 -7.56879281389222 2.0
vertex 8.9216097840817 -13.1072140549984 2.0
vertex 10.6385811198419 -9.3 2.0
endloop
endfacet
facet normal -1.94286119846324e-17 3.15591077374455e-16 1.0
outer loop
vertex 10.6385811198419 -9.3 2.0
vertex 8.9216097840817 -13.1072140549984 2.0
vertex 10.6385811198419 -11.898078234597 2.0
endloop
endfacet
facet normal -1.94286119846324e-17 3.15591077374455e-16 1.0
outer loop
vertex 10.6385811198419 -9.3 2.0
vertex 10.6385811198419 -11.898078234597 2.0
vertex 14.1294843895924 -13.1072140549984 2.0
endloop
endfacet
facet normal -1.94286119846324e-17 3.15591077374455e-16 1.0
outer loop
vertex 3.39999999999999 -7.56879281389222 2.0
vertex 3.42225451264312 1.8292331470656 2.0
vertex 3.33102603722508 1.8870029420006 2.0
endloop
endfacet
facet normal -1.94286119846324e-17 3.15591077374455e-16 1.0
outer loop
vertex 3.42225451264312 1.8292331470656 2.0
vertex 3.39999999999999 -7.56879281389222 2.0
vertex 4.39999999999999 2.8199664825479e-15 2.0
endloop
endfacet
facet normal -1.94286119846324e-17 3.15591077374455e-16 1.0
outer loop
vertex 3.42225451264312 1.8292331470656 2.0
vertex 4.39999999999999 2.8199664825479e-15 2.0
vertex 3.51053846988334 1.76705656925742 2.0
endloop
endfacet
facet normal -1.94286119846324e-17 3.15591077374455e-16 1.0
outer loop
vertex 3.51053846988334 1.76705656925742 2.0
vertex 4.39999999999999 2.8199664825479e-15 2.0
vertex 3.59566522516001 1.70062299739802 2.0
endloop
endfacet
facet normal -1.94286119846324e-17 3.15591077374455e-16 1.0
outer loop
vertex 3.59566522516001 1.70062299739802 2.0
vertex 4.39999999999999 2.8199664825479e-15 2.0
vertex 3.67742970066343 1.63009247578091 2.0
endloop
endfacet
facet normal -1.94286119846324e-17 3.15591077374455e-16 1.0
outer loop
vertex 3.67742970066343 1.63009247578091 2.0
vertex 4.39999999999999 2.8199664825479e-15 2.0
vertex 3.7556349186104 1.5556349186104 2.0
endloop
endfacet
facet normal -1.94286119846324e-17 3.15591077374455e-16 1.0
outer loop
vertex 3.7556349186104 1.5556349186104 2.0
vertex 4.39999999999999 2.8199664825479e-15 2.0
vertex 3.8300924757809 1.47742970066344 2.0
endloop
endfacet
facet normal -1.94286119846324e-17 3.15591077374455e-16 1.0
outer loop
vertex 3.8300924757809 1.47742970066344 2.0
vertex 4.39999999999999 2.8199664825479e-15 2.0
vertex 3.90062299739802 1.39566522516002 2.0
endloop
endfacet
facet normal -1.94286119846324e-17 3.15591077374455e-16 1.0
outer loop
vertex 3.90062299739802 1.39566522516002 2.0
vertex 4.39999999999999 2.8199664825479e-15 2.0
vertex 3.96705656925741 1.31053846988335 2.0
endloop
endfacet
facet normal -1.94286119846324e-17 3.15591077374455e-16 1.0
outer loop
vertex 3.96705656925741 1.31053846988335 2.0
vertex 4.39999999999999 2.8199664825479e-15 2.0
vertex 4.02923314706559 1.22225451264313 2.0
endloop
endfacet
facet normal -1.94286119846324e-17 3.15591077374455e-16 1.0
outer loop
vertex 4.02923314706559 1.22225451264313 2.0
vertex 4.39999999999999 2.8199664825479e-15 2.0
vertex 4.08700294200059 1.13102603722509 2.0
endloop
endfacet
facet normal -1.94286119846324e-17 3.15591077374455e-16 1.0
outer loop
vertex 4.08700294200059 1.13102603722509 2.0
vertex 4.39999999999999 2.8199664825479e-15 2.0
vertex 4.14022678156638 1.03707282101719 2.0
endloop
endfacet
facet normal -1.94286119846324e-17 3.15591077374455e-16 1.0
outer loop
vertex 4.14022678156638 1.03707282101719 2.0
vertex 4.39999999999999 2.8199664825479e-15 2.0
vertex 4.18877644487157 0.94062120554662 2.0
endloop
endfacet
facet normal -1.94286119846324e-17 3.15591077374455e-16 1.0
outer loop
vertex 4.18877644487157 0.94062120554662 2.0
vertex 4.39999999999999 2.8199664825479e-15 2.0
vertex 4.23253497152482 0.8419035512032 2.0
endloop
endfacet
facet normal -1.94286119846324e-17 3.15591077374455e-16 1.0
outer loop
vertex 4.23253497152482 0.8419035512032 2.0
vertex 4.39999999999999 2.8199664825479e-15 2.0
vertex 4.27139694340264 0.741157677462886 2.0
endloop
endfacet
facet normal -1.94286119846324e-17 3.15591077374455e-16 1.0
outer loop
vertex 4.27139694340264 0.741157677462886 2.0
vertex 4.39999999999999 2.8199664825479e-15 2.0
vertex 4.30526873861085 0.638626289959817 2.0
endloop
endfacet
facet normal -1.94286119846324e-17 3.15591077374455e-16 1.0
outer loop
vertex 4.30526873861085 0.638626289959817 2.0
vertex 4.39999999999999 2.8199664825479e-15 2.0
vertex 4.33406875702799 0.534556395787181 2.0
endloop
endfacet
facet normal -1.94286119846324e-17 3.15591077374455e-16 1.0
outer loop
vertex 4.33406875702799 0.534556395787181 2.0
vertex 4.39999999999999 2.8199664825479e-15 2.0
vertex 4.3577276168871 0.429198708435486 2.0
endloop
endfacet
facet normal -1.94286119846324e-17 3.15591077374455e-16 1.0
outer loop
vertex 4.3577276168871 0.429198708435486 2.0
vertex 4.39999999999999 2.8199664825479e-15 2.0
vertex 4.37618832192251 0.3228070438018 2.0
endloop
endfacet
facet normal -1.94286119846324e-17 3.15591077374455e-16 1.0
outer loop
vertex 4.37618832192251 0.3228070438018 2.0
vertex 4.39999999999999 2.8199664825479e-15 2.0
vertex 4.38940639867883 0.215637708725033 2.0
endloop
endfacet
facet normal -1.94286119846324e-17 3.15591077374455e-16 1.0
outer loop
vertex 4.38940639867883 0.215637708725033 2.0
vertex 4.39999999999999 2.8199664825479e-15 2.0
vertex 4.39735000365137 0.107948883520325 2.0
endloop
endfacet
facet normal -0.38268343236508 0.923879532511291 -2.99003144949815e-16
outer loop
vertex 1.3580964487968 2.03253497152483 2.0
vertex 1.45884232253711 2.07139694340264 -2.8199664825479e-15
vertex 1.3580964487968 2.03253497152483 -2.8199664825479e-15
endloop
endfacet
facet normal -0.336889853392218 0.941544065183022 -3.03688208169751e-16
outer loop
vertex 1.45884232253711 2.07139694340264 -2.8199664825479e-15
vertex 1.3580964487968 2.03253497152483 2.0
vertex 1.45884232253711 2.07139694340264 2.0
endloop
endfacet
facet normal -0.989176509964781 0.146730474455363 -6.55251551134516e-17
outer loop
vertex 0.0238116780774831 0.3228070438018 2.0
vertex 0.0105936013211656 0.215637708725039 -2.11497486191092e-15
vertex 0.0105936013211656 0.215637708725039 2.0
endloop
endfacet
facet normal -0.995184726672198 0.0980171403295535 -5.02683928253135e-17
outer loop
vertex 0.0105936013211656 0.215637708725039 -2.11497486191092e-15
vertex 0.0238116780774831 0.3228070438018 2.0
vertex 0.0238116780774831 0.3228070438018 -2.11497486191092e-15
endloop
endfacet
facet normal 0.989176509964781 0.14673047445536 -2.70885019206134e-17
outer loop
vertex 4.37618832192251 0.3228070438018 -2.11497486191092e-15
vertex 4.38940639867883 0.215637708725033 2.0
vertex 4.38940639867883 0.215637708725033 -2.11497486191092e-15
endloop
endfacet
facet normal 0.995184726672198 0.0980171403295522 -1.159827701022e-17
outer loop
vertex 4.38940639867883 0.215637708725033 2.0
vertex 4.37618832192251 0.3228070438018 -2.11497486191092e-15
vertex 4.37618832192251 0.3228070438018 2.0
endloop
endfacet
facet normal -1.0 0.0 0.0
outer loop
vertex 1.2 1.0 4.0
vertex 1.2 -1.0 2.0
vertex 1.2 -1.0 4.0
endloop
endfacet
facet normal -1.0 0.0 0.0
outer loop
vertex 1.2 -1.0 2.0
vertex 1.2 1.0 4.0
vertex 1.2 1.0 2.0
endloop
endfacet
facet normal 1.0 0.0 0.0
outer loop
vertex 3.19999999999999 1.0 2.0
vertex 3.19999999999999 -1.0 4.0
vertex 3.19999999999999 -1.0 2.0
endloop
endfacet
facet normal 1.0 0.0 0.0
outer loop
vertex 3.19999999999999 -1.0 4.0
vertex 3.19999999999999 1.0 2.0
vertex 3.19999999999999 1.0 4.0
endloop
endfacet
facet normal -0.242980179903275 0.970031253194541 -3.10853975917855e-16
outer loop
vertex 1.66544360421281 2.134068757028 2.0
vertex 1.77080129156451 2.15772761688711 -2.8199664825479e-15
vertex 1.66544360421281 2.134068757028 -2.8199664825479e-15
endloop
endfacet
facet normal -0.195090322016124 0.980785280403231 -3.13317417483871e-16
outer loop
vertex 1.77080129156451 2.15772761688711 -2.8199664825479e-15
vertex 1.66544360421281 2.134068757028 2.0
vertex 1.77080129156451 2.15772761688711 2.0
endloop
endfacet
facet normal 0.923879532511281 0.382683432365104 -1.02821779755752e-16
outer loop
vertex 4.23253497152482 0.8419035512032 -2.8199664825479e-15
vertex 4.27139694340264 0.741157677462886 2.0
vertex 4.27139694340264 0.741157677462886 -2.8199664825479e-15
endloop
endfacet
facet normal 0.941544065183025 0.336889853392209 -8.8026537479695e-17
outer loop
vertex 4.27139694340264 0.741157677462886 2.0
vertex 4.23253497152482 0.8419035512032 -2.8199664825479e-15
vertex 4.23253497152482 0.8419035512032 2.0
endloop
endfacet
facet normal -0.146730474455363 0.989176509964781 -3.15026049947803e-16
outer loop
vertex 1.8771929561982 2.17618832192252 2.0
vertex 1.98436229127496 2.18940639867883 -2.8199664825479e-15
vertex 1.8771929561982 2.17618832192252 -2.8199664825479e-15
endloop
endfacet
facet normal -0.0980171403295535 0.995184726672198 -3.15975757064388e-16
outer loop
vertex 1.98436229127496 2.18940639867883 -2.8199664825479e-15
vertex 1.8771929561982 2.17618832192252 2.0
vertex 1.98436229127496 2.18940639867883 2.0
endloop
endfacet
facet normal 0.881921264348352 0.471396736826003 -1.316340979997e-16
outer loop
vertex 4.14022678156638 1.03707282101719 -2.8199664825479e-15
vertex 4.18877644487157 0.94062120554662 2.0
vertex 4.18877644487157 0.94062120554662 -2.8199664825479e-15
endloop
endfacet
facet normal 0.903989293123444 0.42755509343028 -1.1736931535824e-16
outer loop
vertex 4.18877644487157 0.94062120554662 2.0
vertex 4.14022678156638 1.03707282101719 -2.8199664825479e-15
vertex 4.14022678156638 1.03707282101719 2.0
endloop
endfacet
facet normal -0.634393284163647 0.773010453362735 -2.56280582762134e-16
outer loop
vertex 0.804334774839978 1.70062299739802 2.0
vertex 0.889461530116642 1.76705656925742 -2.8199664825479e-15
vertex 0.804334774839978 1.70062299739802 -2.8199664825479e-15
endloop
endfacet
facet normal -0.595699304492417 0.803207531480657 -2.65058740861756e-16
outer loop
vertex 0.889461530116642 1.76705656925742 -2.8199664825479e-15
vertex 0.804334774839978 1.70062299739802 2.0
vertex 0.889461530116642 1.76705656925742 2.0
endloop
endfacet
facet normal -0.923879532511294 0.382683432365072 -1.38721173671153e-16
outer loop
vertex 0.167465028475169 0.8419035512032 2.0
vertex 0.128603056597357 0.741157677462886 -2.8199664825479e-15
vertex 0.128603056597357 0.741157677462886 2.0
endloop
endfacet
facet normal -0.941544065183022 0.336889853392217 -1.24612326097446e-16
outer loop
vertex 0.128603056597357 0.741157677462886 -2.8199664825479e-15
vertex 0.167465028475169 0.8419035512032 2.0
vertex 0.167465028475169 0.8419035512032 -2.8199664825479e-15
endloop
endfacet
facet normal -0.555570233019601 0.831469612302546 -2.73198349238231e-16
outer loop
vertex 0.977745487356873 1.8292331470656 2.0
vertex 1.06897396277491 1.8870029420006 -2.8199664825479e-15
vertex 0.977745487356873 1.8292331470656 -2.8199664825479e-15
endloop
endfacet
facet normal -0.514102744193228 0.857728610000269 -2.80679798862044e-16
outer loop
vertex 1.06897396277491 1.8870029420006 -2.8199664825479e-15
vertex 0.977745487356873 1.8292331470656 2.0
vertex 1.06897396277491 1.8870029420006 2.0
endloop
endfacet
facet normal -0.773010453362735 0.634393284163648 -2.15227380186774e-16
outer loop
vertex 0.499377002601976 1.39566522516002 2.0
vertex 0.432943430742582 1.31053846988335 -2.8199664825479e-15
vertex 0.432943430742582 1.31053846988335 2.0
endloop
endfacet
facet normal -0.803207531480645 0.595699304492434 -2.03602592768253e-16
outer loop
vertex 0.432943430742582 1.31053846988335 -2.8199664825479e-15
vertex 0.499377002601976 1.39566522516002 2.0
vertex 0.499377002601976 1.39566522516002 -2.8199664825479e-15
endloop
endfacet
facet normal 0.956940335732213 0.290284677254448 -7.30192315646421e-17
outer loop
vertex 4.30526873861085 0.638626289959817 -2.11497486191092e-15
vertex 4.33406875702799 0.534556395787181 2.0
vertex 4.33406875702799 0.534556395787181 -2.11497486191092e-15
endloop
endfacet
facet normal 0.97003125319454 0.24298017990328 -5.78360159250317e-17
outer loop
vertex 4.33406875702799 0.534556395787181 2.0
vertex 4.30526873861085 0.638626289959817 -2.11497486191092e-15
vertex 4.30526873861085 0.638626289959817 2.0
endloop
endfacet
facet normal 0.941544065183025 0.336889853392209 -8.80265374796951e-17
outer loop
vertex 4.27139694340264 0.741157677462886 -2.8199664825479e-15
vertex 4.30526873861085 0.638626289959817 2.0
vertex 4.30526873861085 0.638626289959817 -2.11497486191092e-15
endloop
endfacet
facet normal 0.956940335732213 0.290284677254448 -7.30192315646421e-17
outer loop
vertex 4.30526873861085 0.638626289959817 2.0
vertex 4.27139694340264 0.741157677462886 -2.8199664825479e-15
vertex 4.27139694340264 0.741157677462886 2.0
endloop
endfacet
facet normal 0.514102744193216 0.857728610000276 -2.60703193387716e-16
outer loop
vertex 3.33102603722508 1.8870029420006 2.0
vertex 3.42225451264312 1.8292331470656 -2.8199664825479e-15
vertex 3.33102603722508 1.8870029420006 -2.8199664825479e-15
endloop
endfacet
facet normal 0.55557023301962 0.831469612302533 -2.51610432263127e-16
outer loop
vertex 3.42225451264312 1.8292331470656 -2.8199664825479e-15
vertex 3.33102603722508 1.8870029420006 2.0
vertex 3.42225451264312 1.8292331470656 2.0
endloop
endfacet
facet normal 0.671558954847025 0.740951125354953 -2.20790105574057e-16
outer loop
vertex 3.67742970066343 1.63009247578091 2.0
vertex 3.7556349186104 1.5556349186104 -2.8199664825479e-15
vertex 3.67742970066343 1.63009247578091 -2.8199664825479e-15
endloop
endfacet
facet normal 0.707106781186548 0.707106781186548 -2.0941848761007e-16
outer loop
vertex 3.7556349186104 1.5556349186104 -2.8199664825479e-15
vertex 3.67742970066343 1.63009247578091 2.0
vertex 3.7556349186104 1.5556349186104 2.0
endloop
endfacet
facet normal -0.0980171403295535 0.995184726672198 -3.15975757064388e-16
outer loop
vertex 1.98436229127496 2.18940639867883 2.0
vertex 2.09205111647967 2.19735000365138 -2.8199664825479e-15
vertex 1.98436229127496 2.18940639867883 -2.8199664825479e-15
endloop
endfacet
facet normal -0.0490676743274118 0.998795456205173 -3.16164250905997e-16
outer loop
vertex 2.09205111647967 2.19735000365138 -2.8199664825479e-15
vertex 1.98436229127496 2.18940639867883 2.0
vertex 2.09205111647967 2.19735000365138 2.0
endloop
endfacet
facet normal 0.857728610000275 0.514102744193216 -1.45581762569288e-16
outer loop
vertex 4.08700294200059 1.13102603722509 -2.8199664825479e-15
vertex 4.14022678156638 1.03707282101719 2.0
vertex 4.14022678156638 1.03707282101719 -2.8199664825479e-15
endloop
endfacet
facet normal 0.881921264348352 0.471396736826003 -1.316340979997e-16
outer loop
vertex 4.14022678156638 1.03707282101719 2.0
vertex 4.08700294200059 1.13102603722509 -2.8199664825479e-15
vertex 4.08700294200059 1.13102603722509 2.0
endloop
endfacet
facet normal -0.903989293123439 0.427555093430292 -1.52495829786959e-16
outer loop
vertex 0.211223555128425 0.940621205546626 2.0
vertex 0.167465028475169 0.8419035512032 -2.8199664825479e-15
vertex 0.167465028475169 0.8419035512032 2.0
endloop
endfacet
facet normal -0.923879532511294 0.382683432365072 -1.38721173671153e-16
outer loop
vertex 0.167465028475169 0.8419035512032 -2.8199664825479e-15
vertex 0.211223555128425 0.940621205546626 2.0
vertex 0.211223555128425 0.940621205546626 -2.8199664825479e-15
endloop
endfacet
facet normal -0.740951125354953 0.671558954847025 -2.26333665994734e-16
outer loop
vertex 0.569907524219092 1.47742970066344 2.0
vertex 0.499377002601976 1.39566522516002 -2.8199664825479e-15
vertex 0.499377002601976 1.39566522516002 2.0
endloop
endfacet
facet normal -0.773010453362735 0.634393284163648 -2.15227380186774e-16
outer loop
vertex 0.499377002601976 1.39566522516002 -2.8199664825479e-15
vertex 0.569907524219092 1.47742970066344 2.0
vertex 0.569907524219092 1.47742970066344 -2.8199664825479e-15
endloop
endfacet
facet normal -0.0490676743274118 0.998795456205173 -3.16164250905997e-16
outer loop
vertex 2.09205111647967 2.19735000365138 2.0
vertex 2.2 2.2 -2.8199664825479e-15
vertex 2.09205111647967 2.19735000365138 -2.8199664825479e-15
endloop
endfacet
facet normal 6.45140114548711e-16 1.0 -3.15591077374455e-16
outer loop
vertex 2.2 2.2 -2.8199664825479e-15
vertex 2.09205111647967 2.19735000365138 2.0
vertex 2.2 2.2 2.0
endloop
endfacet
facet normal 0.195090322016124 0.980785280403231 -3.05736749147055e-16
outer loop
vertex 2.62919870843547 2.15772761688711 2.0
vertex 2.73455639578717 2.134068757028 -2.8199664825479e-15
vertex 2.62919870843547 2.15772761688711 -2.8199664825479e-15
endloop
endfacet
facet normal 0.242980179903275 0.970031253194541 -3.01412440647261e-16
outer loop
vertex 2.73455639578717 2.134068757028 -2.8199664825479e-15
vertex 2.62919870843547 2.15772761688711 2.0
vertex 2.73455639578717 2.134068757028 2.0
endloop
endfacet
facet normal 0.55557023301962 0.831469612302533 -2.51610432263127e-16
outer loop
vertex 3.42225451264312 1.8292331470656 2.0
vertex 3.51053846988334 1.76705656925742 -2.8199664825479e-15
vertex 3.42225451264312 1.8292331470656 -2.8199664825479e-15
endloop
endfacet
facet normal 0.595699304492434 0.803207531480645 -2.41911519568754e-16
outer loop
vertex 3.51053846988334 1.76705656925742 -2.8199664825479e-15
vertex 3.42225451264312 1.8292331470656 2.0
vertex 3.51053846988334 1.76705656925742 2.0
endloop
endfacet
facet normal 0.995184726672198 0.0980171403295522 -1.159827701022e-17
outer loop
vertex 4.38940639867883 0.215637708725033 -2.11497486191092e-15
vertex 4.39735000365137 0.107948883520325 2.0
vertex 4.39735000365137 0.107948883520325 -2.11497486191092e-15
endloop
endfacet
facet normal 0.998795456205173 0.0490676743274137 3.91988916537681e-18
outer loop
vertex 4.39735000365137 0.107948883520325 2.0
vertex 4.38940639867883 0.215637708725033 -2.11497486191092e-15
vertex 4.38940639867883 0.215637708725033 2.0
endloop
endfacet
facet normal 0.998795456205173 0.0490676743274137 3.9198891653768e-18
outer loop
vertex 4.39735000365137 0.107948883520325 -2.11497486191092e-15
vertex 4.39999999999999 2.8199664825479e-15 2.0
vertex 4.39999999999999 2.8199664825479e-15 -2.11497486191092e-15
endloop
endfacet
facet normal 0.99857410634929 -0.0533830884149375 3.62481352366073e-17
outer loop
vertex 4.39999999999999 2.8199664825479e-15 2.0
vertex 4.39735000365137 0.107948883520325 -2.11497486191092e-15
vertex 4.39735000365137 0.107948883520325 2.0
endloop
endfacet
facet normal 0.740951125354953 0.671558954847025 -1.97542362166537e-16
outer loop
vertex 3.8300924757809 1.47742970066344 -2.8199664825479e-15
vertex 3.90062299739802 1.39566522516002 2.0
vertex 3.90062299739802 1.39566522516002 -2.8199664825479e-15
endloop
endfacet
facet normal 0.773010453362735 0.634393284163648 -1.85190339869875e-16
outer loop
vertex 3.90062299739802 1.39566522516002 2.0
vertex 3.8300924757809 1.47742970066344 -2.8199664825479e-15
vertex 3.8300924757809 1.47742970066344 2.0
endloop
endfacet
facet normal 0.0490676743274125 0.998795456205173 -3.14257617295005e-16
outer loop
vertex 2.30794888352031 2.19735000365138 2.0
vertex 2.41563770872503 2.18940639867883 -2.8199664825479e-15
vertex 2.30794888352031 2.19735000365138 -2.8199664825479e-15
endloop
endfacet
facet normal 0.0980171403295535 0.995184726672198 -3.12167083089776e-16
outer loop
vertex 2.41563770872503 2.18940639867883 -2.8199664825479e-15
vertex 2.30794888352031 2.19735000365138 2.0
vertex 2.41563770872503 2.18940639867883 2.0
endloop
endfacet
facet normal -0.831469612302546 0.555570233019602 -1.91487308870272e-16
outer loop
vertex 0.370766852934398 1.22225451264313 2.0
vertex 0.312997057999403 1.13102603722509 -2.8199664825479e-15
vertex 0.312997057999403 1.13102603722509 2.0
endloop
endfacet
facet normal -0.85772861000028 0.514102744193208 -1.78910715272912e-16
outer loop
vertex 0.312997057999403 1.13102603722509 -2.8199664825479e-15
vertex 0.370766852934398 1.22225451264313 2.0
vertex 0.370766852934398 1.22225451264313 -2.8199664825479e-15
endloop
endfacet
facet normal 0.382683432365103 0.923879532511281 -2.84133129109074e-16
outer loop
vertex 3.04190355120319 2.03253497152483 2.0
vertex 3.14062120554661 1.98877644487157 -2.8199664825479e-15
vertex 3.04190355120319 2.03253497152483 -2.8199664825479e-15
endloop
endfacet
facet normal 0.427555093430271 0.903989293123449 -2.76984152939491e-16
outer loop
vertex 3.14062120554661 1.98877644487157 -2.8199664825479e-15
vertex 3.04190355120319 2.03253497152483 2.0
vertex 3.14062120554661 1.98877644487157 2.0
endloop
endfacet
facet normal 0.98078528040323 0.19509032201613 -4.25134682572066e-17
outer loop
vertex 4.3577276168871 0.429198708435486 -2.11497486191092e-15
vertex 4.37618832192251 0.3228070438018 2.0
vertex 4.37618832192251 0.3228070438018 -2.11497486191092e-15
endloop
endfacet
facet normal 0.989176509964781 0.14673047445536 -2.70885019206134e-17
outer loop
vertex 4.37618832192251 0.3228070438018 2.0
vertex 4.3577276168871 0.429198708435486 -2.11497486191092e-15
vertex 4.3577276168871 0.429198708435486 2.0
endloop
endfacet
facet normal 0.99857410634929 -0.0533830884149375 3.62481352366073e-17
outer loop
vertex 4.39999999999999 2.8199664825479e-15 -2.11497486191092e-15
vertex 3.39999999999999 -7.56879281389222 2.0
vertex 3.39999999999999 -7.56879281389222 0.0
endloop
endfacet
facet normal 0.991384589968245 -0.13098318507921 6.05983510231226e-17
outer loop
vertex 3.39999999999999 -7.56879281389222 2.0
vertex 4.39999999999999 2.8199664825479e-15 -2.11497486191092e-15
vertex 4.39999999999999 2.8199664825479e-15 2.0
endloop
endfacet
endsolid model
