solid Cap Pin
facet normal -0.438606994573883 0.898678977338886 0.0
outer loop
vertex -1.75442797829553 3.59471590935554 2.0
vertex -1.39363615431389 3.7493703830629 0.0
vertex -1.75442797829553 3.59471590935554 0.0
endloop
endfacet
facet normal -0.348409038578471 0.937342595765724 0.0
outer loop
vertex -1.39363615431389 3.7493703830629 0.0
vertex -1.75442797829553 3.59471590935554 2.0
vertex -1.39363615431389 3.7493703830629 2.0
endloop
endfacet
facet normal -0.966979092591753 -0.254855713081795 0.0
outer loop
vertex -3.86791637036701 -1.01942285232718 2.0
vertex -3.7493703830629 -1.39363615431389 0.0
vertex -3.7493703830629 -1.39363615431389 2.0
endloop
endfacet
facet normal -0.937342595765724 -0.348409038578472 0.0
outer loop
vertex -3.7493703830629 -1.39363615431389 0.0
vertex -3.86791637036701 -1.01942285232718 2.0
vertex -3.86791637036701 -1.01942285232718 0.0
endloop
endfacet
facet normal 0.0 0.0 -1.0
outer loop
vertex -3.9636050042074 0.538363604473809 0.0
vertex -3.99247497441776 -0.245241877842822 0.0
vertex -3.99728802371673 0.14727000866018 0.0
endloop
endfacet
facet normal 0.0 0.0 -1.0
outer loop
vertex -3.99247497441776 -0.245241877842822 0.0
vertex -3.9636050042074 0.538363604473809 0.0
vertex -3.94921220860632 -0.635391950999349 0.0
endloop
endfacet
facet normal 0.0 0.0 -1.0
outer loop
vertex -3.94921220860632 -0.635391950999349 0.0
vertex -3.9636050042074 0.538363604473809 0.0
vertex -3.89175030178066 0.924272464476872 0.0
endloop
endfacet
facet normal 0.0 0.0 -1.0
outer loop
vertex -3.94921220860632 -0.635391950999349 0.0
vertex -3.89175030178066 0.924272464476872 0.0
vertex -3.86791637036701 -1.01942285232718 0.0
endloop
endfacet
facet normal 0.0 0.0 -1.0
outer loop
vertex -3.86791637036701 -1.01942285232718 0.0
vertex -3.89175030178066 0.924272464476872 0.0
vertex -3.78241591650065 1.3012800753883 0.0
endloop
endfacet
facet normal 0.0 0.0 -1.0
outer loop
vertex -3.86791637036701 -1.01942285232718 0.0
vertex -3.78241591650065 1.3012800753883 0.0
vertex -3.7493703830629 -1.39363615431389 0.0
endloop
endfacet
facet normal 0.0 0.0 -1.0
outer loop
vertex -3.7493703830629 -1.39363615431389 0.0
vertex -3.78241591650065 1.3012800753883 0.0
vertex -3.63665479826587 1.66575564782169 0.0
endloop
endfacet
facet normal 0.0 0.0 -1.0
outer loop
vertex -3.7493703830629 -1.39363615431389 0.0
vertex -3.63665479826587 1.66575564782169 0.0
vertex -3.59471590935554 -1.75442797829553 0.0
endloop
endfacet
facet normal 0.0 0.0 -1.0
outer loop
vertex -3.59471590935554 -1.75442797829553 0.0
vertex -3.63665479826587 1.66575564782169 0.0
vertex -3.45587070632605 2.01418908277189 0.0
endloop
endfacet
facet normal 0.0 0.0 -1.0
outer loop
vertex -3.59471590935554 -1.75442797829553 0.0
vertex -3.45587070632605 2.01418908277189 0.0
vertex -3.4054423563695 -2.0983237017783 0.0
endloop
endfacet
facet normal 0.0 0.0 -1.0
outer loop
vertex -3.4054423563695 -2.0983237017783 0.0
vertex -3.45587070632605 2.01418908277189 0.0
vertex -3.24180469031322 2.34322477578724 0.0
endloop
endfacet
facet normal 0.0 0.0 -1.0
outer loop
vertex -3.4054423563695 -2.0983237017783 0.0
vertex -3.24180469031322 2.34322477578724 0.0
vertex -3.18337253188745 -2.42201142095253 0.0
endloop
endfacet
facet normal 0.0 0.0 -1.0
outer loop
vertex -3.18337253188745 -2.42201142095253 0.0
vertex -3.24180469031322 2.34322477578724 0.0
vertex -2.99651832298197 2.64969393327481 0.0
endloop
endfacet
facet normal 0.0 0.0 -1.0
outer loop
vertex -3.18337253188745 -2.42201142095253 0.0
vertex -2.99651832298197 2.64969393327481 0.0
vertex -2.93064508971489 -2.72237384613686 0.0
endloop
endfacet
facet normal 0.0 0.0 -1.0
outer loop
vertex -2.93064508971489 -2.72237384613686 0.0
vertex -2.99651832298197 2.64969393327481 0.0
vertex -2.72237384613686 2.93064508971489 0.0
endloop
endfacet
facet normal 0.0 0.0 -1.0
outer loop
vertex -2.93064508971489 -2.72237384613686 0.0
vertex -2.72237384613686 2.93064508971489 0.0
vertex -2.64969393327481 -2.99651832298197 0.0
endloop
endfacet
facet normal 0.0 0.0 -1.0
outer loop
vertex -2.64969393327481 -2.99651832298197 0.0
vertex -2.72237384613686 2.93064508971489 0.0
vertex -2.42201142095253 3.18337253188745 0.0
endloop
endfacet
facet normal 0.0 0.0 -1.0
outer loop
vertex -2.64969393327481 -2.99651832298197 0.0
vertex -2.42201142095253 3.18337253188745 0.0
vertex -2.34322477578724 -3.24180469031322 0.0
endloop
endfacet
facet normal 0.0 0.0 -1.0
outer loop
vertex -2.34322477578724 -3.24180469031322 0.0
vertex -2.42201142095253 3.18337253188745 0.0
vertex -2.0983237017783 3.4054423563695 0.0
endloop
endfacet
facet normal 0.0 0.0 -1.0
outer loop
vertex -2.34322477578724 -3.24180469031322 0.0
vertex -2.0983237017783 3.4054423563695 0.0
vertex -2.01418908277189 -3.45587070632605 0.0
endloop
endfacet
facet normal 0.0 0.0 -1.0
outer loop
vertex -2.01418908277189 -3.45587070632605 0.0
vertex -2.0983237017783 3.4054423563695 0.0
vertex -1.75442797829553 3.59471590935554 0.0
endloop
endfacet
facet normal 0.0 0.0 -1.0
outer loop
vertex -2.01418908277189 -3.45587070632605 0.0
vertex -1.75442797829553 3.59471590935554 0.0
vertex -1.66575564782169 -3.63665479826587 0.0
endloop
endfacet
facet normal 0.0 0.0 -1.0
outer loop
vertex -1.66575564782169 -3.63665479826587 0.0
vertex -1.75442797829553 3.59471590935554 0.0
vertex -1.39363615431389 3.7493703830629 0.0
endloop
endfacet
facet normal 0.0 0.0 -1.0
outer loop
vertex -1.66575564782169 -3.63665479826587 0.0
vertex -1.39363615431389 3.7493703830629 0.0
vertex -1.3012800753883 -3.78241591650065 0.0
endloop
endfacet
facet normal 0.0 0.0 -1.0
outer loop
vertex -1.3012800753883 -3.78241591650065 0.0
vertex -1.39363615431389 3.7493703830629 0.0
vertex -1.2 1.2 0.0
endloop
endfacet
facet normal 0.0 0.0 -1.0
outer loop
vertex -1.2 1.2 0.0
vertex -1.39363615431389 3.7493703830629 0.0
vertex -1.01942285232718 3.86791637036701 0.0
endloop
endfacet
facet normal 0.0 0.0 -1.0
outer loop
vertex -1.2 1.2 0.0
vertex -1.01942285232718 3.86791637036701 0.0
vertex 1.2 1.2 0.0
endloop
endfacet
facet normal 0.0 0.0 -1.0
outer loop
vertex 1.2 1.2 0.0
vertex -1.01942285232718 3.86791637036701 0.0
vertex -0.635391950999349 3.94921220860632 0.0
endloop
endfacet
facet normal 0.0 0.0 -1.0
outer loop
vertex 1.2 1.2 0.0
vertex -0.635391950999349 3.94921220860632 0.0
vertex -0.245241877842822 3.99247497441776 0.0
endloop
endfacet
facet normal 0.0 0.0 -1.0
outer loop
vertex 1.2 1.2 0.0
vertex -0.245241877842822 3.99247497441776 0.0
vertex 0.147270008660181 3.99728802371673 0.0
endloop
endfacet
facet normal 0.0 0.0 -1.0
outer loop
vertex 1.2 1.2 0.0
vertex 0.147270008660181 3.99728802371673 0.0
vertex 0.538363604473809 3.9636050042074 0.0
endloop
endfacet
facet normal 0.0 0.0 -1.0
outer loop
vertex 1.2 1.2 0.0
vertex 0.538363604473809 3.9636050042074 0.0
vertex 0.924272464476872 3.89175030178066 0.0
endloop
endfacet
facet normal 0.0 0.0 -1.0
outer loop
vertex 1.2 1.2 0.0
vertex 0.924272464476872 3.89175030178066 0.0
vertex 1.3012800753883 3.78241591650065 0.0
endloop
endfacet
facet normal 0.0 0.0 -1.0
outer loop
vertex 1.2 1.2 0.0
vertex 1.3012800753883 3.78241591650065 0.0
vertex 1.2 -1.2 0.0
endloop
endfacet
facet normal 0.0 0.0 -1.0
outer loop
vertex -1.3012800753883 -3.78241591650065 0.0
vertex -1.2 -1.2 0.0
vertex -0.924272464476872 -3.89175030178066 0.0
endloop
endfacet
facet normal 0.0 0.0 -1.0
outer loop
vertex -1.2 -1.2 0.0
vertex -1.3012800753883 -3.78241591650065 0.0
vertex -1.2 1.2 0.0
endloop
endfacet
facet normal 0.0 0.0 -1.0
outer loop
vertex -0.924272464476872 -3.89175030178066 0.0
vertex -1.2 -1.2 0.0
vertex 1.2 -1.2 0.0
endloop
endfacet
facet normal 0.0 0.0 -1.0
outer loop
vertex -0.924272464476872 -3.89175030178066 0.0
vertex 1.2 -1.2 0.0
vertex -0.538363604473809 -3.9636050042074 0.0
endloop
endfacet
facet normal 0.0 0.0 -1.0
outer loop
vertex -0.538363604473809 -3.9636050042074 0.0
vertex 1.2 -1.2 0.0
vertex -0.147270008660182 -3.99728802371673 0.0
endloop
endfacet
facet normal 0.0 0.0 -1.0
outer loop
vertex -0.147270008660182 -3.99728802371673 0.0
vertex 1.2 -1.2 0.0
vertex 0.245241877842822 -3.99247497441776 0.0
endloop
endfacet
facet normal 0.0 0.0 -1.0
outer loop
vertex 0.245241877842822 -3.99247497441776 0.0
vertex 1.2 -1.2 0.0
vertex 0.635391950999349 -3.94921220860632 0.0
endloop
endfacet
facet normal 0.0 0.0 -1.0
outer loop
vertex 0.635391950999349 -3.94921220860632 0.0
vertex 1.2 -1.2 0.0
vertex 1.01942285232718 -3.86791637036701 0.0
endloop
endfacet
facet normal 0.0 0.0 -1.0
outer loop
vertex 1.01942285232718 -3.86791637036701 0.0
vertex 1.2 -1.2 0.0
vertex 1.39363615431389 -3.7493703830629 0.0
endloop
endfacet
facet normal 0.0 0.0 -1.0
outer loop
vertex 1.39363615431389 -3.7493703830629 0.0
vertex 1.2 -1.2 0.0
vertex 1.3012800753883 3.78241591650065 0.0
endloop
endfacet
facet normal 0.0 0.0 -1.0
outer loop
vertex 1.39363615431389 -3.7493703830629 0.0
vertex 1.3012800753883 3.78241591650065 0.0
vertex 1.66575564782169 3.63665479826587 0.0
endloop
endfacet
facet normal 0.0 0.0 -1.0
outer loop
vertex 1.39363615431389 -3.7493703830629 0.0
vertex 1.66575564782169 3.63665479826587 0.0
vertex 1.75442797829553 -3.59471590935554 0.0
endloop
endfacet
facet normal 0.0 0.0 -1.0
outer loop
vertex 1.75442797829553 -3.59471590935554 0.0
vertex 1.66575564782169 3.63665479826587 0.0
vertex 2.01418908277189 3.45587070632605 0.0
endloop
endfacet
facet normal 0.0 0.0 -1.0
outer loop
vertex 1.75442797829553 -3.59471590935554 0.0
vertex 2.01418908277189 3.45587070632605 0.0
vertex 2.0983237017783 -3.40544235636949 0.0
endloop
endfacet
facet normal 0.0 0.0 -1.0
outer loop
vertex 2.0983237017783 -3.40544235636949 0.0
vertex 2.01418908277189 3.45587070632605 0.0
vertex 2.34322477578724 3.24180469031322 0.0
endloop
endfacet
facet normal 0.0 0.0 -1.0
outer loop
vertex 2.0983237017783 -3.40544235636949 0.0
vertex 2.34322477578724 3.24180469031322 0.0
vertex 2.42201142095253 -3.18337253188745 0.0
endloop
endfacet
facet normal 0.0 0.0 -1.0
outer loop
vertex 2.42201142095253 -3.18337253188745 0.0
vertex 2.34322477578724 3.24180469031322 0.0
vertex 2.64969393327481 2.99651832298197 0.0
endloop
endfacet
facet normal 0.0 0.0 -1.0
outer loop
vertex 2.42201142095253 -3.18337253188745 0.0
vertex 2.64969393327481 2.99651832298197 0.0
vertex 2.72237384613686 -2.93064508971489 0.0
endloop
endfacet
facet normal 0.0 0.0 -1.0
outer loop
vertex 2.72237384613686 -2.93064508971489 0.0
vertex 2.64969393327481 2.99651832298197 0.0
vertex 2.93064508971489 2.72237384613686 0.0
endloop
endfacet
facet normal 0.0 0.0 -1.0
outer loop
vertex 2.72237384613686 -2.93064508971489 0.0
vertex 2.93064508971489 2.72237384613686 0.0
vertex 2.99651832298197 -2.64969393327481 0.0
endloop
endfacet
facet normal 0.0 0.0 -1.0
outer loop
vertex 2.99651832298197 -2.64969393327481 0.0
vertex 2.93064508971489 2.72237384613686 0.0
vertex 3.18337253188745 2.42201142095253 0.0
endloop
endfacet
facet normal 0.0 0.0 -1.0
outer loop
vertex 2.99651832298197 -2.64969393327481 0.0
vertex 3.18337253188745 2.42201142095253 0.0
vertex 3.24180469031322 -2.34322477578724 0.0
endloop
endfacet
facet normal 0.0 0.0 -1.0
outer loop
vertex 3.24180469031322 -2.34322477578724 0.0
vertex 3.18337253188745 2.42201142095253 0.0
vertex 3.4054423563695 2.0983237017783 0.0
endloop
endfacet
facet normal 0.0 0.0 -1.0
outer loop
vertex 3.24180469031322 -2.34322477578724 0.0
vertex 3.4054423563695 2.0983237017783 0.0
vertex 3.45587070632605 -2.01418908277189 0.0
endloop
endfacet
facet normal 0.0 0.0 -1.0
outer loop
vertex 3.45587070632605 -2.01418908277189 0.0
vertex 3.4054423563695 2.0983237017783 0.0
vertex 3.59471590935554 1.75442797829553 0.0
endloop
endfacet
facet normal 0.0 0.0 -1.0
outer loop
vertex 3.45587070632605 -2.01418908277189 0.0
vertex 3.59471590935554 1.75442797829553 0.0
vertex 3.63665479826587 -1.66575564782169 0.0
endloop
endfacet
facet normal 0.0 0.0 -1.0
outer loop
vertex 3.63665479826587 -1.66575564782169 0.0
vertex 3.59471590935554 1.75442797829553 0.0
vertex 3.7493703830629 1.39363615431389 0.0
endloop
endfacet
facet normal 0.0 0.0 -1.0
outer loop
vertex 3.63665479826587 -1.66575564782169 0.0
vertex 3.7493703830629 1.39363615431389 0.0
vertex 3.78241591650065 -1.3012800753883 0.0
endloop
endfacet
facet normal 0.0 0.0 -1.0
outer loop
vertex 3.78241591650065 -1.3012800753883 0.0
vertex 3.7493703830629 1.39363615431389 0.0
vertex 3.86791637036701 1.01942285232718 0.0
endloop
endfacet
facet normal 0.0 0.0 -1.0
outer loop
vertex 3.78241591650065 -1.3012800753883 0.0
vertex 3.86791637036701 1.01942285232718 0.0
vertex 3.89175030178066 -0.924272464476871 0.0
endloop
endfacet
facet normal 0.0 0.0 -1.0
outer loop
vertex 3.89175030178066 -0.924272464476871 0.0
vertex 3.86791637036701 1.01942285232718 0.0
vertex 3.94921220860632 0.635391950999348 0.0
endloop
endfacet
facet normal 0.0 0.0 -1.0
outer loop
vertex 3.89175030178066 -0.924272464476871 0.0
vertex 3.94921220860632 0.635391950999348 0.0
vertex 3.9636050042074 -0.53836360447381 0.0
endloop
endfacet
facet normal 0.0 0.0 -1.0
outer loop
vertex 3.9636050042074 -0.53836360447381 0.0
vertex 3.94921220860632 0.635391950999348 0.0
vertex 3.99247497441776 0.245241877842822 0.0
endloop
endfacet
facet normal 0.0 0.0 -1.0
outer loop
vertex 3.9636050042074 -0.53836360447381 0.0
vertex 3.99247497441776 0.245241877842822 0.0
vertex 3.99728802371673 -0.147270008660182 0.0
endloop
endfacet
facet normal -0.0368175021650441 -0.999322005929184 0.0
outer loop
vertex -0.147270008660182 -3.99728802371673 2.0
vertex -0.538363604473809 -3.9636050042074 0.0
vertex -0.147270008660182 -3.99728802371673 0.0
endloop
endfacet
facet normal -0.134590901118452 -0.990901251051851 0.0
outer loop
vertex -0.538363604473809 -3.9636050042074 0.0
vertex -0.147270008660182 -3.99728802371673 2.0
vertex -0.538363604473809 -3.9636050042074 2.0
endloop
endfacet
facet normal -0.998118743604441 -0.0613104694607054 0.0
outer loop
vertex -3.99247497441776 -0.245241877842822 2.0
vertex -3.94921220860632 -0.635391950999349 0.0
vertex -3.94921220860632 -0.635391950999349 2.0
endloop
endfacet
facet normal -0.987303052151581 -0.158847987749838 0.0
outer loop
vertex -3.94921220860632 -0.635391950999349 0.0
vertex -3.99247497441776 -0.245241877842822 2.0
vertex -3.99247497441776 -0.245241877842822 0.0
endloop
endfacet
facet normal -0.937342595765724 -0.348409038578472 0.0
outer loop
vertex -3.7493703830629 -1.39363615431389 2.0
vertex -3.59471590935554 -1.75442797829553 0.0
vertex -3.59471590935554 -1.75442797829553 2.0
endloop
endfacet
facet normal -0.898678977338886 -0.438606994573883 0.0
outer loop
vertex -3.59471590935554 -1.75442797829553 0.0
vertex -3.7493703830629 -1.39363615431389 2.0
vertex -3.7493703830629 -1.39363615431389 0.0
endloop
endfacet
facet normal -0.231068116119219 -0.972937575445165 0.0
outer loop
vertex -0.924272464476872 -3.89175030178066 2.0
vertex -1.3012800753883 -3.78241591650065 0.0
vertex -0.924272464476872 -3.89175030178066 0.0
endloop
endfacet
facet normal -0.325320018847075 -0.945603979125162 0.0
outer loop
vertex -1.3012800753883 -3.78241591650065 0.0
vertex -0.924272464476872 -3.89175030178066 2.0
vertex -1.3012800753883 -3.78241591650065 2.0
endloop
endfacet
facet normal -0.999322005929184 0.0368175021650465 0.0
outer loop
vertex -3.99728802371673 0.14727000866018 2.0
vertex -3.99247497441776 -0.245241877842822 0.0
vertex -3.99247497441776 -0.245241877842822 2.0
endloop
endfacet
facet normal -0.998118743604441 -0.0613104694607054 0.0
outer loop
vertex -3.99247497441776 -0.245241877842822 0.0
vertex -3.99728802371673 0.14727000866018 2.0
vertex -3.99728802371673 0.14727000866018 0.0
endloop
endfacet
facet normal -0.325320018847075 -0.945603979125162 0.0
outer loop
vertex -1.3012800753883 -3.78241591650065 2.0
vertex -1.66575564782169 -3.63665479826587 0.0
vertex -1.3012800753883 -3.78241591650065 0.0
endloop
endfacet
facet normal -0.416438911955422 -0.909163699566467 0.0
outer loop
vertex -1.66575564782169 -3.63665479826587 0.0
vertex -1.3012800753883 -3.78241591650065 2.0
vertex -1.66575564782169 -3.63665479826587 2.0
endloop
endfacet
facet normal -0.987303052151581 -0.158847987749838 0.0
outer loop
vertex -3.94921220860632 -0.635391950999349 2.0
vertex -3.86791637036701 -1.01942285232718 0.0
vertex -3.86791637036701 -1.01942285232718 2.0
endloop
endfacet
facet normal -0.966979092591753 -0.254855713081795 0.0
outer loop
vertex -3.86791637036701 -1.01942285232718 0.0
vertex -3.94921220860632 -0.635391950999349 2.0
vertex -3.94921220860632 -0.635391950999349 0.0
endloop
endfacet
facet normal -0.898678977338886 -0.438606994573883 0.0
outer loop
vertex -3.59471590935554 -1.75442797829553 2.0
vertex -3.4054423563695 -2.0983237017783 0.0
vertex -3.4054423563695 -2.0983237017783 2.0
endloop
endfacet
facet normal -0.851360589092374 -0.524580925444574 0.0
outer loop
vertex -3.4054423563695 -2.0983237017783 0.0
vertex -3.59471590935554 -1.75442797829553 2.0
vertex -3.59471590935554 -1.75442797829553 0.0
endloop
endfacet
facet normal -0.851360589092374 -0.524580925444574 0.0
outer loop
vertex -3.4054423563695 -2.0983237017783 2.0
vertex -3.18337253188745 -2.42201142095253 0.0
vertex -3.18337253188745 -2.42201142095253 2.0
endloop
endfacet
facet normal -0.795843132971863 -0.605502855238132 0.0
outer loop
vertex -3.18337253188745 -2.42201142095253 0.0
vertex -3.4054423563695 -2.0983237017783 2.0
vertex -3.4054423563695 -2.0983237017783 0.0
endloop
endfacet
facet normal -0.503547270692972 -0.863967676581514 0.0
outer loop
vertex -2.01418908277189 -3.45587070632605 2.0
vertex -2.34322477578724 -3.24180469031322 0.0
vertex -2.01418908277189 -3.45587070632605 0.0
endloop
endfacet
facet normal -0.585806193946811 -0.810451172578306 0.0
outer loop
vertex -2.34322477578724 -3.24180469031322 0.0
vertex -2.01418908277189 -3.45587070632605 2.0
vertex -2.34322477578724 -3.24180469031322 2.0
endloop
endfacet
facet normal -0.662423483318702 -0.749129580745493 0.0
outer loop
vertex -2.64969393327481 -2.99651832298197 2.0
vertex -2.93064508971489 -2.72237384613686 0.0
vertex -2.64969393327481 -2.99651832298197 0.0
endloop
endfacet
facet normal -0.732661272428723 -0.680593461534215 0.0
outer loop
vertex -2.93064508971489 -2.72237384613686 0.0
vertex -2.64969393327481 -2.99651832298197 2.0
vertex -2.93064508971489 -2.72237384613686 2.0
endloop
endfacet
facet normal 0.503547270692972 0.863967676581513 0.0
outer loop
vertex 2.01418908277189 3.45587070632605 2.0
vertex 2.34322477578724 3.24180469031322 0.0
vertex 2.01418908277189 3.45587070632605 0.0
endloop
endfacet
facet normal 0.585806193946811 0.810451172578306 0.0
outer loop
vertex 2.34322477578724 3.24180469031322 0.0
vertex 2.01418908277189 3.45587070632605 2.0
vertex 2.34322477578724 3.24180469031322 2.0
endloop
endfacet
facet normal 0.231068116119218 0.972937575445165 0.0
outer loop
vertex 0.924272464476872 3.89175030178066 2.0
vertex 1.3012800753883 3.78241591650065 0.0
vertex 0.924272464476872 3.89175030178066 0.0
endloop
endfacet
facet normal 0.325320018847075 0.945603979125162 0.0
outer loop
vertex 1.3012800753883 3.78241591650065 0.0
vertex 0.924272464476872 3.89175030178066 2.0
vertex 1.3012800753883 3.78241591650065 2.0
endloop
endfacet
facet normal -0.158847987749837 0.987303052151581 0.0
outer loop
vertex -0.635391950999349 3.94921220860632 2.0
vertex -0.245241877842822 3.99247497441776 0.0
vertex -0.635391950999349 3.94921220860632 0.0
endloop
endfacet
facet normal -0.0613104694607054 0.998118743604441 0.0
outer loop
vertex -0.245241877842822 3.99247497441776 0.0
vertex -0.635391950999349 3.94921220860632 2.0
vertex -0.245241877842822 3.99247497441776 2.0
endloop
endfacet
facet normal 0.585806193946811 0.810451172578306 0.0
outer loop
vertex 2.34322477578724 3.24180469031322 2.0
vertex 2.64969393327481 2.99651832298197 0.0
vertex 2.34322477578724 3.24180469031322 0.0
endloop
endfacet
facet normal 0.662423483318701 0.749129580745493 0.0
outer loop
vertex 2.64969393327481 2.99651832298197 0.0
vertex 2.34322477578724 3.24180469031322 2.0
vertex 2.64969393327481 2.99651832298197 2.0
endloop
endfacet
facet normal 0.416438911955421 0.909163699566467 0.0
outer loop
vertex 1.66575564782169 3.63665479826587 2.0
vertex 2.01418908277189 3.45587070632605 0.0
vertex 1.66575564782169 3.63665479826587 0.0
endloop
endfacet
facet normal 0.503547270692972 0.863967676581513 0.0
outer loop
vertex 2.01418908277189 3.45587070632605 0.0
vertex 1.66575564782169 3.63665479826587 2.0
vertex 2.01418908277189 3.45587070632605 2.0
endloop
endfacet
facet normal 0.0368175021650457 0.999322005929184 0.0
outer loop
vertex 0.147270008660181 3.99728802371673 2.0
vertex 0.538363604473809 3.9636050042074 0.0
vertex 0.147270008660181 3.99728802371673 0.0
endloop
endfacet
facet normal 0.134590901118453 0.990901251051851 0.0
outer loop
vertex 0.538363604473809 3.9636050042074 0.0
vertex 0.147270008660181 3.99728802371673 2.0
vertex 0.538363604473809 3.9636050042074 2.0
endloop
endfacet
facet normal -0.795843132971863 -0.605502855238132 0.0
outer loop
vertex -3.18337253188745 -2.42201142095253 2.0
vertex -2.93064508971489 -2.72237384613686 0.0
vertex -2.93064508971489 -2.72237384613686 2.0
endloop
endfacet
facet normal -0.732661272428723 -0.680593461534215 0.0
outer loop
vertex -2.93064508971489 -2.72237384613686 0.0
vertex -3.18337253188745 -2.42201142095253 2.0
vertex -3.18337253188745 -2.42201142095253 0.0
endloop
endfacet
facet normal -0.945603979125162 0.325320018847075 0.0
outer loop
vertex -3.78241591650065 1.3012800753883 2.0
vertex -3.89175030178066 0.924272464476872 0.0
vertex -3.89175030178066 0.924272464476872 2.0
endloop
endfacet
facet normal -0.972937575445165 0.231068116119218 0.0
outer loop
vertex -3.89175030178066 0.924272464476872 0.0
vertex -3.78241591650065 1.3012800753883 2.0
vertex -3.78241591650065 1.3012800753883 0.0
endloop
endfacet
facet normal 0.732661272428722 0.680593461534215 0.0
outer loop
vertex 2.93064508971489 2.72237384613686 0.0
vertex 3.18337253188745 2.42201142095253 2.0
vertex 3.18337253188745 2.42201142095253 0.0
endloop
endfacet
facet normal 0.795843132971863 0.605502855238132 0.0
outer loop
vertex 3.18337253188745 2.42201142095253 2.0
vertex 2.93064508971489 2.72237384613686 0.0
vertex 2.93064508971489 2.72237384613686 2.0
endloop
endfacet
facet normal -0.134590901118452 -0.990901251051851 0.0
outer loop
vertex -0.538363604473809 -3.9636050042074 2.0
vertex -0.924272464476872 -3.89175030178066 0.0
vertex -0.538363604473809 -3.9636050042074 0.0
endloop
endfacet
facet normal -0.231068116119219 -0.972937575445165 0.0
outer loop
vertex -0.924272464476872 -3.89175030178066 0.0
vertex -0.538363604473809 -3.9636050042074 2.0
vertex -0.924272464476872 -3.89175030178066 2.0
endloop
endfacet
facet normal -0.680593461534215 0.732661272428722 0.0
outer loop
vertex -2.72237384613686 2.93064508971489 2.0
vertex -2.99651832298197 2.64969393327481 0.0
vertex -2.99651832298197 2.64969393327481 2.0
endloop
endfacet
facet normal -0.749129580745493 0.662423483318702 0.0
outer loop
vertex -2.99651832298197 2.64969393327481 0.0
vertex -2.72237384613686 2.93064508971489 2.0
vertex -2.72237384613686 2.93064508971489 0.0
endloop
endfacet
facet normal 0.662423483318701 0.749129580745493 0.0
outer loop
vertex 2.64969393327481 2.99651832298197 2.0
vertex 2.93064508971489 2.72237384613686 0.0
vertex 2.64969393327481 2.99651832298197 0.0
endloop
endfacet
facet normal 0.732661272428722 0.680593461534215 0.0
outer loop
vertex 2.93064508971489 2.72237384613686 0.0
vertex 2.64969393327481 2.99651832298197 2.0
vertex 2.93064508971489 2.72237384613686 2.0
endloop
endfacet
facet normal -0.810451172578306 0.585806193946812 0.0
outer loop
vertex -3.24180469031322 2.34322477578724 2.0
vertex -3.45587070632605 2.01418908277189 0.0
vertex -3.45587070632605 2.01418908277189 2.0
endloop
endfacet
facet normal -0.863967676581514 0.503547270692972 0.0
outer loop
vertex -3.45587070632605 2.01418908277189 0.0
vertex -3.24180469031322 2.34322477578724 2.0
vertex -3.24180469031322 2.34322477578724 0.0
endloop
endfacet
facet normal 0.134590901118453 0.990901251051851 0.0
outer loop
vertex 0.538363604473809 3.9636050042074 2.0
vertex 0.924272464476872 3.89175030178066 0.0
vertex 0.538363604473809 3.9636050042074 0.0
endloop
endfacet
facet normal 0.231068116119218 0.972937575445165 0.0
outer loop
vertex 0.924272464476872 3.89175030178066 0.0
vertex 0.538363604473809 3.9636050042074 2.0
vertex 0.924272464476872 3.89175030178066 2.0
endloop
endfacet
facet normal -0.909163699566467 0.416438911955421 0.0
outer loop
vertex -3.63665479826587 1.66575564782169 2.0
vertex -3.78241591650065 1.3012800753883 0.0
vertex -3.78241591650065 1.3012800753883 2.0
endloop
endfacet
facet normal -0.945603979125162 0.325320018847075 0.0
outer loop
vertex -3.78241591650065 1.3012800753883 0.0
vertex -3.63665479826587 1.66575564782169 2.0
vertex -3.63665479826587 1.66575564782169 0.0
endloop
endfacet
facet normal -0.605502855238132 0.795843132971863 0.0
outer loop
vertex -2.42201142095253 3.18337253188745 2.0
vertex -2.0983237017783 3.4054423563695 0.0
vertex -2.42201142095253 3.18337253188745 0.0
endloop
endfacet
facet normal -0.524580925444575 0.851360589092374 0.0
outer loop
vertex -2.0983237017783 3.4054423563695 0.0
vertex -2.42201142095253 3.18337253188745 2.0
vertex -2.0983237017783 3.4054423563695 2.0
endloop
endfacet
facet normal 0.851360589092374 0.524580925444575 0.0
outer loop
vertex 3.4054423563695 2.0983237017783 0.0
vertex 3.59471590935554 1.75442797829553 2.0
vertex 3.59471590935554 1.75442797829553 0.0
endloop
endfacet
facet normal 0.898678977338886 0.438606994573883 0.0
outer loop
vertex 3.59471590935554 1.75442797829553 2.0
vertex 3.4054423563695 2.0983237017783 0.0
vertex 3.4054423563695 2.0983237017783 2.0
endloop
endfacet
facet normal 0.898678977338886 0.438606994573883 0.0
outer loop
vertex 3.59471590935554 1.75442797829553 0.0
vertex 3.7493703830629 1.39363615431389 2.0
vertex 3.7493703830629 1.39363615431389 0.0
endloop
endfacet
facet normal 0.937342595765724 0.348409038578471 0.0
outer loop
vertex 3.7493703830629 1.39363615431389 2.0
vertex 3.59471590935554 1.75442797829553 0.0
vertex 3.59471590935554 1.75442797829553 2.0
endloop
endfacet
facet normal 0.937342595765724 0.348409038578471 0.0
outer loop
vertex 3.7493703830629 1.39363615431389 0.0
vertex 3.86791637036701 1.01942285232718 2.0
vertex 3.86791637036701 1.01942285232718 0.0
endloop
endfacet
facet normal 0.966979092591753 0.254855713081795 0.0
outer loop
vertex 3.86791637036701 1.01942285232718 2.0
vertex 3.7493703830629 1.39363615431389 0.0
vertex 3.7493703830629 1.39363615431389 2.0
endloop
endfacet
facet normal 0.966979092591753 0.254855713081795 0.0
outer loop
vertex 3.86791637036701 1.01942285232718 0.0
vertex 3.94921220860632 0.635391950999348 2.0
vertex 3.94921220860632 0.635391950999348 0.0
endloop
endfacet
facet normal 0.987303052151581 0.158847987749836 0.0
outer loop
vertex 3.94921220860632 0.635391950999348 2.0
vertex 3.86791637036701 1.01942285232718 0.0
vertex 3.86791637036701 1.01942285232718 2.0
endloop
endfacet
facet normal -0.863967676581514 0.503547270692972 0.0
outer loop
vertex -3.45587070632605 2.01418908277189 2.0
vertex -3.63665479826587 1.66575564782169 0.0
vertex -3.63665479826587 1.66575564782169 2.0
endloop
endfacet
facet normal -0.909163699566467 0.416438911955421 0.0
outer loop
vertex -3.63665479826587 1.66575564782169 0.0
vertex -3.45587070632605 2.01418908277189 2.0
vertex -3.45587070632605 2.01418908277189 0.0
endloop
endfacet
facet normal -0.749129580745493 0.662423483318702 0.0
outer loop
vertex -2.99651832298197 2.64969393327481 2.0
vertex -3.24180469031322 2.34322477578724 0.0
vertex -3.24180469031322 2.34322477578724 2.0
endloop
endfacet
facet normal -0.810451172578306 0.585806193946812 0.0
outer loop
vertex -3.24180469031322 2.34322477578724 0.0
vertex -2.99651832298197 2.64969393327481 2.0
vertex -2.99651832298197 2.64969393327481 0.0
endloop
endfacet
facet normal -0.0613104694607054 0.998118743604441 0.0
outer loop
vertex -0.245241877842822 3.99247497441776 2.0
vertex 0.147270008660181 3.99728802371673 0.0
vertex -0.245241877842822 3.99247497441776 0.0
endloop
endfacet
facet normal 0.0368175021650457 0.999322005929184 0.0
outer loop
vertex 0.147270008660181 3.99728802371673 0.0
vertex -0.245241877842822 3.99247497441776 2.0
vertex 0.147270008660181 3.99728802371673 2.0
endloop
endfacet
facet normal 0.325320018847075 0.945603979125162 0.0
outer loop
vertex 1.3012800753883 3.78241591650065 2.0
vertex 1.66575564782169 3.63665479826587 0.0
vertex 1.3012800753883 3.78241591650065 0.0
endloop
endfacet
facet normal 0.416438911955421 0.909163699566467 0.0
outer loop
vertex 1.66575564782169 3.63665479826587 0.0
vertex 1.3012800753883 3.78241591650065 2.0
vertex 1.66575564782169 3.63665479826587 2.0
endloop
endfacet
facet normal -0.254855713081795 0.966979092591753 0.0
outer loop
vertex -1.01942285232718 3.86791637036701 2.0
vertex -0.635391950999349 3.94921220860632 0.0
vertex -1.01942285232718 3.86791637036701 0.0
endloop
endfacet
facet normal -0.158847987749837 0.987303052151581 0.0
outer loop
vertex -0.635391950999349 3.94921220860632 0.0
vertex -1.01942285232718 3.86791637036701 2.0
vertex -0.635391950999349 3.94921220860632 2.0
endloop
endfacet
facet normal 0.795843132971863 0.605502855238132 0.0
outer loop
vertex 3.18337253188745 2.42201142095253 0.0
vertex 3.4054423563695 2.0983237017783 2.0
vertex 3.4054423563695 2.0983237017783 0.0
endloop
endfacet
facet normal 0.851360589092374 0.524580925444575 0.0
outer loop
vertex 3.4054423563695 2.0983237017783 2.0
vertex 3.18337253188745 2.42201142095253 0.0
vertex 3.18337253188745 2.42201142095253 2.0
endloop
endfacet
facet normal 0.990901251051851 -0.134590901118452 0.0
outer loop
vertex 3.9636050042074 -0.53836360447381 0.0
vertex 3.89175030178066 -0.924272464476871 2.0
vertex 3.89175030178066 -0.924272464476871 0.0
endloop
endfacet
facet normal 0.972937575445165 -0.231068116119218 0.0
outer loop
vertex 3.89175030178066 -0.924272464476871 2.0
vertex 3.9636050042074 -0.53836360447381 0.0
vertex 3.9636050042074 -0.53836360447381 2.0
endloop
endfacet
facet normal -0.585806193946811 -0.810451172578306 0.0
outer loop
vertex -2.34322477578724 -3.24180469031322 2.0
vertex -2.64969393327481 -2.99651832298197 0.0
vertex -2.34322477578724 -3.24180469031322 0.0
endloop
endfacet
facet normal -0.662423483318702 -0.749129580745493 0.0
outer loop
vertex -2.64969393327481 -2.99651832298197 0.0
vertex -2.34322477578724 -3.24180469031322 2.0
vertex -2.64969393327481 -2.99651832298197 2.0
endloop
endfacet
facet normal 0.987303052151581 0.158847987749836 0.0
outer loop
vertex 3.94921220860632 0.635391950999348 0.0
vertex 3.99247497441776 0.245241877842822 2.0
vertex 3.99247497441776 0.245241877842822 0.0
endloop
endfacet
facet normal 0.998118743604441 0.0613104694607045 0.0
outer loop
vertex 3.99247497441776 0.245241877842822 2.0
vertex 3.94921220860632 0.635391950999348 0.0
vertex 3.94921220860632 0.635391950999348 2.0
endloop
endfacet
facet normal -0.680593461534215 0.732661272428722 0.0
outer loop
vertex -2.72237384613686 2.93064508971489 2.0
vertex -2.42201142095253 3.18337253188745 0.0
vertex -2.72237384613686 2.93064508971489 0.0
endloop
endfacet
facet normal -0.605502855238132 0.795843132971863 0.0
outer loop
vertex -2.42201142095253 3.18337253188745 0.0
vertex -2.72237384613686 2.93064508971489 2.0
vertex -2.42201142095253 3.18337253188745 2.0
endloop
endfacet
facet normal 0.999322005929184 -0.0368175021650441 0.0
outer loop
vertex 3.99728802371673 -0.147270008660182 0.0
vertex 3.9636050042074 -0.53836360447381 2.0
vertex 3.9636050042074 -0.53836360447381 0.0
endloop
endfacet
facet normal 0.990901251051851 -0.134590901118452 0.0
outer loop
vertex 3.9636050042074 -0.53836360447381 2.0
vertex 3.99728802371673 -0.147270008660182 0.0
vertex 3.99728802371673 -0.147270008660182 2.0
endloop
endfacet
facet normal 0.998118743604441 0.0613104694607045 0.0
outer loop
vertex 3.99247497441776 0.245241877842822 0.0
vertex 3.99728802371673 -0.147270008660182 2.0
vertex 3.99728802371673 -0.147270008660182 0.0
endloop
endfacet
facet normal 0.999322005929184 -0.0368175021650441 0.0
outer loop
vertex 3.99728802371673 -0.147270008660182 2.0
vertex 3.99247497441776 0.245241877842822 0.0
vertex 3.99247497441776 0.245241877842822 2.0
endloop
endfacet
facet normal -1.0 0.0 0.0
outer loop
vertex 1.2 1.2 2.0
vertex 1.2 -1.2 0.0
vertex 1.2 -1.2 2.0
endloop
endfacet
facet normal -1.0 0.0 0.0
outer loop
vertex 1.2 -1.2 0.0
vertex 1.2 1.2 2.0
vertex 1.2 1.2 0.0
endloop
endfacet
facet normal -0.0 -1.0 -0.0
outer loop
vertex 1.2 1.2 2.0
vertex -1.2 1.2 0.0
vertex 1.2 1.2 0.0
endloop
endfacet
facet normal -0.0 -1.0 -0.0
outer loop
vertex -1.2 1.2 0.0
vertex 1.2 1.2 2.0
vertex -1.2 1.2 2.0
endloop
endfacet
facet normal 1.0 0.0 0.0
outer loop
vertex -1.2 1.2 0.0
vertex -1.2 -1.2 2.0
vertex -1.2 -1.2 0.0
endloop
endfacet
facet normal 1.0 0.0 0.0
outer loop
vertex -1.2 -1.2 2.0
vertex -1.2 1.2 0.0
vertex -1.2 1.2 2.0
endloop
endfacet
facet normal 0.0 1.0 0.0
outer loop
vertex -1.2 -1.2 2.0
vertex 1.2 -1.2 0.0
vertex -1.2 -1.2 0.0
endloop
endfacet
facet normal 0.0 1.0 0.0
outer loop
vertex 1.2 -1.2 0.0
vertex -1.2 -1.2 2.0
vertex 1.2 -1.2 2.0
endloop
endfacet
facet normal 0.972937575445165 -0.231068116119218 0.0
outer loop
vertex 3.89175030178066 -0.924272464476871 0.0
vertex 3.78241591650065 -1.3012800753883 2.0
vertex 3.78241591650065 -1.3012800753883 0.0
endloop
endfacet
facet normal 0.945603979125161 -0.325320018847075 0.0
outer loop
vertex 3.78241591650065 -1.3012800753883 2.0
vertex 3.89175030178066 -0.924272464476871 0.0
vertex 3.89175030178066 -0.924272464476871 2.0
endloop
endfacet
facet normal 0.945603979125161 -0.325320018847075 0.0
outer loop
vertex 3.78241591650065 -1.3012800753883 0.0
vertex 3.63665479826587 -1.66575564782169 2.0
vertex 3.63665479826587 -1.66575564782169 0.0
endloop
endfacet
facet normal 0.909163699566467 -0.416438911955422 0.0
outer loop
vertex 3.63665479826587 -1.66575564782169 2.0
vertex 3.78241591650065 -1.3012800753883 0.0
vertex 3.78241591650065 -1.3012800753883 2.0
endloop
endfacet
facet normal 0.909163699566467 -0.416438911955422 0.0
outer loop
vertex 3.63665479826587 -1.66575564782169 0.0
vertex 3.45587070632605 -2.01418908277189 2.0
vertex 3.45587070632605 -2.01418908277189 0.0
endloop
endfacet
facet normal 0.863967676581514 -0.503547270692971 0.0
outer loop
vertex 3.45587070632605 -2.01418908277189 2.0
vertex 3.63665479826587 -1.66575564782169 0.0
vertex 3.63665479826587 -1.66575564782169 2.0
endloop
endfacet
facet normal 0.863967676581514 -0.503547270692971 0.0
outer loop
vertex 3.45587070632605 -2.01418908277189 0.0
vertex 3.24180469031322 -2.34322477578724 2.0
vertex 3.24180469031322 -2.34322477578724 0.0
endloop
endfacet
facet normal 0.810451172578306 -0.585806193946811 0.0
outer loop
vertex 3.24180469031322 -2.34322477578724 2.0
vertex 3.45587070632605 -2.01418908277189 0.0
vertex 3.45587070632605 -2.01418908277189 2.0
endloop
endfacet
facet normal 0.810451172578306 -0.585806193946811 0.0
outer loop
vertex 3.24180469031322 -2.34322477578724 0.0
vertex 2.99651832298197 -2.64969393327481 2.0
vertex 2.99651832298197 -2.64969393327481 0.0
endloop
endfacet
facet normal 0.749129580745492 -0.662423483318702 0.0
outer loop
vertex 2.99651832298197 -2.64969393327481 2.0
vertex 3.24180469031322 -2.34322477578724 0.0
vertex 3.24180469031322 -2.34322477578724 2.0
endloop
endfacet
facet normal 0.749129580745492 -0.662423483318702 0.0
outer loop
vertex 2.99651832298197 -2.64969393327481 0.0
vertex 2.72237384613686 -2.93064508971489 2.0
vertex 2.72237384613686 -2.93064508971489 0.0
endloop
endfacet
facet normal 0.680593461534216 -0.732661272428722 0.0
outer loop
vertex 2.72237384613686 -2.93064508971489 2.0
vertex 2.99651832298197 -2.64969393327481 0.0
vertex 2.99651832298197 -2.64969393327481 2.0
endloop
endfacet
facet normal 0.680593461534216 -0.732661272428722 0.0
outer loop
vertex 2.72237384613686 -2.93064508971489 2.0
vertex 2.42201142095253 -3.18337253188745 0.0
vertex 2.72237384613686 -2.93064508971489 0.0
endloop
endfacet
facet normal 0.605502855238132 -0.795843132971863 0.0
outer loop
vertex 2.42201142095253 -3.18337253188745 0.0
vertex 2.72237384613686 -2.93064508971489 2.0
vertex 2.42201142095253 -3.18337253188745 2.0
endloop
endfacet
facet normal 0.605502855238132 -0.795843132971863 0.0
outer loop
vertex 2.42201142095253 -3.18337253188745 2.0
vertex 2.0983237017783 -3.40544235636949 0.0
vertex 2.42201142095253 -3.18337253188745 0.0
endloop
endfacet
facet normal 0.524580925444575 -0.851360589092374 0.0
outer loop
vertex 2.0983237017783 -3.40544235636949 0.0
vertex 2.42201142095253 -3.18337253188745 2.0
vertex 2.0983237017783 -3.40544235636949 2.0
endloop
endfacet
facet normal 0.524580925444575 -0.851360589092374 0.0
outer loop
vertex 2.0983237017783 -3.40544235636949 2.0
vertex 1.75442797829553 -3.59471590935554 0.0
vertex 2.0983237017783 -3.40544235636949 0.0
endloop
endfacet
facet normal 0.438606994573882 -0.898678977338886 0.0
outer loop
vertex 1.75442797829553 -3.59471590935554 0.0
vertex 2.0983237017783 -3.40544235636949 2.0
vertex 1.75442797829553 -3.59471590935554 2.0
endloop
endfacet
facet normal 0.438606994573882 -0.898678977338886 0.0
outer loop
vertex 1.75442797829553 -3.59471590935554 2.0
vertex 1.39363615431389 -3.7493703830629 0.0
vertex 1.75442797829553 -3.59471590935554 0.0
endloop
endfacet
facet normal 0.348409038578471 -0.937342595765724 0.0
outer loop
vertex 1.39363615431389 -3.7493703830629 0.0
vertex 1.75442797829553 -3.59471590935554 2.0
vertex 1.39363615431389 -3.7493703830629 2.0
endloop
endfacet
facet normal 0.348409038578471 -0.937342595765724 0.0
outer loop
vertex 1.39363615431389 -3.7493703830629 2.0
vertex 1.01942285232718 -3.86791637036701 0.0
vertex 1.39363615431389 -3.7493703830629 0.0
endloop
endfacet
facet normal 0.254855713081795 -0.966979092591753 0.0
outer loop
vertex 1.01942285232718 -3.86791637036701 0.0
vertex 1.39363615431389 -3.7493703830629 2.0
vertex 1.01942285232718 -3.86791637036701 2.0
endloop
endfacet
facet normal 0.254855713081795 -0.966979092591753 0.0
outer loop
vertex 1.01942285232718 -3.86791637036701 2.0
vertex 0.635391950999349 -3.94921220860632 0.0
vertex 1.01942285232718 -3.86791637036701 0.0
endloop
endfacet
facet normal 0.158847987749836 -0.987303052151581 0.0
outer loop
vertex 0.635391950999349 -3.94921220860632 0.0
vertex 1.01942285232718 -3.86791637036701 2.0
vertex 0.635391950999349 -3.94921220860632 2.0
endloop
endfacet
facet normal 0.158847987749836 -0.987303052151581 0.0
outer loop
vertex 0.635391950999349 -3.94921220860632 2.0
vertex 0.245241877842822 -3.99247497441776 0.0
vertex 0.635391950999349 -3.94921220860632 0.0
endloop
endfacet
facet normal 0.0613104694607045 -0.998118743604441 0.0
outer loop
vertex 0.245241877842822 -3.99247497441776 0.0
vertex 0.635391950999349 -3.94921220860632 2.0
vertex 0.245241877842822 -3.99247497441776 2.0
endloop
endfacet
facet normal 0.0 0.0 1.0
outer loop
vertex -0.924272464476872 -3.89175030178066 2.0
vertex -1.2 -1.2 2.0
vertex -1.3012800753883 -3.78241591650065 2.0
endloop
endfacet
facet normal 0.0 0.0 1.0
outer loop
vertex -1.2 -1.2 2.0
vertex -0.924272464476872 -3.89175030178066 2.0
vertex 1.2 -1.2 2.0
endloop
endfacet
facet normal 0.0 0.0 1.0
outer loop
vertex 1.2 -1.2 2.0
vertex -0.924272464476872 -3.89175030178066 2.0
vertex -0.538363604473809 -3.9636050042074 2.0
endloop
endfacet
facet normal 0.0 0.0 1.0
outer loop
vertex 1.2 -1.2 2.0
vertex -0.538363604473809 -3.9636050042074 2.0
vertex -0.147270008660182 -3.99728802371673 2.0
endloop
endfacet
facet normal 0.0 0.0 1.0
outer loop
vertex 1.2 -1.2 2.0
vertex -0.147270008660182 -3.99728802371673 2.0
vertex 0.245241877842822 -3.99247497441776 2.0
endloop
endfacet
facet normal 0.0 0.0 1.0
outer loop
vertex 1.2 -1.2 2.0
vertex 0.245241877842822 -3.99247497441776 2.0
vertex 0.635391950999349 -3.94921220860632 2.0
endloop
endfacet
facet normal 0.0 0.0 1.0
outer loop
vertex 1.2 -1.2 2.0
vertex 0.635391950999349 -3.94921220860632 2.0
vertex 1.01942285232718 -3.86791637036701 2.0
endloop
endfacet
facet normal 0.0 0.0 1.0
outer loop
vertex 1.2 -1.2 2.0
vertex 1.01942285232718 -3.86791637036701 2.0
vertex 1.39363615431389 -3.7493703830629 2.0
endloop
endfacet
facet normal 0.0 0.0 1.0
outer loop
vertex 1.2 -1.2 2.0
vertex 1.39363615431389 -3.7493703830629 2.0
vertex 1.2 1.2 2.0
endloop
endfacet
facet normal 0.0 0.0 1.0
outer loop
vertex 1.2 1.2 2.0
vertex 1.39363615431389 -3.7493703830629 2.0
vertex 1.3012800753883 3.78241591650065 2.0
endloop
endfacet
facet normal 0.0 0.0 1.0
outer loop
vertex 1.3012800753883 3.78241591650065 2.0
vertex 1.39363615431389 -3.7493703830629 2.0
vertex 1.66575564782169 3.63665479826587 2.0
endloop
endfacet
facet normal 0.0 0.0 1.0
outer loop
vertex 1.66575564782169 3.63665479826587 2.0
vertex 1.39363615431389 -3.7493703830629 2.0
vertex 1.75442797829553 -3.59471590935554 2.0
endloop
endfacet
facet normal 0.0 0.0 1.0
outer loop
vertex 1.66575564782169 3.63665479826587 2.0
vertex 1.75442797829553 -3.59471590935554 2.0
vertex 2.01418908277189 3.45587070632605 2.0
endloop
endfacet
facet normal 0.0 0.0 1.0
outer loop
vertex 2.01418908277189 3.45587070632605 2.0
vertex 1.75442797829553 -3.59471590935554 2.0
vertex 2.0983237017783 -3.40544235636949 2.0
endloop
endfacet
facet normal 0.0 0.0 1.0
outer loop
vertex 2.01418908277189 3.45587070632605 2.0
vertex 2.0983237017783 -3.40544235636949 2.0
vertex 2.34322477578724 3.24180469031322 2.0
endloop
endfacet
facet normal 0.0 0.0 1.0
outer loop
vertex 2.34322477578724 3.24180469031322 2.0
vertex 2.0983237017783 -3.40544235636949 2.0
vertex 2.42201142095253 -3.18337253188745 2.0
endloop
endfacet
facet normal 0.0 0.0 1.0
outer loop
vertex 2.34322477578724 3.24180469031322 2.0
vertex 2.42201142095253 -3.18337253188745 2.0
vertex 2.64969393327481 2.99651832298197 2.0
endloop
endfacet
facet normal 0.0 0.0 1.0
outer loop
vertex 2.64969393327481 2.99651832298197 2.0
vertex 2.42201142095253 -3.18337253188745 2.0
vertex 2.72237384613686 -2.93064508971489 2.0
endloop
endfacet
facet normal 0.0 0.0 1.0
outer loop
vertex 2.64969393327481 2.99651832298197 2.0
vertex 2.72237384613686 -2.93064508971489 2.0
vertex 2.93064508971489 2.72237384613686 2.0
endloop
endfacet
facet normal 0.0 0.0 1.0
outer loop
vertex 2.93064508971489 2.72237384613686 2.0
vertex 2.72237384613686 -2.93064508971489 2.0
vertex 2.99651832298197 -2.64969393327481 2.0
endloop
endfacet
facet normal 0.0 0.0 1.0
outer loop
vertex 2.93064508971489 2.72237384613686 2.0
vertex 2.99651832298197 -2.64969393327481 2.0
vertex 3.18337253188745 2.42201142095253 2.0
endloop
endfacet
facet normal 0.0 0.0 1.0
outer loop
vertex 3.18337253188745 2.42201142095253 2.0
vertex 2.99651832298197 -2.64969393327481 2.0
vertex 3.24180469031322 -2.34322477578724 2.0
endloop
endfacet
facet normal 0.0 0.0 1.0
outer loop
vertex 3.18337253188745 2.42201142095253 2.0
vertex 3.24180469031322 -2.34322477578724 2.0
vertex 3.4054423563695 2.0983237017783 2.0
endloop
endfacet
facet normal 0.0 0.0 1.0
outer loop
vertex 3.4054423563695 2.0983237017783 2.0
vertex 3.24180469031322 -2.34322477578724 2.0
vertex 3.45587070632605 -2.01418908277189 2.0
endloop
endfacet
facet normal 0.0 0.0 1.0
outer loop
vertex 3.4054423563695 2.0983237017783 2.0
vertex 3.45587070632605 -2.01418908277189 2.0
vertex 3.59471590935554 1.75442797829553 2.0
endloop
endfacet
facet normal 0.0 0.0 1.0
outer loop
vertex 3.59471590935554 1.75442797829553 2.0
vertex 3.45587070632605 -2.01418908277189 2.0
vertex 3.63665479826587 -1.66575564782169 2.0
endloop
endfacet
facet normal 0.0 0.0 1.0
outer loop
vertex 3.59471590935554 1.75442797829553 2.0
vertex 3.63665479826587 -1.66575564782169 2.0
vertex 3.7493703830629 1.39363615431389 2.0
endloop
endfacet
facet normal 0.0 0.0 1.0
outer loop
vertex 3.7493703830629 1.39363615431389 2.0
vertex 3.63665479826587 -1.66575564782169 2.0
vertex 3.78241591650065 -1.3012800753883 2.0
endloop
endfacet
facet normal 0.0 0.0 1.0
outer loop
vertex 3.7493703830629 1.39363615431389 2.0
vertex 3.78241591650065 -1.3012800753883 2.0
vertex 3.86791637036701 1.01942285232718 2.0
endloop
endfacet
facet normal 0.0 0.0 1.0
outer loop
vertex 3.86791637036701 1.01942285232718 2.0
vertex 3.78241591650065 -1.3012800753883 2.0
vertex 3.89175030178066 -0.924272464476871 2.0
endloop
endfacet
facet normal 0.0 0.0 1.0
outer loop
vertex 3.86791637036701 1.01942285232718 2.0
vertex 3.89175030178066 -0.924272464476871 2.0
vertex 3.94921220860632 0.635391950999348 2.0
endloop
endfacet
facet normal 0.0 0.0 1.0
outer loop
vertex 3.94921220860632 0.635391950999348 2.0
vertex 3.89175030178066 -0.924272464476871 2.0
vertex 3.9636050042074 -0.53836360447381 2.0
endloop
endfacet
facet normal 0.0 0.0 1.0
outer loop
vertex 3.94921220860632 0.635391950999348 2.0
vertex 3.9636050042074 -0.53836360447381 2.0
vertex 3.99247497441776 0.245241877842822 2.0
endloop
endfacet
facet normal 0.0 0.0 1.0
outer loop
vertex 3.99247497441776 0.245241877842822 2.0
vertex 3.9636050042074 -0.53836360447381 2.0
vertex 3.99728802371673 -0.147270008660182 2.0
endloop
endfacet
facet normal 0.0 0.0 1.0
outer loop
vertex -3.99247497441776 -0.245241877842822 2.0
vertex -3.9636050042074 0.538363604473809 2.0
vertex -3.99728802371673 0.14727000866018 2.0
endloop
endfacet
facet normal 0.0 0.0 1.0
outer loop
vertex -3.9636050042074 0.538363604473809 2.0
vertex -3.99247497441776 -0.245241877842822 2.0
vertex -3.94921220860632 -0.635391950999349 2.0
endloop
endfacet
facet normal 0.0 0.0 1.0
outer loop
vertex -3.9636050042074 0.538363604473809 2.0
vertex -3.94921220860632 -0.635391950999349 2.0
vertex -3.89175030178066 0.924272464476872 2.0
endloop
endfacet
facet normal 0.0 0.0 1.0
outer loop
vertex -3.89175030178066 0.924272464476872 2.0
vertex -3.94921220860632 -0.635391950999349 2.0
vertex -3.86791637036701 -1.01942285232718 2.0
endloop
endfacet
facet normal 0.0 0.0 1.0
outer loop
vertex -3.89175030178066 0.924272464476872 2.0
vertex -3.86791637036701 -1.01942285232718 2.0
vertex -3.78241591650065 1.3012800753883 2.0
endloop
endfacet
facet normal 0.0 0.0 1.0
outer loop
vertex -3.78241591650065 1.3012800753883 2.0
vertex -3.86791637036701 -1.01942285232718 2.0
vertex -3.7493703830629 -1.39363615431389 2.0
endloop
endfacet
facet normal 0.0 0.0 1.0
outer loop
vertex -3.78241591650065 1.3012800753883 2.0
vertex -3.7493703830629 -1.39363615431389 2.0
vertex -3.63665479826587 1.66575564782169 2.0
endloop
endfacet
facet normal 0.0 0.0 1.0
outer loop
vertex -3.63665479826587 1.66575564782169 2.0
vertex -3.7493703830629 -1.39363615431389 2.0
vertex -3.59471590935554 -1.75442797829553 2.0
endloop
endfacet
facet normal 0.0 0.0 1.0
outer loop
vertex -3.63665479826587 1.66575564782169 2.0
vertex -3.59471590935554 -1.75442797829553 2.0
vertex -3.45587070632605 2.01418908277189 2.0
endloop
endfacet
facet normal 0.0 0.0 1.0
outer loop
vertex -3.45587070632605 2.01418908277189 2.0
vertex -3.59471590935554 -1.75442797829553 2.0
vertex -3.4054423563695 -2.0983237017783 2.0
endloop
endfacet
facet normal 0.0 0.0 1.0
outer loop
vertex -3.45587070632605 2.01418908277189 2.0
vertex -3.4054423563695 -2.0983237017783 2.0
vertex -3.24180469031322 2.34322477578724 2.0
endloop
endfacet
facet normal 0.0 0.0 1.0
outer loop
vertex -3.24180469031322 2.34322477578724 2.0
vertex -3.4054423563695 -2.0983237017783 2.0
vertex -3.18337253188745 -2.42201142095253 2.0
endloop
endfacet
facet normal 0.0 0.0 1.0
outer loop
vertex -3.24180469031322 2.34322477578724 2.0
vertex -3.18337253188745 -2.42201142095253 2.0
vertex -2.99651832298197 2.64969393327481 2.0
endloop
endfacet
facet normal 0.0 0.0 1.0
outer loop
vertex -2.99651832298197 2.64969393327481 2.0
vertex -3.18337253188745 -2.42201142095253 2.0
vertex -2.93064508971489 -2.72237384613686 2.0
endloop
endfacet
facet normal 0.0 0.0 1.0
outer loop
vertex -2.99651832298197 2.64969393327481 2.0
vertex -2.93064508971489 -2.72237384613686 2.0
vertex -2.72237384613686 2.93064508971489 2.0
endloop
endfacet
facet normal 0.0 0.0 1.0
outer loop
vertex -2.72237384613686 2.93064508971489 2.0
vertex -2.93064508971489 -2.72237384613686 2.0
vertex -2.64969393327481 -2.99651832298197 2.0
endloop
endfacet
facet normal 0.0 0.0 1.0
outer loop
vertex -2.72237384613686 2.93064508971489 2.0
vertex -2.64969393327481 -2.99651832298197 2.0
vertex -2.42201142095253 3.18337253188745 2.0
endloop
endfacet
facet normal 0.0 0.0 1.0
outer loop
vertex -2.42201142095253 3.18337253188745 2.0
vertex -2.64969393327481 -2.99651832298197 2.0
vertex -2.34322477578724 -3.24180469031322 2.0
endloop
endfacet
facet normal 0.0 0.0 1.0
outer loop
vertex -2.42201142095253 3.18337253188745 2.0
vertex -2.34322477578724 -3.24180469031322 2.0
vertex -2.0983237017783 3.4054423563695 2.0
endloop
endfacet
facet normal 0.0 0.0 1.0
outer loop
vertex -2.0983237017783 3.4054423563695 2.0
vertex -2.34322477578724 -3.24180469031322 2.0
vertex -2.01418908277189 -3.45587070632605 2.0
endloop
endfacet
facet normal 0.0 0.0 1.0
outer loop
vertex -2.0983237017783 3.4054423563695 2.0
vertex -2.01418908277189 -3.45587070632605 2.0
vertex -1.75442797829553 3.59471590935554 2.0
endloop
endfacet
facet normal 0.0 0.0 1.0
outer loop
vertex -1.75442797829553 3.59471590935554 2.0
vertex -2.01418908277189 -3.45587070632605 2.0
vertex -1.66575564782169 -3.63665479826587 2.0
endloop
endfacet
facet normal 0.0 0.0 1.0
outer loop
vertex -1.75442797829553 3.59471590935554 2.0
vertex -1.66575564782169 -3.63665479826587 2.0
vertex -1.39363615431389 3.7493703830629 2.0
endloop
endfacet
facet normal 0.0 0.0 1.0
outer loop
vertex -1.39363615431389 3.7493703830629 2.0
vertex -1.66575564782169 -3.63665479826587 2.0
vertex -1.3012800753883 -3.78241591650065 2.0
endloop
endfacet
facet normal 0.0 0.0 1.0
outer loop
vertex -1.39363615431389 3.7493703830629 2.0
vertex -1.3012800753883 -3.78241591650065 2.0
vertex -1.2 1.2 2.0
endloop
endfacet
facet normal 0.0 0.0 1.0
outer loop
vertex -1.39363615431389 3.7493703830629 2.0
vertex -1.2 1.2 2.0
vertex -1.01942285232718 3.86791637036701 2.0
endloop
endfacet
facet normal 0.0 0.0 1.0
outer loop
vertex -1.2 1.2 2.0
vertex -1.3012800753883 -3.78241591650065 2.0
vertex -1.2 -1.2 2.0
endloop
endfacet
facet normal 0.0 0.0 1.0
outer loop
vertex -1.01942285232718 3.86791637036701 2.0
vertex -1.2 1.2 2.0
vertex 1.2 1.2 2.0
endloop
endfacet
facet normal 0.0 0.0 1.0
outer loop
vertex -1.01942285232718 3.86791637036701 2.0
vertex 1.2 1.2 2.0
vertex -0.635391950999349 3.94921220860632 2.0
endloop
endfacet
facet normal 0.0 0.0 1.0
outer loop
vertex -0.635391950999349 3.94921220860632 2.0
vertex 1.2 1.2 2.0
vertex -0.245241877842822 3.99247497441776 2.0
endloop
endfacet
facet normal 0.0 0.0 1.0
outer loop
vertex -0.245241877842822 3.99247497441776 2.0
vertex 1.2 1.2 2.0
vertex 0.147270008660181 3.99728802371673 2.0
endloop
endfacet
facet normal 0.0 0.0 1.0
outer loop
vertex 0.147270008660181 3.99728802371673 2.0
vertex 1.2 1.2 2.0
vertex 0.538363604473809 3.9636050042074 2.0
endloop
endfacet
facet normal 0.0 0.0 1.0
outer loop
vertex 0.538363604473809 3.9636050042074 2.0
vertex 1.2 1.2 2.0
vertex 0.924272464476872 3.89175030178066 2.0
endloop
endfacet
facet normal 0.0 0.0 1.0
outer loop
vertex 0.924272464476872 3.89175030178066 2.0
vertex 1.2 1.2 2.0
vertex 1.3012800753883 3.78241591650065 2.0
endloop
endfacet
facet normal -0.990901251051851 0.134590901118452 0.0
outer loop
vertex -3.9636050042074 0.538363604473809 2.0
vertex -3.99728802371673 0.14727000866018 0.0
vertex -3.99728802371673 0.14727000866018 2.0
endloop
endfacet
facet normal -0.999322005929184 0.0368175021650465 0.0
outer loop
vertex -3.99728802371673 0.14727000866018 0.0
vertex -3.9636050042074 0.538363604473809 2.0
vertex -3.9636050042074 0.538363604473809 0.0
endloop
endfacet
facet normal -0.416438911955422 -0.909163699566467 0.0
outer loop
vertex -1.66575564782169 -3.63665479826587 2.0
vertex -2.01418908277189 -3.45587070632605 0.0
vertex -1.66575564782169 -3.63665479826587 0.0
endloop
endfacet
facet normal -0.503547270692972 -0.863967676581514 0.0
outer loop
vertex -2.01418908277189 -3.45587070632605 0.0
vertex -1.66575564782169 -3.63665479826587 2.0
vertex -2.01418908277189 -3.45587070632605 2.0
endloop
endfacet
facet normal -0.524580925444575 0.851360589092374 0.0
outer loop
vertex -2.0983237017783 3.4054423563695 2.0
vertex -1.75442797829553 3.59471590935554 0.0
vertex -2.0983237017783 3.4054423563695 0.0
endloop
endfacet
facet normal -0.438606994573883 0.898678977338886 0.0
outer loop
vertex -1.75442797829553 3.59471590935554 0.0
vertex -2.0983237017783 3.4054423563695 2.0
vertex -1.75442797829553 3.59471590935554 2.0
endloop
endfacet
facet normal 0.0613104694607045 -0.998118743604441 0.0
outer loop
vertex 0.245241877842822 -3.99247497441776 2.0
vertex -0.147270008660182 -3.99728802371673 0.0
vertex 0.245241877842822 -3.99247497441776 0.0
endloop
endfacet
facet normal -0.0368175021650441 -0.999322005929184 0.0
outer loop
vertex -0.147270008660182 -3.99728802371673 0.0
vertex 0.245241877842822 -3.99247497441776 2.0
vertex -0.147270008660182 -3.99728802371673 2.0
endloop
endfacet
facet normal -0.348409038578471 0.937342595765724 0.0
outer loop
vertex -1.39363615431389 3.7493703830629 2.0
vertex -1.01942285232718 3.86791637036701 0.0
vertex -1.39363615431389 3.7493703830629 0.0
endloop
endfacet
facet normal -0.254855713081795 0.966979092591753 0.0
outer loop
vertex -1.01942285232718 3.86791637036701 0.0
vertex -1.39363615431389 3.7493703830629 2.0
vertex -1.01942285232718 3.86791637036701 2.0
endloop
endfacet
facet normal -0.972937575445165 0.231068116119218 0.0
outer loop
vertex -3.89175030178066 0.924272464476872 2.0
vertex -3.9636050042074 0.538363604473809 0.0
vertex -3.9636050042074 0.538363604473809 2.0
endloop
endfacet
facet normal -0.990901251051851 0.134590901118452 0.0
outer loop
vertex -3.9636050042074 0.538363604473809 0.0
vertex -3.89175030178066 0.924272464476872 2.0
vertex -3.89175030178066 0.924272464476872 0.0
endloop
endfacet
endsolid Cap Pin
