solid Retainer
facet normal 0.998298816073278 8.76575442059861e-15 -0.058305006874978
outer loop
vertex 11.1309162577002 18.1500000000001 3.55029875222564
vertex 11.101580629002 18.9500000000002 6.40000000000002
vertex 11.101580629002 18.15 6.40000000000002
endloop
endfacet
facet normal 0.999947018088392 6.51763149777967e-15 0.010293736742928
outer loop
vertex 11.101580629002 18.9500000000002 6.40000000000002
vertex 11.1309162577002 18.1500000000001 3.55029875222564
vertex 11.1309162577002 18.9500000000002 3.55029875222566
endloop
endfacet
facet normal 0.998766843703327 -0.000412713438470668 -0.0496449552977164
outer loop
vertex 11.1026357991348 0.800000000000004 3.30264623277076
vertex 11.120989305582 8.45989944764369e-15 3.49792789026935
vertex 11.1026357991348 2.8199664825479e-15 3.30264623277077
endloop
endfacet
facet normal 0.998827423073415 -0.000827427586546352 -0.0484055191079556
outer loop
vertex 11.120989305582 8.45989944764369e-15 3.49792789026935
vertex 11.1026357991348 0.800000000000004 3.30264623277076
vertex 11.1223147438989 0.800000000000004 3.49792789026935
endloop
endfacet
facet normal 0.692613540623852 -9.20342475339733e-15 0.721308868200365
outer loop
vertex 11.7147729187523 18.1500000000001 1.75738226359926
vertex 11.5800419006589 18.9500000000002 1.90010485951855
vertex 11.5800419006589 18.1500000000001 1.90010485951853
endloop
endfacet
facet normal 0.759979049670562 -7.51014965588966e-15 0.649947570240731
outer loop
vertex 11.5800419006589 18.9500000000002 1.90010485951855
vertex 11.7147729187523 18.1500000000001 1.75738226359926
vertex 11.7147729187523 18.9500000000002 1.75738226359928
endloop
endfacet
facet normal -0.6698839618378 9.57471043369239e-16 0.742465809093249
outer loop
vertex 14.4397679236756 0.0 1.71506838181352
vertex 14.2877678241277 0.800000000000001 1.59089851284423
vertex 14.2877678241277 0.0 1.59089851284423
endloop
endfacet
facet normal -0.593883912063846 1.01556817068365e-15 0.804550743577894
outer loop
vertex 14.2877678241277 0.800000000000001 1.59089851284423
vertex 14.4397679236756 0.0 1.71506838181352
vertex 14.4397679236756 0.800000000000001 1.71506838181352
endloop
endfacet
facet normal -0.214950938836021 -1.91010956434711e-14 0.97662484808319
outer loop
vertex 13.529901877672 18.1500000000002 1.24675030383361
vertex 13.7192837321947 18.9500000000003 1.29829348766984
vertex 13.529901877672 18.9500000000003 1.24675030383363
endloop
endfacet
facet normal -0.309641866097366 -1.91751674491277e-14 0.950853256165083
outer loop
vertex 13.7192837321947 18.9500000000003 1.29829348766984
vertex 13.529901877672 18.1500000000002 1.24675030383361
vertex 13.7192837321947 18.1500000000002 1.29829348766983
endloop
endfacet
facet normal 0.99890371825234 -1.12870719784362e-16 0.0468119820307806
outer loop
vertex 11.1021925634953 0.800000000000004 3.10637603593846
vertex 11.1026357991348 2.8199664825479e-15 3.30264623277077
vertex 11.1021925634953 2.8199664825479e-15 3.10637603593846
endloop
endfacet
facet normal 0.998766843701966 -0.000412713438709072 -0.0496449553250878
outer loop
vertex 11.1026357991348 2.8199664825479e-15 3.30264623277077
vertex 11.1021925634953 0.800000000000004 3.10637603593846
vertex 11.1026357991348 0.800000000000004 3.30264623277076
endloop
endfacet
facet normal 0.175149376112826 -1.69988152574528e-14 0.98454187114987
outer loop
vertex 12.7497012477743 18.1500000000002 1.23091625770025
vertex 12.9443919895023 18.9500000000003 1.2060626521706
vertex 12.7497012477743 18.9500000000003 1.23091625770027
endloop
endfacet
facet normal 0.0778040052488217 -1.77868436341362e-14 0.996968673914703
outer loop
vertex 12.9443919895023 18.9500000000003 1.2060626521706
vertex 12.7497012477743 18.1500000000002 1.23091625770025
vertex 12.9443919895023 18.1500000000002 1.20606265217059
endloop
endfacet
facet normal 0.820025545022138 -5.7445477117303e-15 0.572326921882192
outer loop
vertex 11.4599489099557 18.1500000000001 2.05534615623561
vertex 11.3556505077928 18.9500000000002 2.22161109519959
vertex 11.3556505077928 18.1500000000001 2.22161109519957
endloop
endfacet
facet normal 0.872174746103587 -3.92362263281785e-15 0.489194452400212
outer loop
vertex 11.3556505077928 18.9500000000002 2.22161109519959
vertex 11.4599489099557 18.1500000000001 2.05534615623561
vertex 11.4599489099557 18.9500000000002 2.05534615623562
endloop
endfacet
facet normal 0.999794123351222 6.64996233870583e-15 0.0202906607177251
outer loop
vertex 11.1004117532975 18.1500000000001 3.15941867856455
vertex 11.1060626521706 18.9500000000002 3.35560801049765
vertex 11.1060626521706 18.1500000000001 3.35560801049764
endloop
endfacet
facet normal 0.996968673914703 9.90095206868681e-15 -0.0778040052488203
outer loop
vertex 11.1060626521706 18.9500000000002 3.35560801049765
vertex 11.1004117532975 18.1500000000001 3.15941867856455
vertex 11.1004117532975 18.9500000000002 3.15941867856456
endloop
endfacet
facet normal 0.996968673914703 9.90095206868681e-15 -0.0778040052488203
outer loop
vertex 11.1060626521706 18.9500000000002 3.35560801049765
vertex 11.1004117532975 18.9500000000002 3.15941867856456
vertex 11.101580629002 18.9500000000002 3.19999999999994
endloop
endfacet
facet normal -0.842571319228271 -1.47044091720511e-14 0.53858478628154
outer loop
vertex 14.7851426384565 18.9500000000002 2.12283042743693
vertex 14.6714471349034 18.1500000000002 1.96284443088028
vertex 14.7851426384565 18.1500000000002 2.12283042743691
endloop
endfacet
facet normal -0.785723567451693 -1.58400590921827e-14 0.61857778455986
outer loop
vertex 14.6714471349034 18.1500000000002 1.96284443088028
vertex 14.7851426384565 18.9500000000002 2.12283042743693
vertex 14.6714471349034 18.9500000000002 1.96284443088029
endloop
endfacet
facet normal 0.45340492209094 -1.36906341139865e-14 0.891304648604342
outer loop
vertex 12.1931901558181 18.1500000000002 1.41739070279131
vertex 12.3722829587115 18.9500000000002 1.33709154604466
vertex 12.1931901558181 18.9500000000002 1.41739070279132
endloop
endfacet
facet normal 0.363858520644255 -1.49408005942621e-14 0.931454226977673
outer loop
vertex 12.3722829587115 18.9500000000002 1.33709154604466
vertex 12.1931901558181 18.1500000000002 1.41739070279131
vertex 12.3722829587115 18.1500000000002 1.33709154604465
endloop
endfacet
facet normal 0.872174746103587 -3.92362263281785e-15 0.489194452400212
outer loop
vertex 11.3556505077928 18.1500000000001 2.22161109519957
vertex 11.2681511447983 18.9500000000002 2.39729845415856
vertex 11.2681511447983 18.1500000000001 2.39729845415854
endloop
endfacet
facet normal 0.915924427600845 -2.06491092308103e-15 0.401350772920726
outer loop
vertex 11.2681511447983 18.9500000000002 2.39729845415856
vertex 11.3556505077928 18.1500000000001 2.22161109519957
vertex 11.3556505077928 18.9500000000002 2.22161109519959
endloop
endfacet
facet normal -0.489194452400209 -1.87703741216963e-14 0.872174746103589
outer loop
vertex 14.0783889048004 18.1500000000002 1.45565050779282
vertex 14.2446538437644 18.9500000000003 1.55994890995573
vertex 14.0783889048004 18.9500000000003 1.45565050779283
endloop
endfacet
facet normal -0.572326921882194 -1.82954073696341e-14 0.820025545022137
outer loop
vertex 14.2446538437644 18.9500000000003 1.55994890995573
vertex 14.0783889048004 18.1500000000002 1.45565050779282
vertex 14.2446538437644 18.1500000000002 1.55994890995572
endloop
endfacet
facet normal 0.245170169660338 1.06388482134834e-15 0.969480060603992
outer loop
vertex 12.6096596606793 0.0 1.26103987879203
vertex 12.4219694571429 0.800000000000001 1.3184382595958
vertex 12.4219694571429 0.0 1.3184382595958
endloop
endfacet
facet normal 0.339015271428535 1.01556817068365e-15 0.940780870202109
outer loop
vertex 12.4219694571429 0.800000000000001 1.3184382595958
vertex 12.6096596606793 0.0 1.26103987879203
vertex 12.6096596606793 0.800000000000001 1.26103987879203
endloop
endfacet
facet normal 5.82437326369136e-31 1.33226762955018e-15 1.0
outer loop
vertex 26.2 6.75000000000001 1.00000000000001
vertex 25.4 13.1 0.999999999999998
vertex 25.4 6.75000000000001 1.00000000000001
endloop
endfacet
facet normal 5.82437326369136e-31 1.33226762955018e-15 1.0
outer loop
vertex 25.4 13.1 0.999999999999998
vertex 26.2 6.75000000000001 1.00000000000001
vertex 26.2 13.1 0.999999999999998
endloop
endfacet
facet normal 0.992991008836806 3.55815655190917e-15 0.11818991652955
outer loop
vertex 11.1140179823264 18.1500000000001 2.96362016694089
vertex 11.1004117532975 18.9500000000002 3.15941867856456
vertex 11.1004117532975 18.1500000000001 3.15941867856455
endloop
endfacet
facet normal 0.999794123351222 6.64996233870585e-15 0.0202906607177247
outer loop
vertex 11.1004117532975 18.9500000000002 3.15941867856456
vertex 11.1140179823264 18.1500000000001 2.96362016694089
vertex 11.1140179823264 18.9500000000002 2.96362016694091
endloop
endfacet
facet normal -0.999669120053692 -0.0114671460250204 -0.0230250944214941
outer loop
vertex 15.0973642008652 8.45989944764369e-15 3.48899251093991
vertex 15.0978074365047 0.800000000000004 3.29362396406157
vertex 15.0978074365047 2.8199664825479e-15 3.29362396406158
endloop
endfacet
facet normal -0.999708064923045 -0.00573112154808574 -0.0234720935074556
outer loop
vertex 15.0978074365047 0.800000000000004 3.29362396406157
vertex 15.0973642008652 8.45989944764369e-15 3.48899251093991
vertex 15.0790106944179 0.800000000000004 3.48899251093991
endloop
endfacet
facet normal 0.915924427600845 -2.06491092308103e-15 0.401350772920727
outer loop
vertex 11.2681511447983 18.1500000000001 2.39729845415854
vertex 11.1982934876698 18.9500000000002 2.58071626780528
vertex 11.1982934876698 18.1500000000001 2.58071626780527
endloop
endfacet
facet normal 0.950853256165084 -1.86312992359772e-16 0.309641866097363
outer loop
vertex 11.1982934876698 18.9500000000002 2.58071626780528
vertex 11.2681511447983 18.1500000000001 2.39729845415854
vertex 11.2681511447983 18.9500000000002 2.39729845415856
endloop
endfacet
facet normal -2.91318851502882e-16 -3.92752991998314e-16 -1.0
outer loop
vertex 26.2 18.9500000000002 0.0
vertex 0.8 18.15 1.55098156540134e-14
vertex 5.63993296509579e-15 18.9500000000002 1.40998324127395e-14
endloop
endfacet
facet normal -2.91318851502882e-16 -3.92752991998314e-16 -1.0
outer loop
vertex 0.8 18.15 1.55098156540134e-14
vertex 26.2 18.9500000000002 0.0
vertex 25.4 18.15 1.40998324127395e-15
endloop
endfacet
facet normal -2.91318851502882e-16 -3.92752991998314e-16 -1.0
outer loop
vertex 25.4 18.15 1.40998324127395e-15
vertex 26.2 18.9500000000002 0.0
vertex 25.4 0.8 1.55098156540134e-14
endloop
endfacet
facet normal -2.91318851502882e-16 -3.92752991998314e-16 -1.0
outer loop
vertex 0.0 0.0 1.55098156540134e-14
vertex 0.8 0.8 1.55098156540134e-14
vertex 26.2 0.0 1.55098156540134e-14
endloop
endfacet
facet normal -2.91318851502882e-16 -3.92752991998314e-16 -1.0
outer loop
vertex 0.8 0.8 1.55098156540134e-14
vertex 0.0 0.0 1.55098156540134e-14
vertex 5.63993296509579e-15 18.9500000000002 1.40998324127395e-14
endloop
endfacet
facet normal -2.91318851502882e-16 -3.92752991998314e-16 -1.0
outer loop
vertex 0.8 0.8 1.55098156540134e-14
vertex 5.63993296509579e-15 18.9500000000002 1.40998324127395e-14
vertex 0.8 18.15 1.55098156540134e-14
endloop
endfacet
facet normal -2.91318851502882e-16 -3.92752991998314e-16 -1.0
outer loop
vertex 26.2 0.0 1.55098156540134e-14
vertex 0.8 0.8 1.55098156540134e-14
vertex 25.4 0.8 1.55098156540134e-14
endloop
endfacet
facet normal -2.91318851502882e-16 -3.92752991998314e-16 -1.0
outer loop
vertex 26.2 0.0 1.55098156540134e-14
vertex 25.4 0.8 1.55098156540134e-14
vertex 26.2 18.9500000000002 0.0
endloop
endfacet
facet normal -0.739432662863434 8.90152946500271e-16 0.673230522993938
outer loop
vertex 14.5788653257268 0.0 1.85353895401214
vertex 14.4397679236756 0.800000000000001 1.71506838181352
vertex 14.4397679236756 0.0 1.71506838181352
endloop
endfacet
facet normal -0.6698839618378 9.57471043369239e-16 0.742465809093249
outer loop
vertex 14.4397679236756 0.800000000000001 1.71506838181352
vertex 14.5788653257268 0.0 1.85353895401214
vertex 14.5788653257268 0.800000000000001 1.85353895401214
endloop
endfacet
facet normal 0.339015271428535 1.01556817068365e-15 0.940780870202109
outer loop
vertex 12.4219694571429 0.0 1.3184382595958
vertex 12.2408090583834 0.800000000000001 1.39395710852593
vertex 12.2408090583834 0.0 1.39395710852593
endloop
endfacet
facet normal 0.429595470808271 9.5747104336924e-16 0.903021445737044
outer loop
vertex 12.2408090583834 0.800000000000001 1.39395710852593
vertex 12.4219694571429 0.0 1.3184382595958
vertex 12.4219694571429 0.800000000000001 1.3184382595958
endloop
endfacet
facet normal 0.270807962738472 -1.60470789973425e-14 0.962633391960531
outer loop
vertex 12.558384074523 18.1500000000002 1.27473321607893
vertex 12.7497012477743 18.9500000000003 1.23091625770027
vertex 12.558384074523 18.9500000000002 1.27473321607895
endloop
endfacet
facet normal 0.175149376112826 -1.69988152574528e-14 0.98454187114987
outer loop
vertex 12.7497012477743 18.9500000000003 1.23091625770027
vertex 12.558384074523 18.1500000000002 1.27473321607893
vertex 12.7497012477743 18.1500000000002 1.23091625770025
endloop
endfacet
facet normal 4.40619762898125e-15 -1.0 8.01126841632925e-16
outer loop
vertex 0.799999999999996 13.1 5.4
vertex 2.25597318603832e-14 13.1 0.999999999999998
vertex 0.799999999999996 13.1 0.999999999999998
endloop
endfacet
facet normal 4.40619762898125e-15 -1.0 8.01126841632925e-16
outer loop
vertex 2.25597318603832e-14 13.1 0.999999999999998
vertex 0.799999999999996 13.1 5.4
vertex 2.25597318603832e-14 13.1 5.4
endloop
endfacet
facet normal -0.931454226977672 -1.20205755617485e-14 0.363858520644257
outer loop
vertex 14.9629084539553 18.9500000000002 2.47228295871149
vertex 14.8826092972087 18.1500000000002 2.29319015581812
vertex 14.9629084539553 18.1500000000002 2.47228295871148
endloop
endfacet
facet normal -0.891304648604343 -1.3427147753345e-14 0.453404922090938
outer loop
vertex 14.8826092972087 18.1500000000002 2.29319015581812
vertex 14.9629084539553 18.9500000000002 2.47228295871149
vertex 14.8826092972087 18.9500000000002 2.29319015581813
endloop
endfacet
facet normal 0.97662484808319 1.69407923432693e-15 0.21495093883602
outer loop
vertex 11.1467503038336 18.1500000000001 2.77009812232795
vertex 11.1140179823264 18.9500000000002 2.96362016694091
vertex 11.1140179823264 18.1500000000001 2.96362016694089
endloop
endfacet
facet normal 0.992991008836806 3.55815655190917e-15 0.11818991652955
outer loop
vertex 11.1140179823264 18.9500000000002 2.96362016694091
vertex 11.1467503038336 18.1500000000001 2.77009812232795
vertex 11.1467503038336 18.9500000000002 2.77009812232797
endloop
endfacet
facet normal -0.94078087020211 5.42832496547584e-16 0.339015271428532
outer loop
vertex 14.9815617404042 0.800000000000003 2.52196945714295
vertex 14.9060428914741 2.8199664825479e-15 2.34080905838347
vertex 14.9815617404042 2.8199664825479e-15 2.52196945714295
endloop
endfacet
facet normal -0.903021445737044 6.39761697605628e-16 0.42959547080827
outer loop
vertex 14.9060428914741 2.8199664825479e-15 2.34080905838347
vertex 14.9815617404042 0.800000000000003 2.52196945714295
vertex 14.9060428914741 0.800000000000003 2.34080905838347
endloop
endfacet
facet normal -0.962633391960531 -1.04982386563774e-14 0.270807962738472
outer loop
vertex 15.025266783921 18.9500000000002 2.65838407452306
vertex 14.9629084539553 18.1500000000002 2.47228295871148
vertex 15.025266783921 18.1500000000002 2.65838407452305
endloop
endfacet
facet normal -0.931454226977672 -1.20205755617485e-14 0.363858520644257
outer loop
vertex 14.9629084539553 18.1500000000002 2.47228295871148
vertex 15.025266783921 18.9500000000002 2.65838407452306
vertex 14.9629084539553 18.9500000000002 2.47228295871149
endloop
endfacet
facet normal -0.593883912063846 1.01556817068365e-15 0.804550743577894
outer loop
vertex 14.2877678241277 0.0 1.59089851284423
vertex 14.1243288711335 0.800000000000001 1.4822251708206
vertex 14.1243288711335 0.0 1.4822251708206
endloop
endfacet
facet normal -0.512164435566746 1.06388482134834e-15 0.85888741458971
outer loop
vertex 14.1243288711335 0.800000000000001 1.4822251708206
vertex 14.2877678241277 0.0 1.59089851284423
vertex 14.2877678241277 0.800000000000001 1.59089851284423
endloop
endfacet
facet normal -0.785723567451693 -1.58400590921827e-14 0.61857778455986
outer loop
vertex 14.6714471349034 18.9500000000002 1.96284443088029
vertex 14.5426177364007 18.1500000000002 1.81477291875229
vertex 14.6714471349034 18.1500000000002 1.96284443088028
endloop
endfacet
facet normal -0.721308868200365 -1.68231605841994e-14 0.692613540623852
outer loop
vertex 14.5426177364007 18.1500000000002 1.81477291875229
vertex 14.6714471349034 18.9500000000002 1.96284443088029
vertex 14.5426177364007 18.9500000000003 1.8147729187523
endloop
endfacet
facet normal 0.759979049670562 -7.51014965588966e-15 0.649947570240731
outer loop
vertex 11.5800419006589 18.1500000000001 1.90010485951853
vertex 11.4599489099557 18.9500000000002 2.05534615623562
vertex 11.4599489099557 18.1500000000001 2.05534615623561
endloop
endfacet
facet normal 0.820025545022138 -5.7445477117303e-15 0.572326921882193
outer loop
vertex 11.4599489099557 18.9500000000002 2.05534615623562
vertex 11.5800419006589 18.1500000000001 1.90010485951853
vertex 11.5800419006589 18.9500000000002 1.90010485951855
endloop
endfacet
facet normal -0.0468119820307806 1.14599564974269e-15 0.99890371825234
outer loop
vertex 13.1936239640615 0.0 1.20219256349534
vertex 12.9973537672292 0.800000000000001 1.20263579913479
vertex 12.9973537672292 0.0 1.20263579913479
endloop
endfacet
facet normal 0.0513231163853744 1.12941410227651e-15 0.998682100432612
outer loop
vertex 12.9973537672292 0.800000000000001 1.20263579913479
vertex 13.1936239640615 0.0 1.20219256349534
vertex 13.1936239640615 0.800000000000001 1.20219256349534
endloop
endfacet
facet normal 0.904952530283406 3.34274600890405e-16 0.425512535577579
outer loop
vertex 11.2900949394332 0.800000000000003 2.34897492884486
vertex 11.2153950831738 2.8199664825479e-15 2.53047456547604
vertex 11.2900949394332 2.8199664825479e-15 2.34897492884486
endloop
endfacet
facet normal 0.942302458413099 2.24654432835791e-16 0.334762717261987
outer loop
vertex 11.2153950831738 2.8199664825479e-15 2.53047456547604
vertex 11.2900949394332 0.800000000000003 2.34897492884486
vertex 11.2153950831738 0.800000000000003 2.53047456547604
endloop
endfacet
facet normal -0.572326921882194 -1.82954073696341e-14 0.820025545022137
outer loop
vertex 14.2446538437644 18.1500000000002 1.55994890995572
vertex 14.3998951404814 18.9500000000003 1.68004190065888
vertex 14.2446538437644 18.9500000000003 1.55994890995573
endloop
endfacet
facet normal -0.649947570240732 -1.76442458433153e-14 0.759979049670561
outer loop
vertex 14.3998951404814 18.9500000000003 1.68004190065888
vertex 14.2446538437644 18.1500000000002 1.55994890995572
vertex 14.3998951404814 18.1500000000002 1.68004190065887
endloop
endfacet
facet normal -0.984541871149871 -8.87479797382441e-15 0.175149376112824
outer loop
vertex 15.0690837422997 18.9500000000002 2.84970124777436
vertex 15.025266783921 18.1500000000002 2.65838407452305
vertex 15.0690837422997 18.1500000000001 2.84970124777434
endloop
endfacet
facet normal -0.962633391960532 -1.04982386563774e-14 0.270807962738472
outer loop
vertex 15.025266783921 18.1500000000002 2.65838407452305
vertex 15.0690837422997 18.9500000000002 2.84970124777436
vertex 15.025266783921 18.9500000000002 2.65838407452306
endloop
endfacet
facet normal 1.0 3.91659348197829e-17 -8.65105198748279e-17
outer loop
vertex 0.8 0.8 1.55098156540134e-14
vertex 0.799999999999996 6.75000000000001 1.0
vertex 0.8 0.800000000000008 6.40000000000002
endloop
endfacet
facet normal 1.0 3.91659348197829e-17 -8.65105198748279e-17
outer loop
vertex 0.799999999999996 6.75000000000001 1.0
vertex 0.8 0.8 1.55098156540134e-14
vertex 0.8 18.15 1.55098156540134e-14
endloop
endfacet
facet normal 1.0 3.91659348197829e-17 -8.65105198748279e-17
outer loop
vertex 0.799999999999996 6.75000000000001 1.0
vertex 0.8 18.15 1.55098156540134e-14
vertex 0.799999999999996 13.1 0.999999999999998
endloop
endfacet
facet normal 1.0 3.91659348197829e-17 -8.65105198748279e-17
outer loop
vertex 0.799999999999996 13.1 0.999999999999998
vertex 0.8 18.15 1.55098156540134e-14
vertex 0.799999999999996 13.1 5.4
endloop
endfacet
facet normal 1.0 3.91659348197829e-17 -8.65105198748279e-17
outer loop
vertex 0.8 0.800000000000008 6.40000000000002
vertex 0.799999999999996 6.75000000000001 5.40000000000001
vertex 0.8 18.15 6.40000000000002
endloop
endfacet
facet normal 1.0 3.91659348197829e-17 -8.65105198748279e-17
outer loop
vertex 0.799999999999996 6.75000000000001 5.40000000000001
vertex 0.8 0.800000000000008 6.40000000000002
vertex 0.799999999999996 6.75000000000001 1.0
endloop
endfacet
facet normal 1.0 3.91659348197829e-17 -8.65105198748279e-17
outer loop
vertex 0.8 18.15 6.40000000000002
vertex 0.799999999999996 6.75000000000001 5.40000000000001
vertex 0.799999999999996 13.1 5.4
endloop
endfacet
facet normal 1.0 3.91659348197829e-17 -8.65105198748279e-17
outer loop
vertex 0.8 18.15 6.40000000000002
vertex 0.799999999999996 13.1 5.4
vertex 0.8 18.15 1.55098156540134e-14
endloop
endfacet
facet normal 0.99882766341995 -0.000827427785649169 -0.0484005594007194
outer loop
vertex 11.1223147438989 0.800000000000004 3.49792789026935
vertex 11.120989305582 8.45989944764369e-15 6.40000000000002
vertex 11.120989305582 8.45989944764369e-15 3.49792789026935
endloop
endfacet
facet normal 0.999999630803496 -0.00082839864219697 0.000228360595015806
outer loop
vertex 11.120989305582 8.45989944764369e-15 6.40000000000002
vertex 11.1223147438989 0.800000000000004 3.49792789026935
vertex 11.120989305582 0.800000000000007 6.40000000000001
endloop
endfacet
facet normal 0.618577784559858 -1.08080658394261e-14 0.785723567451694
outer loop
vertex 11.8628444308803 18.1500000000002 1.62855286509661
vertex 12.0228304274369 18.9500000000002 1.51485736154347
vertex 11.8628444308803 18.9500000000002 1.62855286509662
endloop
endfacet
facet normal 0.538584786281541 -1.23086193431313e-14 0.84257131922827
outer loop
vertex 12.0228304274369 18.9500000000002 1.51485736154347
vertex 11.8628444308803 18.1500000000002 1.62855286509661
vertex 12.0228304274369 18.1500000000002 1.51485736154346
endloop
endfacet
facet normal -0.999989461140614 -6.65005976850279e-15 0.00459103558089981
outer loop
vertex 15.0995882467024 18.9500000000002 6.40000000000002
vertex 15.0859820176736 18.1500000000001 3.4363798330591
vertex 15.0995882467024 18.1500000000001 6.40000000000002
endloop
endfacet
facet normal -0.999475353999079 -6.23514161803171e-15 -0.0323885280372041
outer loop
vertex 15.0859820176736 18.1500000000001 3.4363798330591
vertex 15.0995882467024 18.9500000000002 6.40000000000002
vertex 15.0859820176736 18.9500000000002 3.43637983305911
endloop
endfacet
facet normal 0.673230522993938 7.30529643786413e-16 0.739432662863434
outer loop
vertex 11.7535389540121 0.800000000000003 1.72113467427315
vertex 11.6150683818135 2.8199664825479e-15 1.86023207632442
vertex 11.7535389540121 2.8199664825479e-15 1.72113467427315
endloop
endfacet
facet normal 0.74246580909325 6.39761697605628e-16 0.669883961837799
outer loop
vertex 11.6150683818135 2.8199664825479e-15 1.86023207632442
vertex 11.7535389540121 0.800000000000003 1.72113467427315
vertex 11.6150683818135 0.800000000000003 1.86023207632441
endloop
endfacet
facet normal 0.996968673914703 9.90095206868682e-15 -0.0778040052488207
outer loop
vertex 11.1060626521706 18.1500000000001 3.35560801049764
vertex 11.1309162577002 18.9500000000002 3.55029875222566
vertex 11.1309162577002 18.1500000000001 3.55029875222564
endloop
endfacet
facet normal 0.998298816073278 8.7657544205986e-15 -0.0583050068749778
outer loop
vertex 11.1309162577002 18.9500000000002 3.55029875222566
vertex 11.1060626521706 18.1500000000001 3.35560801049764
vertex 11.1060626521706 18.9500000000002 3.35560801049765
endloop
endfacet
facet normal -0.998682100432612 2.2465443283579e-16 0.0513231163853735
outer loop
vertex 15.0973642008652 0.800000000000003 3.09735376722927
vertex 15.0776852561011 2.8199664825479e-15 2.90207210973068
vertex 15.0973642008652 2.8199664825479e-15 3.09735376722927
endloop
endfacet
facet normal -0.988842628050549 3.34274600890404e-16 0.148963945134667
outer loop
vertex 15.0776852561011 2.8199664825479e-15 2.90207210973068
vertex 15.0973642008652 0.800000000000003 3.09735376722927
vertex 15.0776852561011 0.800000000000003 2.90207210973068
endloop
endfacet
facet normal -0.969480060603992 4.4067552180536e-16 0.245170169660339
outer loop
vertex 15.038960121208 0.800000000000003 2.70965966067934
vertex 14.9815617404042 2.8199664825479e-15 2.52196945714295
vertex 15.038960121208 2.8199664825479e-15 2.70965966067934
endloop
endfacet
facet normal -0.94078087020211 5.42832496547584e-16 0.339015271428532
outer loop
vertex 14.9815617404042 2.8199664825479e-15 2.52196945714295
vertex 15.038960121208 0.800000000000003 2.70965966067934
vertex 14.9815617404042 0.800000000000003 2.52196945714295
endloop
endfacet
facet normal -1.0 -2.04354036511778e-16 -4.25277287227204e-16
outer loop
vertex 5.63993296509579e-15 18.9500000000002 6.40000000000003
vertex 2.53796983429311e-14 6.75000000000001 5.40000000000001
vertex 0.0 8.45989944764369e-15 6.40000000000002
endloop
endfacet
facet normal -1.0 -2.04354036511778e-16 -4.25277287227204e-16
outer loop
vertex 2.53796983429311e-14 6.75000000000001 5.40000000000001
vertex 5.63993296509579e-15 18.9500000000002 6.40000000000003
vertex 2.25597318603832e-14 13.1 5.4
endloop
endfacet
facet normal -1.0 -2.04354036511778e-16 -4.25277287227204e-16
outer loop
vertex 2.25597318603832e-14 13.1 5.4
vertex 5.63993296509579e-15 18.9500000000002 6.40000000000003
vertex 5.63993296509579e-15 18.9500000000002 1.40998324127395e-14
endloop
endfacet
facet normal -1.0 -2.04354036511778e-16 -4.25277287227204e-16
outer loop
vertex 0.0 0.0 1.55098156540134e-14
vertex 2.53796983429311e-14 6.75000000000001 1.0
vertex 5.63993296509579e-15 18.9500000000002 1.40998324127395e-14
endloop
endfacet
facet normal -1.0 -2.04354036511778e-16 -4.25277287227204e-16
outer loop
vertex 2.53796983429311e-14 6.75000000000001 1.0
vertex 0.0 0.0 1.55098156540134e-14
vertex 0.0 8.45989944764369e-15 6.40000000000002
endloop
endfacet
facet normal -1.0 -2.04354036511778e-16 -4.25277287227204e-16
outer loop
vertex 2.53796983429311e-14 6.75000000000001 1.0
vertex 0.0 8.45989944764369e-15 6.40000000000002
vertex 2.53796983429311e-14 6.75000000000001 5.40000000000001
endloop
endfacet
facet normal -1.0 -2.04354036511778e-16 -4.25277287227204e-16
outer loop
vertex 5.63993296509579e-15 18.9500000000002 1.40998324127395e-14
vertex 2.53796983429311e-14 6.75000000000001 1.0
vertex 2.25597318603832e-14 13.1 0.999999999999998
endloop
endfacet
facet normal -1.0 -2.04354036511778e-16 -4.25277287227204e-16
outer loop
vertex 5.63993296509579e-15 18.9500000000002 1.40998324127395e-14
vertex 2.25597318603832e-14 13.1 0.999999999999998
vertex 2.25597318603832e-14 13.1 5.4
endloop
endfacet
facet normal -0.144496255469947 1.15154063263691e-15 0.98950534720898
outer loop
vertex 13.3889925109399 0.0 1.22098930558206
vertex 13.1936239640615 0.800000000000001 1.20219256349534
vertex 13.1936239640615 0.0 1.20219256349534
endloop
endfacet
facet normal -0.0468119820307806 1.14599564974269e-15 0.99890371825234
outer loop
vertex 13.1936239640615 0.800000000000001 1.20219256349534
vertex 13.3889925109399 0.0 1.22098930558206
vertex 13.3889925109399 0.800000000000001 1.22098930558205
endloop
endfacet
facet normal -0.240788950979245 1.14599564974269e-15 0.970577498753353
outer loop
vertex 13.5815779019585 0.0 1.25884500249331
vertex 13.3889925109399 0.800000000000001 1.22098930558205
vertex 13.3889925109399 0.0 1.22098930558206
endloop
endfacet
facet normal -0.144496255469947 1.15154063263691e-15 0.98950534720898
outer loop
vertex 13.3889925109399 0.800000000000001 1.22098930558205
vertex 13.5815779019585 0.0 1.25884500249331
vertex 13.5815779019585 0.800000000000001 1.25884500249331
endloop
endfacet
facet normal 0.692613540623852 -9.20342475339733e-15 0.721308868200365
outer loop
vertex 11.7147729187523 18.1500000000001 1.75738226359926
vertex 11.8628444308803 18.9500000000002 1.62855286509662
vertex 11.7147729187523 18.9500000000002 1.75738226359928
endloop
endfacet
facet normal 0.618577784559858 -1.08080658394261e-14 0.785723567451694
outer loop
vertex 11.8628444308803 18.9500000000002 1.62855286509662
vertex 11.7147729187523 18.1500000000001 1.75738226359926
vertex 11.8628444308803 18.1500000000002 1.62855286509661
endloop
endfacet
facet normal -0.999794123351222 -6.6902199195317e-15 -0.020290660717731
outer loop
vertex 15.0995882467024 18.9500000000002 3.24058132143545
vertex 15.0939373478294 18.1500000000001 3.04439198950235
vertex 15.0995882467024 18.1500000000001 3.24058132143544
endloop
endfacet
facet normal -0.996968673914703 -7.80071767398024e-15 0.0778040052488159
outer loop
vertex 15.0939373478294 18.1500000000001 3.04439198950235
vertex 15.0995882467024 18.9500000000002 3.24058132143545
vertex 15.0939373478294 18.9500000000002 3.04439198950236
endloop
endfacet
facet normal -0.996968673914703 -7.80071767398024e-15 0.077804005248816
outer loop
vertex 15.0939373478294 18.9500000000002 3.04439198950236
vertex 15.0995882467024 18.9500000000002 3.24058132143545
vertex 15.098419370998 18.9500000000002 3.19999999999994
endloop
endfacet
facet normal 0.538584786281541 -1.23086193431313e-14 0.84257131922827
outer loop
vertex 12.0228304274369 18.1500000000002 1.51485736154346
vertex 12.1931901558181 18.9500000000002 1.41739070279132
vertex 12.0228304274369 18.9500000000002 1.51485736154347
endloop
endfacet
facet normal 0.45340492209094 -1.36906341139865e-14 0.891304648604342
outer loop
vertex 12.1931901558181 18.9500000000002 1.41739070279132
vertex 12.0228304274369 18.1500000000002 1.51485736154346
vertex 12.1931901558181 18.1500000000002 1.41739070279131
endloop
endfacet
facet normal -0.856565431107793 7.30529643786412e-16 0.516038430963354
outer loop
vertex 14.8131308622156 0.800000000000003 2.16792313807331
vertex 14.7037204462613 2.8199664825479e-15 2.0049766821341
vertex 14.8131308622156 2.8199664825479e-15 2.16792313807331
endloop
endfacet
facet normal -0.801860223130681 8.14262190149407e-16 0.597511658932957
outer loop
vertex 14.7037204462613 2.8199664825479e-15 2.0049766821341
vertex 14.8131308622156 0.800000000000003 2.16792313807331
vertex 14.7037204462613 0.800000000000003 2.0049766821341
endloop
endfacet
facet normal -0.512164435566746 1.06388482134834e-15 0.85888741458971
outer loop
vertex 14.1243288711335 0.0 1.4822251708206
vertex 13.9510250711551 0.800000000000001 1.3900949394332
vertex 13.9510250711551 0.0 1.3900949394332
endloop
endfacet
facet normal -0.425512535577581 1.10195567960484e-15 0.904952530283406
outer loop
vertex 13.9510250711551 0.800000000000001 1.3900949394332
vertex 14.1243288711335 0.0 1.4822251708206
vertex 14.1243288711335 0.800000000000001 1.4822251708206
endloop
endfacet
facet normal 6.90102622558328e-16 -1.0 -1.5618054979272e-14
outer loop
vertex 25.4 18.15 1.40998324127395e-15
vertex 13.3363798330591 18.1500000000002 1.21401798232638
vertex 0.8 18.15 1.55098156540134e-14
endloop
endfacet
facet normal 6.90102622558328e-16 -1.0 -1.5618054979272e-14
outer loop
vertex 13.3363798330591 18.1500000000002 1.21401798232638
vertex 25.4 18.15 1.40998324127395e-15
vertex 13.529901877672 18.1500000000002 1.24675030383361
endloop
endfacet
facet normal 6.90102622558328e-16 -1.0 -1.5618054979272e-14
outer loop
vertex 13.529901877672 18.1500000000002 1.24675030383361
vertex 25.4 18.15 1.40998324127395e-15
vertex 13.7192837321947 18.1500000000002 1.29829348766983
endloop
endfacet
facet normal 6.90102622558328e-16 -1.0 -1.5618054979272e-14
outer loop
vertex 13.7192837321947 18.1500000000002 1.29829348766983
vertex 25.4 18.15 1.40998324127395e-15
vertex 13.9027015458414 18.1500000000002 1.3681511447983
endloop
endfacet
facet normal 6.90102622558328e-16 -1.0 -1.5618054979272e-14
outer loop
vertex 13.9027015458414 18.1500000000002 1.3681511447983
vertex 25.4 18.15 1.40998324127395e-15
vertex 25.4 18.15 6.4
endloop
endfacet
facet normal 6.90102622558328e-16 -1.0 -1.5618054979272e-14
outer loop
vertex 0.8 18.15 1.55098156540134e-14
vertex 13.3363798330591 18.1500000000002 1.21401798232638
vertex 13.1405813214354 18.1500000000002 1.20041175329755
endloop
endfacet
facet normal 6.90102622558328e-16 -1.0 -1.5618054979272e-14
outer loop
vertex 13.9027015458414 18.1500000000002 1.3681511447983
vertex 25.4 18.15 6.4
vertex 14.0783889048004 18.1500000000002 1.45565050779282
endloop
endfacet
facet normal 6.90102622558328e-16 -1.0 -1.5618054979272e-14
outer loop
vertex 14.0783889048004 18.1500000000002 1.45565050779282
vertex 25.4 18.15 6.4
vertex 14.2446538437644 18.1500000000002 1.55994890995572
endloop
endfacet
facet normal 6.90102622558328e-16 -1.0 -1.5618054979272e-14
outer loop
vertex 14.2446538437644 18.1500000000002 1.55994890995572
vertex 25.4 18.15 6.4
vertex 14.3998951404814 18.1500000000002 1.68004190065887
endloop
endfacet
facet normal 6.90102622558328e-16 -1.0 -1.5618054979272e-14
outer loop
vertex 14.3998951404814 18.1500000000002 1.68004190065887
vertex 25.4 18.15 6.4
vertex 14.5426177364007 18.1500000000002 1.81477291875229
endloop
endfacet
facet normal 6.90102622558328e-16 -1.0 -1.5618054979272e-14
outer loop
vertex 14.5426177364007 18.1500000000002 1.81477291875229
vertex 25.4 18.15 6.4
vertex 14.6714471349034 18.1500000000002 1.96284443088028
endloop
endfacet
facet normal 6.90102622558328e-16 -1.0 -1.5618054979272e-14
outer loop
vertex 14.6714471349034 18.1500000000002 1.96284443088028
vertex 25.4 18.15 6.4
vertex 14.7851426384565 18.1500000000002 2.12283042743691
endloop
endfacet
facet normal 6.90102622558328e-16 -1.0 -1.5618054979272e-14
outer loop
vertex 14.7851426384565 18.1500000000002 2.12283042743691
vertex 25.4 18.15 6.4
vertex 14.8826092972087 18.1500000000002 2.29319015581812
endloop
endfacet
facet normal 6.90102622558328e-16 -1.0 -1.5618054979272e-14
outer loop
vertex 14.8826092972087 18.1500000000002 2.29319015581812
vertex 25.4 18.15 6.4
vertex 14.9629084539553 18.1500000000002 2.47228295871148
endloop
endfacet
facet normal 6.90102622558328e-16 -1.0 -1.5618054979272e-14
outer loop
vertex 14.9629084539553 18.1500000000002 2.47228295871148
vertex 25.4 18.15 6.4
vertex 15.025266783921 18.1500000000002 2.65838407452305
endloop
endfacet
facet normal 6.90102622558328e-16 -1.0 -1.5618054979272e-14
outer loop
vertex 15.025266783921 18.1500000000002 2.65838407452305
vertex 25.4 18.15 6.4
vertex 15.0690837422997 18.1500000000001 2.84970124777434
endloop
endfacet
facet normal 6.90102622558328e-16 -1.0 -1.5618054979272e-14
outer loop
vertex 15.0690837422997 18.1500000000001 2.84970124777434
vertex 25.4 18.15 6.4
vertex 15.0939373478294 18.1500000000001 3.04439198950235
endloop
endfacet
facet normal 6.90102622558328e-16 -1.0 -1.5618054979272e-14
outer loop
vertex 15.0939373478294 18.1500000000001 3.04439198950235
vertex 25.4 18.15 6.4
vertex 15.0995882467024 18.1500000000001 3.24058132143544
endloop
endfacet
facet normal 6.90102622558328e-16 -1.0 -1.5618054979272e-14
outer loop
vertex 15.0995882467024 18.1500000000001 3.24058132143544
vertex 25.4 18.15 6.4
vertex 15.0859820176736 18.1500000000001 3.4363798330591
endloop
endfacet
facet normal 6.90102622558328e-16 -1.0 -1.5618054979272e-14
outer loop
vertex 15.0859820176736 18.1500000000001 3.4363798330591
vertex 25.4 18.15 6.4
vertex 15.0995882467024 18.1500000000001 6.40000000000002
endloop
endfacet
facet normal 6.90102622558328e-16 -1.0 -1.5618054979272e-14
outer loop
vertex 0.8 18.15 1.55098156540134e-14
vertex 12.3722829587115 18.1500000000002 1.33709154604465
vertex 0.8 18.15 6.40000000000002
endloop
endfacet
facet normal 6.90102622558328e-16 -1.0 -1.5618054979272e-14
outer loop
vertex 12.3722829587115 18.1500000000002 1.33709154604465
vertex 0.8 18.15 1.55098156540134e-14
vertex 12.558384074523 18.1500000000002 1.27473321607893
endloop
endfacet
facet normal 6.90102622558328e-16 -1.0 -1.5618054979272e-14
outer loop
vertex 12.558384074523 18.1500000000002 1.27473321607893
vertex 0.8 18.15 1.55098156540134e-14
vertex 12.7497012477743 18.1500000000002 1.23091625770025
endloop
endfacet
facet normal 6.90102622558328e-16 -1.0 -1.5618054979272e-14
outer loop
vertex 12.7497012477743 18.1500000000002 1.23091625770025
vertex 0.8 18.15 1.55098156540134e-14
vertex 12.9443919895023 18.1500000000002 1.20606265217059
endloop
endfacet
facet normal 6.90102622558328e-16 -1.0 -1.5618054979272e-14
outer loop
vertex 12.9443919895023 18.1500000000002 1.20606265217059
vertex 0.8 18.15 1.55098156540134e-14
vertex 13.1405813214354 18.1500000000002 1.20041175329755
endloop
endfacet
facet normal 6.90102622558328e-16 -1.0 -1.5618054979272e-14
outer loop
vertex 0.8 18.15 6.40000000000002
vertex 12.3722829587115 18.1500000000002 1.33709154604465
vertex 12.1931901558181 18.1500000000002 1.41739070279131
endloop
endfacet
facet normal 6.90102622558328e-16 -1.0 -1.5618054979272e-14
outer loop
vertex 0.8 18.15 6.40000000000002
vertex 12.1931901558181 18.1500000000002 1.41739070279131
vertex 12.0228304274369 18.1500000000002 1.51485736154346
endloop
endfacet
facet normal 6.90102622558328e-16 -1.0 -1.5618054979272e-14
outer loop
vertex 0.8 18.15 6.40000000000002
vertex 12.0228304274369 18.1500000000002 1.51485736154346
vertex 11.8628444308803 18.1500000000002 1.62855286509661
endloop
endfacet
facet normal 6.90102622558328e-16 -1.0 -1.5618054979272e-14
outer loop
vertex 0.8 18.15 6.40000000000002
vertex 11.8628444308803 18.1500000000002 1.62855286509661
vertex 11.7147729187523 18.1500000000001 1.75738226359926
endloop
endfacet
facet normal 6.90102622558328e-16 -1.0 -1.5618054979272e-14
outer loop
vertex 0.8 18.15 6.40000000000002
vertex 11.7147729187523 18.1500000000001 1.75738226359926
vertex 11.5800419006589 18.1500000000001 1.90010485951853
endloop
endfacet
facet normal 6.90102622558328e-16 -1.0 -1.5618054979272e-14
outer loop
vertex 0.8 18.15 6.40000000000002
vertex 11.5800419006589 18.1500000000001 1.90010485951853
vertex 11.4599489099557 18.1500000000001 2.05534615623561
endloop
endfacet
facet normal 6.90102622558328e-16 -1.0 -1.5618054979272e-14
outer loop
vertex 0.8 18.15 6.40000000000002
vertex 11.4599489099557 18.1500000000001 2.05534615623561
vertex 11.3556505077928 18.1500000000001 2.22161109519957
endloop
endfacet
facet normal 6.90102622558328e-16 -1.0 -1.5618054979272e-14
outer loop
vertex 0.8 18.15 6.40000000000002
vertex 11.3556505077928 18.1500000000001 2.22161109519957
vertex 11.2681511447983 18.1500000000001 2.39729845415854
endloop
endfacet
facet normal 6.90102622558328e-16 -1.0 -1.5618054979272e-14
outer loop
vertex 0.8 18.15 6.40000000000002
vertex 11.2681511447983 18.1500000000001 2.39729845415854
vertex 11.1982934876698 18.1500000000001 2.58071626780527
endloop
endfacet
facet normal 6.90102622558328e-16 -1.0 -1.5618054979272e-14
outer loop
vertex 0.8 18.15 6.40000000000002
vertex 11.1982934876698 18.1500000000001 2.58071626780527
vertex 11.1467503038336 18.1500000000001 2.77009812232795
endloop
endfacet
facet normal 6.90102622558328e-16 -1.0 -1.5618054979272e-14
outer loop
vertex 0.8 18.15 6.40000000000002
vertex 11.1467503038336 18.1500000000001 2.77009812232795
vertex 11.1140179823264 18.1500000000001 2.96362016694089
endloop
endfacet
facet normal 6.90102622558328e-16 -1.0 -1.5618054979272e-14
outer loop
vertex 0.8 18.15 6.40000000000002
vertex 11.1140179823264 18.1500000000001 2.96362016694089
vertex 11.1004117532975 18.1500000000001 3.15941867856455
endloop
endfacet
facet normal 6.90102622558328e-16 -1.0 -1.5618054979272e-14
outer loop
vertex 0.8 18.15 6.40000000000002
vertex 11.1004117532975 18.1500000000001 3.15941867856455
vertex 11.1060626521706 18.1500000000001 3.35560801049764
endloop
endfacet
facet normal 6.90102622558328e-16 -1.0 -1.5618054979272e-14
outer loop
vertex 0.8 18.15 6.40000000000002
vertex 11.1060626521706 18.1500000000001 3.35560801049764
vertex 11.1309162577002 18.1500000000001 3.55029875222564
endloop
endfacet
facet normal 6.90102622558328e-16 -1.0 -1.5618054979272e-14
outer loop
vertex 0.8 18.15 6.40000000000002
vertex 11.1309162577002 18.1500000000001 3.55029875222564
vertex 11.101580629002 18.15 6.40000000000002
endloop
endfacet
facet normal 0.98950534720898 -9.34912542155527e-31 0.144496255469944
outer loop
vertex 11.120989305582 0.800000000000004 2.91100748906012
vertex 11.1021925634953 2.8199664825479e-15 3.10637603593846
vertex 11.120989305582 2.8199664825479e-15 2.91100748906013
endloop
endfacet
facet normal 0.99890371825234 -1.12870719784362e-16 0.0468119820307805
outer loop
vertex 11.1021925634953 2.8199664825479e-15 3.10637603593846
vertex 11.120989305582 0.800000000000004 2.91100748906012
vertex 11.1021925634953 0.800000000000004 3.10637603593846
endloop
endfacet
facet normal 7.58718787359753e-45 -4.44089209850062e-16 -1.0
outer loop
vertex 26.2 13.1 5.4
vertex 25.4 6.75000000000001 5.4
vertex 25.4 13.1 5.4
endloop
endfacet
facet normal 7.58718787359753e-45 -4.44089209850062e-16 -1.0
outer loop
vertex 25.4 6.75000000000001 5.4
vertex 26.2 13.1 5.4
vertex 26.2 6.75000000000001 5.4
endloop
endfacet
facet normal 3.74526798463407e-15 1.0 -6.80957815387986e-16
outer loop
vertex 2.53796983429311e-14 6.75000000000001 5.40000000000001
vertex 0.799999999999996 6.75000000000001 1.0
vertex 2.53796983429311e-14 6.75000000000001 1.0
endloop
endfacet
facet normal 3.74526798463407e-15 1.0 -6.80957815387986e-16
outer loop
vertex 0.799999999999996 6.75000000000001 1.0
vertex 2.53796983429311e-14 6.75000000000001 5.40000000000001
vertex 0.799999999999996 6.75000000000001 5.40000000000001
endloop
endfacet
facet normal 1.45970784649754e-16 -2.35942779625555e-16 1.0
outer loop
vertex 0.0 8.45989944764369e-15 6.40000000000002
vertex 0.8 0.800000000000008 6.40000000000002
vertex 5.63993296509579e-15 18.9500000000002 6.40000000000003
endloop
endfacet
facet normal 1.45970784649754e-16 -2.35942779625555e-16 1.0
outer loop
vertex 0.8 0.800000000000008 6.40000000000002
vertex 0.0 8.45989944764369e-15 6.40000000000002
vertex 11.120989305582 8.45989944764369e-15 6.40000000000002
endloop
endfacet
facet normal 1.45970784649754e-16 -2.35942779625555e-16 1.0
outer loop
vertex 0.8 0.800000000000008 6.40000000000002
vertex 11.120989305582 8.45989944764369e-15 6.40000000000002
vertex 11.120989305582 0.800000000000007 6.40000000000001
endloop
endfacet
facet normal 1.45970784649754e-16 -2.35942779625555e-16 1.0
outer loop
vertex 5.63993296509579e-15 18.9500000000002 6.40000000000003
vertex 0.8 18.15 6.40000000000002
vertex 11.101580629002 18.9500000000002 6.40000000000002
endloop
endfacet
facet normal 1.45970784649754e-16 -2.35942779625555e-16 1.0
outer loop
vertex 0.8 18.15 6.40000000000002
vertex 5.63993296509579e-15 18.9500000000002 6.40000000000003
vertex 0.8 0.800000000000008 6.40000000000002
endloop
endfacet
facet normal 1.45970784649754e-16 -2.35942779625555e-16 1.0
outer loop
vertex 11.101580629002 18.9500000000002 6.40000000000002
vertex 0.8 18.15 6.40000000000002
vertex 11.101580629002 18.15 6.40000000000002
endloop
endfacet
facet normal -0.801860223130681 8.14262190149407e-16 0.597511658932957
outer loop
vertex 14.7037204462613 2.8199664825479e-15 2.0049766821341
vertex 14.5788653257268 0.800000000000001 1.85353895401214
vertex 14.5788653257268 0.0 1.85353895401214
endloop
endfacet
facet normal -0.739432662863434 8.9015294650027e-16 0.673230522993938
outer loop
vertex 14.5788653257268 0.800000000000001 1.85353895401214
vertex 14.7037204462613 2.8199664825479e-15 2.0049766821341
vertex 14.7037204462613 0.800000000000003 2.0049766821341
endloop
endfacet
facet normal -0.996968673914703 -7.80071767398024e-15 0.077804005248816
outer loop
vertex 15.0939373478294 18.9500000000002 3.04439198950236
vertex 15.0690837422997 18.1500000000001 2.84970124777434
vertex 15.0939373478294 18.1500000000001 3.04439198950235
endloop
endfacet
facet normal -0.984541871149871 -8.87479797382441e-15 0.175149376112824
outer loop
vertex 15.0690837422997 18.1500000000001 2.84970124777434
vertex 15.0939373478294 18.9500000000002 3.04439198950236
vertex 15.0690837422997 18.9500000000002 2.84970124777436
endloop
endfacet
facet normal 0.74246580909325 6.39761697605628e-16 0.669883961837799
outer loop
vertex 11.6150683818135 0.800000000000003 1.86023207632441
vertex 11.4908985128442 2.8199664825479e-15 2.01223217587233
vertex 11.6150683818135 2.8199664825479e-15 1.86023207632442
endloop
endfacet
facet normal 0.804550743577894 5.42832496547585e-16 0.593883912063846
outer loop
vertex 11.4908985128442 2.8199664825479e-15 2.01223217587233
vertex 11.6150683818135 0.800000000000003 1.86023207632441
vertex 11.4908985128442 0.800000000000003 2.01223217587232
endloop
endfacet
facet normal 0.942302458413099 2.24654432835791e-16 0.334762717261987
outer loop
vertex 11.2153950831738 0.800000000000003 2.53047456547604
vertex 11.1588450024933 2.8199664825479e-15 2.71842209804152
vertex 11.2153950831738 2.8199664825479e-15 2.53047456547604
endloop
endfacet
facet normal 0.970577498753353 1.12870719784362e-16 0.240788950979246
outer loop
vertex 11.1588450024933 2.8199664825479e-15 2.71842209804152
vertex 11.2153950831738 0.800000000000003 2.53047456547604
vertex 11.1588450024933 0.800000000000004 2.71842209804152
endloop
endfacet
facet normal 1.99087515256886e-17 1.0 -1.23034867306864e-15
outer loop
vertex 0.8 0.8 1.55098156540134e-14
vertex 12.9973537672292 0.800000000000001 1.20263579913479
vertex 25.4 0.8 1.55098156540134e-14
endloop
endfacet
facet normal 1.99087515256886e-17 1.0 -1.23034867306864e-15
outer loop
vertex 12.9973537672292 0.800000000000001 1.20263579913479
vertex 0.8 0.8 1.55098156540134e-14
vertex 12.8020721097306 0.800000000000001 1.22231474389892
endloop
endfacet
facet normal 1.99087515256886e-17 1.0 -1.23034867306864e-15
outer loop
vertex 12.8020721097306 0.800000000000001 1.22231474389892
vertex 0.8 0.8 1.55098156540134e-14
vertex 12.6096596606793 0.800000000000001 1.26103987879203
endloop
endfacet
facet normal 1.99087515256886e-17 1.0 -1.23034867306864e-15
outer loop
vertex 12.6096596606793 0.800000000000001 1.26103987879203
vertex 0.8 0.8 1.55098156540134e-14
vertex 12.4219694571429 0.800000000000001 1.3184382595958
endloop
endfacet
facet normal 1.99087515256886e-17 1.0 -1.23034867306864e-15
outer loop
vertex 12.4219694571429 0.800000000000001 1.3184382595958
vertex 0.8 0.8 1.55098156540134e-14
vertex 12.2408090583834 0.800000000000001 1.39395710852593
endloop
endfacet
facet normal 1.99087515256886e-17 1.0 -1.23034867306864e-15
outer loop
vertex 12.2408090583834 0.800000000000001 1.39395710852593
vertex 0.8 0.8 1.55098156540134e-14
vertex 0.8 0.800000000000008 6.40000000000002
endloop
endfacet
facet normal 1.99087515256886e-17 1.0 -1.23034867306864e-15
outer loop
vertex 25.4 0.8 1.55098156540134e-14
vertex 12.9973537672292 0.800000000000001 1.20263579913479
vertex 13.1936239640615 0.800000000000001 1.20219256349534
endloop
endfacet
facet normal 1.99087515256886e-17 1.0 -1.23034867306864e-15
outer loop
vertex 12.2408090583834 0.800000000000001 1.39395710852593
vertex 0.8 0.800000000000008 6.40000000000002
vertex 12.0679231380733 0.800000000000001 1.48686913778443
endloop
endfacet
facet normal 1.99087515256886e-17 1.0 -1.23034867306864e-15
outer loop
vertex 12.0679231380733 0.800000000000001 1.48686913778443
vertex 0.8 0.800000000000008 6.40000000000002
vertex 11.9049766821341 0.800000000000003 1.59627955373865
endloop
endfacet
facet normal 1.99087515256886e-17 1.0 -1.23034867306864e-15
outer loop
vertex 11.9049766821341 0.800000000000003 1.59627955373865
vertex 0.8 0.800000000000008 6.40000000000002
vertex 11.7535389540121 0.800000000000003 1.72113467427315
endloop
endfacet
facet normal 1.99087515256886e-17 1.0 -1.23034867306864e-15
outer loop
vertex 11.7535389540121 0.800000000000003 1.72113467427315
vertex 0.8 0.800000000000008 6.40000000000002
vertex 11.6150683818135 0.800000000000003 1.86023207632441
endloop
endfacet
facet normal 1.99087515256886e-17 1.0 -1.23034867306864e-15
outer loop
vertex 11.6150683818135 0.800000000000003 1.86023207632441
vertex 0.8 0.800000000000008 6.40000000000002
vertex 11.4908985128442 0.800000000000003 2.01223217587232
endloop
endfacet
facet normal 1.99087515256886e-17 1.0 -1.23034867306864e-15
outer loop
vertex 11.4908985128442 0.800000000000003 2.01223217587232
vertex 0.8 0.800000000000008 6.40000000000002
vertex 11.3822251708206 0.800000000000003 2.17567112886652
endloop
endfacet
facet normal 1.99087515256886e-17 1.0 -1.23034867306864e-15
outer loop
vertex 11.3822251708206 0.800000000000003 2.17567112886652
vertex 0.8 0.800000000000008 6.40000000000002
vertex 11.2900949394332 0.800000000000003 2.34897492884486
endloop
endfacet
facet normal 1.99087515256886e-17 1.0 -1.23034867306864e-15
outer loop
vertex 11.2900949394332 0.800000000000003 2.34897492884486
vertex 0.8 0.800000000000008 6.40000000000002
vertex 11.2153950831738 0.800000000000003 2.53047456547604
endloop
endfacet
facet normal 1.99087515256886e-17 1.0 -1.23034867306864e-15
outer loop
vertex 11.2153950831738 0.800000000000003 2.53047456547604
vertex 0.8 0.800000000000008 6.40000000000002
vertex 11.1588450024933 0.800000000000004 2.71842209804152
endloop
endfacet
facet normal 1.99087515256886e-17 1.0 -1.23034867306864e-15
outer loop
vertex 11.1588450024933 0.800000000000004 2.71842209804152
vertex 0.8 0.800000000000008 6.40000000000002
vertex 11.120989305582 0.800000000000004 2.91100748906012
endloop
endfacet
facet normal 1.99087515256886e-17 1.0 -1.23034867306864e-15
outer loop
vertex 11.120989305582 0.800000000000004 2.91100748906012
vertex 0.8 0.800000000000008 6.40000000000002
vertex 11.1021925634953 0.800000000000004 3.10637603593846
endloop
endfacet
facet normal 1.99087515256886e-17 1.0 -1.23034867306864e-15
outer loop
vertex 11.1021925634953 0.800000000000004 3.10637603593846
vertex 0.8 0.800000000000008 6.40000000000002
vertex 11.1026357991348 0.800000000000004 3.30264623277076
endloop
endfacet
facet normal 1.99087515256886e-17 1.0 -1.23034867306864e-15
outer loop
vertex 11.1026357991348 0.800000000000004 3.30264623277076
vertex 0.8 0.800000000000008 6.40000000000002
vertex 11.1223147438989 0.800000000000004 3.49792789026935
endloop
endfacet
facet normal 1.99087515256886e-17 1.0 -1.23034867306864e-15
outer loop
vertex 11.1223147438989 0.800000000000004 3.49792789026935
vertex 0.8 0.800000000000008 6.40000000000002
vertex 11.120989305582 0.800000000000007 6.40000000000001
endloop
endfacet
facet normal 1.99087515256886e-17 1.0 -1.23034867306864e-15
outer loop
vertex 25.4 0.8 1.55098156540134e-14
vertex 13.9510250711551 0.800000000000001 1.3900949394332
vertex 25.4 0.800000000000008 6.40000000000002
endloop
endfacet
facet normal 1.99087515256886e-17 1.0 -1.23034867306864e-15
outer loop
vertex 13.9510250711551 0.800000000000001 1.3900949394332
vertex 25.4 0.8 1.55098156540134e-14
vertex 13.769525434524 0.800000000000001 1.31539508317382
endloop
endfacet
facet normal 1.99087515256886e-17 1.0 -1.23034867306864e-15
outer loop
vertex 13.769525434524 0.800000000000001 1.31539508317382
vertex 25.4 0.8 1.55098156540134e-14
vertex 13.5815779019585 0.800000000000001 1.25884500249331
endloop
endfacet
facet normal 1.99087515256886e-17 1.0 -1.23034867306864e-15
outer loop
vertex 13.5815779019585 0.800000000000001 1.25884500249331
vertex 25.4 0.8 1.55098156540134e-14
vertex 13.3889925109399 0.800000000000001 1.22098930558205
endloop
endfacet
facet normal 1.99087515256886e-17 1.0 -1.23034867306864e-15
outer loop
vertex 13.3889925109399 0.800000000000001 1.22098930558205
vertex 25.4 0.8 1.55098156540134e-14
vertex 13.1936239640615 0.800000000000001 1.20219256349534
endloop
endfacet
facet normal 1.99087515256886e-17 1.0 -1.23034867306864e-15
outer loop
vertex 25.4 0.800000000000008 6.40000000000002
vertex 13.9510250711551 0.800000000000001 1.3900949394332
vertex 14.1243288711335 0.800000000000001 1.4822251708206
endloop
endfacet
facet normal 1.99087515256886e-17 1.0 -1.23034867306864e-15
outer loop
vertex 25.4 0.800000000000008 6.40000000000002
vertex 14.1243288711335 0.800000000000001 1.4822251708206
vertex 14.2877678241277 0.800000000000001 1.59089851284423
endloop
endfacet
facet normal 1.99087515256886e-17 1.0 -1.23034867306864e-15
outer loop
vertex 25.4 0.800000000000008 6.40000000000002
vertex 14.2877678241277 0.800000000000001 1.59089851284423
vertex 14.4397679236756 0.800000000000001 1.71506838181352
endloop
endfacet
facet normal 1.99087515256886e-17 1.0 -1.23034867306864e-15
outer loop
vertex 25.4 0.800000000000008 6.40000000000002
vertex 14.4397679236756 0.800000000000001 1.71506838181352
vertex 14.5788653257268 0.800000000000001 1.85353895401214
endloop
endfacet
facet normal 1.99087515256886e-17 1.0 -1.23034867306864e-15
outer loop
vertex 25.4 0.800000000000008 6.40000000000002
vertex 14.5788653257268 0.800000000000001 1.85353895401214
vertex 14.7037204462613 0.800000000000003 2.0049766821341
endloop
endfacet
facet normal 1.99087515256886e-17 1.0 -1.23034867306864e-15
outer loop
vertex 25.4 0.800000000000008 6.40000000000002
vertex 14.7037204462613 0.800000000000003 2.0049766821341
vertex 14.8131308622156 0.800000000000003 2.16792313807331
endloop
endfacet
facet normal 1.99087515256886e-17 1.0 -1.23034867306864e-15
outer loop
vertex 25.4 0.800000000000008 6.40000000000002
vertex 14.8131308622156 0.800000000000003 2.16792313807331
vertex 14.9060428914741 0.800000000000003 2.34080905838347
endloop
endfacet
facet normal 1.99087515256886e-17 1.0 -1.23034867306864e-15
outer loop
vertex 25.4 0.800000000000008 6.40000000000002
vertex 14.9060428914741 0.800000000000003 2.34080905838347
vertex 14.9815617404042 0.800000000000003 2.52196945714295
endloop
endfacet
facet normal 1.99087515256886e-17 1.0 -1.23034867306864e-15
outer loop
vertex 25.4 0.800000000000008 6.40000000000002
vertex 14.9815617404042 0.800000000000003 2.52196945714295
vertex 15.038960121208 0.800000000000003 2.70965966067934
endloop
endfacet
facet normal 1.99087515256886e-17 1.0 -1.23034867306864e-15
outer loop
vertex 25.4 0.800000000000008 6.40000000000002
vertex 15.038960121208 0.800000000000003 2.70965966067934
vertex 15.0776852561011 0.800000000000003 2.90207210973068
endloop
endfacet
facet normal 1.99087515256886e-17 1.0 -1.23034867306864e-15
outer loop
vertex 25.4 0.800000000000008 6.40000000000002
vertex 15.0776852561011 0.800000000000003 2.90207210973068
vertex 15.0973642008652 0.800000000000003 3.09735376722927
endloop
endfacet
facet normal 1.99087515256886e-17 1.0 -1.23034867306864e-15
outer loop
vertex 25.4 0.800000000000008 6.40000000000002
vertex 15.0973642008652 0.800000000000003 3.09735376722927
vertex 15.0978074365047 0.800000000000004 3.29362396406157
endloop
endfacet
facet normal 1.99087515256886e-17 1.0 -1.23034867306864e-15
outer loop
vertex 25.4 0.800000000000008 6.40000000000002
vertex 15.0978074365047 0.800000000000004 3.29362396406157
vertex 15.0790106944179 0.800000000000004 3.48899251093991
endloop
endfacet
facet normal 1.99087515256886e-17 1.0 -1.23034867306864e-15
outer loop
vertex 25.4 0.800000000000008 6.40000000000002
vertex 15.0790106944179 0.800000000000004 3.48899251093991
vertex 15.0973642008652 0.800000000000007 6.40000000000001
endloop
endfacet
facet normal 5.79385255802035e-44 -1.33226762955018e-15 -1.0
outer loop
vertex 0.799999999999996 13.1 5.4
vertex 2.53796983429311e-14 6.75000000000001 5.40000000000001
vertex 2.25597318603832e-14 13.1 5.4
endloop
endfacet
facet normal 5.79385255802035e-44 -1.33226762955018e-15 -1.0
outer loop
vertex 2.53796983429311e-14 6.75000000000001 5.40000000000001
vertex 0.799999999999996 13.1 5.4
vertex 0.799999999999996 6.75000000000001 5.40000000000001
endloop
endfacet
facet normal -0.401350772920725 -1.90645719100364e-14 0.915924427600846
outer loop
vertex 13.9027015458414 18.1500000000002 1.3681511447983
vertex 13.7192837321947 18.9500000000003 1.29829348766984
vertex 13.7192837321947 18.1500000000002 1.29829348766983
endloop
endfacet
facet normal -0.309641866097366 -1.91751674491277e-14 0.950853256165083
outer loop
vertex 13.7192837321947 18.9500000000003 1.29829348766984
vertex 13.9027015458414 18.1500000000002 1.3681511447983
vertex 13.9027015458414 18.9500000000003 1.36815114479832
endloop
endfacet
facet normal 0.950853256165084 -1.86312992359774e-16 0.309641866097363
outer loop
vertex 11.1982934876698 18.1500000000001 2.58071626780527
vertex 11.1467503038336 18.9500000000002 2.77009812232797
vertex 11.1467503038336 18.1500000000001 2.77009812232795
endloop
endfacet
facet normal 0.97662484808319 1.69407923432693e-15 0.21495093883602
outer loop
vertex 11.1467503038336 18.9500000000002 2.77009812232797
vertex 11.1982934876698 18.1500000000001 2.58071626780527
vertex 11.1982934876698 18.9500000000002 2.58071626780528
endloop
endfacet
facet normal 0.858887414589709 4.40675521805361e-16 0.512164435566747
outer loop
vertex 11.3822251708206 0.800000000000003 2.17567112886652
vertex 11.2900949394332 2.8199664825479e-15 2.34897492884486
vertex 11.3822251708206 2.8199664825479e-15 2.17567112886652
endloop
endfacet
facet normal 0.904952530283406 3.34274600890404e-16 0.425512535577579
outer loop
vertex 11.2900949394332 2.8199664825479e-15 2.34897492884486
vertex 11.3822251708206 0.800000000000003 2.17567112886652
vertex 11.2900949394332 0.800000000000003 2.34897492884486
endloop
endfacet
facet normal -0.334762717261986 1.12941410227651e-15 0.9423024584131
outer loop
vertex 13.769525434524 0.0 1.31539508317382
vertex 13.5815779019585 0.800000000000001 1.25884500249331
vertex 13.5815779019585 0.0 1.25884500249331
endloop
endfacet
facet normal -0.240788950979245 1.14599564974269e-15 0.970577498753353
outer loop
vertex 13.5815779019585 0.800000000000001 1.25884500249331
vertex 13.769525434524 0.0 1.31539508317382
vertex 13.769525434524 0.800000000000001 1.31539508317382
endloop
endfacet
facet normal 3.7937776853379e-16 2.29162488410252e-16 1.0
outer loop
vertex 26.2 8.45989944764369e-15 6.40000000000002
vertex 15.0973642008652 0.800000000000007 6.40000000000001
vertex 15.0973642008652 8.45989944764369e-15 6.40000000000002
endloop
endfacet
facet normal 3.7937776853379e-16 2.29162488410252e-16 1.0
outer loop
vertex 15.0973642008652 0.800000000000007 6.40000000000001
vertex 26.2 8.45989944764369e-15 6.40000000000002
vertex 25.4 0.800000000000008 6.40000000000002
endloop
endfacet
facet normal 3.7937776853379e-16 2.29162488410252e-16 1.0
outer loop
vertex 25.4 0.800000000000008 6.40000000000002
vertex 26.2 8.45989944764369e-15 6.40000000000002
vertex 25.4 18.15 6.4
endloop
endfacet
facet normal 3.7937776853379e-16 2.29162488410252e-16 1.0
outer loop
vertex 15.0995882467024 18.1500000000001 6.40000000000002
vertex 26.2 18.9500000000002 6.40000000000001
vertex 15.0995882467024 18.9500000000002 6.40000000000002
endloop
endfacet
facet normal 3.7937776853379e-16 2.29162488410252e-16 1.0
outer loop
vertex 26.2 18.9500000000002 6.40000000000001
vertex 15.0995882467024 18.1500000000001 6.40000000000002
vertex 25.4 18.15 6.4
endloop
endfacet
facet normal 3.7937776853379e-16 2.29162488410252e-16 1.0
outer loop
vertex 26.2 18.9500000000002 6.40000000000001
vertex 25.4 18.15 6.4
vertex 26.2 8.45989944764369e-15 6.40000000000002
endloop
endfacet
facet normal -0.118189916529549 -1.88430698450468e-14 0.992991008836806
outer loop
vertex 13.3363798330591 18.1500000000002 1.21401798232638
vertex 13.529901877672 18.9500000000003 1.24675030383363
vertex 13.3363798330591 18.9500000000003 1.2140179823264
endloop
endfacet
facet normal -0.214950938836021 -1.91010956434711e-14 0.97662484808319
outer loop
vertex 13.529901877672 18.9500000000003 1.24675030383363
vertex 13.3363798330591 18.1500000000002 1.21401798232638
vertex 13.529901877672 18.1500000000002 1.24675030383361
endloop
endfacet
facet normal 0.516038430963353 8.90152946500272e-16 0.856565431107794
outer loop
vertex 12.0679231380733 0.0 1.48686913778443
vertex 11.9049766821341 0.800000000000003 1.59627955373865
vertex 11.9049766821341 2.8199664825479e-15 1.59627955373866
endloop
endfacet
facet normal 0.597511658932957 8.14262190149407e-16 0.801860223130681
outer loop
vertex 11.9049766821341 0.800000000000003 1.59627955373865
vertex 12.0679231380733 0.0 1.48686913778443
vertex 12.0679231380733 0.800000000000001 1.48686913778443
endloop
endfacet
facet normal 0.363858520644255 -1.49408005942621e-14 0.931454226977673
outer loop
vertex 12.3722829587115 18.1500000000002 1.33709154604465
vertex 12.558384074523 18.9500000000002 1.27473321607895
vertex 12.3722829587115 18.9500000000002 1.33709154604466
endloop
endfacet
facet normal 0.270807962738472 -1.60470789973425e-14 0.962633391960531
outer loop
vertex 12.558384074523 18.9500000000002 1.27473321607895
vertex 12.3722829587115 18.1500000000002 1.33709154604465
vertex 12.558384074523 18.1500000000002 1.27473321607893
endloop
endfacet
facet normal 0.148963945134667 1.10195567960485e-15 0.988842628050549
outer loop
vertex 12.8020721097306 0.0 1.22231474389892
vertex 12.6096596606793 0.800000000000001 1.26103987879203
vertex 12.6096596606793 0.0 1.26103987879203
endloop
endfacet
facet normal 0.245170169660338 1.06388482134834e-15 0.969480060603992
outer loop
vertex 12.6096596606793 0.800000000000001 1.26103987879203
vertex 12.8020721097306 0.0 1.22231474389892
vertex 12.8020721097306 0.800000000000001 1.22231474389892
endloop
endfacet
facet normal -0.891304648604343 -1.3427147753345e-14 0.453404922090938
outer loop
vertex 14.8826092972087 18.9500000000002 2.29319015581813
vertex 14.7851426384565 18.1500000000002 2.12283042743691
vertex 14.8826092972087 18.1500000000002 2.29319015581812
endloop
endfacet
facet normal -0.842571319228271 -1.47044091720511e-14 0.53858478628154
outer loop
vertex 14.7851426384565 18.1500000000002 2.12283042743691
vertex 14.8826092972087 18.9500000000002 2.29319015581813
vertex 14.7851426384565 18.9500000000002 2.12283042743693
endloop
endfacet
facet normal -0.903021445737044 6.39761697605628e-16 0.42959547080827
outer loop
vertex 14.9060428914741 0.800000000000003 2.34080905838347
vertex 14.8131308622156 2.8199664825479e-15 2.16792313807331
vertex 14.9060428914741 2.8199664825479e-15 2.34080905838347
endloop
endfacet
facet normal -0.856565431107793 7.30529643786412e-16 0.516038430963354
outer loop
vertex 14.8131308622156 2.8199664825479e-15 2.16792313807331
vertex 14.9060428914741 0.800000000000003 2.34080905838347
vertex 14.8131308622156 0.800000000000003 2.16792313807331
endloop
endfacet
facet normal 4.02065533644525e-15 1.0 -7.31028242990045e-16
outer loop
vertex 25.4 6.75000000000001 5.4
vertex 26.2 6.75000000000001 1.00000000000001
vertex 25.4 6.75000000000001 1.00000000000001
endloop
endfacet
facet normal 4.02065533644525e-15 1.0 -7.31028242990045e-16
outer loop
vertex 26.2 6.75000000000001 1.00000000000001
vertex 25.4 6.75000000000001 5.4
vertex 26.2 6.75000000000001 5.4
endloop
endfacet
facet normal 0.804550743577894 5.42832496547585e-16 0.593883912063846
outer loop
vertex 11.4908985128442 0.800000000000003 2.01223217587232
vertex 11.3822251708206 2.8199664825479e-15 2.17567112886652
vertex 11.4908985128442 2.8199664825479e-15 2.01223217587233
endloop
endfacet
facet normal 0.858887414589709 4.40675521805361e-16 0.512164435566747
outer loop
vertex 11.3822251708206 2.8199664825479e-15 2.17567112886652
vertex 11.4908985128442 0.800000000000003 2.01223217587232
vertex 11.3822251708206 0.800000000000003 2.17567112886652
endloop
endfacet
facet normal -0.0202906607177202 -1.8403574983345e-14 0.999794123351222
outer loop
vertex 13.1405813214354 18.1500000000002 1.20041175329755
vertex 13.3363798330591 18.9500000000003 1.2140179823264
vertex 13.1405813214354 18.9500000000003 1.20041175329756
endloop
endfacet
facet normal -0.118189916529549 -1.88430698450468e-14 0.992991008836806
outer loop
vertex 13.3363798330591 18.9500000000003 1.2140179823264
vertex 13.1405813214354 18.1500000000002 1.20041175329755
vertex 13.3363798330591 18.1500000000002 1.21401798232638
endloop
endfacet
facet normal -0.649947570240732 -1.76442458433153e-14 0.759979049670561
outer loop
vertex 14.3998951404814 18.1500000000002 1.68004190065887
vertex 14.5426177364007 18.9500000000003 1.8147729187523
vertex 14.3998951404814 18.9500000000003 1.68004190065888
endloop
endfacet
facet normal -0.721308868200365 -1.68231605841994e-14 0.692613540623852
outer loop
vertex 14.5426177364007 18.9500000000003 1.8147729187523
vertex 14.3998951404814 18.1500000000002 1.68004190065887
vertex 14.5426177364007 18.1500000000002 1.81477291875229
endloop
endfacet
facet normal -3.88291550912834e-31 8.88178419700123e-16 1.0
outer loop
vertex 2.53796983429311e-14 6.75000000000001 1.0
vertex 0.799999999999996 13.1 0.999999999999998
vertex 2.25597318603832e-14 13.1 0.999999999999998
endloop
endfacet
facet normal -3.88291550912834e-31 8.88178419700123e-16 1.0
outer loop
vertex 0.799999999999996 13.1 0.999999999999998
vertex 2.53796983429311e-14 6.75000000000001 1.0
vertex 0.799999999999996 6.75000000000001 1.0
endloop
endfacet
facet normal -1.0 0.0 0.0
outer loop
vertex 25.4 18.15 6.4
vertex 25.4 6.75000000000001 5.4
vertex 25.4 0.800000000000008 6.40000000000002
endloop
endfacet
facet normal -1.0 0.0 0.0
outer loop
vertex 25.4 6.75000000000001 5.4
vertex 25.4 18.15 6.4
vertex 25.4 13.1 5.4
endloop
endfacet
facet normal -1.0 0.0 0.0
outer loop
vertex 25.4 13.1 5.4
vertex 25.4 18.15 6.4
vertex 25.4 18.15 1.40998324127395e-15
endloop
endfacet
facet normal -1.0 0.0 0.0
outer loop
vertex 25.4 0.8 1.55098156540134e-14
vertex 25.4 6.75000000000001 1.00000000000001
vertex 25.4 18.15 1.40998324127395e-15
endloop
endfacet
facet normal -1.0 0.0 0.0
outer loop
vertex 25.4 6.75000000000001 1.00000000000001
vertex 25.4 0.8 1.55098156540134e-14
vertex 25.4 0.800000000000008 6.40000000000002
endloop
endfacet
facet normal -1.0 0.0 0.0
outer loop
vertex 25.4 6.75000000000001 1.00000000000001
vertex 25.4 0.800000000000008 6.40000000000002
vertex 25.4 6.75000000000001 5.4
endloop
endfacet
facet normal -1.0 0.0 0.0
outer loop
vertex 25.4 18.15 1.40998324127395e-15
vertex 25.4 6.75000000000001 1.00000000000001
vertex 25.4 13.1 0.999999999999998
endloop
endfacet
facet normal -1.0 0.0 0.0
outer loop
vertex 25.4 18.15 1.40998324127395e-15
vertex 25.4 13.1 0.999999999999998
vertex 25.4 13.1 5.4
endloop
endfacet
facet normal -0.425512535577581 1.10195567960484e-15 0.904952530283406
outer loop
vertex 13.9510250711551 0.0 1.3900949394332
vertex 13.769525434524 0.800000000000001 1.31539508317382
vertex 13.769525434524 0.0 1.31539508317382
endloop
endfacet
facet normal -0.334762717261986 1.12941410227651e-15 0.9423024584131
outer loop
vertex 13.769525434524 0.800000000000001 1.31539508317382
vertex 13.9510250711551 0.0 1.3900949394332
vertex 13.9510250711551 0.800000000000001 1.3900949394332
endloop
endfacet
facet normal -1.4130372116365e-17 -1.0 1.60602275057989e-15
outer loop
vertex 26.2 0.0 1.55098156540134e-14
vertex 13.1936239640615 0.0 1.20219256349534
vertex 0.0 0.0 1.55098156540134e-14
endloop
endfacet
facet normal -1.4130372116365e-17 -1.0 1.60602275057989e-15
outer loop
vertex 13.1936239640615 0.0 1.20219256349534
vertex 26.2 0.0 1.55098156540134e-14
vertex 13.3889925109399 0.0 1.22098930558206
endloop
endfacet
facet normal -1.4130372116365e-17 -1.0 1.60602275057989e-15
outer loop
vertex 13.3889925109399 0.0 1.22098930558206
vertex 26.2 0.0 1.55098156540134e-14
vertex 13.5815779019585 0.0 1.25884500249331
endloop
endfacet
facet normal -1.4130372116365e-17 -1.0 1.60602275057989e-15
outer loop
vertex 13.5815779019585 0.0 1.25884500249331
vertex 26.2 0.0 1.55098156540134e-14
vertex 13.769525434524 0.0 1.31539508317382
endloop
endfacet
facet normal -1.4130372116365e-17 -1.0 1.60602275057989e-15
outer loop
vertex 13.769525434524 0.0 1.31539508317382
vertex 26.2 0.0 1.55098156540134e-14
vertex 26.2 8.45989944764369e-15 6.40000000000002
endloop
endfacet
facet normal -1.4130372116365e-17 -1.0 1.60602275057989e-15
outer loop
vertex 13.769525434524 0.0 1.31539508317382
vertex 26.2 8.45989944764369e-15 6.40000000000002
vertex 13.9510250711551 0.0 1.3900949394332
endloop
endfacet
facet normal -1.4130372116365e-17 -1.0 1.60602275057989e-15
outer loop
vertex 13.9510250711551 0.0 1.3900949394332
vertex 26.2 8.45989944764369e-15 6.40000000000002
vertex 14.1243288711335 0.0 1.4822251708206
endloop
endfacet
facet normal -1.4130372116365e-17 -1.0 1.60602275057989e-15
outer loop
vertex 14.1243288711335 0.0 1.4822251708206
vertex 26.2 8.45989944764369e-15 6.40000000000002
vertex 14.2877678241277 0.0 1.59089851284423
endloop
endfacet
facet normal -1.4130372116365e-17 -1.0 1.60602275057989e-15
outer loop
vertex 14.2877678241277 0.0 1.59089851284423
vertex 26.2 8.45989944764369e-15 6.40000000000002
vertex 14.4397679236756 0.0 1.71506838181352
endloop
endfacet
facet normal -1.4130372116365e-17 -1.0 1.60602275057989e-15
outer loop
vertex 14.4397679236756 0.0 1.71506838181352
vertex 26.2 8.45989944764369e-15 6.40000000000002
vertex 14.5788653257268 0.0 1.85353895401214
endloop
endfacet
facet normal -1.4130372116365e-17 -1.0 1.60602275057989e-15
outer loop
vertex 14.5788653257268 0.0 1.85353895401214
vertex 26.2 8.45989944764369e-15 6.40000000000002
vertex 14.7037204462613 2.8199664825479e-15 2.0049766821341
endloop
endfacet
facet normal -1.4130372116365e-17 -1.0 1.60602275057989e-15
outer loop
vertex 14.7037204462613 2.8199664825479e-15 2.0049766821341
vertex 26.2 8.45989944764369e-15 6.40000000000002
vertex 14.8131308622156 2.8199664825479e-15 2.16792313807331
endloop
endfacet
facet normal -1.4130372116365e-17 -1.0 1.60602275057989e-15
outer loop
vertex 14.8131308622156 2.8199664825479e-15 2.16792313807331
vertex 26.2 8.45989944764369e-15 6.40000000000002
vertex 14.9060428914741 2.8199664825479e-15 2.34080905838347
endloop
endfacet
facet normal -1.4130372116365e-17 -1.0 1.60602275057989e-15
outer loop
vertex 14.9060428914741 2.8199664825479e-15 2.34080905838347
vertex 26.2 8.45989944764369e-15 6.40000000000002
vertex 14.9815617404042 2.8199664825479e-15 2.52196945714295
endloop
endfacet
facet normal -1.4130372116365e-17 -1.0 1.60602275057989e-15
outer loop
vertex 14.9815617404042 2.8199664825479e-15 2.52196945714295
vertex 26.2 8.45989944764369e-15 6.40000000000002
vertex 15.038960121208 2.8199664825479e-15 2.70965966067934
endloop
endfacet
facet normal -1.4130372116365e-17 -1.0 1.60602275057989e-15
outer loop
vertex 15.038960121208 2.8199664825479e-15 2.70965966067934
vertex 26.2 8.45989944764369e-15 6.40000000000002
vertex 15.0776852561011 2.8199664825479e-15 2.90207210973068
endloop
endfacet
facet normal -1.4130372116365e-17 -1.0 1.60602275057989e-15
outer loop
vertex 15.0776852561011 2.8199664825479e-15 2.90207210973068
vertex 26.2 8.45989944764369e-15 6.40000000000002
vertex 15.0973642008652 2.8199664825479e-15 3.09735376722927
endloop
endfacet
facet normal -1.4130372116365e-17 -1.0 1.60602275057989e-15
outer loop
vertex 15.0973642008652 2.8199664825479e-15 3.09735376722927
vertex 26.2 8.45989944764369e-15 6.40000000000002
vertex 15.0978074365047 2.8199664825479e-15 3.29362396406158
endloop
endfacet
facet normal -1.4130372116365e-17 -1.0 1.60602275057989e-15
outer loop
vertex 15.0978074365047 2.8199664825479e-15 3.29362396406158
vertex 26.2 8.45989944764369e-15 6.40000000000002
vertex 15.0973642008652 8.45989944764369e-15 3.48899251093991
endloop
endfacet
facet normal -1.4130372116365e-17 -1.0 1.60602275057989e-15
outer loop
vertex 15.0973642008652 8.45989944764369e-15 3.48899251093991
vertex 26.2 8.45989944764369e-15 6.40000000000002
vertex 15.0973642008652 8.45989944764369e-15 6.40000000000002
endloop
endfacet
facet normal -1.4130372116365e-17 -1.0 1.60602275057989e-15
outer loop
vertex 0.0 0.0 1.55098156540134e-14
vertex 12.4219694571429 0.0 1.3184382595958
vertex 0.0 8.45989944764369e-15 6.40000000000002
endloop
endfacet
facet normal -1.4130372116365e-17 -1.0 1.60602275057989e-15
outer loop
vertex 12.4219694571429 0.0 1.3184382595958
vertex 0.0 0.0 1.55098156540134e-14
vertex 12.6096596606793 0.0 1.26103987879203
endloop
endfacet
facet normal -1.4130372116365e-17 -1.0 1.60602275057989e-15
outer loop
vertex 12.6096596606793 0.0 1.26103987879203
vertex 0.0 0.0 1.55098156540134e-14
vertex 12.8020721097306 0.0 1.22231474389892
endloop
endfacet
facet normal -1.4130372116365e-17 -1.0 1.60602275057989e-15
outer loop
vertex 12.8020721097306 0.0 1.22231474389892
vertex 0.0 0.0 1.55098156540134e-14
vertex 12.9973537672292 0.0 1.20263579913479
endloop
endfacet
facet normal -1.4130372116365e-17 -1.0 1.60602275057989e-15
outer loop
vertex 12.9973537672292 0.0 1.20263579913479
vertex 0.0 0.0 1.55098156540134e-14
vertex 13.1936239640615 0.0 1.20219256349534
endloop
endfacet
facet normal -1.4130372116365e-17 -1.0 1.60602275057989e-15
outer loop
vertex 0.0 8.45989944764369e-15 6.40000000000002
vertex 12.4219694571429 0.0 1.3184382595958
vertex 12.2408090583834 0.0 1.39395710852593
endloop
endfacet
facet normal -1.4130372116365e-17 -1.0 1.60602275057989e-15
outer loop
vertex 0.0 8.45989944764369e-15 6.40000000000002
vertex 12.2408090583834 0.0 1.39395710852593
vertex 12.0679231380733 0.0 1.48686913778443
endloop
endfacet
facet normal -1.4130372116365e-17 -1.0 1.60602275057989e-15
outer loop
vertex 0.0 8.45989944764369e-15 6.40000000000002
vertex 12.0679231380733 0.0 1.48686913778443
vertex 11.9049766821341 2.8199664825479e-15 1.59627955373866
endloop
endfacet
facet normal -1.4130372116365e-17 -1.0 1.60602275057989e-15
outer loop
vertex 0.0 8.45989944764369e-15 6.40000000000002
vertex 11.9049766821341 2.8199664825479e-15 1.59627955373866
vertex 11.7535389540121 2.8199664825479e-15 1.72113467427315
endloop
endfacet
facet normal -1.4130372116365e-17 -1.0 1.60602275057989e-15
outer loop
vertex 0.0 8.45989944764369e-15 6.40000000000002
vertex 11.7535389540121 2.8199664825479e-15 1.72113467427315
vertex 11.6150683818135 2.8199664825479e-15 1.86023207632442
endloop
endfacet
facet normal -1.4130372116365e-17 -1.0 1.60602275057989e-15
outer loop
vertex 0.0 8.45989944764369e-15 6.40000000000002
vertex 11.6150683818135 2.8199664825479e-15 1.86023207632442
vertex 11.4908985128442 2.8199664825479e-15 2.01223217587233
endloop
endfacet
facet normal -1.4130372116365e-17 -1.0 1.60602275057989e-15
outer loop
vertex 0.0 8.45989944764369e-15 6.40000000000002
vertex 11.4908985128442 2.8199664825479e-15 2.01223217587233
vertex 11.3822251708206 2.8199664825479e-15 2.17567112886652
endloop
endfacet
facet normal -1.4130372116365e-17 -1.0 1.60602275057989e-15
outer loop
vertex 0.0 8.45989944764369e-15 6.40000000000002
vertex 11.3822251708206 2.8199664825479e-15 2.17567112886652
vertex 11.2900949394332 2.8199664825479e-15 2.34897492884486
endloop
endfacet
facet normal -1.4130372116365e-17 -1.0 1.60602275057989e-15
outer loop
vertex 0.0 8.45989944764369e-15 6.40000000000002
vertex 11.2900949394332 2.8199664825479e-15 2.34897492884486
vertex 11.2153950831738 2.8199664825479e-15 2.53047456547604
endloop
endfacet
facet normal -1.4130372116365e-17 -1.0 1.60602275057989e-15
outer loop
vertex 0.0 8.45989944764369e-15 6.40000000000002
vertex 11.2153950831738 2.8199664825479e-15 2.53047456547604
vertex 11.1588450024933 2.8199664825479e-15 2.71842209804152
endloop
endfacet
facet normal -1.4130372116365e-17 -1.0 1.60602275057989e-15
outer loop
vertex 0.0 8.45989944764369e-15 6.40000000000002
vertex 11.1588450024933 2.8199664825479e-15 2.71842209804152
vertex 11.120989305582 2.8199664825479e-15 2.91100748906013
endloop
endfacet
facet normal -1.4130372116365e-17 -1.0 1.60602275057989e-15
outer loop
vertex 0.0 8.45989944764369e-15 6.40000000000002
vertex 11.120989305582 2.8199664825479e-15 2.91100748906013
vertex 11.1021925634953 2.8199664825479e-15 3.10637603593846
endloop
endfacet
facet normal -1.4130372116365e-17 -1.0 1.60602275057989e-15
outer loop
vertex 0.0 8.45989944764369e-15 6.40000000000002
vertex 11.1021925634953 2.8199664825479e-15 3.10637603593846
vertex 11.1026357991348 2.8199664825479e-15 3.30264623277077
endloop
endfacet
facet normal -1.4130372116365e-17 -1.0 1.60602275057989e-15
outer loop
vertex 0.0 8.45989944764369e-15 6.40000000000002
vertex 11.1026357991348 2.8199664825479e-15 3.30264623277077
vertex 11.120989305582 8.45989944764369e-15 3.49792789026935
endloop
endfacet
facet normal -1.4130372116365e-17 -1.0 1.60602275057989e-15
outer loop
vertex 0.0 8.45989944764369e-15 6.40000000000002
vertex 11.120989305582 8.45989944764369e-15 3.49792789026935
vertex 11.120989305582 8.45989944764369e-15 6.40000000000002
endloop
endfacet
facet normal 0.970577498753353 1.12870719784362e-16 0.240788950979246
outer loop
vertex 11.1588450024933 0.800000000000004 2.71842209804152
vertex 11.120989305582 2.8199664825479e-15 2.91100748906013
vertex 11.1588450024933 2.8199664825479e-15 2.71842209804152
endloop
endfacet
facet normal 0.98950534720898 -1.0606150688319e-30 0.144496255469944
outer loop
vertex 11.120989305582 2.8199664825479e-15 2.91100748906013
vertex 11.1588450024933 0.800000000000004 2.71842209804152
vertex 11.120989305582 0.800000000000004 2.91100748906012
endloop
endfacet
facet normal -0.999929247346003 -0.0114701299299805 0.00315220897866801
outer loop
vertex 15.0973642008652 0.800000000000007 6.40000000000001
vertex 15.0973642008652 8.45989944764369e-15 3.48899251093991
vertex 15.0973642008652 8.45989944764369e-15 6.40000000000002
endloop
endfacet
facet normal -0.999669120053692 -0.0114671460250204 -0.0230250944214941
outer loop
vertex 15.0973642008652 8.45989944764369e-15 3.48899251093991
vertex 15.0973642008652 0.800000000000007 6.40000000000001
vertex 15.0790106944179 0.800000000000004 3.48899251093991
endloop
endfacet
facet normal -7.1084519998377e-16 1.0 5.55089277175617e-15
outer loop
vertex 5.63993296509579e-15 18.9500000000002 1.40998324127395e-14
vertex 12.9443919895023 18.9500000000003 1.2060626521706
vertex 13.1405813214354 18.9500000000003 1.20041175329756
endloop
endfacet
facet normal -7.1084519998377e-16 1.0 5.55089277175617e-15
outer loop
vertex 12.9443919895023 18.9500000000003 1.2060626521706
vertex 5.63993296509579e-15 18.9500000000002 1.40998324127395e-14
vertex 12.7497012477743 18.9500000000003 1.23091625770027
endloop
endfacet
facet normal -7.1084519998377e-16 1.0 5.55089277175617e-15
outer loop
vertex 12.7497012477743 18.9500000000003 1.23091625770027
vertex 5.63993296509579e-15 18.9500000000002 1.40998324127395e-14
vertex 12.558384074523 18.9500000000002 1.27473321607895
endloop
endfacet
facet normal -7.1084519998377e-16 1.0 5.55089277175617e-15
outer loop
vertex 12.558384074523 18.9500000000002 1.27473321607895
vertex 5.63993296509579e-15 18.9500000000002 1.40998324127395e-14
vertex 12.3722829587115 18.9500000000002 1.33709154604466
endloop
endfacet
facet normal -7.1084519998377e-16 1.0 5.55089277175617e-15
outer loop
vertex 12.3722829587115 18.9500000000002 1.33709154604466
vertex 5.63993296509579e-15 18.9500000000002 1.40998324127395e-14
vertex 5.63993296509579e-15 18.9500000000002 6.40000000000003
endloop
endfacet
facet normal -7.1084519998377e-16 1.0 5.55089277175617e-15
outer loop
vertex 12.3722829587115 18.9500000000002 1.33709154604466
vertex 5.63993296509579e-15 18.9500000000002 6.40000000000003
vertex 12.1931901558181 18.9500000000002 1.41739070279132
endloop
endfacet
facet normal -7.1084519998377e-16 1.0 5.55089277175617e-15
outer loop
vertex 12.1931901558181 18.9500000000002 1.41739070279132
vertex 5.63993296509579e-15 18.9500000000002 6.40000000000003
vertex 12.0228304274369 18.9500000000002 1.51485736154347
endloop
endfacet
facet normal -7.1084519998377e-16 1.0 5.55089277175617e-15
outer loop
vertex 12.0228304274369 18.9500000000002 1.51485736154347
vertex 5.63993296509579e-15 18.9500000000002 6.40000000000003
vertex 11.8628444308803 18.9500000000002 1.62855286509662
endloop
endfacet
facet normal -7.1084519998377e-16 1.0 5.55089277175617e-15
outer loop
vertex 11.8628444308803 18.9500000000002 1.62855286509662
vertex 5.63993296509579e-15 18.9500000000002 6.40000000000003
vertex 11.7147729187523 18.9500000000002 1.75738226359928
endloop
endfacet
facet normal -7.1084519998377e-16 1.0 5.55089277175617e-15
outer loop
vertex 11.7147729187523 18.9500000000002 1.75738226359928
vertex 5.63993296509579e-15 18.9500000000002 6.40000000000003
vertex 11.5800419006589 18.9500000000002 1.90010485951855
endloop
endfacet
facet normal -7.1084519998377e-16 1.0 5.55089277175617e-15
outer loop
vertex 11.5800419006589 18.9500000000002 1.90010485951855
vertex 5.63993296509579e-15 18.9500000000002 6.40000000000003
vertex 11.4599489099557 18.9500000000002 2.05534615623562
endloop
endfacet
facet normal -7.1084519998377e-16 1.0 5.55089277175617e-15
outer loop
vertex 11.4599489099557 18.9500000000002 2.05534615623562
vertex 5.63993296509579e-15 18.9500000000002 6.40000000000003
vertex 11.3556505077928 18.9500000000002 2.22161109519959
endloop
endfacet
facet normal -7.1084519998377e-16 1.0 5.55089277175617e-15
outer loop
vertex 11.3556505077928 18.9500000000002 2.22161109519959
vertex 5.63993296509579e-15 18.9500000000002 6.40000000000003
vertex 11.2681511447983 18.9500000000002 2.39729845415856
endloop
endfacet
facet normal -7.1084519998377e-16 1.0 5.55089277175617e-15
outer loop
vertex 11.2681511447983 18.9500000000002 2.39729845415856
vertex 5.63993296509579e-15 18.9500000000002 6.40000000000003
vertex 11.1982934876698 18.9500000000002 2.58071626780528
endloop
endfacet
facet normal -7.1084519998377e-16 1.0 5.55089277175617e-15
outer loop
vertex 11.1982934876698 18.9500000000002 2.58071626780528
vertex 5.63993296509579e-15 18.9500000000002 6.40000000000003
vertex 11.1467503038336 18.9500000000002 2.77009812232797
endloop
endfacet
facet normal -7.1084519998377e-16 1.0 5.55089277175617e-15
outer loop
vertex 11.1467503038336 18.9500000000002 2.77009812232797
vertex 5.63993296509579e-15 18.9500000000002 6.40000000000003
vertex 11.1140179823264 18.9500000000002 2.96362016694091
endloop
endfacet
facet normal -7.1084519998377e-16 1.0 5.55089277175617e-15
outer loop
vertex 11.1140179823264 18.9500000000002 2.96362016694091
vertex 5.63993296509579e-15 18.9500000000002 6.40000000000003
vertex 11.1004117532975 18.9500000000002 3.15941867856456
endloop
endfacet
facet normal -7.1084519998377e-16 1.0 5.55089277175617e-15
outer loop
vertex 11.1004117532975 18.9500000000002 3.15941867856456
vertex 5.63993296509579e-15 18.9500000000002 6.40000000000003
vertex 11.101580629002 18.9500000000002 3.19999999999994
endloop
endfacet
facet normal -7.1084519998377e-16 1.0 5.55089277175617e-15
outer loop
vertex 11.101580629002 18.9500000000002 3.19999999999994
vertex 5.63993296509579e-15 18.9500000000002 6.40000000000003
vertex 11.1060626521706 18.9500000000002 3.35560801049765
endloop
endfacet
facet normal -7.1084519998377e-16 1.0 5.55089277175617e-15
outer loop
vertex 11.1060626521706 18.9500000000002 3.35560801049765
vertex 5.63993296509579e-15 18.9500000000002 6.40000000000003
vertex 11.1309162577002 18.9500000000002 3.55029875222566
endloop
endfacet
facet normal -7.1084519998377e-16 1.0 5.55089277175617e-15
outer loop
vertex 11.1309162577002 18.9500000000002 3.55029875222566
vertex 5.63993296509579e-15 18.9500000000002 6.40000000000003
vertex 11.101580629002 18.9500000000002 6.40000000000002
endloop
endfacet
facet normal -7.1084519998377e-16 1.0 5.55089277175617e-15
outer loop
vertex 26.2 18.9500000000002 0.0
vertex 13.9027015458414 18.9500000000003 1.36815114479832
vertex 26.2 18.9500000000002 6.40000000000001
endloop
endfacet
facet normal -7.1084519998377e-16 1.0 5.55089277175617e-15
outer loop
vertex 13.9027015458414 18.9500000000003 1.36815114479832
vertex 26.2 18.9500000000002 0.0
vertex 13.7192837321947 18.9500000000003 1.29829348766984
endloop
endfacet
facet normal -7.1084519998377e-16 1.0 5.55089277175617e-15
outer loop
vertex 13.7192837321947 18.9500000000003 1.29829348766984
vertex 26.2 18.9500000000002 0.0
vertex 13.529901877672 18.9500000000003 1.24675030383363
endloop
endfacet
facet normal -7.1084519998377e-16 1.0 5.55089277175617e-15
outer loop
vertex 13.529901877672 18.9500000000003 1.24675030383363
vertex 26.2 18.9500000000002 0.0
vertex 13.3363798330591 18.9500000000003 1.2140179823264
endloop
endfacet
facet normal -7.1084519998377e-16 1.0 5.55089277175617e-15
outer loop
vertex 13.3363798330591 18.9500000000003 1.2140179823264
vertex 26.2 18.9500000000002 0.0
vertex 5.63993296509579e-15 18.9500000000002 1.40998324127395e-14
endloop
endfacet
facet normal -7.1084519998377e-16 1.0 5.55089277175617e-15
outer loop
vertex 13.3363798330591 18.9500000000003 1.2140179823264
vertex 5.63993296509579e-15 18.9500000000002 1.40998324127395e-14
vertex 13.1405813214354 18.9500000000003 1.20041175329756
endloop
endfacet
facet normal -7.1084519998377e-16 1.0 5.55089277175617e-15
outer loop
vertex 26.2 18.9500000000002 6.40000000000001
vertex 13.9027015458414 18.9500000000003 1.36815114479832
vertex 14.0783889048004 18.9500000000003 1.45565050779283
endloop
endfacet
facet normal -7.1084519998377e-16 1.0 5.55089277175617e-15
outer loop
vertex 26.2 18.9500000000002 6.40000000000001
vertex 14.0783889048004 18.9500000000003 1.45565050779283
vertex 14.2446538437644 18.9500000000003 1.55994890995573
endloop
endfacet
facet normal -7.1084519998377e-16 1.0 5.55089277175617e-15
outer loop
vertex 26.2 18.9500000000002 6.40000000000001
vertex 14.2446538437644 18.9500000000003 1.55994890995573
vertex 14.3998951404814 18.9500000000003 1.68004190065888
endloop
endfacet
facet normal -7.1084519998377e-16 1.0 5.55089277175617e-15
outer loop
vertex 26.2 18.9500000000002 6.40000000000001
vertex 14.3998951404814 18.9500000000003 1.68004190065888
vertex 14.5426177364007 18.9500000000003 1.8147729187523
endloop
endfacet
facet normal -7.1084519998377e-16 1.0 5.55089277175617e-15
outer loop
vertex 26.2 18.9500000000002 6.40000000000001
vertex 14.5426177364007 18.9500000000003 1.8147729187523
vertex 14.6714471349034 18.9500000000002 1.96284443088029
endloop
endfacet
facet normal -7.1084519998377e-16 1.0 5.55089277175617e-15
outer loop
vertex 26.2 18.9500000000002 6.40000000000001
vertex 14.6714471349034 18.9500000000002 1.96284443088029
vertex 14.7851426384565 18.9500000000002 2.12283042743693
endloop
endfacet
facet normal -7.1084519998377e-16 1.0 5.55089277175617e-15
outer loop
vertex 26.2 18.9500000000002 6.40000000000001
vertex 14.7851426384565 18.9500000000002 2.12283042743693
vertex 14.8826092972087 18.9500000000002 2.29319015581813
endloop
endfacet
facet normal -7.1084519998377e-16 1.0 5.55089277175617e-15
outer loop
vertex 26.2 18.9500000000002 6.40000000000001
vertex 14.8826092972087 18.9500000000002 2.29319015581813
vertex 14.9629084539553 18.9500000000002 2.47228295871149
endloop
endfacet
facet normal -7.1084519998377e-16 1.0 5.55089277175617e-15
outer loop
vertex 26.2 18.9500000000002 6.40000000000001
vertex 14.9629084539553 18.9500000000002 2.47228295871149
vertex 15.025266783921 18.9500000000002 2.65838407452306
endloop
endfacet
facet normal -7.1084519998377e-16 1.0 5.55089277175617e-15
outer loop
vertex 26.2 18.9500000000002 6.40000000000001
vertex 15.025266783921 18.9500000000002 2.65838407452306
vertex 15.0690837422997 18.9500000000002 2.84970124777436
endloop
endfacet
facet normal -7.1084519998377e-16 1.0 5.55089277175617e-15
outer loop
vertex 26.2 18.9500000000002 6.40000000000001
vertex 15.0690837422997 18.9500000000002 2.84970124777436
vertex 15.0939373478294 18.9500000000002 3.04439198950236
endloop
endfacet
facet normal -7.1084519998377e-16 1.0 5.55089277175617e-15
outer loop
vertex 26.2 18.9500000000002 6.40000000000001
vertex 15.0939373478294 18.9500000000002 3.04439198950236
vertex 15.098419370998 18.9500000000002 3.19999999999994
endloop
endfacet
facet normal -7.1084519998377e-16 1.0 5.55089277175617e-15
outer loop
vertex 26.2 18.9500000000002 6.40000000000001
vertex 15.098419370998 18.9500000000002 3.19999999999994
vertex 15.0995882467024 18.9500000000002 3.24058132143545
endloop
endfacet
facet normal -7.1084519998377e-16 1.0 5.55089277175617e-15
outer loop
vertex 26.2 18.9500000000002 6.40000000000001
vertex 15.0995882467024 18.9500000000002 3.24058132143545
vertex 15.0859820176736 18.9500000000002 3.43637983305911
endloop
endfacet
facet normal -7.1084519998377e-16 1.0 5.55089277175617e-15
outer loop
vertex 26.2 18.9500000000002 6.40000000000001
vertex 15.0859820176736 18.9500000000002 3.43637983305911
vertex 15.0995882467024 18.9500000000002 6.40000000000002
endloop
endfacet
facet normal -0.999475353999079 -6.2351416180317e-15 -0.032388528037204
outer loop
vertex 15.0859820176736 18.9500000000002 3.43637983305911
vertex 15.0995882467024 18.1500000000001 3.24058132143544
vertex 15.0859820176736 18.1500000000001 3.4363798330591
endloop
endfacet
facet normal -0.999794123351222 -6.69021991953171e-15 -0.0202906607177308
outer loop
vertex 15.0995882467024 18.1500000000001 3.24058132143544
vertex 15.0859820176736 18.9500000000002 3.43637983305911
vertex 15.0995882467024 18.9500000000002 3.24058132143545
endloop
endfacet
facet normal -0.988842628050549 3.34274600890404e-16 0.148963945134667
outer loop
vertex 15.0776852561011 0.800000000000003 2.90207210973068
vertex 15.038960121208 2.8199664825479e-15 2.70965966067934
vertex 15.0776852561011 2.8199664825479e-15 2.90207210973068
endloop
endfacet
facet normal -0.969480060603992 4.4067552180536e-16 0.245170169660339
outer loop
vertex 15.038960121208 2.8199664825479e-15 2.70965966067934
vertex 15.0776852561011 0.800000000000003 2.90207210973068
vertex 15.038960121208 0.800000000000003 2.70965966067934
endloop
endfacet
facet normal 0.429595470808271 9.5747104336924e-16 0.903021445737043
outer loop
vertex 12.2408090583834 0.0 1.39395710852593
vertex 12.0679231380733 0.800000000000001 1.48686913778443
vertex 12.0679231380733 0.0 1.48686913778443
endloop
endfacet
facet normal 0.516038430963353 8.90152946500272e-16 0.856565431107794
outer loop
vertex 12.0679231380733 0.800000000000001 1.48686913778443
vertex 12.2408090583834 0.0 1.39395710852593
vertex 12.2408090583834 0.800000000000001 1.39395710852593
endloop
endfacet
facet normal -0.999708064923045 -0.00573112154808574 -0.0234720935074556
outer loop
vertex 15.0978074365047 0.800000000000004 3.29362396406157
vertex 15.0973642008652 2.8199664825479e-15 3.09735376722927
vertex 15.0978074365047 2.8199664825479e-15 3.29362396406158
endloop
endfacet
facet normal -0.998682100432612 2.2465443283579e-16 0.0513231163853735
outer loop
vertex 15.0973642008652 2.8199664825479e-15 3.09735376722927
vertex 15.0978074365047 0.800000000000004 3.29362396406157
vertex 15.0973642008652 0.800000000000003 3.09735376722927
endloop
endfacet
facet normal -0.401350772920725 -1.90645719100364e-14 0.915924427600846
outer loop
vertex 13.9027015458414 18.1500000000002 1.3681511447983
vertex 14.0783889048004 18.9500000000003 1.45565050779283
vertex 13.9027015458414 18.9500000000003 1.36815114479832
endloop
endfacet
facet normal -0.489194452400209 -1.87703741216963e-14 0.872174746103589
outer loop
vertex 14.0783889048004 18.9500000000003 1.45565050779283
vertex 13.9027015458414 18.1500000000002 1.3681511447983
vertex 14.0783889048004 18.1500000000002 1.45565050779282
endloop
endfacet
facet normal 3.52495810318488e-15 -1.0 6.4090147330634e-16
outer loop
vertex 26.2 13.1 5.4
vertex 25.4 13.1 0.999999999999998
vertex 26.2 13.1 0.999999999999998
endloop
endfacet
facet normal 3.52495810318488e-15 -1.0 6.4090147330634e-16
outer loop
vertex 25.4 13.1 0.999999999999998
vertex 26.2 13.1 5.4
vertex 25.4 13.1 5.4
endloop
endfacet
facet normal 0.0513231163853744 1.12941410227651e-15 0.998682100432612
outer loop
vertex 12.9973537672292 0.0 1.20263579913479
vertex 12.8020721097306 0.800000000000001 1.22231474389892
vertex 12.8020721097306 0.0 1.22231474389892
endloop
endfacet
facet normal 0.148963945134667 1.10195567960485e-15 0.988842628050549
outer loop
vertex 12.8020721097306 0.800000000000001 1.22231474389892
vertex 12.9973537672292 0.0 1.20263579913479
vertex 12.9973537672292 0.800000000000001 1.20263579913479
endloop
endfacet
facet normal 1.0 4.68291970812317e-18 -1.8926015526668e-17
outer loop
vertex 26.2 0.0 1.55098156540134e-14
vertex 26.2 6.75000000000001 1.00000000000001
vertex 26.2 8.45989944764369e-15 6.40000000000002
endloop
endfacet
facet normal 1.0 4.68291970812317e-18 -1.8926015526668e-17
outer loop
vertex 26.2 6.75000000000001 1.00000000000001
vertex 26.2 0.0 1.55098156540134e-14
vertex 26.2 18.9500000000002 0.0
endloop
endfacet
facet normal 1.0 4.68291970812317e-18 -1.8926015526668e-17
outer loop
vertex 26.2 6.75000000000001 1.00000000000001
vertex 26.2 18.9500000000002 0.0
vertex 26.2 13.1 0.999999999999998
endloop
endfacet
facet normal 1.0 4.68291970812317e-18 -1.8926015526668e-17
outer loop
vertex 26.2 13.1 0.999999999999998
vertex 26.2 18.9500000000002 0.0
vertex 26.2 13.1 5.4
endloop
endfacet
facet normal 1.0 4.68291970812317e-18 -1.8926015526668e-17
outer loop
vertex 26.2 8.45989944764369e-15 6.40000000000002
vertex 26.2 6.75000000000001 5.4
vertex 26.2 18.9500000000002 6.40000000000001
endloop
endfacet
facet normal 1.0 4.68291970812317e-18 -1.8926015526668e-17
outer loop
vertex 26.2 6.75000000000001 5.4
vertex 26.2 8.45989944764369e-15 6.40000000000002
vertex 26.2 6.75000000000001 1.00000000000001
endloop
endfacet
facet normal 1.0 4.68291970812317e-18 -1.8926015526668e-17
outer loop
vertex 26.2 18.9500000000002 6.40000000000001
vertex 26.2 6.75000000000001 5.4
vertex 26.2 13.1 5.4
endloop
endfacet
facet normal 1.0 4.68291970812317e-18 -1.8926015526668e-17
outer loop
vertex 26.2 18.9500000000002 6.40000000000001
vertex 26.2 13.1 5.4
vertex 26.2 18.9500000000002 0.0
endloop
endfacet
facet normal 0.0778040052488217 -1.77868436341362e-14 0.996968673914703
outer loop
vertex 12.9443919895023 18.1500000000002 1.20606265217059
vertex 13.1405813214354 18.9500000000003 1.20041175329756
vertex 12.9443919895023 18.9500000000003 1.2060626521706
endloop
endfacet
facet normal -0.02029066071772 -1.8403574983345e-14 0.999794123351222
outer loop
vertex 13.1405813214354 18.9500000000003 1.20041175329756
vertex 12.9443919895023 18.1500000000002 1.20606265217059
vertex 13.1405813214354 18.1500000000002 1.20041175329755
endloop
endfacet
facet normal 0.597511658932957 8.14262190149407e-16 0.801860223130681
outer loop
vertex 11.9049766821341 2.8199664825479e-15 1.59627955373866
vertex 11.7535389540121 0.800000000000003 1.72113467427315
vertex 11.7535389540121 2.8199664825479e-15 1.72113467427315
endloop
endfacet
facet normal 0.673230522993938 7.30529643786413e-16 0.739432662863434
outer loop
vertex 11.7535389540121 0.800000000000003 1.72113467427315
vertex 11.9049766821341 2.8199664825479e-15 1.59627955373866
vertex 11.9049766821341 0.800000000000003 1.59627955373865
endloop
endfacet
endsolid Retainer
